G04 #@! TF.GenerationSoftware,KiCad,Pcbnew,(5.1.5)-3*
G04 #@! TF.CreationDate,2020-05-17T14:13:09+04:00*
G04 #@! TF.ProjectId,Lily60_Evo_TOP,4c696c79-3630-45f4-9576-6f5f544f502e,rev?*
G04 #@! TF.SameCoordinates,Original*
G04 #@! TF.FileFunction,Copper,L2,Bot*
G04 #@! TF.FilePolarity,Positive*
%FSLAX46Y46*%
G04 Gerber Fmt 4.6, Leading zero omitted, Abs format (unit mm)*
G04 Created by KiCad (PCBNEW (5.1.5)-3) date 2020-05-17 14:13:09*
%MOMM*%
%LPD*%
G04 APERTURE LIST*
%ADD10C,0.100000*%
%ADD11C,0.150000*%
%ADD12C,0.300000*%
%ADD13C,0.400000*%
%ADD14C,0.200000*%
%ADD15C,4.000000*%
%ADD16C,0.254000*%
G04 APERTURE END LIST*
D10*
D11*
X177002200Y-166007200D02*
X177002200Y-198007200D01*
X285002200Y-198007200D01*
X285002200Y-166007200D01*
X177002200Y-166007200D01*
D10*
D11*
X10000000Y-10000000D02*
X10000000Y-200007200D01*
X287002200Y-200007200D01*
X287002200Y-10000000D01*
X10000000Y-10000000D01*
D10*
D11*
X12000000Y-12000000D02*
X12000000Y-198007200D01*
X285002200Y-198007200D01*
X285002200Y-12000000D01*
X12000000Y-12000000D01*
D10*
D11*
X60000000Y-12000000D02*
X60000000Y-10000000D01*
D10*
D11*
X110000000Y-12000000D02*
X110000000Y-10000000D01*
D10*
D11*
X160000000Y-12000000D02*
X160000000Y-10000000D01*
D10*
D11*
X210000000Y-12000000D02*
X210000000Y-10000000D01*
D10*
D11*
X260000000Y-12000000D02*
X260000000Y-10000000D01*
D10*
D11*
X36065476Y-11588095D02*
X35322619Y-11588095D01*
X35694047Y-11588095D02*
X35694047Y-10288095D01*
X35570238Y-10473809D01*
X35446428Y-10597619D01*
X35322619Y-10659523D01*
D10*
D11*
X85322619Y-10411904D02*
X85384523Y-10350000D01*
X85508333Y-10288095D01*
X85817857Y-10288095D01*
X85941666Y-10350000D01*
X86003571Y-10411904D01*
X86065476Y-10535714D01*
X86065476Y-10659523D01*
X86003571Y-10845238D01*
X85260714Y-11588095D01*
X86065476Y-11588095D01*
D10*
D11*
X135260714Y-10288095D02*
X136065476Y-10288095D01*
X135632142Y-10783333D01*
X135817857Y-10783333D01*
X135941666Y-10845238D01*
X136003571Y-10907142D01*
X136065476Y-11030952D01*
X136065476Y-11340476D01*
X136003571Y-11464285D01*
X135941666Y-11526190D01*
X135817857Y-11588095D01*
X135446428Y-11588095D01*
X135322619Y-11526190D01*
X135260714Y-11464285D01*
D10*
D11*
X185941666Y-10721428D02*
X185941666Y-11588095D01*
X185632142Y-10226190D02*
X185322619Y-11154761D01*
X186127380Y-11154761D01*
D10*
D11*
X236003571Y-10288095D02*
X235384523Y-10288095D01*
X235322619Y-10907142D01*
X235384523Y-10845238D01*
X235508333Y-10783333D01*
X235817857Y-10783333D01*
X235941666Y-10845238D01*
X236003571Y-10907142D01*
X236065476Y-11030952D01*
X236065476Y-11340476D01*
X236003571Y-11464285D01*
X235941666Y-11526190D01*
X235817857Y-11588095D01*
X235508333Y-11588095D01*
X235384523Y-11526190D01*
X235322619Y-11464285D01*
D10*
D11*
X285941666Y-10288095D02*
X285694047Y-10288095D01*
X285570238Y-10350000D01*
X285508333Y-10411904D01*
X285384523Y-10597619D01*
X285322619Y-10845238D01*
X285322619Y-11340476D01*
X285384523Y-11464285D01*
X285446428Y-11526190D01*
X285570238Y-11588095D01*
X285817857Y-11588095D01*
X285941666Y-11526190D01*
X286003571Y-11464285D01*
X286065476Y-11340476D01*
X286065476Y-11030952D01*
X286003571Y-10907142D01*
X285941666Y-10845238D01*
X285817857Y-10783333D01*
X285570238Y-10783333D01*
X285446428Y-10845238D01*
X285384523Y-10907142D01*
X285322619Y-11030952D01*
D10*
D11*
X60000000Y-198007200D02*
X60000000Y-200007200D01*
D10*
D11*
X110000000Y-198007200D02*
X110000000Y-200007200D01*
D10*
D11*
X160000000Y-198007200D02*
X160000000Y-200007200D01*
D10*
D11*
X210000000Y-198007200D02*
X210000000Y-200007200D01*
D10*
D11*
X260000000Y-198007200D02*
X260000000Y-200007200D01*
D10*
D11*
X36065476Y-199595295D02*
X35322619Y-199595295D01*
X35694047Y-199595295D02*
X35694047Y-198295295D01*
X35570238Y-198481009D01*
X35446428Y-198604819D01*
X35322619Y-198666723D01*
D10*
D11*
X85322619Y-198419104D02*
X85384523Y-198357200D01*
X85508333Y-198295295D01*
X85817857Y-198295295D01*
X85941666Y-198357200D01*
X86003571Y-198419104D01*
X86065476Y-198542914D01*
X86065476Y-198666723D01*
X86003571Y-198852438D01*
X85260714Y-199595295D01*
X86065476Y-199595295D01*
D10*
D11*
X135260714Y-198295295D02*
X136065476Y-198295295D01*
X135632142Y-198790533D01*
X135817857Y-198790533D01*
X135941666Y-198852438D01*
X136003571Y-198914342D01*
X136065476Y-199038152D01*
X136065476Y-199347676D01*
X136003571Y-199471485D01*
X135941666Y-199533390D01*
X135817857Y-199595295D01*
X135446428Y-199595295D01*
X135322619Y-199533390D01*
X135260714Y-199471485D01*
D10*
D11*
X185941666Y-198728628D02*
X185941666Y-199595295D01*
X185632142Y-198233390D02*
X185322619Y-199161961D01*
X186127380Y-199161961D01*
D10*
D11*
X236003571Y-198295295D02*
X235384523Y-198295295D01*
X235322619Y-198914342D01*
X235384523Y-198852438D01*
X235508333Y-198790533D01*
X235817857Y-198790533D01*
X235941666Y-198852438D01*
X236003571Y-198914342D01*
X236065476Y-199038152D01*
X236065476Y-199347676D01*
X236003571Y-199471485D01*
X235941666Y-199533390D01*
X235817857Y-199595295D01*
X235508333Y-199595295D01*
X235384523Y-199533390D01*
X235322619Y-199471485D01*
D10*
D11*
X285941666Y-198295295D02*
X285694047Y-198295295D01*
X285570238Y-198357200D01*
X285508333Y-198419104D01*
X285384523Y-198604819D01*
X285322619Y-198852438D01*
X285322619Y-199347676D01*
X285384523Y-199471485D01*
X285446428Y-199533390D01*
X285570238Y-199595295D01*
X285817857Y-199595295D01*
X285941666Y-199533390D01*
X286003571Y-199471485D01*
X286065476Y-199347676D01*
X286065476Y-199038152D01*
X286003571Y-198914342D01*
X285941666Y-198852438D01*
X285817857Y-198790533D01*
X285570238Y-198790533D01*
X285446428Y-198852438D01*
X285384523Y-198914342D01*
X285322619Y-199038152D01*
D10*
D11*
X10000000Y-60000000D02*
X12000000Y-60000000D01*
D10*
D11*
X10000000Y-110000000D02*
X12000000Y-110000000D01*
D10*
D11*
X10000000Y-160000000D02*
X12000000Y-160000000D01*
D10*
D11*
X10690476Y-35216666D02*
X11309523Y-35216666D01*
X10566666Y-35588095D02*
X11000000Y-34288095D01*
X11433333Y-35588095D01*
D10*
D11*
X11092857Y-84907142D02*
X11278571Y-84969047D01*
X11340476Y-85030952D01*
X11402380Y-85154761D01*
X11402380Y-85340476D01*
X11340476Y-85464285D01*
X11278571Y-85526190D01*
X11154761Y-85588095D01*
X10659523Y-85588095D01*
X10659523Y-84288095D01*
X11092857Y-84288095D01*
X11216666Y-84350000D01*
X11278571Y-84411904D01*
X11340476Y-84535714D01*
X11340476Y-84659523D01*
X11278571Y-84783333D01*
X11216666Y-84845238D01*
X11092857Y-84907142D01*
X10659523Y-84907142D01*
D10*
D11*
X11402380Y-135464285D02*
X11340476Y-135526190D01*
X11154761Y-135588095D01*
X11030952Y-135588095D01*
X10845238Y-135526190D01*
X10721428Y-135402380D01*
X10659523Y-135278571D01*
X10597619Y-135030952D01*
X10597619Y-134845238D01*
X10659523Y-134597619D01*
X10721428Y-134473809D01*
X10845238Y-134350000D01*
X11030952Y-134288095D01*
X11154761Y-134288095D01*
X11340476Y-134350000D01*
X11402380Y-134411904D01*
D10*
D11*
X10659523Y-185588095D02*
X10659523Y-184288095D01*
X10969047Y-184288095D01*
X11154761Y-184350000D01*
X11278571Y-184473809D01*
X11340476Y-184597619D01*
X11402380Y-184845238D01*
X11402380Y-185030952D01*
X11340476Y-185278571D01*
X11278571Y-185402380D01*
X11154761Y-185526190D01*
X10969047Y-185588095D01*
X10659523Y-185588095D01*
D10*
D11*
X287002200Y-60000000D02*
X285002200Y-60000000D01*
D10*
D11*
X287002200Y-110000000D02*
X285002200Y-110000000D01*
D10*
D11*
X287002200Y-160000000D02*
X285002200Y-160000000D01*
D10*
D11*
X285692676Y-35216666D02*
X286311723Y-35216666D01*
X285568866Y-35588095D02*
X286002200Y-34288095D01*
X286435533Y-35588095D01*
D10*
D11*
X286095057Y-84907142D02*
X286280771Y-84969047D01*
X286342676Y-85030952D01*
X286404580Y-85154761D01*
X286404580Y-85340476D01*
X286342676Y-85464285D01*
X286280771Y-85526190D01*
X286156961Y-85588095D01*
X285661723Y-85588095D01*
X285661723Y-84288095D01*
X286095057Y-84288095D01*
X286218866Y-84350000D01*
X286280771Y-84411904D01*
X286342676Y-84535714D01*
X286342676Y-84659523D01*
X286280771Y-84783333D01*
X286218866Y-84845238D01*
X286095057Y-84907142D01*
X285661723Y-84907142D01*
D10*
D11*
X286404580Y-135464285D02*
X286342676Y-135526190D01*
X286156961Y-135588095D01*
X286033152Y-135588095D01*
X285847438Y-135526190D01*
X285723628Y-135402380D01*
X285661723Y-135278571D01*
X285599819Y-135030952D01*
X285599819Y-134845238D01*
X285661723Y-134597619D01*
X285723628Y-134473809D01*
X285847438Y-134350000D01*
X286033152Y-134288095D01*
X286156961Y-134288095D01*
X286342676Y-134350000D01*
X286404580Y-134411904D01*
D10*
D11*
X285661723Y-185588095D02*
X285661723Y-184288095D01*
X285971247Y-184288095D01*
X286156961Y-184350000D01*
X286280771Y-184473809D01*
X286342676Y-184597619D01*
X286404580Y-184845238D01*
X286404580Y-185030952D01*
X286342676Y-185278571D01*
X286280771Y-185402380D01*
X286156961Y-185526190D01*
X285971247Y-185588095D01*
X285661723Y-185588095D01*
D10*
D11*
X200434342Y-193785771D02*
X200434342Y-192285771D01*
X200791485Y-192285771D01*
X201005771Y-192357200D01*
X201148628Y-192500057D01*
X201220057Y-192642914D01*
X201291485Y-192928628D01*
X201291485Y-193142914D01*
X201220057Y-193428628D01*
X201148628Y-193571485D01*
X201005771Y-193714342D01*
X200791485Y-193785771D01*
X200434342Y-193785771D01*
X202577200Y-193785771D02*
X202577200Y-193000057D01*
X202505771Y-192857200D01*
X202362914Y-192785771D01*
X202077200Y-192785771D01*
X201934342Y-192857200D01*
X202577200Y-193714342D02*
X202434342Y-193785771D01*
X202077200Y-193785771D01*
X201934342Y-193714342D01*
X201862914Y-193571485D01*
X201862914Y-193428628D01*
X201934342Y-193285771D01*
X202077200Y-193214342D01*
X202434342Y-193214342D01*
X202577200Y-193142914D01*
X203077200Y-192785771D02*
X203648628Y-192785771D01*
X203291485Y-192285771D02*
X203291485Y-193571485D01*
X203362914Y-193714342D01*
X203505771Y-193785771D01*
X203648628Y-193785771D01*
X204720057Y-193714342D02*
X204577200Y-193785771D01*
X204291485Y-193785771D01*
X204148628Y-193714342D01*
X204077200Y-193571485D01*
X204077200Y-193000057D01*
X204148628Y-192857200D01*
X204291485Y-192785771D01*
X204577200Y-192785771D01*
X204720057Y-192857200D01*
X204791485Y-193000057D01*
X204791485Y-193142914D01*
X204077200Y-193285771D01*
X205434342Y-193642914D02*
X205505771Y-193714342D01*
X205434342Y-193785771D01*
X205362914Y-193714342D01*
X205434342Y-193642914D01*
X205434342Y-193785771D01*
X205434342Y-192857200D02*
X205505771Y-192928628D01*
X205434342Y-193000057D01*
X205362914Y-192928628D01*
X205434342Y-192857200D01*
X205434342Y-193000057D01*
D10*
D11*
X177002200Y-194507200D02*
X285002200Y-194507200D01*
D10*
D11*
X178434342Y-196585771D02*
X178434342Y-195085771D01*
X179291485Y-196585771D02*
X178648628Y-195728628D01*
X179291485Y-195085771D02*
X178434342Y-195942914D01*
X179934342Y-196585771D02*
X179934342Y-195585771D01*
X179934342Y-195085771D02*
X179862914Y-195157200D01*
X179934342Y-195228628D01*
X180005771Y-195157200D01*
X179934342Y-195085771D01*
X179934342Y-195228628D01*
X181505771Y-196442914D02*
X181434342Y-196514342D01*
X181220057Y-196585771D01*
X181077200Y-196585771D01*
X180862914Y-196514342D01*
X180720057Y-196371485D01*
X180648628Y-196228628D01*
X180577200Y-195942914D01*
X180577200Y-195728628D01*
X180648628Y-195442914D01*
X180720057Y-195300057D01*
X180862914Y-195157200D01*
X181077200Y-195085771D01*
X181220057Y-195085771D01*
X181434342Y-195157200D01*
X181505771Y-195228628D01*
X182791485Y-196585771D02*
X182791485Y-195800057D01*
X182720057Y-195657200D01*
X182577200Y-195585771D01*
X182291485Y-195585771D01*
X182148628Y-195657200D01*
X182791485Y-196514342D02*
X182648628Y-196585771D01*
X182291485Y-196585771D01*
X182148628Y-196514342D01*
X182077200Y-196371485D01*
X182077200Y-196228628D01*
X182148628Y-196085771D01*
X182291485Y-196014342D01*
X182648628Y-196014342D01*
X182791485Y-195942914D01*
X184148628Y-196585771D02*
X184148628Y-195085771D01*
X184148628Y-196514342D02*
X184005771Y-196585771D01*
X183720057Y-196585771D01*
X183577200Y-196514342D01*
X183505771Y-196442914D01*
X183434342Y-196300057D01*
X183434342Y-195871485D01*
X183505771Y-195728628D01*
X183577200Y-195657200D01*
X183720057Y-195585771D01*
X184005771Y-195585771D01*
X184148628Y-195657200D01*
X186005771Y-195800057D02*
X186505771Y-195800057D01*
X186720057Y-196585771D02*
X186005771Y-196585771D01*
X186005771Y-195085771D01*
X186720057Y-195085771D01*
X187362914Y-196442914D02*
X187434342Y-196514342D01*
X187362914Y-196585771D01*
X187291485Y-196514342D01*
X187362914Y-196442914D01*
X187362914Y-196585771D01*
X188077200Y-196585771D02*
X188077200Y-195085771D01*
X188434342Y-195085771D01*
X188648628Y-195157200D01*
X188791485Y-195300057D01*
X188862914Y-195442914D01*
X188934342Y-195728628D01*
X188934342Y-195942914D01*
X188862914Y-196228628D01*
X188791485Y-196371485D01*
X188648628Y-196514342D01*
X188434342Y-196585771D01*
X188077200Y-196585771D01*
X189577200Y-196442914D02*
X189648628Y-196514342D01*
X189577200Y-196585771D01*
X189505771Y-196514342D01*
X189577200Y-196442914D01*
X189577200Y-196585771D01*
X190220057Y-196157200D02*
X190934342Y-196157200D01*
X190077200Y-196585771D02*
X190577200Y-195085771D01*
X191077200Y-196585771D01*
X191577200Y-196442914D02*
X191648628Y-196514342D01*
X191577200Y-196585771D01*
X191505771Y-196514342D01*
X191577200Y-196442914D01*
X191577200Y-196585771D01*
X194577200Y-195585771D02*
X194577200Y-197085771D01*
X194577200Y-195657200D02*
X194720057Y-195585771D01*
X195005771Y-195585771D01*
X195148628Y-195657200D01*
X195220057Y-195728628D01*
X195291485Y-195871485D01*
X195291485Y-196300057D01*
X195220057Y-196442914D01*
X195148628Y-196514342D01*
X195005771Y-196585771D01*
X194720057Y-196585771D01*
X194577200Y-196514342D01*
X196577200Y-196514342D02*
X196434342Y-196585771D01*
X196148628Y-196585771D01*
X196005771Y-196514342D01*
X195934342Y-196442914D01*
X195862914Y-196300057D01*
X195862914Y-195871485D01*
X195934342Y-195728628D01*
X196005771Y-195657200D01*
X196148628Y-195585771D01*
X196434342Y-195585771D01*
X196577200Y-195657200D01*
X197220057Y-196585771D02*
X197220057Y-195085771D01*
X197220057Y-195657200D02*
X197362914Y-195585771D01*
X197648628Y-195585771D01*
X197791485Y-195657200D01*
X197862914Y-195728628D01*
X197934342Y-195871485D01*
X197934342Y-196300057D01*
X197862914Y-196442914D01*
X197791485Y-196514342D01*
X197648628Y-196585771D01*
X197362914Y-196585771D01*
X197220057Y-196514342D01*
X198577200Y-195585771D02*
X198577200Y-196585771D01*
X198577200Y-195728628D02*
X198648628Y-195657200D01*
X198791485Y-195585771D01*
X199005771Y-195585771D01*
X199148628Y-195657200D01*
X199220057Y-195800057D01*
X199220057Y-196585771D01*
X200505771Y-196514342D02*
X200362914Y-196585771D01*
X200077200Y-196585771D01*
X199934342Y-196514342D01*
X199862914Y-196371485D01*
X199862914Y-195800057D01*
X199934342Y-195657200D01*
X200077200Y-195585771D01*
X200362914Y-195585771D01*
X200505771Y-195657200D01*
X200577200Y-195800057D01*
X200577200Y-195942914D01*
X199862914Y-196085771D01*
X201077200Y-195585771D02*
X201362914Y-196585771D01*
X201648628Y-195871485D01*
X201934342Y-196585771D01*
X202220057Y-195585771D01*
X204362914Y-197157200D02*
X204291485Y-197085771D01*
X204148628Y-196871485D01*
X204077200Y-196728628D01*
X204005771Y-196514342D01*
X203934342Y-196157200D01*
X203934342Y-195871485D01*
X204005771Y-195514342D01*
X204077200Y-195300057D01*
X204148628Y-195157200D01*
X204291485Y-194942914D01*
X204362914Y-194871485D01*
X205648628Y-195085771D02*
X204934342Y-195085771D01*
X204862914Y-195800057D01*
X204934342Y-195728628D01*
X205077200Y-195657200D01*
X205434342Y-195657200D01*
X205577200Y-195728628D01*
X205648628Y-195800057D01*
X205720057Y-195942914D01*
X205720057Y-196300057D01*
X205648628Y-196442914D01*
X205577200Y-196514342D01*
X205434342Y-196585771D01*
X205077200Y-196585771D01*
X204934342Y-196514342D01*
X204862914Y-196442914D01*
X206362914Y-196442914D02*
X206434342Y-196514342D01*
X206362914Y-196585771D01*
X206291485Y-196514342D01*
X206362914Y-196442914D01*
X206362914Y-196585771D01*
X207862914Y-196585771D02*
X207005771Y-196585771D01*
X207434342Y-196585771D02*
X207434342Y-195085771D01*
X207291485Y-195300057D01*
X207148628Y-195442914D01*
X207005771Y-195514342D01*
X208505771Y-196442914D02*
X208577200Y-196514342D01*
X208505771Y-196585771D01*
X208434342Y-196514342D01*
X208505771Y-196442914D01*
X208505771Y-196585771D01*
X209934342Y-195085771D02*
X209220057Y-195085771D01*
X209148628Y-195800057D01*
X209220057Y-195728628D01*
X209362914Y-195657200D01*
X209720057Y-195657200D01*
X209862914Y-195728628D01*
X209934342Y-195800057D01*
X210005771Y-195942914D01*
X210005771Y-196300057D01*
X209934342Y-196442914D01*
X209862914Y-196514342D01*
X209720057Y-196585771D01*
X209362914Y-196585771D01*
X209220057Y-196514342D01*
X209148628Y-196442914D01*
X210505771Y-197157200D02*
X210577200Y-197085771D01*
X210720057Y-196871485D01*
X210791485Y-196728628D01*
X210862914Y-196514342D01*
X210934342Y-196157200D01*
X210934342Y-195871485D01*
X210862914Y-195514342D01*
X210791485Y-195300057D01*
X210720057Y-195157200D01*
X210577200Y-194942914D01*
X210505771Y-194871485D01*
X211648628Y-196014342D02*
X212791485Y-196014342D01*
X213362914Y-195085771D02*
X214291485Y-195085771D01*
X213791485Y-195657200D01*
X214005771Y-195657200D01*
X214148628Y-195728628D01*
X214220057Y-195800057D01*
X214291485Y-195942914D01*
X214291485Y-196300057D01*
X214220057Y-196442914D01*
X214148628Y-196514342D01*
X214005771Y-196585771D01*
X213577200Y-196585771D01*
X213434342Y-196514342D01*
X213362914Y-196442914D01*
D10*
D11*
X177002200Y-191507200D02*
X285002200Y-191507200D01*
D10*
D12*
X264411485Y-193785771D02*
X263911485Y-193071485D01*
X263554342Y-193785771D02*
X263554342Y-192285771D01*
X264125771Y-192285771D01*
X264268628Y-192357200D01*
X264340057Y-192428628D01*
X264411485Y-192571485D01*
X264411485Y-192785771D01*
X264340057Y-192928628D01*
X264268628Y-193000057D01*
X264125771Y-193071485D01*
X263554342Y-193071485D01*
X265625771Y-193714342D02*
X265482914Y-193785771D01*
X265197200Y-193785771D01*
X265054342Y-193714342D01*
X264982914Y-193571485D01*
X264982914Y-193000057D01*
X265054342Y-192857200D01*
X265197200Y-192785771D01*
X265482914Y-192785771D01*
X265625771Y-192857200D01*
X265697200Y-193000057D01*
X265697200Y-193142914D01*
X264982914Y-193285771D01*
X266197200Y-192785771D02*
X266554342Y-193785771D01*
X266911485Y-192785771D01*
X267482914Y-193642914D02*
X267554342Y-193714342D01*
X267482914Y-193785771D01*
X267411485Y-193714342D01*
X267482914Y-193642914D01*
X267482914Y-193785771D01*
X267482914Y-192857200D02*
X267554342Y-192928628D01*
X267482914Y-193000057D01*
X267411485Y-192928628D01*
X267482914Y-192857200D01*
X267482914Y-193000057D01*
D10*
D11*
X178362914Y-193714342D02*
X178577200Y-193785771D01*
X178934342Y-193785771D01*
X179077200Y-193714342D01*
X179148628Y-193642914D01*
X179220057Y-193500057D01*
X179220057Y-193357200D01*
X179148628Y-193214342D01*
X179077200Y-193142914D01*
X178934342Y-193071485D01*
X178648628Y-193000057D01*
X178505771Y-192928628D01*
X178434342Y-192857200D01*
X178362914Y-192714342D01*
X178362914Y-192571485D01*
X178434342Y-192428628D01*
X178505771Y-192357200D01*
X178648628Y-192285771D01*
X179005771Y-192285771D01*
X179220057Y-192357200D01*
X179862914Y-193785771D02*
X179862914Y-192785771D01*
X179862914Y-192285771D02*
X179791485Y-192357200D01*
X179862914Y-192428628D01*
X179934342Y-192357200D01*
X179862914Y-192285771D01*
X179862914Y-192428628D01*
X180434342Y-192785771D02*
X181220057Y-192785771D01*
X180434342Y-193785771D01*
X181220057Y-193785771D01*
X182362914Y-193714342D02*
X182220057Y-193785771D01*
X181934342Y-193785771D01*
X181791485Y-193714342D01*
X181720057Y-193571485D01*
X181720057Y-193000057D01*
X181791485Y-192857200D01*
X181934342Y-192785771D01*
X182220057Y-192785771D01*
X182362914Y-192857200D01*
X182434342Y-193000057D01*
X182434342Y-193142914D01*
X181720057Y-193285771D01*
X183077200Y-193642914D02*
X183148628Y-193714342D01*
X183077200Y-193785771D01*
X183005771Y-193714342D01*
X183077200Y-193642914D01*
X183077200Y-193785771D01*
X183077200Y-192857200D02*
X183148628Y-192928628D01*
X183077200Y-193000057D01*
X183005771Y-192928628D01*
X183077200Y-192857200D01*
X183077200Y-193000057D01*
X184862914Y-193357200D02*
X185577200Y-193357200D01*
X184720057Y-193785771D02*
X185220057Y-192285771D01*
X185720057Y-193785771D01*
X186862914Y-192785771D02*
X186862914Y-193785771D01*
X186505771Y-192214342D02*
X186148628Y-193285771D01*
X187077200Y-193285771D01*
D10*
D11*
X263434342Y-196585771D02*
X263434342Y-195085771D01*
X264791485Y-196585771D02*
X264791485Y-195085771D01*
X264791485Y-196514342D02*
X264648628Y-196585771D01*
X264362914Y-196585771D01*
X264220057Y-196514342D01*
X264148628Y-196442914D01*
X264077200Y-196300057D01*
X264077200Y-195871485D01*
X264148628Y-195728628D01*
X264220057Y-195657200D01*
X264362914Y-195585771D01*
X264648628Y-195585771D01*
X264791485Y-195657200D01*
X265505771Y-196442914D02*
X265577200Y-196514342D01*
X265505771Y-196585771D01*
X265434342Y-196514342D01*
X265505771Y-196442914D01*
X265505771Y-196585771D01*
X265505771Y-195657200D02*
X265577200Y-195728628D01*
X265505771Y-195800057D01*
X265434342Y-195728628D01*
X265505771Y-195657200D01*
X265505771Y-195800057D01*
X268148628Y-196585771D02*
X267291485Y-196585771D01*
X267720057Y-196585771D02*
X267720057Y-195085771D01*
X267577200Y-195300057D01*
X267434342Y-195442914D01*
X267291485Y-195514342D01*
X269862914Y-195014342D02*
X268577200Y-196942914D01*
X271148628Y-196585771D02*
X270291485Y-196585771D01*
X270720057Y-196585771D02*
X270720057Y-195085771D01*
X270577200Y-195300057D01*
X270434342Y-195442914D01*
X270291485Y-195514342D01*
D10*
D11*
X177002200Y-187507200D02*
X285002200Y-187507200D01*
D10*
D13*
X178714580Y-188211961D02*
X179857438Y-188211961D01*
X179036009Y-190211961D02*
X179286009Y-188211961D01*
X180274104Y-190211961D02*
X180440771Y-188878628D01*
X180524104Y-188211961D02*
X180416961Y-188307200D01*
X180500295Y-188402438D01*
X180607438Y-188307200D01*
X180524104Y-188211961D01*
X180500295Y-188402438D01*
X181107438Y-188878628D02*
X181869342Y-188878628D01*
X181476485Y-188211961D02*
X181262200Y-189926247D01*
X181333628Y-190116723D01*
X181512200Y-190211961D01*
X181702676Y-190211961D01*
X182655057Y-190211961D02*
X182476485Y-190116723D01*
X182405057Y-189926247D01*
X182619342Y-188211961D01*
X184190771Y-190116723D02*
X183988390Y-190211961D01*
X183607438Y-190211961D01*
X183428866Y-190116723D01*
X183357438Y-189926247D01*
X183452676Y-189164342D01*
X183571723Y-188973866D01*
X183774104Y-188878628D01*
X184155057Y-188878628D01*
X184333628Y-188973866D01*
X184405057Y-189164342D01*
X184381247Y-189354819D01*
X183405057Y-189545295D01*
X185155057Y-190021485D02*
X185238390Y-190116723D01*
X185131247Y-190211961D01*
X185047914Y-190116723D01*
X185155057Y-190021485D01*
X185131247Y-190211961D01*
X185286009Y-188973866D02*
X185369342Y-189069104D01*
X185262200Y-189164342D01*
X185178866Y-189069104D01*
X185286009Y-188973866D01*
X185262200Y-189164342D01*
D10*
D11*
X178934342Y-185600057D02*
X178434342Y-185600057D01*
X178434342Y-186385771D02*
X178434342Y-184885771D01*
X179148628Y-184885771D01*
X179720057Y-186385771D02*
X179720057Y-185385771D01*
X179720057Y-184885771D02*
X179648628Y-184957200D01*
X179720057Y-185028628D01*
X179791485Y-184957200D01*
X179720057Y-184885771D01*
X179720057Y-185028628D01*
X180648628Y-186385771D02*
X180505771Y-186314342D01*
X180434342Y-186171485D01*
X180434342Y-184885771D01*
X181791485Y-186314342D02*
X181648628Y-186385771D01*
X181362914Y-186385771D01*
X181220057Y-186314342D01*
X181148628Y-186171485D01*
X181148628Y-185600057D01*
X181220057Y-185457200D01*
X181362914Y-185385771D01*
X181648628Y-185385771D01*
X181791485Y-185457200D01*
X181862914Y-185600057D01*
X181862914Y-185742914D01*
X181148628Y-185885771D01*
X182505771Y-186242914D02*
X182577200Y-186314342D01*
X182505771Y-186385771D01*
X182434342Y-186314342D01*
X182505771Y-186242914D01*
X182505771Y-186385771D01*
X182505771Y-185457200D02*
X182577200Y-185528628D01*
X182505771Y-185600057D01*
X182434342Y-185528628D01*
X182505771Y-185457200D01*
X182505771Y-185600057D01*
X185077200Y-186385771D02*
X184362914Y-186385771D01*
X184362914Y-184885771D01*
X185577200Y-186385771D02*
X185577200Y-185385771D01*
X185577200Y-184885771D02*
X185505771Y-184957200D01*
X185577200Y-185028628D01*
X185648628Y-184957200D01*
X185577200Y-184885771D01*
X185577200Y-185028628D01*
X186505771Y-186385771D02*
X186362914Y-186314342D01*
X186291485Y-186171485D01*
X186291485Y-184885771D01*
X186934342Y-185385771D02*
X187291485Y-186385771D01*
X187648628Y-185385771D02*
X187291485Y-186385771D01*
X187148628Y-186742914D01*
X187077200Y-186814342D01*
X186934342Y-186885771D01*
X188862914Y-184885771D02*
X188577200Y-184885771D01*
X188434342Y-184957200D01*
X188362914Y-185028628D01*
X188220057Y-185242914D01*
X188148628Y-185528628D01*
X188148628Y-186100057D01*
X188220057Y-186242914D01*
X188291485Y-186314342D01*
X188434342Y-186385771D01*
X188720057Y-186385771D01*
X188862914Y-186314342D01*
X188934342Y-186242914D01*
X189005771Y-186100057D01*
X189005771Y-185742914D01*
X188934342Y-185600057D01*
X188862914Y-185528628D01*
X188720057Y-185457200D01*
X188434342Y-185457200D01*
X188291485Y-185528628D01*
X188220057Y-185600057D01*
X188148628Y-185742914D01*
X189934342Y-184885771D02*
X190077200Y-184885771D01*
X190220057Y-184957200D01*
X190291485Y-185028628D01*
X190362914Y-185171485D01*
X190434342Y-185457200D01*
X190434342Y-185814342D01*
X190362914Y-186100057D01*
X190291485Y-186242914D01*
X190220057Y-186314342D01*
X190077200Y-186385771D01*
X189934342Y-186385771D01*
X189791485Y-186314342D01*
X189720057Y-186242914D01*
X189648628Y-186100057D01*
X189577200Y-185814342D01*
X189577200Y-185457200D01*
X189648628Y-185171485D01*
X189720057Y-185028628D01*
X189791485Y-184957200D01*
X189934342Y-184885771D01*
X190720057Y-186528628D02*
X191862914Y-186528628D01*
X192220057Y-185600057D02*
X192720057Y-185600057D01*
X192934342Y-186385771D02*
X192220057Y-186385771D01*
X192220057Y-184885771D01*
X192934342Y-184885771D01*
X193434342Y-185385771D02*
X193791485Y-186385771D01*
X194148628Y-185385771D01*
X194934342Y-186385771D02*
X194791485Y-186314342D01*
X194720057Y-186242914D01*
X194648628Y-186100057D01*
X194648628Y-185671485D01*
X194720057Y-185528628D01*
X194791485Y-185457200D01*
X194934342Y-185385771D01*
X195148628Y-185385771D01*
X195291485Y-185457200D01*
X195362914Y-185528628D01*
X195434342Y-185671485D01*
X195434342Y-186100057D01*
X195362914Y-186242914D01*
X195291485Y-186314342D01*
X195148628Y-186385771D01*
X194934342Y-186385771D01*
X195720057Y-186528628D02*
X196862914Y-186528628D01*
X197005771Y-184885771D02*
X197862914Y-184885771D01*
X197434342Y-186385771D02*
X197434342Y-184885771D01*
X198648628Y-184885771D02*
X198934342Y-184885771D01*
X199077200Y-184957200D01*
X199220057Y-185100057D01*
X199291485Y-185385771D01*
X199291485Y-185885771D01*
X199220057Y-186171485D01*
X199077200Y-186314342D01*
X198934342Y-186385771D01*
X198648628Y-186385771D01*
X198505771Y-186314342D01*
X198362914Y-186171485D01*
X198291485Y-185885771D01*
X198291485Y-185385771D01*
X198362914Y-185100057D01*
X198505771Y-184957200D01*
X198648628Y-184885771D01*
X199934342Y-186385771D02*
X199934342Y-184885771D01*
X200505771Y-184885771D01*
X200648628Y-184957200D01*
X200720057Y-185028628D01*
X200791485Y-185171485D01*
X200791485Y-185385771D01*
X200720057Y-185528628D01*
X200648628Y-185600057D01*
X200505771Y-185671485D01*
X199934342Y-185671485D01*
X201434342Y-186242914D02*
X201505771Y-186314342D01*
X201434342Y-186385771D01*
X201362914Y-186314342D01*
X201434342Y-186242914D01*
X201434342Y-186385771D01*
X202148628Y-186385771D02*
X202148628Y-184885771D01*
X202291485Y-185814342D02*
X202720057Y-186385771D01*
X202720057Y-185385771D02*
X202148628Y-185957200D01*
X203362914Y-186385771D02*
X203362914Y-185385771D01*
X203362914Y-184885771D02*
X203291485Y-184957200D01*
X203362914Y-185028628D01*
X203434342Y-184957200D01*
X203362914Y-184885771D01*
X203362914Y-185028628D01*
X204720057Y-186314342D02*
X204577200Y-186385771D01*
X204291485Y-186385771D01*
X204148628Y-186314342D01*
X204077200Y-186242914D01*
X204005771Y-186100057D01*
X204005771Y-185671485D01*
X204077200Y-185528628D01*
X204148628Y-185457200D01*
X204291485Y-185385771D01*
X204577200Y-185385771D01*
X204720057Y-185457200D01*
X206005771Y-186385771D02*
X206005771Y-185600057D01*
X205934342Y-185457200D01*
X205791485Y-185385771D01*
X205505771Y-185385771D01*
X205362914Y-185457200D01*
X206005771Y-186314342D02*
X205862914Y-186385771D01*
X205505771Y-186385771D01*
X205362914Y-186314342D01*
X205291485Y-186171485D01*
X205291485Y-186028628D01*
X205362914Y-185885771D01*
X205505771Y-185814342D01*
X205862914Y-185814342D01*
X206005771Y-185742914D01*
X207362914Y-186385771D02*
X207362914Y-184885771D01*
X207362914Y-186314342D02*
X207220057Y-186385771D01*
X206934342Y-186385771D01*
X206791485Y-186314342D01*
X206720057Y-186242914D01*
X206648628Y-186100057D01*
X206648628Y-185671485D01*
X206720057Y-185528628D01*
X206791485Y-185457200D01*
X206934342Y-185385771D01*
X207220057Y-185385771D01*
X207362914Y-185457200D01*
X207720057Y-186528628D02*
X208862914Y-186528628D01*
X209220057Y-185385771D02*
X209220057Y-186885771D01*
X209220057Y-185457200D02*
X209362914Y-185385771D01*
X209648628Y-185385771D01*
X209791485Y-185457200D01*
X209862914Y-185528628D01*
X209934342Y-185671485D01*
X209934342Y-186100057D01*
X209862914Y-186242914D01*
X209791485Y-186314342D01*
X209648628Y-186385771D01*
X209362914Y-186385771D01*
X209220057Y-186314342D01*
X211220057Y-186314342D02*
X211077200Y-186385771D01*
X210791485Y-186385771D01*
X210648628Y-186314342D01*
X210577200Y-186242914D01*
X210505771Y-186100057D01*
X210505771Y-185671485D01*
X210577200Y-185528628D01*
X210648628Y-185457200D01*
X210791485Y-185385771D01*
X211077200Y-185385771D01*
X211220057Y-185457200D01*
X211862914Y-186385771D02*
X211862914Y-184885771D01*
X211862914Y-185457200D02*
X212005771Y-185385771D01*
X212291485Y-185385771D01*
X212434342Y-185457200D01*
X212505771Y-185528628D01*
X212577200Y-185671485D01*
X212577200Y-186100057D01*
X212505771Y-186242914D01*
X212434342Y-186314342D01*
X212291485Y-186385771D01*
X212005771Y-186385771D01*
X211862914Y-186314342D01*
D10*
D11*
X177002200Y-181507200D02*
X285002200Y-181507200D01*
D10*
D11*
X178362914Y-183614342D02*
X178577200Y-183685771D01*
X178934342Y-183685771D01*
X179077200Y-183614342D01*
X179148628Y-183542914D01*
X179220057Y-183400057D01*
X179220057Y-183257200D01*
X179148628Y-183114342D01*
X179077200Y-183042914D01*
X178934342Y-182971485D01*
X178648628Y-182900057D01*
X178505771Y-182828628D01*
X178434342Y-182757200D01*
X178362914Y-182614342D01*
X178362914Y-182471485D01*
X178434342Y-182328628D01*
X178505771Y-182257200D01*
X178648628Y-182185771D01*
X179005771Y-182185771D01*
X179220057Y-182257200D01*
X179862914Y-183685771D02*
X179862914Y-182185771D01*
X180505771Y-183685771D02*
X180505771Y-182900057D01*
X180434342Y-182757200D01*
X180291485Y-182685771D01*
X180077200Y-182685771D01*
X179934342Y-182757200D01*
X179862914Y-182828628D01*
X181791485Y-183614342D02*
X181648628Y-183685771D01*
X181362914Y-183685771D01*
X181220057Y-183614342D01*
X181148628Y-183471485D01*
X181148628Y-182900057D01*
X181220057Y-182757200D01*
X181362914Y-182685771D01*
X181648628Y-182685771D01*
X181791485Y-182757200D01*
X181862914Y-182900057D01*
X181862914Y-183042914D01*
X181148628Y-183185771D01*
X183077200Y-183614342D02*
X182934342Y-183685771D01*
X182648628Y-183685771D01*
X182505771Y-183614342D01*
X182434342Y-183471485D01*
X182434342Y-182900057D01*
X182505771Y-182757200D01*
X182648628Y-182685771D01*
X182934342Y-182685771D01*
X183077200Y-182757200D01*
X183148628Y-182900057D01*
X183148628Y-183042914D01*
X182434342Y-183185771D01*
X183577200Y-182685771D02*
X184148628Y-182685771D01*
X183791485Y-182185771D02*
X183791485Y-183471485D01*
X183862914Y-183614342D01*
X184005771Y-183685771D01*
X184148628Y-183685771D01*
X184648628Y-183542914D02*
X184720057Y-183614342D01*
X184648628Y-183685771D01*
X184577200Y-183614342D01*
X184648628Y-183542914D01*
X184648628Y-183685771D01*
X184648628Y-182757200D02*
X184720057Y-182828628D01*
X184648628Y-182900057D01*
X184577200Y-182828628D01*
X184648628Y-182757200D01*
X184648628Y-182900057D01*
D10*
D11*
X197002200Y-191507200D02*
X197002200Y-194507200D01*
D10*
D11*
X261002200Y-191507200D02*
X261002200Y-198007200D01*
D14*
X225472504Y-118955447D02*
X225467057Y-119232943D01*
X225467057Y-119232943D02*
X225379721Y-119514599D01*
X225241505Y-119769408D02*
X225058417Y-119991360D01*
X225058417Y-119991360D02*
X224836464Y-120174449D01*
X225379721Y-119514599D02*
X225241505Y-119769408D01*
X224836464Y-120174449D02*
X224581656Y-120312665D01*
X224581656Y-120312665D02*
X224300000Y-120400000D01*
X209200000Y-120400000D02*
X224300000Y-120400000D01*
X205700000Y-123900000D02*
X205771043Y-123194176D01*
X207242425Y-120997330D02*
X207836978Y-120674826D01*
X205771043Y-123194176D02*
X205974826Y-122536978D01*
X208494176Y-120471043D02*
X209200000Y-120400000D01*
X205974826Y-122536978D02*
X206297330Y-121942425D01*
X206724536Y-121424536D02*
X207242425Y-120997330D01*
X207836978Y-120674826D02*
X208494176Y-120471043D01*
X206297330Y-121942425D02*
X206724536Y-121424536D01*
X205260913Y-138760913D02*
X205038961Y-138944001D01*
X205700000Y-137722394D02*
X205669553Y-138002496D01*
X205669553Y-138002496D02*
X205582217Y-138284152D01*
X205444001Y-138538960D02*
X205260913Y-138760913D01*
X205582217Y-138284152D02*
X205444001Y-138538960D01*
X205038961Y-138944001D02*
X204784152Y-139082217D01*
X204784152Y-139082217D02*
X204502496Y-139169553D01*
X205700000Y-123900000D02*
X205700000Y-137722394D01*
X204502496Y-139169553D02*
X204200000Y-139200000D01*
X106241750Y-142715431D02*
X99241752Y-130591074D01*
X118366106Y-135715431D02*
X106241750Y-142715431D01*
X111366105Y-123591077D02*
X118366106Y-135715431D01*
X99241752Y-130591074D02*
X111366105Y-123591077D01*
X129249637Y-135874873D02*
X125626172Y-122351912D01*
X142772599Y-132251408D02*
X129249637Y-135874873D01*
X139149132Y-118728447D02*
X142772599Y-132251408D01*
X125626172Y-122351912D02*
X139149132Y-118728447D01*
X208700000Y-117900000D02*
X208700000Y-103900000D01*
X222700000Y-117900000D02*
X208700000Y-117900000D01*
X222700000Y-103900000D02*
X222700000Y-117900000D01*
X208700000Y-103900000D02*
X222700000Y-103900000D01*
X208700000Y-98850000D02*
X208700000Y-84850000D01*
X222700000Y-98850000D02*
X208700000Y-98850000D01*
X222700000Y-84850000D02*
X222700000Y-98850000D01*
X208700000Y-84850000D02*
X222700000Y-84850000D01*
X208700000Y-79800000D02*
X208700000Y-65800000D01*
X222700000Y-79800000D02*
X208700000Y-79800000D01*
X222700000Y-65800000D02*
X222700000Y-79800000D01*
X208700000Y-65800000D02*
X222700000Y-65800000D01*
X208700000Y-60750000D02*
X208700000Y-46750000D01*
X222700000Y-60750000D02*
X208700000Y-60750000D01*
X222700000Y-46750000D02*
X222700000Y-60750000D01*
X208700000Y-46750000D02*
X222700000Y-46750000D01*
X189700000Y-135500000D02*
X189700000Y-121500000D01*
X203700000Y-135500000D02*
X189700000Y-135500000D01*
X203700000Y-121500000D02*
X203700000Y-135500000D01*
X189700000Y-121500000D02*
X203700000Y-121500000D01*
X189700000Y-116450000D02*
X189700000Y-102450000D01*
X203700000Y-116450000D02*
X189700000Y-116450000D01*
X203700000Y-102450000D02*
X203700000Y-116450000D01*
X189700000Y-102450000D02*
X203700000Y-102450000D01*
X189700000Y-97400000D02*
X189700000Y-83400000D01*
X203700000Y-97400000D02*
X189700000Y-97400000D01*
X203700000Y-83400000D02*
X203700000Y-97400000D01*
X189700000Y-83400000D02*
X203700000Y-83400000D01*
X189700000Y-78350000D02*
X189700000Y-64350000D01*
X203700000Y-78350000D02*
X189700000Y-78350000D01*
X203700000Y-64350000D02*
X203700000Y-78350000D01*
X189700000Y-64350000D02*
X203700000Y-64350000D01*
X189700000Y-59300000D02*
X189700000Y-45300000D01*
X203700000Y-59300000D02*
X189700000Y-59300000D01*
X203700000Y-45300000D02*
X203700000Y-59300000D01*
X189700000Y-45300000D02*
X203700000Y-45300000D01*
X170600000Y-130800000D02*
X170600000Y-116800000D01*
X184600000Y-130800000D02*
X170600000Y-130800000D01*
X184600000Y-116800000D02*
X184600000Y-130800000D01*
X170600000Y-116800000D02*
X184600000Y-116800000D01*
X170600000Y-111750000D02*
X170600000Y-97750000D01*
X184600000Y-111750000D02*
X170600000Y-111750000D01*
X184600000Y-97750000D02*
X184600000Y-111750000D01*
X170600000Y-97750000D02*
X184600000Y-97750000D01*
X170600000Y-92700000D02*
X170600000Y-78700000D01*
X184600000Y-92700000D02*
X170600000Y-92700000D01*
X184600000Y-78700000D02*
X184600000Y-92700000D01*
X170600000Y-78700000D02*
X184600000Y-78700000D01*
X170600000Y-73650000D02*
X170600000Y-59650000D01*
X184600000Y-73650000D02*
X170600000Y-73650000D01*
X184600000Y-59650000D02*
X184600000Y-73650000D01*
X170600000Y-59650000D02*
X184600000Y-59650000D01*
X170600000Y-54600000D02*
X170600000Y-40600000D01*
X184600000Y-54600000D02*
X170600000Y-54600000D01*
X184600000Y-40600000D02*
X184600000Y-54600000D01*
X170600000Y-40600000D02*
X184600000Y-40600000D01*
X94400000Y-108150000D02*
X94400000Y-94150000D01*
X108400000Y-108150000D02*
X94400000Y-108150000D01*
X108400000Y-94150000D02*
X108400000Y-108150000D01*
X94400000Y-94150000D02*
X108400000Y-94150000D01*
X113500000Y-114150000D02*
X113500000Y-100150000D01*
X127500000Y-114150000D02*
X113500000Y-114150000D01*
X127500000Y-100150000D02*
X127500000Y-114150000D01*
X113500000Y-100150000D02*
X127500000Y-100150000D01*
X113500000Y-95100000D02*
X113500000Y-81100000D01*
X127500000Y-95100000D02*
X113500000Y-95100000D01*
X127500000Y-81100000D02*
X127500000Y-95100000D01*
X113500000Y-81100000D02*
X127500000Y-81100000D01*
X113500000Y-76050000D02*
X113500000Y-62050000D01*
X127500000Y-76050000D02*
X113500000Y-76050000D01*
X127500000Y-62050000D02*
X127500000Y-76050000D01*
X113500000Y-62050000D02*
X127500000Y-62050000D01*
X132500000Y-111750000D02*
X132500000Y-97750000D01*
X146500000Y-111750000D02*
X132500000Y-111750000D01*
X146500000Y-97750000D02*
X146500000Y-111750000D01*
X132500000Y-97750000D02*
X146500000Y-97750000D01*
X132500000Y-92700000D02*
X132500000Y-78700000D01*
X146500000Y-92700000D02*
X132500000Y-92700000D01*
X146500000Y-78700000D02*
X146500000Y-92700000D01*
X132500000Y-78700000D02*
X146500000Y-78700000D01*
X132500000Y-73650000D02*
X132500000Y-59650000D01*
X146500000Y-73650000D02*
X132500000Y-73650000D01*
X146500000Y-59650000D02*
X146500000Y-73650000D01*
X132500000Y-59650000D02*
X146500000Y-59650000D01*
X151600000Y-129450000D02*
X151600000Y-115450000D01*
X165600000Y-129450000D02*
X151600000Y-129450000D01*
X165600000Y-115450000D02*
X165600000Y-129450000D01*
X151600000Y-115450000D02*
X165600000Y-115450000D01*
X151600000Y-110400000D02*
X151600000Y-96400000D01*
X165600000Y-110400000D02*
X151600000Y-110400000D01*
X165600000Y-96400000D02*
X165600000Y-110400000D01*
X151600000Y-96400000D02*
X165600000Y-96400000D01*
X151600000Y-91350000D02*
X151600000Y-77350000D01*
X165600000Y-91350000D02*
X151600000Y-91350000D01*
X165600000Y-77350000D02*
X165600000Y-91350000D01*
X151600000Y-77350000D02*
X165600000Y-77350000D01*
X151600000Y-72300000D02*
X151600000Y-58300000D01*
X165600000Y-72300000D02*
X151600000Y-72300000D01*
X165600000Y-58300000D02*
X165600000Y-72300000D01*
X151600000Y-58300000D02*
X165600000Y-58300000D01*
X151600000Y-53250000D02*
X151600000Y-39250000D01*
X165600000Y-53250000D02*
X151600000Y-53250000D01*
X165600000Y-39250000D02*
X165600000Y-53250000D01*
X151600000Y-39250000D02*
X165600000Y-39250000D01*
X132500000Y-54600000D02*
X132500000Y-40600000D01*
X146500000Y-54600000D02*
X132500000Y-54600000D01*
X146500000Y-40600000D02*
X146500000Y-54600000D01*
X132500000Y-40600000D02*
X146500000Y-40600000D01*
X113500000Y-57000000D02*
X113500000Y-43000000D01*
X127500000Y-57000000D02*
X113500000Y-57000000D01*
X127500000Y-43000000D02*
X127500000Y-57000000D01*
X113500000Y-43000000D02*
X127500000Y-43000000D01*
X111105790Y-38059525D02*
X110903109Y-38433244D01*
X83948756Y-87719784D02*
X83624327Y-87986874D01*
X83624327Y-87986874D02*
X83357586Y-88311735D01*
X109761041Y-86972420D02*
X110086513Y-86703891D01*
X109387388Y-87175137D02*
X109761041Y-86972420D01*
X110086513Y-86703891D02*
X110354995Y-86378361D01*
X85185665Y-87347787D02*
X108530757Y-87347983D01*
X110557675Y-86004642D02*
X110685745Y-85591546D01*
X83357586Y-88311735D02*
X83156811Y-88686086D01*
X110685745Y-85591546D02*
X110730392Y-85147885D01*
X112073396Y-37262748D02*
X111699744Y-37465465D01*
X110903109Y-38433244D02*
X110775040Y-38846339D01*
X110775040Y-38846339D02*
X110730392Y-39290000D01*
X84322599Y-87518750D02*
X83948756Y-87719784D01*
X112486419Y-37134656D02*
X112073396Y-37262748D01*
X83156811Y-88686086D02*
X83030277Y-89101641D01*
X110354995Y-86378361D02*
X110557675Y-86004642D01*
X110730392Y-85147885D02*
X110730392Y-39290000D01*
X83030277Y-89101641D02*
X82986260Y-89550119D01*
X84737579Y-87392055D02*
X84322599Y-87518750D01*
X111699744Y-37465465D02*
X111374272Y-37733994D01*
X111374272Y-37733994D02*
X111105790Y-38059525D01*
X108530784Y-87347885D02*
X108974366Y-87303229D01*
X85185421Y-87347983D02*
X84737579Y-87392055D01*
X108974366Y-87303229D02*
X109387388Y-87175137D01*
X112930000Y-37090000D02*
X112486419Y-37134656D01*
X187714087Y-138785913D02*
X187530998Y-138563960D01*
X188472504Y-139194553D02*
X188190848Y-139107217D01*
X187530998Y-138563960D02*
X187392782Y-138309152D01*
X188190848Y-139107217D02*
X187936039Y-138969001D01*
X187392782Y-138309152D02*
X187305447Y-138027496D01*
X188750000Y-139200000D02*
X188472504Y-139194553D01*
X187936039Y-138969001D02*
X187714087Y-138785913D01*
X186658574Y-133452455D02*
G75*
G02X187300000Y-134150000I-58574J-697545D01*
G01*
X124667888Y-140255128D02*
X127100000Y-138950000D01*
X120963416Y-142391346D02*
X124667888Y-140255128D01*
X117258944Y-144527564D02*
X120963416Y-142391346D01*
X113554472Y-146663782D02*
X117258944Y-144527564D01*
X127100000Y-138950000D02*
X147900000Y-133400000D01*
X187300000Y-134150000D02*
X187305447Y-138027496D01*
X147900000Y-133400000D02*
X186658574Y-133452455D01*
X109882452Y-148801617D02*
X113554472Y-146663782D01*
X188750000Y-139200000D02*
X204200000Y-139200000D01*
X115211711Y-37086762D02*
X112930000Y-37090000D01*
X199807654Y-38170488D02*
X189919538Y-37585374D01*
X208420758Y-38945561D02*
X199807654Y-38170488D01*
X215525697Y-39885159D02*
X208420758Y-38945561D01*
X220889319Y-40963847D02*
X215525697Y-39885159D01*
X178989563Y-37215654D02*
X167250881Y-37086762D01*
X189919538Y-37585374D02*
X178989563Y-37215654D01*
X225460000Y-52918378D02*
X225460000Y-62400000D01*
X225460000Y-43436755D02*
X225460000Y-52918378D01*
X125619545Y-37086762D02*
X115211711Y-37086762D01*
X136027379Y-37086762D02*
X125619545Y-37086762D01*
X146435213Y-37086762D02*
X136027379Y-37086762D01*
X156843047Y-37086762D02*
X146435213Y-37086762D01*
X167250881Y-37086762D02*
X156843047Y-37086762D01*
X88291758Y-116318073D02*
X89993333Y-119989540D01*
X86863105Y-112530670D02*
X88291758Y-116318073D01*
X85688004Y-108649127D02*
X86863105Y-112530670D01*
X84747083Y-104695246D02*
X85688004Y-108649127D01*
X84020972Y-100690825D02*
X84747083Y-104695246D01*
X83490297Y-96657663D02*
X84020972Y-100690825D01*
X83135690Y-92617561D02*
X83490297Y-96657663D01*
X82986260Y-89550119D02*
X83135690Y-92617561D01*
X108038864Y-149857278D02*
X108206758Y-149771756D01*
X107880206Y-149904468D02*
X108038864Y-149857278D01*
X107731252Y-149913974D02*
X107880206Y-149904468D01*
X107592470Y-149886445D02*
X107731252Y-149913974D01*
X107464328Y-149822532D02*
X107592470Y-149886445D01*
X107347295Y-149722884D02*
X107464328Y-149822532D01*
X107241837Y-149588150D02*
X107347295Y-149722884D01*
X107148425Y-149418979D02*
X107241837Y-149588150D01*
X108206758Y-149771756D02*
X109882452Y-148801617D01*
X101722730Y-140052659D02*
X107148425Y-149418979D01*
X100047036Y-137186340D02*
X101722730Y-140052659D01*
X98371341Y-134320020D02*
X100047036Y-137186340D01*
X96695647Y-131453701D02*
X98371341Y-134320020D01*
X95019952Y-128587381D02*
X96695647Y-131453701D01*
X93344258Y-125721062D02*
X95019952Y-128587381D01*
X91668563Y-122854742D02*
X93344258Y-125721062D01*
X89992869Y-119988423D02*
X91668563Y-122854742D01*
X224278471Y-42156190D02*
X220889319Y-40963847D01*
X225460000Y-43436755D02*
X224278471Y-42156190D01*
X225460000Y-109808112D02*
X225472504Y-118955447D01*
X225460000Y-100326490D02*
X225460000Y-109808112D01*
X225460000Y-90844867D02*
X225460000Y-100326490D01*
X225460000Y-81363245D02*
X225460000Y-90844867D01*
X225460000Y-71881623D02*
X225460000Y-81363245D01*
X225460000Y-62400000D02*
X225460000Y-71881623D01*
D15*
X129000000Y-59400000D03*
X205600000Y-61900000D03*
X129000000Y-97600000D03*
X205600000Y-100000000D03*
X108500000Y-120900000D03*
D16*
G36*
X178973109Y-37950518D02*
G01*
X189885418Y-38319640D01*
X199752993Y-38903539D01*
X208339593Y-39676226D01*
X215404929Y-40610587D01*
X220693942Y-41674270D01*
X223862183Y-42788894D01*
X224725000Y-43724033D01*
X224725001Y-52882264D01*
X224725000Y-52882274D01*
X224725001Y-62363886D01*
X224725000Y-62363896D01*
X224725001Y-71845509D01*
X224725000Y-71845519D01*
X224725001Y-81327131D01*
X224725000Y-81327141D01*
X224725001Y-90808753D01*
X224725000Y-90808763D01*
X224725001Y-100290376D01*
X224725000Y-100290386D01*
X224725001Y-109772507D01*
X224724952Y-109773012D01*
X224725001Y-109808855D01*
X224725001Y-109844217D01*
X224725050Y-109844715D01*
X224737495Y-118948728D01*
X224734239Y-119114568D01*
X224699135Y-119227778D01*
X224629309Y-119356506D01*
X224536307Y-119469251D01*
X224423563Y-119562253D01*
X224294837Y-119632078D01*
X224188663Y-119665000D01*
X209271590Y-119665000D01*
X209270817Y-119664848D01*
X209199729Y-119665000D01*
X209163895Y-119665000D01*
X209163100Y-119665078D01*
X209162315Y-119665080D01*
X209127332Y-119668601D01*
X209055915Y-119675635D01*
X209055153Y-119675866D01*
X208455020Y-119736271D01*
X208417263Y-119736503D01*
X208347705Y-119750784D01*
X208278273Y-119764750D01*
X208243430Y-119779270D01*
X207653790Y-119962106D01*
X207618251Y-119969402D01*
X207518264Y-120011539D01*
X207518253Y-120011545D01*
X207484825Y-120025633D01*
X207454794Y-120045967D01*
X206924889Y-120333405D01*
X206892633Y-120346861D01*
X206861406Y-120367840D01*
X206860239Y-120368473D01*
X206831563Y-120387889D01*
X206802569Y-120407368D01*
X206801536Y-120408220D01*
X206770394Y-120429306D01*
X206745838Y-120454166D01*
X206286113Y-120833393D01*
X206257439Y-120852448D01*
X206230409Y-120879343D01*
X206228977Y-120880524D01*
X206204743Y-120904880D01*
X206180524Y-120928978D01*
X206179349Y-120930402D01*
X206152448Y-120957439D01*
X206133391Y-120986116D01*
X205754170Y-121445833D01*
X205729306Y-121470394D01*
X205708216Y-121501542D01*
X205707368Y-121502570D01*
X205687934Y-121531496D01*
X205668473Y-121560239D01*
X205667840Y-121561406D01*
X205646860Y-121592634D01*
X205633403Y-121624892D01*
X205345973Y-122154785D01*
X205325632Y-122184825D01*
X205283494Y-122284811D01*
X205283492Y-122284819D01*
X205269402Y-122318252D01*
X205262108Y-122353782D01*
X205079271Y-122943428D01*
X205064750Y-122978274D01*
X205050778Y-123047738D01*
X205036503Y-123117264D01*
X205036271Y-123155021D01*
X204975866Y-123755154D01*
X204975635Y-123755916D01*
X204968601Y-123827333D01*
X204965080Y-123862316D01*
X204965078Y-123863101D01*
X204965000Y-123863896D01*
X204965000Y-123899568D01*
X204964847Y-123970817D01*
X204965000Y-123971595D01*
X204965001Y-137682558D01*
X204946522Y-137852559D01*
X204901632Y-137997328D01*
X204831804Y-138126059D01*
X204738802Y-138238804D01*
X204626062Y-138331803D01*
X204497329Y-138401632D01*
X204355379Y-138445647D01*
X204163106Y-138465000D01*
X188757174Y-138465000D01*
X188590879Y-138461735D01*
X188477669Y-138426631D01*
X188348941Y-138356805D01*
X188236196Y-138263803D01*
X188143194Y-138151059D01*
X188073369Y-138022333D01*
X188040290Y-137915651D01*
X188034948Y-134112863D01*
X188032830Y-134091662D01*
X188028782Y-134023528D01*
X188020559Y-133971605D01*
X188015063Y-133919321D01*
X188012929Y-133909283D01*
X187983592Y-133775854D01*
X187962992Y-133712454D01*
X187943308Y-133648865D01*
X187939266Y-133639432D01*
X187884572Y-133514242D01*
X187852058Y-133456066D01*
X187820386Y-133397489D01*
X187814593Y-133389029D01*
X187814590Y-133389024D01*
X187814587Y-133389020D01*
X187736619Y-133276840D01*
X187693446Y-133226113D01*
X187650984Y-133174784D01*
X187643652Y-133167603D01*
X187545379Y-133072702D01*
X187493163Y-133031316D01*
X187441545Y-132989217D01*
X187432958Y-132983597D01*
X187318123Y-132909591D01*
X187258810Y-132879109D01*
X187200051Y-132847866D01*
X187190537Y-132844021D01*
X187063515Y-132793730D01*
X186999474Y-132775367D01*
X186935708Y-132756115D01*
X186925628Y-132754192D01*
X186832630Y-132737124D01*
X186803638Y-132728286D01*
X186695673Y-132717505D01*
X147912904Y-132665017D01*
X147852468Y-132662975D01*
X147804885Y-132670780D01*
X147756896Y-132675441D01*
X147699014Y-132692914D01*
X126932801Y-138233899D01*
X126884448Y-138243599D01*
X126829616Y-138266417D01*
X126774040Y-138287268D01*
X126732144Y-138313260D01*
X124342259Y-139595729D01*
X124331994Y-139600373D01*
X124310417Y-139612816D01*
X124288535Y-139624558D01*
X124279205Y-139630814D01*
X120627532Y-141736587D01*
X120627522Y-141736591D01*
X116923060Y-143872805D01*
X116923050Y-143872809D01*
X113217261Y-146009788D01*
X113215868Y-146010425D01*
X113185892Y-146027877D01*
X113156025Y-146045100D01*
X113154787Y-146045986D01*
X109513455Y-148165956D01*
X107855572Y-149125783D01*
X107832597Y-149137486D01*
X107805654Y-149088691D01*
X107802520Y-149081802D01*
X107788185Y-149057056D01*
X107774399Y-149032089D01*
X107770120Y-149025870D01*
X102376092Y-139714219D01*
X102375475Y-139712876D01*
X102357885Y-139682788D01*
X102340629Y-139652999D01*
X102339777Y-139651814D01*
X100663337Y-136784219D01*
X100663336Y-136784218D01*
X99024086Y-133980237D01*
X97311948Y-131051580D01*
X97311947Y-131051579D01*
X97014490Y-130542770D01*
X98504778Y-130542770D01*
X98509515Y-130687475D01*
X98542391Y-130828475D01*
X98587033Y-130927000D01*
X98602144Y-130960351D01*
X98623273Y-130989837D01*
X105587174Y-143051672D01*
X105602142Y-143084708D01*
X105623267Y-143114188D01*
X105623273Y-143114198D01*
X105686473Y-143202394D01*
X105792145Y-143301366D01*
X105915094Y-143377821D01*
X105915096Y-143377822D01*
X105968819Y-143398042D01*
X106050597Y-143428821D01*
X106193445Y-143452405D01*
X106193446Y-143452405D01*
X106338151Y-143447668D01*
X106479151Y-143414791D01*
X106577982Y-143370012D01*
X106577987Y-143370009D01*
X106611027Y-143355039D01*
X106640512Y-143333910D01*
X118702345Y-136370009D01*
X118735384Y-136355039D01*
X118764867Y-136333911D01*
X118764873Y-136333908D01*
X118853069Y-136270708D01*
X118952041Y-136165036D01*
X119028496Y-136042087D01*
X119079496Y-135906584D01*
X119103080Y-135763736D01*
X119098343Y-135619031D01*
X119097948Y-135617333D01*
X119065466Y-135478029D01*
X119020687Y-135379198D01*
X119020682Y-135379190D01*
X119005714Y-135346154D01*
X118984588Y-135316673D01*
X112020685Y-123254844D01*
X112005713Y-123221800D01*
X111972632Y-123175635D01*
X111921380Y-123104114D01*
X111815709Y-123005142D01*
X111692759Y-122928686D01*
X111557257Y-122877687D01*
X111414408Y-122854103D01*
X111269703Y-122858840D01*
X111128703Y-122891717D01*
X111029872Y-122936496D01*
X111029867Y-122936499D01*
X110996827Y-122951469D01*
X110967344Y-122972597D01*
X98905521Y-129936493D01*
X98872475Y-129951466D01*
X98842986Y-129972598D01*
X98842985Y-129972598D01*
X98754789Y-130035798D01*
X98655817Y-130141470D01*
X98579361Y-130264419D01*
X98532217Y-130389680D01*
X98528362Y-130399922D01*
X98504778Y-130542770D01*
X97014490Y-130542770D01*
X93960559Y-125318941D01*
X93960558Y-125318940D01*
X92321047Y-122514513D01*
X91225456Y-120640475D01*
X105865000Y-120640475D01*
X105865000Y-121159525D01*
X105966261Y-121668601D01*
X106164893Y-122148141D01*
X106453262Y-122579715D01*
X106820285Y-122946738D01*
X107251859Y-123235107D01*
X107731399Y-123433739D01*
X108240475Y-123535000D01*
X108759525Y-123535000D01*
X109268601Y-123433739D01*
X109748141Y-123235107D01*
X110179715Y-122946738D01*
X110546738Y-122579715D01*
X110666676Y-122400215D01*
X124889198Y-122400215D01*
X124903672Y-122487883D01*
X124912782Y-122543064D01*
X124925560Y-122577015D01*
X128530338Y-136030235D01*
X128536247Y-136066025D01*
X128549025Y-136099974D01*
X128549026Y-136099979D01*
X128587246Y-136201527D01*
X128663700Y-136324477D01*
X128762673Y-136430149D01*
X128880358Y-136514481D01*
X129012235Y-136574234D01*
X129153236Y-136607110D01*
X129297940Y-136611847D01*
X129404994Y-136594173D01*
X129404997Y-136594172D01*
X129440789Y-136588263D01*
X129474740Y-136575485D01*
X142927958Y-132970708D01*
X142963751Y-132964798D01*
X142997703Y-132952019D01*
X142997705Y-132952019D01*
X143034416Y-132938202D01*
X143099254Y-132913799D01*
X143146394Y-132884485D01*
X143222203Y-132837345D01*
X143327875Y-132738372D01*
X143412207Y-132620687D01*
X143471960Y-132488810D01*
X143504836Y-132347809D01*
X143509573Y-132203105D01*
X143509573Y-132203104D01*
X143491899Y-132096051D01*
X143491898Y-132096048D01*
X143485989Y-132060256D01*
X143473211Y-132026305D01*
X139868432Y-118573095D01*
X139862522Y-118537295D01*
X139811522Y-118401793D01*
X139735068Y-118278843D01*
X139636095Y-118173171D01*
X139518410Y-118088839D01*
X139386533Y-118029086D01*
X139245532Y-117996210D01*
X139100828Y-117991473D01*
X139100827Y-117991473D01*
X138993774Y-118009147D01*
X138993770Y-118009148D01*
X138957980Y-118015057D01*
X138924032Y-118027834D01*
X125470820Y-121632612D01*
X125435020Y-121638522D01*
X125299518Y-121689522D01*
X125176568Y-121765976D01*
X125070896Y-121864949D01*
X124986564Y-121982634D01*
X124926811Y-122114511D01*
X124893935Y-122255512D01*
X124889198Y-122400215D01*
X110666676Y-122400215D01*
X110835107Y-122148141D01*
X111033739Y-121668601D01*
X111135000Y-121159525D01*
X111135000Y-120640475D01*
X111033739Y-120131399D01*
X110835107Y-119651859D01*
X110546738Y-119220285D01*
X110179715Y-118853262D01*
X109748141Y-118564893D01*
X109268601Y-118366261D01*
X108759525Y-118265000D01*
X108240475Y-118265000D01*
X107731399Y-118366261D01*
X107251859Y-118564893D01*
X106820285Y-118853262D01*
X106453262Y-119220285D01*
X106164893Y-119651859D01*
X105966261Y-120131399D01*
X105865000Y-120640475D01*
X91225456Y-120640475D01*
X90644772Y-119647200D01*
X88969949Y-116033455D01*
X88749863Y-115450000D01*
X150861444Y-115450000D01*
X150865001Y-115486115D01*
X150865000Y-129413895D01*
X150861444Y-129450000D01*
X150875635Y-129594085D01*
X150917663Y-129732633D01*
X150985913Y-129860320D01*
X151077762Y-129972238D01*
X151155210Y-130035798D01*
X151189680Y-130064087D01*
X151317367Y-130132337D01*
X151455915Y-130174365D01*
X151600000Y-130188556D01*
X151636105Y-130185000D01*
X165563895Y-130185000D01*
X165600000Y-130188556D01*
X165636105Y-130185000D01*
X165744085Y-130174365D01*
X165882633Y-130132337D01*
X166010320Y-130064087D01*
X166122238Y-129972238D01*
X166214087Y-129860320D01*
X166282337Y-129732633D01*
X166324365Y-129594085D01*
X166338556Y-129450000D01*
X166335000Y-129413895D01*
X166335000Y-116800000D01*
X169861444Y-116800000D01*
X169865001Y-116836115D01*
X169865000Y-130763895D01*
X169861444Y-130800000D01*
X169875635Y-130944085D01*
X169917663Y-131082633D01*
X169985913Y-131210320D01*
X170077762Y-131322238D01*
X170183970Y-131409401D01*
X170189680Y-131414087D01*
X170317367Y-131482337D01*
X170455915Y-131524365D01*
X170600000Y-131538556D01*
X170636105Y-131535000D01*
X184563895Y-131535000D01*
X184600000Y-131538556D01*
X184636105Y-131535000D01*
X184744085Y-131524365D01*
X184882633Y-131482337D01*
X185010320Y-131414087D01*
X185122238Y-131322238D01*
X185214087Y-131210320D01*
X185282337Y-131082633D01*
X185324365Y-130944085D01*
X185338556Y-130800000D01*
X185335000Y-130763895D01*
X185335000Y-121500000D01*
X188961444Y-121500000D01*
X188965001Y-121536115D01*
X188965000Y-135463895D01*
X188961444Y-135500000D01*
X188975635Y-135644085D01*
X189017663Y-135782633D01*
X189085913Y-135910320D01*
X189177762Y-136022238D01*
X189287471Y-136112274D01*
X189289680Y-136114087D01*
X189417367Y-136182337D01*
X189555915Y-136224365D01*
X189700000Y-136238556D01*
X189736105Y-136235000D01*
X203663895Y-136235000D01*
X203700000Y-136238556D01*
X203736105Y-136235000D01*
X203844085Y-136224365D01*
X203982633Y-136182337D01*
X204110320Y-136114087D01*
X204222238Y-136022238D01*
X204314087Y-135910320D01*
X204382337Y-135782633D01*
X204424365Y-135644085D01*
X204438556Y-135500000D01*
X204435000Y-135463895D01*
X204435000Y-121536105D01*
X204438556Y-121500000D01*
X204424365Y-121355915D01*
X204382337Y-121217367D01*
X204314087Y-121089680D01*
X204222238Y-120977762D01*
X204110320Y-120885913D01*
X203982633Y-120817663D01*
X203844085Y-120775635D01*
X203736105Y-120765000D01*
X203700000Y-120761444D01*
X203663895Y-120765000D01*
X189736105Y-120765000D01*
X189700000Y-120761444D01*
X189663895Y-120765000D01*
X189555915Y-120775635D01*
X189417367Y-120817663D01*
X189289680Y-120885913D01*
X189177762Y-120977762D01*
X189085913Y-121089680D01*
X189017663Y-121217367D01*
X188975635Y-121355915D01*
X188961444Y-121500000D01*
X185335000Y-121500000D01*
X185335000Y-116836105D01*
X185338556Y-116800000D01*
X185324365Y-116655915D01*
X185282337Y-116517367D01*
X185214087Y-116389680D01*
X185122238Y-116277762D01*
X185010320Y-116185913D01*
X184882633Y-116117663D01*
X184744085Y-116075635D01*
X184636105Y-116065000D01*
X184600000Y-116061444D01*
X184563895Y-116065000D01*
X170636105Y-116065000D01*
X170600000Y-116061444D01*
X170563895Y-116065000D01*
X170455915Y-116075635D01*
X170317367Y-116117663D01*
X170189680Y-116185913D01*
X170077762Y-116277762D01*
X169985913Y-116389680D01*
X169917663Y-116517367D01*
X169875635Y-116655915D01*
X169861444Y-116800000D01*
X166335000Y-116800000D01*
X166335000Y-115486105D01*
X166338556Y-115450000D01*
X166324365Y-115305915D01*
X166282337Y-115167367D01*
X166214087Y-115039680D01*
X166122238Y-114927762D01*
X166010320Y-114835913D01*
X165882633Y-114767663D01*
X165744085Y-114725635D01*
X165636105Y-114715000D01*
X165600000Y-114711444D01*
X165563895Y-114715000D01*
X151636105Y-114715000D01*
X151600000Y-114711444D01*
X151563895Y-114715000D01*
X151455915Y-114725635D01*
X151317367Y-114767663D01*
X151189680Y-114835913D01*
X151077762Y-114927762D01*
X150985913Y-115039680D01*
X150917663Y-115167367D01*
X150875635Y-115305915D01*
X150861444Y-115450000D01*
X88749863Y-115450000D01*
X87559469Y-112294231D01*
X86397902Y-108457396D01*
X85466732Y-104544488D01*
X84747363Y-100577251D01*
X84221091Y-96577555D01*
X84008021Y-94150000D01*
X93661444Y-94150000D01*
X93665001Y-94186115D01*
X93665000Y-108113895D01*
X93661444Y-108150000D01*
X93675635Y-108294085D01*
X93717663Y-108432633D01*
X93785913Y-108560320D01*
X93877762Y-108672238D01*
X93937313Y-108721110D01*
X93989680Y-108764087D01*
X94117367Y-108832337D01*
X94255915Y-108874365D01*
X94400000Y-108888556D01*
X94436105Y-108885000D01*
X108363895Y-108885000D01*
X108400000Y-108888556D01*
X108436105Y-108885000D01*
X108544085Y-108874365D01*
X108682633Y-108832337D01*
X108810320Y-108764087D01*
X108922238Y-108672238D01*
X109014087Y-108560320D01*
X109082337Y-108432633D01*
X109124365Y-108294085D01*
X109138556Y-108150000D01*
X109135000Y-108113895D01*
X109135000Y-94186105D01*
X109138556Y-94150000D01*
X109124365Y-94005915D01*
X109082337Y-93867367D01*
X109014087Y-93739680D01*
X108922238Y-93627762D01*
X108810320Y-93535913D01*
X108682633Y-93467663D01*
X108544085Y-93425635D01*
X108436105Y-93415000D01*
X108400000Y-93411444D01*
X108363895Y-93415000D01*
X94436105Y-93415000D01*
X94400000Y-93411444D01*
X94363895Y-93415000D01*
X94255915Y-93425635D01*
X94117367Y-93467663D01*
X93989680Y-93535913D01*
X93877762Y-93627762D01*
X93785913Y-93739680D01*
X93717663Y-93867367D01*
X93675635Y-94005915D01*
X93661444Y-94150000D01*
X84008021Y-94150000D01*
X83869124Y-92567531D01*
X83723013Y-89568231D01*
X83754640Y-89245994D01*
X83838811Y-88969564D01*
X83971298Y-88722539D01*
X84146856Y-88508729D01*
X84360301Y-88333008D01*
X84606709Y-88200501D01*
X84882297Y-88116363D01*
X85223488Y-88082787D01*
X108459691Y-88082982D01*
X108459980Y-88083039D01*
X108486260Y-88082982D01*
X108566855Y-88082983D01*
X108674835Y-88072349D01*
X108676073Y-88071974D01*
X109013550Y-88037999D01*
X109051315Y-88037765D01*
X109120665Y-88023522D01*
X109190282Y-88009518D01*
X109225148Y-87994988D01*
X109570623Y-87887845D01*
X109606167Y-87880545D01*
X109659475Y-87858074D01*
X109739574Y-87824313D01*
X109769622Y-87803965D01*
X110078637Y-87636316D01*
X110110888Y-87622859D01*
X110142102Y-87601885D01*
X110143274Y-87601249D01*
X110172143Y-87581699D01*
X110200947Y-87562344D01*
X110201971Y-87561499D01*
X110233114Y-87540409D01*
X110257675Y-87515541D01*
X110524987Y-87294996D01*
X110553659Y-87275939D01*
X110580691Y-87249038D01*
X110582119Y-87247860D01*
X110606262Y-87223591D01*
X110630568Y-87199403D01*
X110631748Y-87197972D01*
X110658642Y-87170938D01*
X110677694Y-87142264D01*
X110898195Y-86874909D01*
X110923055Y-86850349D01*
X110944145Y-86819196D01*
X110944995Y-86818165D01*
X110964397Y-86789280D01*
X110983881Y-86760499D01*
X110984517Y-86759326D01*
X111005495Y-86728095D01*
X111018947Y-86695841D01*
X111186552Y-86386797D01*
X111206886Y-86356764D01*
X111220981Y-86323313D01*
X111220986Y-86323305D01*
X111233640Y-86293272D01*
X111249019Y-86256776D01*
X111249022Y-86256765D01*
X111263116Y-86223316D01*
X111270407Y-86187787D01*
X111377526Y-85842270D01*
X111392042Y-85807435D01*
X111406003Y-85738018D01*
X111420289Y-85668423D01*
X111420519Y-85630676D01*
X111454528Y-85292724D01*
X111454757Y-85291970D01*
X111461783Y-85220628D01*
X111465313Y-85185555D01*
X111465315Y-85184775D01*
X111465392Y-85183990D01*
X111465392Y-85148287D01*
X111465543Y-85077053D01*
X111465392Y-85076285D01*
X111465392Y-81100000D01*
X112761444Y-81100000D01*
X112765001Y-81136115D01*
X112765000Y-95063895D01*
X112761444Y-95100000D01*
X112775635Y-95244085D01*
X112817663Y-95382633D01*
X112885913Y-95510320D01*
X112977762Y-95622238D01*
X113089680Y-95714087D01*
X113217367Y-95782337D01*
X113355915Y-95824365D01*
X113500000Y-95838556D01*
X113536105Y-95835000D01*
X127038547Y-95835000D01*
X126953262Y-95920285D01*
X126664893Y-96351859D01*
X126466261Y-96831399D01*
X126365000Y-97340475D01*
X126365000Y-97859525D01*
X126466261Y-98368601D01*
X126664893Y-98848141D01*
X126953262Y-99279715D01*
X127088547Y-99415000D01*
X113536105Y-99415000D01*
X113500000Y-99411444D01*
X113463895Y-99415000D01*
X113355915Y-99425635D01*
X113217367Y-99467663D01*
X113089680Y-99535913D01*
X112977762Y-99627762D01*
X112885913Y-99739680D01*
X112817663Y-99867367D01*
X112775635Y-100005915D01*
X112761444Y-100150000D01*
X112765001Y-100186115D01*
X112765000Y-114113895D01*
X112761444Y-114150000D01*
X112775635Y-114294085D01*
X112817663Y-114432633D01*
X112885913Y-114560320D01*
X112977762Y-114672238D01*
X113089680Y-114764087D01*
X113217367Y-114832337D01*
X113355915Y-114874365D01*
X113500000Y-114888556D01*
X113536105Y-114885000D01*
X127463895Y-114885000D01*
X127500000Y-114888556D01*
X127536105Y-114885000D01*
X127644085Y-114874365D01*
X127782633Y-114832337D01*
X127910320Y-114764087D01*
X128022238Y-114672238D01*
X128114087Y-114560320D01*
X128182337Y-114432633D01*
X128224365Y-114294085D01*
X128238556Y-114150000D01*
X128235000Y-114113895D01*
X128235000Y-100186105D01*
X128238556Y-100150000D01*
X128237065Y-100134866D01*
X128740475Y-100235000D01*
X129259525Y-100235000D01*
X129768601Y-100133739D01*
X130248141Y-99935107D01*
X130679715Y-99646738D01*
X131046738Y-99279715D01*
X131335107Y-98848141D01*
X131533739Y-98368601D01*
X131635000Y-97859525D01*
X131635000Y-97750000D01*
X131761444Y-97750000D01*
X131765001Y-97786115D01*
X131765000Y-111713895D01*
X131761444Y-111750000D01*
X131775635Y-111894085D01*
X131817663Y-112032633D01*
X131885913Y-112160320D01*
X131977762Y-112272238D01*
X132075265Y-112352257D01*
X132089680Y-112364087D01*
X132217367Y-112432337D01*
X132355915Y-112474365D01*
X132500000Y-112488556D01*
X132536105Y-112485000D01*
X146463895Y-112485000D01*
X146500000Y-112488556D01*
X146536105Y-112485000D01*
X146644085Y-112474365D01*
X146782633Y-112432337D01*
X146910320Y-112364087D01*
X147022238Y-112272238D01*
X147114087Y-112160320D01*
X147182337Y-112032633D01*
X147224365Y-111894085D01*
X147238556Y-111750000D01*
X147235000Y-111713895D01*
X147235000Y-97786105D01*
X147238556Y-97750000D01*
X147224365Y-97605915D01*
X147182337Y-97467367D01*
X147114087Y-97339680D01*
X147022238Y-97227762D01*
X146910320Y-97135913D01*
X146782633Y-97067663D01*
X146644085Y-97025635D01*
X146536105Y-97015000D01*
X146500000Y-97011444D01*
X146463895Y-97015000D01*
X132536105Y-97015000D01*
X132500000Y-97011444D01*
X132463895Y-97015000D01*
X132355915Y-97025635D01*
X132217367Y-97067663D01*
X132089680Y-97135913D01*
X131977762Y-97227762D01*
X131885913Y-97339680D01*
X131817663Y-97467367D01*
X131775635Y-97605915D01*
X131761444Y-97750000D01*
X131635000Y-97750000D01*
X131635000Y-97340475D01*
X131533739Y-96831399D01*
X131355048Y-96400000D01*
X150861444Y-96400000D01*
X150865001Y-96436115D01*
X150865000Y-110363895D01*
X150861444Y-110400000D01*
X150875635Y-110544085D01*
X150917663Y-110682633D01*
X150985913Y-110810320D01*
X151077762Y-110922238D01*
X151189680Y-111014087D01*
X151317367Y-111082337D01*
X151455915Y-111124365D01*
X151600000Y-111138556D01*
X151636105Y-111135000D01*
X165563895Y-111135000D01*
X165600000Y-111138556D01*
X165636105Y-111135000D01*
X165744085Y-111124365D01*
X165882633Y-111082337D01*
X166010320Y-111014087D01*
X166122238Y-110922238D01*
X166214087Y-110810320D01*
X166282337Y-110682633D01*
X166324365Y-110544085D01*
X166338556Y-110400000D01*
X166335000Y-110363895D01*
X166335000Y-97750000D01*
X169861444Y-97750000D01*
X169865001Y-97786115D01*
X169865000Y-111713895D01*
X169861444Y-111750000D01*
X169875635Y-111894085D01*
X169917663Y-112032633D01*
X169985913Y-112160320D01*
X170077762Y-112272238D01*
X170175265Y-112352257D01*
X170189680Y-112364087D01*
X170317367Y-112432337D01*
X170455915Y-112474365D01*
X170600000Y-112488556D01*
X170636105Y-112485000D01*
X184563895Y-112485000D01*
X184600000Y-112488556D01*
X184636105Y-112485000D01*
X184744085Y-112474365D01*
X184882633Y-112432337D01*
X185010320Y-112364087D01*
X185122238Y-112272238D01*
X185214087Y-112160320D01*
X185282337Y-112032633D01*
X185324365Y-111894085D01*
X185338556Y-111750000D01*
X185335000Y-111713895D01*
X185335000Y-97786105D01*
X185338556Y-97750000D01*
X185324365Y-97605915D01*
X185282337Y-97467367D01*
X185214087Y-97339680D01*
X185122238Y-97227762D01*
X185010320Y-97135913D01*
X184882633Y-97067663D01*
X184744085Y-97025635D01*
X184636105Y-97015000D01*
X184600000Y-97011444D01*
X184563895Y-97015000D01*
X170636105Y-97015000D01*
X170600000Y-97011444D01*
X170563895Y-97015000D01*
X170455915Y-97025635D01*
X170317367Y-97067663D01*
X170189680Y-97135913D01*
X170077762Y-97227762D01*
X169985913Y-97339680D01*
X169917663Y-97467367D01*
X169875635Y-97605915D01*
X169861444Y-97750000D01*
X166335000Y-97750000D01*
X166335000Y-96436105D01*
X166338556Y-96400000D01*
X166324365Y-96255915D01*
X166282337Y-96117367D01*
X166214087Y-95989680D01*
X166122238Y-95877762D01*
X166010320Y-95785913D01*
X165882633Y-95717663D01*
X165744085Y-95675635D01*
X165636105Y-95665000D01*
X165600000Y-95661444D01*
X165563895Y-95665000D01*
X151636105Y-95665000D01*
X151600000Y-95661444D01*
X151563895Y-95665000D01*
X151455915Y-95675635D01*
X151317367Y-95717663D01*
X151189680Y-95785913D01*
X151077762Y-95877762D01*
X150985913Y-95989680D01*
X150917663Y-96117367D01*
X150875635Y-96255915D01*
X150861444Y-96400000D01*
X131355048Y-96400000D01*
X131335107Y-96351859D01*
X131046738Y-95920285D01*
X130679715Y-95553262D01*
X130248141Y-95264893D01*
X129768601Y-95066261D01*
X129259525Y-94965000D01*
X128740475Y-94965000D01*
X128235159Y-95065513D01*
X128235000Y-95063895D01*
X128235000Y-81136105D01*
X128238556Y-81100000D01*
X128224365Y-80955915D01*
X128182337Y-80817367D01*
X128114087Y-80689680D01*
X128022238Y-80577762D01*
X127910320Y-80485913D01*
X127782633Y-80417663D01*
X127644085Y-80375635D01*
X127536105Y-80365000D01*
X127500000Y-80361444D01*
X127463895Y-80365000D01*
X113536105Y-80365000D01*
X113500000Y-80361444D01*
X113463895Y-80365000D01*
X113355915Y-80375635D01*
X113217367Y-80417663D01*
X113089680Y-80485913D01*
X112977762Y-80577762D01*
X112885913Y-80689680D01*
X112817663Y-80817367D01*
X112775635Y-80955915D01*
X112761444Y-81100000D01*
X111465392Y-81100000D01*
X111465392Y-78700000D01*
X131761444Y-78700000D01*
X131765001Y-78736115D01*
X131765000Y-92663895D01*
X131761444Y-92700000D01*
X131775635Y-92844085D01*
X131817663Y-92982633D01*
X131885913Y-93110320D01*
X131977762Y-93222238D01*
X132088163Y-93312842D01*
X132089680Y-93314087D01*
X132217367Y-93382337D01*
X132355915Y-93424365D01*
X132500000Y-93438556D01*
X132536105Y-93435000D01*
X146463895Y-93435000D01*
X146500000Y-93438556D01*
X146536105Y-93435000D01*
X146644085Y-93424365D01*
X146782633Y-93382337D01*
X146910320Y-93314087D01*
X147022238Y-93222238D01*
X147114087Y-93110320D01*
X147182337Y-92982633D01*
X147224365Y-92844085D01*
X147238556Y-92700000D01*
X147235000Y-92663895D01*
X147235000Y-78736105D01*
X147238556Y-78700000D01*
X147224365Y-78555915D01*
X147182337Y-78417367D01*
X147114087Y-78289680D01*
X147022238Y-78177762D01*
X146910320Y-78085913D01*
X146782633Y-78017663D01*
X146644085Y-77975635D01*
X146536105Y-77965000D01*
X146500000Y-77961444D01*
X146463895Y-77965000D01*
X132536105Y-77965000D01*
X132500000Y-77961444D01*
X132463895Y-77965000D01*
X132355915Y-77975635D01*
X132217367Y-78017663D01*
X132089680Y-78085913D01*
X131977762Y-78177762D01*
X131885913Y-78289680D01*
X131817663Y-78417367D01*
X131775635Y-78555915D01*
X131761444Y-78700000D01*
X111465392Y-78700000D01*
X111465392Y-77350000D01*
X150861444Y-77350000D01*
X150865001Y-77386115D01*
X150865000Y-91313895D01*
X150861444Y-91350000D01*
X150875635Y-91494085D01*
X150917663Y-91632633D01*
X150985913Y-91760320D01*
X151077762Y-91872238D01*
X151187807Y-91962550D01*
X151189680Y-91964087D01*
X151317367Y-92032337D01*
X151455915Y-92074365D01*
X151600000Y-92088556D01*
X151636105Y-92085000D01*
X165563895Y-92085000D01*
X165600000Y-92088556D01*
X165636105Y-92085000D01*
X165744085Y-92074365D01*
X165882633Y-92032337D01*
X166010320Y-91964087D01*
X166122238Y-91872238D01*
X166214087Y-91760320D01*
X166282337Y-91632633D01*
X166324365Y-91494085D01*
X166338556Y-91350000D01*
X166335000Y-91313895D01*
X166335000Y-78700000D01*
X169861444Y-78700000D01*
X169865001Y-78736115D01*
X169865000Y-92663895D01*
X169861444Y-92700000D01*
X169875635Y-92844085D01*
X169917663Y-92982633D01*
X169985913Y-93110320D01*
X170077762Y-93222238D01*
X170188163Y-93312842D01*
X170189680Y-93314087D01*
X170317367Y-93382337D01*
X170455915Y-93424365D01*
X170600000Y-93438556D01*
X170636105Y-93435000D01*
X184563895Y-93435000D01*
X184600000Y-93438556D01*
X184636105Y-93435000D01*
X184744085Y-93424365D01*
X184882633Y-93382337D01*
X185010320Y-93314087D01*
X185122238Y-93222238D01*
X185214087Y-93110320D01*
X185282337Y-92982633D01*
X185324365Y-92844085D01*
X185338556Y-92700000D01*
X185335000Y-92663895D01*
X185335000Y-83400000D01*
X188961444Y-83400000D01*
X188965001Y-83436115D01*
X188965000Y-97363895D01*
X188961444Y-97400000D01*
X188975635Y-97544085D01*
X189017663Y-97682633D01*
X189085913Y-97810320D01*
X189177762Y-97922238D01*
X189289680Y-98014087D01*
X189417367Y-98082337D01*
X189555915Y-98124365D01*
X189700000Y-98138556D01*
X189736105Y-98135000D01*
X203663895Y-98135000D01*
X203700000Y-98138556D01*
X203736105Y-98135000D01*
X203738814Y-98134733D01*
X203553262Y-98320285D01*
X203264893Y-98751859D01*
X203066261Y-99231399D01*
X202965000Y-99740475D01*
X202965000Y-100259525D01*
X203066261Y-100768601D01*
X203264893Y-101248141D01*
X203553262Y-101679715D01*
X203588547Y-101715000D01*
X189736105Y-101715000D01*
X189700000Y-101711444D01*
X189663895Y-101715000D01*
X189555915Y-101725635D01*
X189417367Y-101767663D01*
X189289680Y-101835913D01*
X189177762Y-101927762D01*
X189085913Y-102039680D01*
X189017663Y-102167367D01*
X188975635Y-102305915D01*
X188961444Y-102450000D01*
X188965001Y-102486115D01*
X188965000Y-116413895D01*
X188961444Y-116450000D01*
X188975635Y-116594085D01*
X189017663Y-116732633D01*
X189085913Y-116860320D01*
X189177762Y-116972238D01*
X189280132Y-117056251D01*
X189289680Y-117064087D01*
X189417367Y-117132337D01*
X189555915Y-117174365D01*
X189700000Y-117188556D01*
X189736105Y-117185000D01*
X203663895Y-117185000D01*
X203700000Y-117188556D01*
X203736105Y-117185000D01*
X203844085Y-117174365D01*
X203982633Y-117132337D01*
X204110320Y-117064087D01*
X204222238Y-116972238D01*
X204314087Y-116860320D01*
X204382337Y-116732633D01*
X204424365Y-116594085D01*
X204438556Y-116450000D01*
X204435000Y-116413895D01*
X204435000Y-103900000D01*
X207961444Y-103900000D01*
X207965001Y-103936115D01*
X207965000Y-117863895D01*
X207961444Y-117900000D01*
X207975635Y-118044085D01*
X208017663Y-118182633D01*
X208085913Y-118310320D01*
X208177762Y-118422238D01*
X208270569Y-118498403D01*
X208289680Y-118514087D01*
X208417367Y-118582337D01*
X208555915Y-118624365D01*
X208700000Y-118638556D01*
X208736105Y-118635000D01*
X222663895Y-118635000D01*
X222700000Y-118638556D01*
X222736105Y-118635000D01*
X222844085Y-118624365D01*
X222982633Y-118582337D01*
X223110320Y-118514087D01*
X223222238Y-118422238D01*
X223314087Y-118310320D01*
X223382337Y-118182633D01*
X223424365Y-118044085D01*
X223438556Y-117900000D01*
X223435000Y-117863895D01*
X223435000Y-103936105D01*
X223438556Y-103900000D01*
X223424365Y-103755915D01*
X223382337Y-103617367D01*
X223314087Y-103489680D01*
X223222238Y-103377762D01*
X223110320Y-103285913D01*
X222982633Y-103217663D01*
X222844085Y-103175635D01*
X222736105Y-103165000D01*
X222700000Y-103161444D01*
X222663895Y-103165000D01*
X208736105Y-103165000D01*
X208700000Y-103161444D01*
X208663895Y-103165000D01*
X208555915Y-103175635D01*
X208417367Y-103217663D01*
X208289680Y-103285913D01*
X208177762Y-103377762D01*
X208085913Y-103489680D01*
X208017663Y-103617367D01*
X207975635Y-103755915D01*
X207961444Y-103900000D01*
X204435000Y-103900000D01*
X204435000Y-102486105D01*
X204438556Y-102450000D01*
X204430446Y-102367659D01*
X204831399Y-102533739D01*
X205340475Y-102635000D01*
X205859525Y-102635000D01*
X206368601Y-102533739D01*
X206848141Y-102335107D01*
X207279715Y-102046738D01*
X207646738Y-101679715D01*
X207935107Y-101248141D01*
X208133739Y-100768601D01*
X208235000Y-100259525D01*
X208235000Y-99740475D01*
X208156632Y-99346491D01*
X208177762Y-99372238D01*
X208289680Y-99464087D01*
X208417367Y-99532337D01*
X208555915Y-99574365D01*
X208700000Y-99588556D01*
X208736105Y-99585000D01*
X222663895Y-99585000D01*
X222700000Y-99588556D01*
X222736105Y-99585000D01*
X222844085Y-99574365D01*
X222982633Y-99532337D01*
X223110320Y-99464087D01*
X223222238Y-99372238D01*
X223314087Y-99260320D01*
X223382337Y-99132633D01*
X223424365Y-98994085D01*
X223438556Y-98850000D01*
X223435000Y-98813895D01*
X223435000Y-84886105D01*
X223438556Y-84850000D01*
X223424365Y-84705915D01*
X223382337Y-84567367D01*
X223314087Y-84439680D01*
X223222238Y-84327762D01*
X223110320Y-84235913D01*
X222982633Y-84167663D01*
X222844085Y-84125635D01*
X222736105Y-84115000D01*
X222700000Y-84111444D01*
X222663895Y-84115000D01*
X208736105Y-84115000D01*
X208700000Y-84111444D01*
X208663895Y-84115000D01*
X208555915Y-84125635D01*
X208417367Y-84167663D01*
X208289680Y-84235913D01*
X208177762Y-84327762D01*
X208085913Y-84439680D01*
X208017663Y-84567367D01*
X207975635Y-84705915D01*
X207961444Y-84850000D01*
X207965001Y-84886114D01*
X207965000Y-98813895D01*
X207964194Y-98822081D01*
X207935107Y-98751859D01*
X207646738Y-98320285D01*
X207279715Y-97953262D01*
X206848141Y-97664893D01*
X206368601Y-97466261D01*
X205859525Y-97365000D01*
X205340475Y-97365000D01*
X204831399Y-97466261D01*
X204392872Y-97647905D01*
X204424365Y-97544085D01*
X204438556Y-97400000D01*
X204435000Y-97363895D01*
X204435000Y-83436105D01*
X204438556Y-83400000D01*
X204424365Y-83255915D01*
X204382337Y-83117367D01*
X204314087Y-82989680D01*
X204222238Y-82877762D01*
X204110320Y-82785913D01*
X203982633Y-82717663D01*
X203844085Y-82675635D01*
X203736105Y-82665000D01*
X203700000Y-82661444D01*
X203663895Y-82665000D01*
X189736105Y-82665000D01*
X189700000Y-82661444D01*
X189663895Y-82665000D01*
X189555915Y-82675635D01*
X189417367Y-82717663D01*
X189289680Y-82785913D01*
X189177762Y-82877762D01*
X189085913Y-82989680D01*
X189017663Y-83117367D01*
X188975635Y-83255915D01*
X188961444Y-83400000D01*
X185335000Y-83400000D01*
X185335000Y-78736105D01*
X185338556Y-78700000D01*
X185324365Y-78555915D01*
X185282337Y-78417367D01*
X185214087Y-78289680D01*
X185122238Y-78177762D01*
X185010320Y-78085913D01*
X184882633Y-78017663D01*
X184744085Y-77975635D01*
X184636105Y-77965000D01*
X184600000Y-77961444D01*
X184563895Y-77965000D01*
X170636105Y-77965000D01*
X170600000Y-77961444D01*
X170563895Y-77965000D01*
X170455915Y-77975635D01*
X170317367Y-78017663D01*
X170189680Y-78085913D01*
X170077762Y-78177762D01*
X169985913Y-78289680D01*
X169917663Y-78417367D01*
X169875635Y-78555915D01*
X169861444Y-78700000D01*
X166335000Y-78700000D01*
X166335000Y-77386105D01*
X166338556Y-77350000D01*
X166324365Y-77205915D01*
X166282337Y-77067367D01*
X166214087Y-76939680D01*
X166122238Y-76827762D01*
X166010320Y-76735913D01*
X165882633Y-76667663D01*
X165744085Y-76625635D01*
X165636105Y-76615000D01*
X165600000Y-76611444D01*
X165563895Y-76615000D01*
X151636105Y-76615000D01*
X151600000Y-76611444D01*
X151563895Y-76615000D01*
X151455915Y-76625635D01*
X151317367Y-76667663D01*
X151189680Y-76735913D01*
X151077762Y-76827762D01*
X150985913Y-76939680D01*
X150917663Y-77067367D01*
X150875635Y-77205915D01*
X150861444Y-77350000D01*
X111465392Y-77350000D01*
X111465392Y-43000000D01*
X112761444Y-43000000D01*
X112765001Y-43036115D01*
X112765000Y-56963895D01*
X112761444Y-57000000D01*
X112775635Y-57144085D01*
X112817663Y-57282633D01*
X112885913Y-57410320D01*
X112977762Y-57522238D01*
X113089680Y-57614087D01*
X113217367Y-57682337D01*
X113355915Y-57724365D01*
X113500000Y-57738556D01*
X113536105Y-57735000D01*
X126943430Y-57735000D01*
X126664893Y-58151859D01*
X126466261Y-58631399D01*
X126365000Y-59140475D01*
X126365000Y-59659525D01*
X126466261Y-60168601D01*
X126664893Y-60648141D01*
X126953262Y-61079715D01*
X127188547Y-61315000D01*
X113536105Y-61315000D01*
X113500000Y-61311444D01*
X113463895Y-61315000D01*
X113355915Y-61325635D01*
X113217367Y-61367663D01*
X113089680Y-61435913D01*
X112977762Y-61527762D01*
X112885913Y-61639680D01*
X112817663Y-61767367D01*
X112775635Y-61905915D01*
X112761444Y-62050000D01*
X112765001Y-62086115D01*
X112765000Y-76013895D01*
X112761444Y-76050000D01*
X112775635Y-76194085D01*
X112817663Y-76332633D01*
X112885913Y-76460320D01*
X112977762Y-76572238D01*
X113089680Y-76664087D01*
X113217367Y-76732337D01*
X113355915Y-76774365D01*
X113500000Y-76788556D01*
X113536105Y-76785000D01*
X127463895Y-76785000D01*
X127500000Y-76788556D01*
X127536105Y-76785000D01*
X127644085Y-76774365D01*
X127782633Y-76732337D01*
X127910320Y-76664087D01*
X128022238Y-76572238D01*
X128114087Y-76460320D01*
X128182337Y-76332633D01*
X128224365Y-76194085D01*
X128238556Y-76050000D01*
X128235000Y-76013895D01*
X128235000Y-62086105D01*
X128238556Y-62050000D01*
X128226923Y-61931885D01*
X128231399Y-61933739D01*
X128740475Y-62035000D01*
X129259525Y-62035000D01*
X129768601Y-61933739D01*
X130248141Y-61735107D01*
X130679715Y-61446738D01*
X131046738Y-61079715D01*
X131335107Y-60648141D01*
X131533739Y-60168601D01*
X131635000Y-59659525D01*
X131635000Y-59650000D01*
X131761444Y-59650000D01*
X131765001Y-59686115D01*
X131765000Y-73613895D01*
X131761444Y-73650000D01*
X131775635Y-73794085D01*
X131817663Y-73932633D01*
X131885913Y-74060320D01*
X131977762Y-74172238D01*
X132089680Y-74264087D01*
X132217367Y-74332337D01*
X132355915Y-74374365D01*
X132500000Y-74388556D01*
X132536105Y-74385000D01*
X146463895Y-74385000D01*
X146500000Y-74388556D01*
X146536105Y-74385000D01*
X146644085Y-74374365D01*
X146782633Y-74332337D01*
X146910320Y-74264087D01*
X147022238Y-74172238D01*
X147114087Y-74060320D01*
X147182337Y-73932633D01*
X147224365Y-73794085D01*
X147238556Y-73650000D01*
X147235000Y-73613895D01*
X147235000Y-59686105D01*
X147238556Y-59650000D01*
X147224365Y-59505915D01*
X147182337Y-59367367D01*
X147114087Y-59239680D01*
X147022238Y-59127762D01*
X146910320Y-59035913D01*
X146782633Y-58967663D01*
X146644085Y-58925635D01*
X146536105Y-58915000D01*
X146500000Y-58911444D01*
X146463895Y-58915000D01*
X132536105Y-58915000D01*
X132500000Y-58911444D01*
X132463895Y-58915000D01*
X132355915Y-58925635D01*
X132217367Y-58967663D01*
X132089680Y-59035913D01*
X131977762Y-59127762D01*
X131885913Y-59239680D01*
X131817663Y-59367367D01*
X131775635Y-59505915D01*
X131761444Y-59650000D01*
X131635000Y-59650000D01*
X131635000Y-59140475D01*
X131533739Y-58631399D01*
X131396470Y-58300000D01*
X150861444Y-58300000D01*
X150865001Y-58336115D01*
X150865000Y-72263895D01*
X150861444Y-72300000D01*
X150875635Y-72444085D01*
X150917663Y-72582633D01*
X150985913Y-72710320D01*
X151077762Y-72822238D01*
X151189680Y-72914087D01*
X151317367Y-72982337D01*
X151455915Y-73024365D01*
X151600000Y-73038556D01*
X151636105Y-73035000D01*
X165563895Y-73035000D01*
X165600000Y-73038556D01*
X165636105Y-73035000D01*
X165744085Y-73024365D01*
X165882633Y-72982337D01*
X166010320Y-72914087D01*
X166122238Y-72822238D01*
X166214087Y-72710320D01*
X166282337Y-72582633D01*
X166324365Y-72444085D01*
X166338556Y-72300000D01*
X166335000Y-72263895D01*
X166335000Y-59650000D01*
X169861444Y-59650000D01*
X169865001Y-59686115D01*
X169865000Y-73613895D01*
X169861444Y-73650000D01*
X169875635Y-73794085D01*
X169917663Y-73932633D01*
X169985913Y-74060320D01*
X170077762Y-74172238D01*
X170189680Y-74264087D01*
X170317367Y-74332337D01*
X170455915Y-74374365D01*
X170600000Y-74388556D01*
X170636105Y-74385000D01*
X184563895Y-74385000D01*
X184600000Y-74388556D01*
X184636105Y-74385000D01*
X184744085Y-74374365D01*
X184882633Y-74332337D01*
X185010320Y-74264087D01*
X185122238Y-74172238D01*
X185214087Y-74060320D01*
X185282337Y-73932633D01*
X185324365Y-73794085D01*
X185338556Y-73650000D01*
X185335000Y-73613895D01*
X185335000Y-59686105D01*
X185338556Y-59650000D01*
X185324365Y-59505915D01*
X185282337Y-59367367D01*
X185214087Y-59239680D01*
X185122238Y-59127762D01*
X185010320Y-59035913D01*
X184882633Y-58967663D01*
X184744085Y-58925635D01*
X184636105Y-58915000D01*
X184600000Y-58911444D01*
X184563895Y-58915000D01*
X170636105Y-58915000D01*
X170600000Y-58911444D01*
X170563895Y-58915000D01*
X170455915Y-58925635D01*
X170317367Y-58967663D01*
X170189680Y-59035913D01*
X170077762Y-59127762D01*
X169985913Y-59239680D01*
X169917663Y-59367367D01*
X169875635Y-59505915D01*
X169861444Y-59650000D01*
X166335000Y-59650000D01*
X166335000Y-58336105D01*
X166338556Y-58300000D01*
X166324365Y-58155915D01*
X166282337Y-58017367D01*
X166214087Y-57889680D01*
X166122238Y-57777762D01*
X166010320Y-57685913D01*
X165882633Y-57617663D01*
X165744085Y-57575635D01*
X165636105Y-57565000D01*
X165600000Y-57561444D01*
X165563895Y-57565000D01*
X151636105Y-57565000D01*
X151600000Y-57561444D01*
X151563895Y-57565000D01*
X151455915Y-57575635D01*
X151317367Y-57617663D01*
X151189680Y-57685913D01*
X151077762Y-57777762D01*
X150985913Y-57889680D01*
X150917663Y-58017367D01*
X150875635Y-58155915D01*
X150861444Y-58300000D01*
X131396470Y-58300000D01*
X131335107Y-58151859D01*
X131046738Y-57720285D01*
X130679715Y-57353262D01*
X130248141Y-57064893D01*
X129768601Y-56866261D01*
X129259525Y-56765000D01*
X128740475Y-56765000D01*
X128235000Y-56865545D01*
X128235000Y-43036105D01*
X128238556Y-43000000D01*
X128224365Y-42855915D01*
X128182337Y-42717367D01*
X128114087Y-42589680D01*
X128022238Y-42477762D01*
X127910320Y-42385913D01*
X127782633Y-42317663D01*
X127644085Y-42275635D01*
X127536105Y-42265000D01*
X127500000Y-42261444D01*
X127463895Y-42265000D01*
X113536105Y-42265000D01*
X113500000Y-42261444D01*
X113463895Y-42265000D01*
X113355915Y-42275635D01*
X113217367Y-42317663D01*
X113089680Y-42385913D01*
X112977762Y-42477762D01*
X112885913Y-42589680D01*
X112817663Y-42717367D01*
X112775635Y-42855915D01*
X112761444Y-43000000D01*
X111465392Y-43000000D01*
X111465392Y-40600000D01*
X131761444Y-40600000D01*
X131765001Y-40636115D01*
X131765000Y-54563895D01*
X131761444Y-54600000D01*
X131775635Y-54744085D01*
X131817663Y-54882633D01*
X131885913Y-55010320D01*
X131977762Y-55122238D01*
X132089680Y-55214087D01*
X132217367Y-55282337D01*
X132355915Y-55324365D01*
X132500000Y-55338556D01*
X132536105Y-55335000D01*
X146463895Y-55335000D01*
X146500000Y-55338556D01*
X146536105Y-55335000D01*
X146644085Y-55324365D01*
X146782633Y-55282337D01*
X146910320Y-55214087D01*
X147022238Y-55122238D01*
X147114087Y-55010320D01*
X147182337Y-54882633D01*
X147224365Y-54744085D01*
X147238556Y-54600000D01*
X147235000Y-54563895D01*
X147235000Y-40636105D01*
X147238556Y-40600000D01*
X147224365Y-40455915D01*
X147182337Y-40317367D01*
X147114087Y-40189680D01*
X147022238Y-40077762D01*
X146910320Y-39985913D01*
X146782633Y-39917663D01*
X146644085Y-39875635D01*
X146536105Y-39865000D01*
X146500000Y-39861444D01*
X146463895Y-39865000D01*
X132536105Y-39865000D01*
X132500000Y-39861444D01*
X132463895Y-39865000D01*
X132355915Y-39875635D01*
X132217367Y-39917663D01*
X132089680Y-39985913D01*
X131977762Y-40077762D01*
X131885913Y-40189680D01*
X131817663Y-40317367D01*
X131775635Y-40455915D01*
X131761444Y-40600000D01*
X111465392Y-40600000D01*
X111465392Y-39326889D01*
X111473129Y-39250000D01*
X150861444Y-39250000D01*
X150865001Y-39286115D01*
X150865000Y-53213895D01*
X150861444Y-53250000D01*
X150875635Y-53394085D01*
X150917663Y-53532633D01*
X150985913Y-53660320D01*
X151077762Y-53772238D01*
X151189680Y-53864087D01*
X151317367Y-53932337D01*
X151455915Y-53974365D01*
X151600000Y-53988556D01*
X151636105Y-53985000D01*
X165563895Y-53985000D01*
X165600000Y-53988556D01*
X165636105Y-53985000D01*
X165744085Y-53974365D01*
X165882633Y-53932337D01*
X166010320Y-53864087D01*
X166122238Y-53772238D01*
X166214087Y-53660320D01*
X166282337Y-53532633D01*
X166324365Y-53394085D01*
X166338556Y-53250000D01*
X166335000Y-53213895D01*
X166335000Y-40600000D01*
X169861444Y-40600000D01*
X169865001Y-40636115D01*
X169865000Y-54563895D01*
X169861444Y-54600000D01*
X169875635Y-54744085D01*
X169917663Y-54882633D01*
X169985913Y-55010320D01*
X170077762Y-55122238D01*
X170189680Y-55214087D01*
X170317367Y-55282337D01*
X170455915Y-55324365D01*
X170600000Y-55338556D01*
X170636105Y-55335000D01*
X184563895Y-55335000D01*
X184600000Y-55338556D01*
X184636105Y-55335000D01*
X184744085Y-55324365D01*
X184882633Y-55282337D01*
X185010320Y-55214087D01*
X185122238Y-55122238D01*
X185214087Y-55010320D01*
X185282337Y-54882633D01*
X185324365Y-54744085D01*
X185338556Y-54600000D01*
X185335000Y-54563895D01*
X185335000Y-45300000D01*
X188961444Y-45300000D01*
X188965001Y-45336115D01*
X188965000Y-59263895D01*
X188961444Y-59300000D01*
X188975635Y-59444085D01*
X189017663Y-59582633D01*
X189085913Y-59710320D01*
X189177762Y-59822238D01*
X189289680Y-59914087D01*
X189417367Y-59982337D01*
X189555915Y-60024365D01*
X189700000Y-60038556D01*
X189736105Y-60035000D01*
X203663895Y-60035000D01*
X203700000Y-60038556D01*
X203736105Y-60035000D01*
X203738814Y-60034733D01*
X203553262Y-60220285D01*
X203264893Y-60651859D01*
X203066261Y-61131399D01*
X202965000Y-61640475D01*
X202965000Y-62159525D01*
X203066261Y-62668601D01*
X203264893Y-63148141D01*
X203553262Y-63579715D01*
X203588547Y-63615000D01*
X189736105Y-63615000D01*
X189700000Y-63611444D01*
X189663895Y-63615000D01*
X189555915Y-63625635D01*
X189417367Y-63667663D01*
X189289680Y-63735913D01*
X189177762Y-63827762D01*
X189085913Y-63939680D01*
X189017663Y-64067367D01*
X188975635Y-64205915D01*
X188961444Y-64350000D01*
X188965001Y-64386115D01*
X188965000Y-78313895D01*
X188961444Y-78350000D01*
X188975635Y-78494085D01*
X189017663Y-78632633D01*
X189085913Y-78760320D01*
X189177762Y-78872238D01*
X189289680Y-78964087D01*
X189417367Y-79032337D01*
X189555915Y-79074365D01*
X189700000Y-79088556D01*
X189736105Y-79085000D01*
X203663895Y-79085000D01*
X203700000Y-79088556D01*
X203736105Y-79085000D01*
X203844085Y-79074365D01*
X203982633Y-79032337D01*
X204110320Y-78964087D01*
X204222238Y-78872238D01*
X204314087Y-78760320D01*
X204382337Y-78632633D01*
X204424365Y-78494085D01*
X204438556Y-78350000D01*
X204435000Y-78313895D01*
X204435000Y-65800000D01*
X207961444Y-65800000D01*
X207965001Y-65836115D01*
X207965000Y-79763895D01*
X207961444Y-79800000D01*
X207975635Y-79944085D01*
X208017663Y-80082633D01*
X208085913Y-80210320D01*
X208177762Y-80322238D01*
X208289680Y-80414087D01*
X208417367Y-80482337D01*
X208555915Y-80524365D01*
X208700000Y-80538556D01*
X208736105Y-80535000D01*
X222663895Y-80535000D01*
X222700000Y-80538556D01*
X222736105Y-80535000D01*
X222844085Y-80524365D01*
X222982633Y-80482337D01*
X223110320Y-80414087D01*
X223222238Y-80322238D01*
X223314087Y-80210320D01*
X223382337Y-80082633D01*
X223424365Y-79944085D01*
X223438556Y-79800000D01*
X223435000Y-79763895D01*
X223435000Y-65836105D01*
X223438556Y-65800000D01*
X223424365Y-65655915D01*
X223382337Y-65517367D01*
X223314087Y-65389680D01*
X223222238Y-65277762D01*
X223110320Y-65185913D01*
X222982633Y-65117663D01*
X222844085Y-65075635D01*
X222736105Y-65065000D01*
X222700000Y-65061444D01*
X222663895Y-65065000D01*
X208736105Y-65065000D01*
X208700000Y-65061444D01*
X208663895Y-65065000D01*
X208555915Y-65075635D01*
X208417367Y-65117663D01*
X208289680Y-65185913D01*
X208177762Y-65277762D01*
X208085913Y-65389680D01*
X208017663Y-65517367D01*
X207975635Y-65655915D01*
X207961444Y-65800000D01*
X204435000Y-65800000D01*
X204435000Y-64386105D01*
X204438556Y-64350000D01*
X204430446Y-64267659D01*
X204831399Y-64433739D01*
X205340475Y-64535000D01*
X205859525Y-64535000D01*
X206368601Y-64433739D01*
X206848141Y-64235107D01*
X207279715Y-63946738D01*
X207646738Y-63579715D01*
X207935107Y-63148141D01*
X208133739Y-62668601D01*
X208235000Y-62159525D01*
X208235000Y-61640475D01*
X208156632Y-61246491D01*
X208177762Y-61272238D01*
X208289680Y-61364087D01*
X208417367Y-61432337D01*
X208555915Y-61474365D01*
X208700000Y-61488556D01*
X208736105Y-61485000D01*
X222663895Y-61485000D01*
X222700000Y-61488556D01*
X222736105Y-61485000D01*
X222844085Y-61474365D01*
X222982633Y-61432337D01*
X223110320Y-61364087D01*
X223222238Y-61272238D01*
X223314087Y-61160320D01*
X223382337Y-61032633D01*
X223424365Y-60894085D01*
X223438556Y-60750000D01*
X223435000Y-60713895D01*
X223435000Y-46786105D01*
X223438556Y-46750000D01*
X223424365Y-46605915D01*
X223382337Y-46467367D01*
X223314087Y-46339680D01*
X223222238Y-46227762D01*
X223110320Y-46135913D01*
X222982633Y-46067663D01*
X222844085Y-46025635D01*
X222736105Y-46015000D01*
X222700000Y-46011444D01*
X222663895Y-46015000D01*
X208736105Y-46015000D01*
X208700000Y-46011444D01*
X208663895Y-46015000D01*
X208555915Y-46025635D01*
X208417367Y-46067663D01*
X208289680Y-46135913D01*
X208177762Y-46227762D01*
X208085913Y-46339680D01*
X208017663Y-46467367D01*
X207975635Y-46605915D01*
X207961444Y-46750000D01*
X207965001Y-46786115D01*
X207965000Y-60713895D01*
X207964194Y-60722081D01*
X207935107Y-60651859D01*
X207646738Y-60220285D01*
X207279715Y-59853262D01*
X206848141Y-59564893D01*
X206368601Y-59366261D01*
X205859525Y-59265000D01*
X205340475Y-59265000D01*
X204831399Y-59366261D01*
X204392872Y-59547905D01*
X204424365Y-59444085D01*
X204438556Y-59300000D01*
X204435000Y-59263895D01*
X204435000Y-45336105D01*
X204438556Y-45300000D01*
X204424365Y-45155915D01*
X204382337Y-45017367D01*
X204314087Y-44889680D01*
X204222238Y-44777762D01*
X204110320Y-44685913D01*
X203982633Y-44617663D01*
X203844085Y-44575635D01*
X203736105Y-44565000D01*
X203700000Y-44561444D01*
X203663895Y-44565000D01*
X189736105Y-44565000D01*
X189700000Y-44561444D01*
X189663895Y-44565000D01*
X189555915Y-44575635D01*
X189417367Y-44617663D01*
X189289680Y-44685913D01*
X189177762Y-44777762D01*
X189085913Y-44889680D01*
X189017663Y-45017367D01*
X188975635Y-45155915D01*
X188961444Y-45300000D01*
X185335000Y-45300000D01*
X185335000Y-40636105D01*
X185338556Y-40600000D01*
X185324365Y-40455915D01*
X185282337Y-40317367D01*
X185214087Y-40189680D01*
X185122238Y-40077762D01*
X185010320Y-39985913D01*
X184882633Y-39917663D01*
X184744085Y-39875635D01*
X184636105Y-39865000D01*
X184600000Y-39861444D01*
X184563895Y-39865000D01*
X170636105Y-39865000D01*
X170600000Y-39861444D01*
X170563895Y-39865000D01*
X170455915Y-39875635D01*
X170317367Y-39917663D01*
X170189680Y-39985913D01*
X170077762Y-40077762D01*
X169985913Y-40189680D01*
X169917663Y-40317367D01*
X169875635Y-40455915D01*
X169861444Y-40600000D01*
X166335000Y-40600000D01*
X166335000Y-39286105D01*
X166338556Y-39250000D01*
X166324365Y-39105915D01*
X166282337Y-38967367D01*
X166214087Y-38839680D01*
X166122238Y-38727762D01*
X166010320Y-38635913D01*
X165882633Y-38567663D01*
X165744085Y-38525635D01*
X165636105Y-38515000D01*
X165600000Y-38511444D01*
X165563895Y-38515000D01*
X151636105Y-38515000D01*
X151600000Y-38511444D01*
X151563895Y-38515000D01*
X151455915Y-38525635D01*
X151317367Y-38567663D01*
X151189680Y-38635913D01*
X151077762Y-38727762D01*
X150985913Y-38839680D01*
X150917663Y-38967367D01*
X150875635Y-39105915D01*
X150861444Y-39250000D01*
X111473129Y-39250000D01*
X111498950Y-38993430D01*
X111583713Y-38720021D01*
X111718020Y-38472375D01*
X111896426Y-38256060D01*
X112112694Y-38077629D01*
X112360258Y-37943318D01*
X112633559Y-37858558D01*
X112967427Y-37824947D01*
X115212210Y-37821762D01*
X167246872Y-37821762D01*
X178973109Y-37950518D01*
G37*
X178973109Y-37950518D02*
X189885418Y-38319640D01*
X199752993Y-38903539D01*
X208339593Y-39676226D01*
X215404929Y-40610587D01*
X220693942Y-41674270D01*
X223862183Y-42788894D01*
X224725000Y-43724033D01*
X224725001Y-52882264D01*
X224725000Y-52882274D01*
X224725001Y-62363886D01*
X224725000Y-62363896D01*
X224725001Y-71845509D01*
X224725000Y-71845519D01*
X224725001Y-81327131D01*
X224725000Y-81327141D01*
X224725001Y-90808753D01*
X224725000Y-90808763D01*
X224725001Y-100290376D01*
X224725000Y-100290386D01*
X224725001Y-109772507D01*
X224724952Y-109773012D01*
X224725001Y-109808855D01*
X224725001Y-109844217D01*
X224725050Y-109844715D01*
X224737495Y-118948728D01*
X224734239Y-119114568D01*
X224699135Y-119227778D01*
X224629309Y-119356506D01*
X224536307Y-119469251D01*
X224423563Y-119562253D01*
X224294837Y-119632078D01*
X224188663Y-119665000D01*
X209271590Y-119665000D01*
X209270817Y-119664848D01*
X209199729Y-119665000D01*
X209163895Y-119665000D01*
X209163100Y-119665078D01*
X209162315Y-119665080D01*
X209127332Y-119668601D01*
X209055915Y-119675635D01*
X209055153Y-119675866D01*
X208455020Y-119736271D01*
X208417263Y-119736503D01*
X208347705Y-119750784D01*
X208278273Y-119764750D01*
X208243430Y-119779270D01*
X207653790Y-119962106D01*
X207618251Y-119969402D01*
X207518264Y-120011539D01*
X207518253Y-120011545D01*
X207484825Y-120025633D01*
X207454794Y-120045967D01*
X206924889Y-120333405D01*
X206892633Y-120346861D01*
X206861406Y-120367840D01*
X206860239Y-120368473D01*
X206831563Y-120387889D01*
X206802569Y-120407368D01*
X206801536Y-120408220D01*
X206770394Y-120429306D01*
X206745838Y-120454166D01*
X206286113Y-120833393D01*
X206257439Y-120852448D01*
X206230409Y-120879343D01*
X206228977Y-120880524D01*
X206204743Y-120904880D01*
X206180524Y-120928978D01*
X206179349Y-120930402D01*
X206152448Y-120957439D01*
X206133391Y-120986116D01*
X205754170Y-121445833D01*
X205729306Y-121470394D01*
X205708216Y-121501542D01*
X205707368Y-121502570D01*
X205687934Y-121531496D01*
X205668473Y-121560239D01*
X205667840Y-121561406D01*
X205646860Y-121592634D01*
X205633403Y-121624892D01*
X205345973Y-122154785D01*
X205325632Y-122184825D01*
X205283494Y-122284811D01*
X205283492Y-122284819D01*
X205269402Y-122318252D01*
X205262108Y-122353782D01*
X205079271Y-122943428D01*
X205064750Y-122978274D01*
X205050778Y-123047738D01*
X205036503Y-123117264D01*
X205036271Y-123155021D01*
X204975866Y-123755154D01*
X204975635Y-123755916D01*
X204968601Y-123827333D01*
X204965080Y-123862316D01*
X204965078Y-123863101D01*
X204965000Y-123863896D01*
X204965000Y-123899568D01*
X204964847Y-123970817D01*
X204965000Y-123971595D01*
X204965001Y-137682558D01*
X204946522Y-137852559D01*
X204901632Y-137997328D01*
X204831804Y-138126059D01*
X204738802Y-138238804D01*
X204626062Y-138331803D01*
X204497329Y-138401632D01*
X204355379Y-138445647D01*
X204163106Y-138465000D01*
X188757174Y-138465000D01*
X188590879Y-138461735D01*
X188477669Y-138426631D01*
X188348941Y-138356805D01*
X188236196Y-138263803D01*
X188143194Y-138151059D01*
X188073369Y-138022333D01*
X188040290Y-137915651D01*
X188034948Y-134112863D01*
X188032830Y-134091662D01*
X188028782Y-134023528D01*
X188020559Y-133971605D01*
X188015063Y-133919321D01*
X188012929Y-133909283D01*
X187983592Y-133775854D01*
X187962992Y-133712454D01*
X187943308Y-133648865D01*
X187939266Y-133639432D01*
X187884572Y-133514242D01*
X187852058Y-133456066D01*
X187820386Y-133397489D01*
X187814593Y-133389029D01*
X187814590Y-133389024D01*
X187814587Y-133389020D01*
X187736619Y-133276840D01*
X187693446Y-133226113D01*
X187650984Y-133174784D01*
X187643652Y-133167603D01*
X187545379Y-133072702D01*
X187493163Y-133031316D01*
X187441545Y-132989217D01*
X187432958Y-132983597D01*
X187318123Y-132909591D01*
X187258810Y-132879109D01*
X187200051Y-132847866D01*
X187190537Y-132844021D01*
X187063515Y-132793730D01*
X186999474Y-132775367D01*
X186935708Y-132756115D01*
X186925628Y-132754192D01*
X186832630Y-132737124D01*
X186803638Y-132728286D01*
X186695673Y-132717505D01*
X147912904Y-132665017D01*
X147852468Y-132662975D01*
X147804885Y-132670780D01*
X147756896Y-132675441D01*
X147699014Y-132692914D01*
X126932801Y-138233899D01*
X126884448Y-138243599D01*
X126829616Y-138266417D01*
X126774040Y-138287268D01*
X126732144Y-138313260D01*
X124342259Y-139595729D01*
X124331994Y-139600373D01*
X124310417Y-139612816D01*
X124288535Y-139624558D01*
X124279205Y-139630814D01*
X120627532Y-141736587D01*
X120627522Y-141736591D01*
X116923060Y-143872805D01*
X116923050Y-143872809D01*
X113217261Y-146009788D01*
X113215868Y-146010425D01*
X113185892Y-146027877D01*
X113156025Y-146045100D01*
X113154787Y-146045986D01*
X109513455Y-148165956D01*
X107855572Y-149125783D01*
X107832597Y-149137486D01*
X107805654Y-149088691D01*
X107802520Y-149081802D01*
X107788185Y-149057056D01*
X107774399Y-149032089D01*
X107770120Y-149025870D01*
X102376092Y-139714219D01*
X102375475Y-139712876D01*
X102357885Y-139682788D01*
X102340629Y-139652999D01*
X102339777Y-139651814D01*
X100663337Y-136784219D01*
X100663336Y-136784218D01*
X99024086Y-133980237D01*
X97311948Y-131051580D01*
X97311947Y-131051579D01*
X97014490Y-130542770D01*
X98504778Y-130542770D01*
X98509515Y-130687475D01*
X98542391Y-130828475D01*
X98587033Y-130927000D01*
X98602144Y-130960351D01*
X98623273Y-130989837D01*
X105587174Y-143051672D01*
X105602142Y-143084708D01*
X105623267Y-143114188D01*
X105623273Y-143114198D01*
X105686473Y-143202394D01*
X105792145Y-143301366D01*
X105915094Y-143377821D01*
X105915096Y-143377822D01*
X105968819Y-143398042D01*
X106050597Y-143428821D01*
X106193445Y-143452405D01*
X106193446Y-143452405D01*
X106338151Y-143447668D01*
X106479151Y-143414791D01*
X106577982Y-143370012D01*
X106577987Y-143370009D01*
X106611027Y-143355039D01*
X106640512Y-143333910D01*
X118702345Y-136370009D01*
X118735384Y-136355039D01*
X118764867Y-136333911D01*
X118764873Y-136333908D01*
X118853069Y-136270708D01*
X118952041Y-136165036D01*
X119028496Y-136042087D01*
X119079496Y-135906584D01*
X119103080Y-135763736D01*
X119098343Y-135619031D01*
X119097948Y-135617333D01*
X119065466Y-135478029D01*
X119020687Y-135379198D01*
X119020682Y-135379190D01*
X119005714Y-135346154D01*
X118984588Y-135316673D01*
X112020685Y-123254844D01*
X112005713Y-123221800D01*
X111972632Y-123175635D01*
X111921380Y-123104114D01*
X111815709Y-123005142D01*
X111692759Y-122928686D01*
X111557257Y-122877687D01*
X111414408Y-122854103D01*
X111269703Y-122858840D01*
X111128703Y-122891717D01*
X111029872Y-122936496D01*
X111029867Y-122936499D01*
X110996827Y-122951469D01*
X110967344Y-122972597D01*
X98905521Y-129936493D01*
X98872475Y-129951466D01*
X98842986Y-129972598D01*
X98842985Y-129972598D01*
X98754789Y-130035798D01*
X98655817Y-130141470D01*
X98579361Y-130264419D01*
X98532217Y-130389680D01*
X98528362Y-130399922D01*
X98504778Y-130542770D01*
X97014490Y-130542770D01*
X93960559Y-125318941D01*
X93960558Y-125318940D01*
X92321047Y-122514513D01*
X91225456Y-120640475D01*
X105865000Y-120640475D01*
X105865000Y-121159525D01*
X105966261Y-121668601D01*
X106164893Y-122148141D01*
X106453262Y-122579715D01*
X106820285Y-122946738D01*
X107251859Y-123235107D01*
X107731399Y-123433739D01*
X108240475Y-123535000D01*
X108759525Y-123535000D01*
X109268601Y-123433739D01*
X109748141Y-123235107D01*
X110179715Y-122946738D01*
X110546738Y-122579715D01*
X110666676Y-122400215D01*
X124889198Y-122400215D01*
X124903672Y-122487883D01*
X124912782Y-122543064D01*
X124925560Y-122577015D01*
X128530338Y-136030235D01*
X128536247Y-136066025D01*
X128549025Y-136099974D01*
X128549026Y-136099979D01*
X128587246Y-136201527D01*
X128663700Y-136324477D01*
X128762673Y-136430149D01*
X128880358Y-136514481D01*
X129012235Y-136574234D01*
X129153236Y-136607110D01*
X129297940Y-136611847D01*
X129404994Y-136594173D01*
X129404997Y-136594172D01*
X129440789Y-136588263D01*
X129474740Y-136575485D01*
X142927958Y-132970708D01*
X142963751Y-132964798D01*
X142997703Y-132952019D01*
X142997705Y-132952019D01*
X143034416Y-132938202D01*
X143099254Y-132913799D01*
X143146394Y-132884485D01*
X143222203Y-132837345D01*
X143327875Y-132738372D01*
X143412207Y-132620687D01*
X143471960Y-132488810D01*
X143504836Y-132347809D01*
X143509573Y-132203105D01*
X143509573Y-132203104D01*
X143491899Y-132096051D01*
X143491898Y-132096048D01*
X143485989Y-132060256D01*
X143473211Y-132026305D01*
X139868432Y-118573095D01*
X139862522Y-118537295D01*
X139811522Y-118401793D01*
X139735068Y-118278843D01*
X139636095Y-118173171D01*
X139518410Y-118088839D01*
X139386533Y-118029086D01*
X139245532Y-117996210D01*
X139100828Y-117991473D01*
X139100827Y-117991473D01*
X138993774Y-118009147D01*
X138993770Y-118009148D01*
X138957980Y-118015057D01*
X138924032Y-118027834D01*
X125470820Y-121632612D01*
X125435020Y-121638522D01*
X125299518Y-121689522D01*
X125176568Y-121765976D01*
X125070896Y-121864949D01*
X124986564Y-121982634D01*
X124926811Y-122114511D01*
X124893935Y-122255512D01*
X124889198Y-122400215D01*
X110666676Y-122400215D01*
X110835107Y-122148141D01*
X111033739Y-121668601D01*
X111135000Y-121159525D01*
X111135000Y-120640475D01*
X111033739Y-120131399D01*
X110835107Y-119651859D01*
X110546738Y-119220285D01*
X110179715Y-118853262D01*
X109748141Y-118564893D01*
X109268601Y-118366261D01*
X108759525Y-118265000D01*
X108240475Y-118265000D01*
X107731399Y-118366261D01*
X107251859Y-118564893D01*
X106820285Y-118853262D01*
X106453262Y-119220285D01*
X106164893Y-119651859D01*
X105966261Y-120131399D01*
X105865000Y-120640475D01*
X91225456Y-120640475D01*
X90644772Y-119647200D01*
X88969949Y-116033455D01*
X88749863Y-115450000D01*
X150861444Y-115450000D01*
X150865001Y-115486115D01*
X150865000Y-129413895D01*
X150861444Y-129450000D01*
X150875635Y-129594085D01*
X150917663Y-129732633D01*
X150985913Y-129860320D01*
X151077762Y-129972238D01*
X151155210Y-130035798D01*
X151189680Y-130064087D01*
X151317367Y-130132337D01*
X151455915Y-130174365D01*
X151600000Y-130188556D01*
X151636105Y-130185000D01*
X165563895Y-130185000D01*
X165600000Y-130188556D01*
X165636105Y-130185000D01*
X165744085Y-130174365D01*
X165882633Y-130132337D01*
X166010320Y-130064087D01*
X166122238Y-129972238D01*
X166214087Y-129860320D01*
X166282337Y-129732633D01*
X166324365Y-129594085D01*
X166338556Y-129450000D01*
X166335000Y-129413895D01*
X166335000Y-116800000D01*
X169861444Y-116800000D01*
X169865001Y-116836115D01*
X169865000Y-130763895D01*
X169861444Y-130800000D01*
X169875635Y-130944085D01*
X169917663Y-131082633D01*
X169985913Y-131210320D01*
X170077762Y-131322238D01*
X170183970Y-131409401D01*
X170189680Y-131414087D01*
X170317367Y-131482337D01*
X170455915Y-131524365D01*
X170600000Y-131538556D01*
X170636105Y-131535000D01*
X184563895Y-131535000D01*
X184600000Y-131538556D01*
X184636105Y-131535000D01*
X184744085Y-131524365D01*
X184882633Y-131482337D01*
X185010320Y-131414087D01*
X185122238Y-131322238D01*
X185214087Y-131210320D01*
X185282337Y-131082633D01*
X185324365Y-130944085D01*
X185338556Y-130800000D01*
X185335000Y-130763895D01*
X185335000Y-121500000D01*
X188961444Y-121500000D01*
X188965001Y-121536115D01*
X188965000Y-135463895D01*
X188961444Y-135500000D01*
X188975635Y-135644085D01*
X189017663Y-135782633D01*
X189085913Y-135910320D01*
X189177762Y-136022238D01*
X189287471Y-136112274D01*
X189289680Y-136114087D01*
X189417367Y-136182337D01*
X189555915Y-136224365D01*
X189700000Y-136238556D01*
X189736105Y-136235000D01*
X203663895Y-136235000D01*
X203700000Y-136238556D01*
X203736105Y-136235000D01*
X203844085Y-136224365D01*
X203982633Y-136182337D01*
X204110320Y-136114087D01*
X204222238Y-136022238D01*
X204314087Y-135910320D01*
X204382337Y-135782633D01*
X204424365Y-135644085D01*
X204438556Y-135500000D01*
X204435000Y-135463895D01*
X204435000Y-121536105D01*
X204438556Y-121500000D01*
X204424365Y-121355915D01*
X204382337Y-121217367D01*
X204314087Y-121089680D01*
X204222238Y-120977762D01*
X204110320Y-120885913D01*
X203982633Y-120817663D01*
X203844085Y-120775635D01*
X203736105Y-120765000D01*
X203700000Y-120761444D01*
X203663895Y-120765000D01*
X189736105Y-120765000D01*
X189700000Y-120761444D01*
X189663895Y-120765000D01*
X189555915Y-120775635D01*
X189417367Y-120817663D01*
X189289680Y-120885913D01*
X189177762Y-120977762D01*
X189085913Y-121089680D01*
X189017663Y-121217367D01*
X188975635Y-121355915D01*
X188961444Y-121500000D01*
X185335000Y-121500000D01*
X185335000Y-116836105D01*
X185338556Y-116800000D01*
X185324365Y-116655915D01*
X185282337Y-116517367D01*
X185214087Y-116389680D01*
X185122238Y-116277762D01*
X185010320Y-116185913D01*
X184882633Y-116117663D01*
X184744085Y-116075635D01*
X184636105Y-116065000D01*
X184600000Y-116061444D01*
X184563895Y-116065000D01*
X170636105Y-116065000D01*
X170600000Y-116061444D01*
X170563895Y-116065000D01*
X170455915Y-116075635D01*
X170317367Y-116117663D01*
X170189680Y-116185913D01*
X170077762Y-116277762D01*
X169985913Y-116389680D01*
X169917663Y-116517367D01*
X169875635Y-116655915D01*
X169861444Y-116800000D01*
X166335000Y-116800000D01*
X166335000Y-115486105D01*
X166338556Y-115450000D01*
X166324365Y-115305915D01*
X166282337Y-115167367D01*
X166214087Y-115039680D01*
X166122238Y-114927762D01*
X166010320Y-114835913D01*
X165882633Y-114767663D01*
X165744085Y-114725635D01*
X165636105Y-114715000D01*
X165600000Y-114711444D01*
X165563895Y-114715000D01*
X151636105Y-114715000D01*
X151600000Y-114711444D01*
X151563895Y-114715000D01*
X151455915Y-114725635D01*
X151317367Y-114767663D01*
X151189680Y-114835913D01*
X151077762Y-114927762D01*
X150985913Y-115039680D01*
X150917663Y-115167367D01*
X150875635Y-115305915D01*
X150861444Y-115450000D01*
X88749863Y-115450000D01*
X87559469Y-112294231D01*
X86397902Y-108457396D01*
X85466732Y-104544488D01*
X84747363Y-100577251D01*
X84221091Y-96577555D01*
X84008021Y-94150000D01*
X93661444Y-94150000D01*
X93665001Y-94186115D01*
X93665000Y-108113895D01*
X93661444Y-108150000D01*
X93675635Y-108294085D01*
X93717663Y-108432633D01*
X93785913Y-108560320D01*
X93877762Y-108672238D01*
X93937313Y-108721110D01*
X93989680Y-108764087D01*
X94117367Y-108832337D01*
X94255915Y-108874365D01*
X94400000Y-108888556D01*
X94436105Y-108885000D01*
X108363895Y-108885000D01*
X108400000Y-108888556D01*
X108436105Y-108885000D01*
X108544085Y-108874365D01*
X108682633Y-108832337D01*
X108810320Y-108764087D01*
X108922238Y-108672238D01*
X109014087Y-108560320D01*
X109082337Y-108432633D01*
X109124365Y-108294085D01*
X109138556Y-108150000D01*
X109135000Y-108113895D01*
X109135000Y-94186105D01*
X109138556Y-94150000D01*
X109124365Y-94005915D01*
X109082337Y-93867367D01*
X109014087Y-93739680D01*
X108922238Y-93627762D01*
X108810320Y-93535913D01*
X108682633Y-93467663D01*
X108544085Y-93425635D01*
X108436105Y-93415000D01*
X108400000Y-93411444D01*
X108363895Y-93415000D01*
X94436105Y-93415000D01*
X94400000Y-93411444D01*
X94363895Y-93415000D01*
X94255915Y-93425635D01*
X94117367Y-93467663D01*
X93989680Y-93535913D01*
X93877762Y-93627762D01*
X93785913Y-93739680D01*
X93717663Y-93867367D01*
X93675635Y-94005915D01*
X93661444Y-94150000D01*
X84008021Y-94150000D01*
X83869124Y-92567531D01*
X83723013Y-89568231D01*
X83754640Y-89245994D01*
X83838811Y-88969564D01*
X83971298Y-88722539D01*
X84146856Y-88508729D01*
X84360301Y-88333008D01*
X84606709Y-88200501D01*
X84882297Y-88116363D01*
X85223488Y-88082787D01*
X108459691Y-88082982D01*
X108459980Y-88083039D01*
X108486260Y-88082982D01*
X108566855Y-88082983D01*
X108674835Y-88072349D01*
X108676073Y-88071974D01*
X109013550Y-88037999D01*
X109051315Y-88037765D01*
X109120665Y-88023522D01*
X109190282Y-88009518D01*
X109225148Y-87994988D01*
X109570623Y-87887845D01*
X109606167Y-87880545D01*
X109659475Y-87858074D01*
X109739574Y-87824313D01*
X109769622Y-87803965D01*
X110078637Y-87636316D01*
X110110888Y-87622859D01*
X110142102Y-87601885D01*
X110143274Y-87601249D01*
X110172143Y-87581699D01*
X110200947Y-87562344D01*
X110201971Y-87561499D01*
X110233114Y-87540409D01*
X110257675Y-87515541D01*
X110524987Y-87294996D01*
X110553659Y-87275939D01*
X110580691Y-87249038D01*
X110582119Y-87247860D01*
X110606262Y-87223591D01*
X110630568Y-87199403D01*
X110631748Y-87197972D01*
X110658642Y-87170938D01*
X110677694Y-87142264D01*
X110898195Y-86874909D01*
X110923055Y-86850349D01*
X110944145Y-86819196D01*
X110944995Y-86818165D01*
X110964397Y-86789280D01*
X110983881Y-86760499D01*
X110984517Y-86759326D01*
X111005495Y-86728095D01*
X111018947Y-86695841D01*
X111186552Y-86386797D01*
X111206886Y-86356764D01*
X111220981Y-86323313D01*
X111220986Y-86323305D01*
X111233640Y-86293272D01*
X111249019Y-86256776D01*
X111249022Y-86256765D01*
X111263116Y-86223316D01*
X111270407Y-86187787D01*
X111377526Y-85842270D01*
X111392042Y-85807435D01*
X111406003Y-85738018D01*
X111420289Y-85668423D01*
X111420519Y-85630676D01*
X111454528Y-85292724D01*
X111454757Y-85291970D01*
X111461783Y-85220628D01*
X111465313Y-85185555D01*
X111465315Y-85184775D01*
X111465392Y-85183990D01*
X111465392Y-85148287D01*
X111465543Y-85077053D01*
X111465392Y-85076285D01*
X111465392Y-81100000D01*
X112761444Y-81100000D01*
X112765001Y-81136115D01*
X112765000Y-95063895D01*
X112761444Y-95100000D01*
X112775635Y-95244085D01*
X112817663Y-95382633D01*
X112885913Y-95510320D01*
X112977762Y-95622238D01*
X113089680Y-95714087D01*
X113217367Y-95782337D01*
X113355915Y-95824365D01*
X113500000Y-95838556D01*
X113536105Y-95835000D01*
X127038547Y-95835000D01*
X126953262Y-95920285D01*
X126664893Y-96351859D01*
X126466261Y-96831399D01*
X126365000Y-97340475D01*
X126365000Y-97859525D01*
X126466261Y-98368601D01*
X126664893Y-98848141D01*
X126953262Y-99279715D01*
X127088547Y-99415000D01*
X113536105Y-99415000D01*
X113500000Y-99411444D01*
X113463895Y-99415000D01*
X113355915Y-99425635D01*
X113217367Y-99467663D01*
X113089680Y-99535913D01*
X112977762Y-99627762D01*
X112885913Y-99739680D01*
X112817663Y-99867367D01*
X112775635Y-100005915D01*
X112761444Y-100150000D01*
X112765001Y-100186115D01*
X112765000Y-114113895D01*
X112761444Y-114150000D01*
X112775635Y-114294085D01*
X112817663Y-114432633D01*
X112885913Y-114560320D01*
X112977762Y-114672238D01*
X113089680Y-114764087D01*
X113217367Y-114832337D01*
X113355915Y-114874365D01*
X113500000Y-114888556D01*
X113536105Y-114885000D01*
X127463895Y-114885000D01*
X127500000Y-114888556D01*
X127536105Y-114885000D01*
X127644085Y-114874365D01*
X127782633Y-114832337D01*
X127910320Y-114764087D01*
X128022238Y-114672238D01*
X128114087Y-114560320D01*
X128182337Y-114432633D01*
X128224365Y-114294085D01*
X128238556Y-114150000D01*
X128235000Y-114113895D01*
X128235000Y-100186105D01*
X128238556Y-100150000D01*
X128237065Y-100134866D01*
X128740475Y-100235000D01*
X129259525Y-100235000D01*
X129768601Y-100133739D01*
X130248141Y-99935107D01*
X130679715Y-99646738D01*
X131046738Y-99279715D01*
X131335107Y-98848141D01*
X131533739Y-98368601D01*
X131635000Y-97859525D01*
X131635000Y-97750000D01*
X131761444Y-97750000D01*
X131765001Y-97786115D01*
X131765000Y-111713895D01*
X131761444Y-111750000D01*
X131775635Y-111894085D01*
X131817663Y-112032633D01*
X131885913Y-112160320D01*
X131977762Y-112272238D01*
X132075265Y-112352257D01*
X132089680Y-112364087D01*
X132217367Y-112432337D01*
X132355915Y-112474365D01*
X132500000Y-112488556D01*
X132536105Y-112485000D01*
X146463895Y-112485000D01*
X146500000Y-112488556D01*
X146536105Y-112485000D01*
X146644085Y-112474365D01*
X146782633Y-112432337D01*
X146910320Y-112364087D01*
X147022238Y-112272238D01*
X147114087Y-112160320D01*
X147182337Y-112032633D01*
X147224365Y-111894085D01*
X147238556Y-111750000D01*
X147235000Y-111713895D01*
X147235000Y-97786105D01*
X147238556Y-97750000D01*
X147224365Y-97605915D01*
X147182337Y-97467367D01*
X147114087Y-97339680D01*
X147022238Y-97227762D01*
X146910320Y-97135913D01*
X146782633Y-97067663D01*
X146644085Y-97025635D01*
X146536105Y-97015000D01*
X146500000Y-97011444D01*
X146463895Y-97015000D01*
X132536105Y-97015000D01*
X132500000Y-97011444D01*
X132463895Y-97015000D01*
X132355915Y-97025635D01*
X132217367Y-97067663D01*
X132089680Y-97135913D01*
X131977762Y-97227762D01*
X131885913Y-97339680D01*
X131817663Y-97467367D01*
X131775635Y-97605915D01*
X131761444Y-97750000D01*
X131635000Y-97750000D01*
X131635000Y-97340475D01*
X131533739Y-96831399D01*
X131355048Y-96400000D01*
X150861444Y-96400000D01*
X150865001Y-96436115D01*
X150865000Y-110363895D01*
X150861444Y-110400000D01*
X150875635Y-110544085D01*
X150917663Y-110682633D01*
X150985913Y-110810320D01*
X151077762Y-110922238D01*
X151189680Y-111014087D01*
X151317367Y-111082337D01*
X151455915Y-111124365D01*
X151600000Y-111138556D01*
X151636105Y-111135000D01*
X165563895Y-111135000D01*
X165600000Y-111138556D01*
X165636105Y-111135000D01*
X165744085Y-111124365D01*
X165882633Y-111082337D01*
X166010320Y-111014087D01*
X166122238Y-110922238D01*
X166214087Y-110810320D01*
X166282337Y-110682633D01*
X166324365Y-110544085D01*
X166338556Y-110400000D01*
X166335000Y-110363895D01*
X166335000Y-97750000D01*
X169861444Y-97750000D01*
X169865001Y-97786115D01*
X169865000Y-111713895D01*
X169861444Y-111750000D01*
X169875635Y-111894085D01*
X169917663Y-112032633D01*
X169985913Y-112160320D01*
X170077762Y-112272238D01*
X170175265Y-112352257D01*
X170189680Y-112364087D01*
X170317367Y-112432337D01*
X170455915Y-112474365D01*
X170600000Y-112488556D01*
X170636105Y-112485000D01*
X184563895Y-112485000D01*
X184600000Y-112488556D01*
X184636105Y-112485000D01*
X184744085Y-112474365D01*
X184882633Y-112432337D01*
X185010320Y-112364087D01*
X185122238Y-112272238D01*
X185214087Y-112160320D01*
X185282337Y-112032633D01*
X185324365Y-111894085D01*
X185338556Y-111750000D01*
X185335000Y-111713895D01*
X185335000Y-97786105D01*
X185338556Y-97750000D01*
X185324365Y-97605915D01*
X185282337Y-97467367D01*
X185214087Y-97339680D01*
X185122238Y-97227762D01*
X185010320Y-97135913D01*
X184882633Y-97067663D01*
X184744085Y-97025635D01*
X184636105Y-97015000D01*
X184600000Y-97011444D01*
X184563895Y-97015000D01*
X170636105Y-97015000D01*
X170600000Y-97011444D01*
X170563895Y-97015000D01*
X170455915Y-97025635D01*
X170317367Y-97067663D01*
X170189680Y-97135913D01*
X170077762Y-97227762D01*
X169985913Y-97339680D01*
X169917663Y-97467367D01*
X169875635Y-97605915D01*
X169861444Y-97750000D01*
X166335000Y-97750000D01*
X166335000Y-96436105D01*
X166338556Y-96400000D01*
X166324365Y-96255915D01*
X166282337Y-96117367D01*
X166214087Y-95989680D01*
X166122238Y-95877762D01*
X166010320Y-95785913D01*
X165882633Y-95717663D01*
X165744085Y-95675635D01*
X165636105Y-95665000D01*
X165600000Y-95661444D01*
X165563895Y-95665000D01*
X151636105Y-95665000D01*
X151600000Y-95661444D01*
X151563895Y-95665000D01*
X151455915Y-95675635D01*
X151317367Y-95717663D01*
X151189680Y-95785913D01*
X151077762Y-95877762D01*
X150985913Y-95989680D01*
X150917663Y-96117367D01*
X150875635Y-96255915D01*
X150861444Y-96400000D01*
X131355048Y-96400000D01*
X131335107Y-96351859D01*
X131046738Y-95920285D01*
X130679715Y-95553262D01*
X130248141Y-95264893D01*
X129768601Y-95066261D01*
X129259525Y-94965000D01*
X128740475Y-94965000D01*
X128235159Y-95065513D01*
X128235000Y-95063895D01*
X128235000Y-81136105D01*
X128238556Y-81100000D01*
X128224365Y-80955915D01*
X128182337Y-80817367D01*
X128114087Y-80689680D01*
X128022238Y-80577762D01*
X127910320Y-80485913D01*
X127782633Y-80417663D01*
X127644085Y-80375635D01*
X127536105Y-80365000D01*
X127500000Y-80361444D01*
X127463895Y-80365000D01*
X113536105Y-80365000D01*
X113500000Y-80361444D01*
X113463895Y-80365000D01*
X113355915Y-80375635D01*
X113217367Y-80417663D01*
X113089680Y-80485913D01*
X112977762Y-80577762D01*
X112885913Y-80689680D01*
X112817663Y-80817367D01*
X112775635Y-80955915D01*
X112761444Y-81100000D01*
X111465392Y-81100000D01*
X111465392Y-78700000D01*
X131761444Y-78700000D01*
X131765001Y-78736115D01*
X131765000Y-92663895D01*
X131761444Y-92700000D01*
X131775635Y-92844085D01*
X131817663Y-92982633D01*
X131885913Y-93110320D01*
X131977762Y-93222238D01*
X132088163Y-93312842D01*
X132089680Y-93314087D01*
X132217367Y-93382337D01*
X132355915Y-93424365D01*
X132500000Y-93438556D01*
X132536105Y-93435000D01*
X146463895Y-93435000D01*
X146500000Y-93438556D01*
X146536105Y-93435000D01*
X146644085Y-93424365D01*
X146782633Y-93382337D01*
X146910320Y-93314087D01*
X147022238Y-93222238D01*
X147114087Y-93110320D01*
X147182337Y-92982633D01*
X147224365Y-92844085D01*
X147238556Y-92700000D01*
X147235000Y-92663895D01*
X147235000Y-78736105D01*
X147238556Y-78700000D01*
X147224365Y-78555915D01*
X147182337Y-78417367D01*
X147114087Y-78289680D01*
X147022238Y-78177762D01*
X146910320Y-78085913D01*
X146782633Y-78017663D01*
X146644085Y-77975635D01*
X146536105Y-77965000D01*
X146500000Y-77961444D01*
X146463895Y-77965000D01*
X132536105Y-77965000D01*
X132500000Y-77961444D01*
X132463895Y-77965000D01*
X132355915Y-77975635D01*
X132217367Y-78017663D01*
X132089680Y-78085913D01*
X131977762Y-78177762D01*
X131885913Y-78289680D01*
X131817663Y-78417367D01*
X131775635Y-78555915D01*
X131761444Y-78700000D01*
X111465392Y-78700000D01*
X111465392Y-77350000D01*
X150861444Y-77350000D01*
X150865001Y-77386115D01*
X150865000Y-91313895D01*
X150861444Y-91350000D01*
X150875635Y-91494085D01*
X150917663Y-91632633D01*
X150985913Y-91760320D01*
X151077762Y-91872238D01*
X151187807Y-91962550D01*
X151189680Y-91964087D01*
X151317367Y-92032337D01*
X151455915Y-92074365D01*
X151600000Y-92088556D01*
X151636105Y-92085000D01*
X165563895Y-92085000D01*
X165600000Y-92088556D01*
X165636105Y-92085000D01*
X165744085Y-92074365D01*
X165882633Y-92032337D01*
X166010320Y-91964087D01*
X166122238Y-91872238D01*
X166214087Y-91760320D01*
X166282337Y-91632633D01*
X166324365Y-91494085D01*
X166338556Y-91350000D01*
X166335000Y-91313895D01*
X166335000Y-78700000D01*
X169861444Y-78700000D01*
X169865001Y-78736115D01*
X169865000Y-92663895D01*
X169861444Y-92700000D01*
X169875635Y-92844085D01*
X169917663Y-92982633D01*
X169985913Y-93110320D01*
X170077762Y-93222238D01*
X170188163Y-93312842D01*
X170189680Y-93314087D01*
X170317367Y-93382337D01*
X170455915Y-93424365D01*
X170600000Y-93438556D01*
X170636105Y-93435000D01*
X184563895Y-93435000D01*
X184600000Y-93438556D01*
X184636105Y-93435000D01*
X184744085Y-93424365D01*
X184882633Y-93382337D01*
X185010320Y-93314087D01*
X185122238Y-93222238D01*
X185214087Y-93110320D01*
X185282337Y-92982633D01*
X185324365Y-92844085D01*
X185338556Y-92700000D01*
X185335000Y-92663895D01*
X185335000Y-83400000D01*
X188961444Y-83400000D01*
X188965001Y-83436115D01*
X188965000Y-97363895D01*
X188961444Y-97400000D01*
X188975635Y-97544085D01*
X189017663Y-97682633D01*
X189085913Y-97810320D01*
X189177762Y-97922238D01*
X189289680Y-98014087D01*
X189417367Y-98082337D01*
X189555915Y-98124365D01*
X189700000Y-98138556D01*
X189736105Y-98135000D01*
X203663895Y-98135000D01*
X203700000Y-98138556D01*
X203736105Y-98135000D01*
X203738814Y-98134733D01*
X203553262Y-98320285D01*
X203264893Y-98751859D01*
X203066261Y-99231399D01*
X202965000Y-99740475D01*
X202965000Y-100259525D01*
X203066261Y-100768601D01*
X203264893Y-101248141D01*
X203553262Y-101679715D01*
X203588547Y-101715000D01*
X189736105Y-101715000D01*
X189700000Y-101711444D01*
X189663895Y-101715000D01*
X189555915Y-101725635D01*
X189417367Y-101767663D01*
X189289680Y-101835913D01*
X189177762Y-101927762D01*
X189085913Y-102039680D01*
X189017663Y-102167367D01*
X188975635Y-102305915D01*
X188961444Y-102450000D01*
X188965001Y-102486115D01*
X188965000Y-116413895D01*
X188961444Y-116450000D01*
X188975635Y-116594085D01*
X189017663Y-116732633D01*
X189085913Y-116860320D01*
X189177762Y-116972238D01*
X189280132Y-117056251D01*
X189289680Y-117064087D01*
X189417367Y-117132337D01*
X189555915Y-117174365D01*
X189700000Y-117188556D01*
X189736105Y-117185000D01*
X203663895Y-117185000D01*
X203700000Y-117188556D01*
X203736105Y-117185000D01*
X203844085Y-117174365D01*
X203982633Y-117132337D01*
X204110320Y-117064087D01*
X204222238Y-116972238D01*
X204314087Y-116860320D01*
X204382337Y-116732633D01*
X204424365Y-116594085D01*
X204438556Y-116450000D01*
X204435000Y-116413895D01*
X204435000Y-103900000D01*
X207961444Y-103900000D01*
X207965001Y-103936115D01*
X207965000Y-117863895D01*
X207961444Y-117900000D01*
X207975635Y-118044085D01*
X208017663Y-118182633D01*
X208085913Y-118310320D01*
X208177762Y-118422238D01*
X208270569Y-118498403D01*
X208289680Y-118514087D01*
X208417367Y-118582337D01*
X208555915Y-118624365D01*
X208700000Y-118638556D01*
X208736105Y-118635000D01*
X222663895Y-118635000D01*
X222700000Y-118638556D01*
X222736105Y-118635000D01*
X222844085Y-118624365D01*
X222982633Y-118582337D01*
X223110320Y-118514087D01*
X223222238Y-118422238D01*
X223314087Y-118310320D01*
X223382337Y-118182633D01*
X223424365Y-118044085D01*
X223438556Y-117900000D01*
X223435000Y-117863895D01*
X223435000Y-103936105D01*
X223438556Y-103900000D01*
X223424365Y-103755915D01*
X223382337Y-103617367D01*
X223314087Y-103489680D01*
X223222238Y-103377762D01*
X223110320Y-103285913D01*
X222982633Y-103217663D01*
X222844085Y-103175635D01*
X222736105Y-103165000D01*
X222700000Y-103161444D01*
X222663895Y-103165000D01*
X208736105Y-103165000D01*
X208700000Y-103161444D01*
X208663895Y-103165000D01*
X208555915Y-103175635D01*
X208417367Y-103217663D01*
X208289680Y-103285913D01*
X208177762Y-103377762D01*
X208085913Y-103489680D01*
X208017663Y-103617367D01*
X207975635Y-103755915D01*
X207961444Y-103900000D01*
X204435000Y-103900000D01*
X204435000Y-102486105D01*
X204438556Y-102450000D01*
X204430446Y-102367659D01*
X204831399Y-102533739D01*
X205340475Y-102635000D01*
X205859525Y-102635000D01*
X206368601Y-102533739D01*
X206848141Y-102335107D01*
X207279715Y-102046738D01*
X207646738Y-101679715D01*
X207935107Y-101248141D01*
X208133739Y-100768601D01*
X208235000Y-100259525D01*
X208235000Y-99740475D01*
X208156632Y-99346491D01*
X208177762Y-99372238D01*
X208289680Y-99464087D01*
X208417367Y-99532337D01*
X208555915Y-99574365D01*
X208700000Y-99588556D01*
X208736105Y-99585000D01*
X222663895Y-99585000D01*
X222700000Y-99588556D01*
X222736105Y-99585000D01*
X222844085Y-99574365D01*
X222982633Y-99532337D01*
X223110320Y-99464087D01*
X223222238Y-99372238D01*
X223314087Y-99260320D01*
X223382337Y-99132633D01*
X223424365Y-98994085D01*
X223438556Y-98850000D01*
X223435000Y-98813895D01*
X223435000Y-84886105D01*
X223438556Y-84850000D01*
X223424365Y-84705915D01*
X223382337Y-84567367D01*
X223314087Y-84439680D01*
X223222238Y-84327762D01*
X223110320Y-84235913D01*
X222982633Y-84167663D01*
X222844085Y-84125635D01*
X222736105Y-84115000D01*
X222700000Y-84111444D01*
X222663895Y-84115000D01*
X208736105Y-84115000D01*
X208700000Y-84111444D01*
X208663895Y-84115000D01*
X208555915Y-84125635D01*
X208417367Y-84167663D01*
X208289680Y-84235913D01*
X208177762Y-84327762D01*
X208085913Y-84439680D01*
X208017663Y-84567367D01*
X207975635Y-84705915D01*
X207961444Y-84850000D01*
X207965001Y-84886114D01*
X207965000Y-98813895D01*
X207964194Y-98822081D01*
X207935107Y-98751859D01*
X207646738Y-98320285D01*
X207279715Y-97953262D01*
X206848141Y-97664893D01*
X206368601Y-97466261D01*
X205859525Y-97365000D01*
X205340475Y-97365000D01*
X204831399Y-97466261D01*
X204392872Y-97647905D01*
X204424365Y-97544085D01*
X204438556Y-97400000D01*
X204435000Y-97363895D01*
X204435000Y-83436105D01*
X204438556Y-83400000D01*
X204424365Y-83255915D01*
X204382337Y-83117367D01*
X204314087Y-82989680D01*
X204222238Y-82877762D01*
X204110320Y-82785913D01*
X203982633Y-82717663D01*
X203844085Y-82675635D01*
X203736105Y-82665000D01*
X203700000Y-82661444D01*
X203663895Y-82665000D01*
X189736105Y-82665000D01*
X189700000Y-82661444D01*
X189663895Y-82665000D01*
X189555915Y-82675635D01*
X189417367Y-82717663D01*
X189289680Y-82785913D01*
X189177762Y-82877762D01*
X189085913Y-82989680D01*
X189017663Y-83117367D01*
X188975635Y-83255915D01*
X188961444Y-83400000D01*
X185335000Y-83400000D01*
X185335000Y-78736105D01*
X185338556Y-78700000D01*
X185324365Y-78555915D01*
X185282337Y-78417367D01*
X185214087Y-78289680D01*
X185122238Y-78177762D01*
X185010320Y-78085913D01*
X184882633Y-78017663D01*
X184744085Y-77975635D01*
X184636105Y-77965000D01*
X184600000Y-77961444D01*
X184563895Y-77965000D01*
X170636105Y-77965000D01*
X170600000Y-77961444D01*
X170563895Y-77965000D01*
X170455915Y-77975635D01*
X170317367Y-78017663D01*
X170189680Y-78085913D01*
X170077762Y-78177762D01*
X169985913Y-78289680D01*
X169917663Y-78417367D01*
X169875635Y-78555915D01*
X169861444Y-78700000D01*
X166335000Y-78700000D01*
X166335000Y-77386105D01*
X166338556Y-77350000D01*
X166324365Y-77205915D01*
X166282337Y-77067367D01*
X166214087Y-76939680D01*
X166122238Y-76827762D01*
X166010320Y-76735913D01*
X165882633Y-76667663D01*
X165744085Y-76625635D01*
X165636105Y-76615000D01*
X165600000Y-76611444D01*
X165563895Y-76615000D01*
X151636105Y-76615000D01*
X151600000Y-76611444D01*
X151563895Y-76615000D01*
X151455915Y-76625635D01*
X151317367Y-76667663D01*
X151189680Y-76735913D01*
X151077762Y-76827762D01*
X150985913Y-76939680D01*
X150917663Y-77067367D01*
X150875635Y-77205915D01*
X150861444Y-77350000D01*
X111465392Y-77350000D01*
X111465392Y-43000000D01*
X112761444Y-43000000D01*
X112765001Y-43036115D01*
X112765000Y-56963895D01*
X112761444Y-57000000D01*
X112775635Y-57144085D01*
X112817663Y-57282633D01*
X112885913Y-57410320D01*
X112977762Y-57522238D01*
X113089680Y-57614087D01*
X113217367Y-57682337D01*
X113355915Y-57724365D01*
X113500000Y-57738556D01*
X113536105Y-57735000D01*
X126943430Y-57735000D01*
X126664893Y-58151859D01*
X126466261Y-58631399D01*
X126365000Y-59140475D01*
X126365000Y-59659525D01*
X126466261Y-60168601D01*
X126664893Y-60648141D01*
X126953262Y-61079715D01*
X127188547Y-61315000D01*
X113536105Y-61315000D01*
X113500000Y-61311444D01*
X113463895Y-61315000D01*
X113355915Y-61325635D01*
X113217367Y-61367663D01*
X113089680Y-61435913D01*
X112977762Y-61527762D01*
X112885913Y-61639680D01*
X112817663Y-61767367D01*
X112775635Y-61905915D01*
X112761444Y-62050000D01*
X112765001Y-62086115D01*
X112765000Y-76013895D01*
X112761444Y-76050000D01*
X112775635Y-76194085D01*
X112817663Y-76332633D01*
X112885913Y-76460320D01*
X112977762Y-76572238D01*
X113089680Y-76664087D01*
X113217367Y-76732337D01*
X113355915Y-76774365D01*
X113500000Y-76788556D01*
X113536105Y-76785000D01*
X127463895Y-76785000D01*
X127500000Y-76788556D01*
X127536105Y-76785000D01*
X127644085Y-76774365D01*
X127782633Y-76732337D01*
X127910320Y-76664087D01*
X128022238Y-76572238D01*
X128114087Y-76460320D01*
X128182337Y-76332633D01*
X128224365Y-76194085D01*
X128238556Y-76050000D01*
X128235000Y-76013895D01*
X128235000Y-62086105D01*
X128238556Y-62050000D01*
X128226923Y-61931885D01*
X128231399Y-61933739D01*
X128740475Y-62035000D01*
X129259525Y-62035000D01*
X129768601Y-61933739D01*
X130248141Y-61735107D01*
X130679715Y-61446738D01*
X131046738Y-61079715D01*
X131335107Y-60648141D01*
X131533739Y-60168601D01*
X131635000Y-59659525D01*
X131635000Y-59650000D01*
X131761444Y-59650000D01*
X131765001Y-59686115D01*
X131765000Y-73613895D01*
X131761444Y-73650000D01*
X131775635Y-73794085D01*
X131817663Y-73932633D01*
X131885913Y-74060320D01*
X131977762Y-74172238D01*
X132089680Y-74264087D01*
X132217367Y-74332337D01*
X132355915Y-74374365D01*
X132500000Y-74388556D01*
X132536105Y-74385000D01*
X146463895Y-74385000D01*
X146500000Y-74388556D01*
X146536105Y-74385000D01*
X146644085Y-74374365D01*
X146782633Y-74332337D01*
X146910320Y-74264087D01*
X147022238Y-74172238D01*
X147114087Y-74060320D01*
X147182337Y-73932633D01*
X147224365Y-73794085D01*
X147238556Y-73650000D01*
X147235000Y-73613895D01*
X147235000Y-59686105D01*
X147238556Y-59650000D01*
X147224365Y-59505915D01*
X147182337Y-59367367D01*
X147114087Y-59239680D01*
X147022238Y-59127762D01*
X146910320Y-59035913D01*
X146782633Y-58967663D01*
X146644085Y-58925635D01*
X146536105Y-58915000D01*
X146500000Y-58911444D01*
X146463895Y-58915000D01*
X132536105Y-58915000D01*
X132500000Y-58911444D01*
X132463895Y-58915000D01*
X132355915Y-58925635D01*
X132217367Y-58967663D01*
X132089680Y-59035913D01*
X131977762Y-59127762D01*
X131885913Y-59239680D01*
X131817663Y-59367367D01*
X131775635Y-59505915D01*
X131761444Y-59650000D01*
X131635000Y-59650000D01*
X131635000Y-59140475D01*
X131533739Y-58631399D01*
X131396470Y-58300000D01*
X150861444Y-58300000D01*
X150865001Y-58336115D01*
X150865000Y-72263895D01*
X150861444Y-72300000D01*
X150875635Y-72444085D01*
X150917663Y-72582633D01*
X150985913Y-72710320D01*
X151077762Y-72822238D01*
X151189680Y-72914087D01*
X151317367Y-72982337D01*
X151455915Y-73024365D01*
X151600000Y-73038556D01*
X151636105Y-73035000D01*
X165563895Y-73035000D01*
X165600000Y-73038556D01*
X165636105Y-73035000D01*
X165744085Y-73024365D01*
X165882633Y-72982337D01*
X166010320Y-72914087D01*
X166122238Y-72822238D01*
X166214087Y-72710320D01*
X166282337Y-72582633D01*
X166324365Y-72444085D01*
X166338556Y-72300000D01*
X166335000Y-72263895D01*
X166335000Y-59650000D01*
X169861444Y-59650000D01*
X169865001Y-59686115D01*
X169865000Y-73613895D01*
X169861444Y-73650000D01*
X169875635Y-73794085D01*
X169917663Y-73932633D01*
X169985913Y-74060320D01*
X170077762Y-74172238D01*
X170189680Y-74264087D01*
X170317367Y-74332337D01*
X170455915Y-74374365D01*
X170600000Y-74388556D01*
X170636105Y-74385000D01*
X184563895Y-74385000D01*
X184600000Y-74388556D01*
X184636105Y-74385000D01*
X184744085Y-74374365D01*
X184882633Y-74332337D01*
X185010320Y-74264087D01*
X185122238Y-74172238D01*
X185214087Y-74060320D01*
X185282337Y-73932633D01*
X185324365Y-73794085D01*
X185338556Y-73650000D01*
X185335000Y-73613895D01*
X185335000Y-59686105D01*
X185338556Y-59650000D01*
X185324365Y-59505915D01*
X185282337Y-59367367D01*
X185214087Y-59239680D01*
X185122238Y-59127762D01*
X185010320Y-59035913D01*
X184882633Y-58967663D01*
X184744085Y-58925635D01*
X184636105Y-58915000D01*
X184600000Y-58911444D01*
X184563895Y-58915000D01*
X170636105Y-58915000D01*
X170600000Y-58911444D01*
X170563895Y-58915000D01*
X170455915Y-58925635D01*
X170317367Y-58967663D01*
X170189680Y-59035913D01*
X170077762Y-59127762D01*
X169985913Y-59239680D01*
X169917663Y-59367367D01*
X169875635Y-59505915D01*
X169861444Y-59650000D01*
X166335000Y-59650000D01*
X166335000Y-58336105D01*
X166338556Y-58300000D01*
X166324365Y-58155915D01*
X166282337Y-58017367D01*
X166214087Y-57889680D01*
X166122238Y-57777762D01*
X166010320Y-57685913D01*
X165882633Y-57617663D01*
X165744085Y-57575635D01*
X165636105Y-57565000D01*
X165600000Y-57561444D01*
X165563895Y-57565000D01*
X151636105Y-57565000D01*
X151600000Y-57561444D01*
X151563895Y-57565000D01*
X151455915Y-57575635D01*
X151317367Y-57617663D01*
X151189680Y-57685913D01*
X151077762Y-57777762D01*
X150985913Y-57889680D01*
X150917663Y-58017367D01*
X150875635Y-58155915D01*
X150861444Y-58300000D01*
X131396470Y-58300000D01*
X131335107Y-58151859D01*
X131046738Y-57720285D01*
X130679715Y-57353262D01*
X130248141Y-57064893D01*
X129768601Y-56866261D01*
X129259525Y-56765000D01*
X128740475Y-56765000D01*
X128235000Y-56865545D01*
X128235000Y-43036105D01*
X128238556Y-43000000D01*
X128224365Y-42855915D01*
X128182337Y-42717367D01*
X128114087Y-42589680D01*
X128022238Y-42477762D01*
X127910320Y-42385913D01*
X127782633Y-42317663D01*
X127644085Y-42275635D01*
X127536105Y-42265000D01*
X127500000Y-42261444D01*
X127463895Y-42265000D01*
X113536105Y-42265000D01*
X113500000Y-42261444D01*
X113463895Y-42265000D01*
X113355915Y-42275635D01*
X113217367Y-42317663D01*
X113089680Y-42385913D01*
X112977762Y-42477762D01*
X112885913Y-42589680D01*
X112817663Y-42717367D01*
X112775635Y-42855915D01*
X112761444Y-43000000D01*
X111465392Y-43000000D01*
X111465392Y-40600000D01*
X131761444Y-40600000D01*
X131765001Y-40636115D01*
X131765000Y-54563895D01*
X131761444Y-54600000D01*
X131775635Y-54744085D01*
X131817663Y-54882633D01*
X131885913Y-55010320D01*
X131977762Y-55122238D01*
X132089680Y-55214087D01*
X132217367Y-55282337D01*
X132355915Y-55324365D01*
X132500000Y-55338556D01*
X132536105Y-55335000D01*
X146463895Y-55335000D01*
X146500000Y-55338556D01*
X146536105Y-55335000D01*
X146644085Y-55324365D01*
X146782633Y-55282337D01*
X146910320Y-55214087D01*
X147022238Y-55122238D01*
X147114087Y-55010320D01*
X147182337Y-54882633D01*
X147224365Y-54744085D01*
X147238556Y-54600000D01*
X147235000Y-54563895D01*
X147235000Y-40636105D01*
X147238556Y-40600000D01*
X147224365Y-40455915D01*
X147182337Y-40317367D01*
X147114087Y-40189680D01*
X147022238Y-40077762D01*
X146910320Y-39985913D01*
X146782633Y-39917663D01*
X146644085Y-39875635D01*
X146536105Y-39865000D01*
X146500000Y-39861444D01*
X146463895Y-39865000D01*
X132536105Y-39865000D01*
X132500000Y-39861444D01*
X132463895Y-39865000D01*
X132355915Y-39875635D01*
X132217367Y-39917663D01*
X132089680Y-39985913D01*
X131977762Y-40077762D01*
X131885913Y-40189680D01*
X131817663Y-40317367D01*
X131775635Y-40455915D01*
X131761444Y-40600000D01*
X111465392Y-40600000D01*
X111465392Y-39326889D01*
X111473129Y-39250000D01*
X150861444Y-39250000D01*
X150865001Y-39286115D01*
X150865000Y-53213895D01*
X150861444Y-53250000D01*
X150875635Y-53394085D01*
X150917663Y-53532633D01*
X150985913Y-53660320D01*
X151077762Y-53772238D01*
X151189680Y-53864087D01*
X151317367Y-53932337D01*
X151455915Y-53974365D01*
X151600000Y-53988556D01*
X151636105Y-53985000D01*
X165563895Y-53985000D01*
X165600000Y-53988556D01*
X165636105Y-53985000D01*
X165744085Y-53974365D01*
X165882633Y-53932337D01*
X166010320Y-53864087D01*
X166122238Y-53772238D01*
X166214087Y-53660320D01*
X166282337Y-53532633D01*
X166324365Y-53394085D01*
X166338556Y-53250000D01*
X166335000Y-53213895D01*
X166335000Y-40600000D01*
X169861444Y-40600000D01*
X169865001Y-40636115D01*
X169865000Y-54563895D01*
X169861444Y-54600000D01*
X169875635Y-54744085D01*
X169917663Y-54882633D01*
X169985913Y-55010320D01*
X170077762Y-55122238D01*
X170189680Y-55214087D01*
X170317367Y-55282337D01*
X170455915Y-55324365D01*
X170600000Y-55338556D01*
X170636105Y-55335000D01*
X184563895Y-55335000D01*
X184600000Y-55338556D01*
X184636105Y-55335000D01*
X184744085Y-55324365D01*
X184882633Y-55282337D01*
X185010320Y-55214087D01*
X185122238Y-55122238D01*
X185214087Y-55010320D01*
X185282337Y-54882633D01*
X185324365Y-54744085D01*
X185338556Y-54600000D01*
X185335000Y-54563895D01*
X185335000Y-45300000D01*
X188961444Y-45300000D01*
X188965001Y-45336115D01*
X188965000Y-59263895D01*
X188961444Y-59300000D01*
X188975635Y-59444085D01*
X189017663Y-59582633D01*
X189085913Y-59710320D01*
X189177762Y-59822238D01*
X189289680Y-59914087D01*
X189417367Y-59982337D01*
X189555915Y-60024365D01*
X189700000Y-60038556D01*
X189736105Y-60035000D01*
X203663895Y-60035000D01*
X203700000Y-60038556D01*
X203736105Y-60035000D01*
X203738814Y-60034733D01*
X203553262Y-60220285D01*
X203264893Y-60651859D01*
X203066261Y-61131399D01*
X202965000Y-61640475D01*
X202965000Y-62159525D01*
X203066261Y-62668601D01*
X203264893Y-63148141D01*
X203553262Y-63579715D01*
X203588547Y-63615000D01*
X189736105Y-63615000D01*
X189700000Y-63611444D01*
X189663895Y-63615000D01*
X189555915Y-63625635D01*
X189417367Y-63667663D01*
X189289680Y-63735913D01*
X189177762Y-63827762D01*
X189085913Y-63939680D01*
X189017663Y-64067367D01*
X188975635Y-64205915D01*
X188961444Y-64350000D01*
X188965001Y-64386115D01*
X188965000Y-78313895D01*
X188961444Y-78350000D01*
X188975635Y-78494085D01*
X189017663Y-78632633D01*
X189085913Y-78760320D01*
X189177762Y-78872238D01*
X189289680Y-78964087D01*
X189417367Y-79032337D01*
X189555915Y-79074365D01*
X189700000Y-79088556D01*
X189736105Y-79085000D01*
X203663895Y-79085000D01*
X203700000Y-79088556D01*
X203736105Y-79085000D01*
X203844085Y-79074365D01*
X203982633Y-79032337D01*
X204110320Y-78964087D01*
X204222238Y-78872238D01*
X204314087Y-78760320D01*
X204382337Y-78632633D01*
X204424365Y-78494085D01*
X204438556Y-78350000D01*
X204435000Y-78313895D01*
X204435000Y-65800000D01*
X207961444Y-65800000D01*
X207965001Y-65836115D01*
X207965000Y-79763895D01*
X207961444Y-79800000D01*
X207975635Y-79944085D01*
X208017663Y-80082633D01*
X208085913Y-80210320D01*
X208177762Y-80322238D01*
X208289680Y-80414087D01*
X208417367Y-80482337D01*
X208555915Y-80524365D01*
X208700000Y-80538556D01*
X208736105Y-80535000D01*
X222663895Y-80535000D01*
X222700000Y-80538556D01*
X222736105Y-80535000D01*
X222844085Y-80524365D01*
X222982633Y-80482337D01*
X223110320Y-80414087D01*
X223222238Y-80322238D01*
X223314087Y-80210320D01*
X223382337Y-80082633D01*
X223424365Y-79944085D01*
X223438556Y-79800000D01*
X223435000Y-79763895D01*
X223435000Y-65836105D01*
X223438556Y-65800000D01*
X223424365Y-65655915D01*
X223382337Y-65517367D01*
X223314087Y-65389680D01*
X223222238Y-65277762D01*
X223110320Y-65185913D01*
X222982633Y-65117663D01*
X222844085Y-65075635D01*
X222736105Y-65065000D01*
X222700000Y-65061444D01*
X222663895Y-65065000D01*
X208736105Y-65065000D01*
X208700000Y-65061444D01*
X208663895Y-65065000D01*
X208555915Y-65075635D01*
X208417367Y-65117663D01*
X208289680Y-65185913D01*
X208177762Y-65277762D01*
X208085913Y-65389680D01*
X208017663Y-65517367D01*
X207975635Y-65655915D01*
X207961444Y-65800000D01*
X204435000Y-65800000D01*
X204435000Y-64386105D01*
X204438556Y-64350000D01*
X204430446Y-64267659D01*
X204831399Y-64433739D01*
X205340475Y-64535000D01*
X205859525Y-64535000D01*
X206368601Y-64433739D01*
X206848141Y-64235107D01*
X207279715Y-63946738D01*
X207646738Y-63579715D01*
X207935107Y-63148141D01*
X208133739Y-62668601D01*
X208235000Y-62159525D01*
X208235000Y-61640475D01*
X208156632Y-61246491D01*
X208177762Y-61272238D01*
X208289680Y-61364087D01*
X208417367Y-61432337D01*
X208555915Y-61474365D01*
X208700000Y-61488556D01*
X208736105Y-61485000D01*
X222663895Y-61485000D01*
X222700000Y-61488556D01*
X222736105Y-61485000D01*
X222844085Y-61474365D01*
X222982633Y-61432337D01*
X223110320Y-61364087D01*
X223222238Y-61272238D01*
X223314087Y-61160320D01*
X223382337Y-61032633D01*
X223424365Y-60894085D01*
X223438556Y-60750000D01*
X223435000Y-60713895D01*
X223435000Y-46786105D01*
X223438556Y-46750000D01*
X223424365Y-46605915D01*
X223382337Y-46467367D01*
X223314087Y-46339680D01*
X223222238Y-46227762D01*
X223110320Y-46135913D01*
X222982633Y-46067663D01*
X222844085Y-46025635D01*
X222736105Y-46015000D01*
X222700000Y-46011444D01*
X222663895Y-46015000D01*
X208736105Y-46015000D01*
X208700000Y-46011444D01*
X208663895Y-46015000D01*
X208555915Y-46025635D01*
X208417367Y-46067663D01*
X208289680Y-46135913D01*
X208177762Y-46227762D01*
X208085913Y-46339680D01*
X208017663Y-46467367D01*
X207975635Y-46605915D01*
X207961444Y-46750000D01*
X207965001Y-46786115D01*
X207965000Y-60713895D01*
X207964194Y-60722081D01*
X207935107Y-60651859D01*
X207646738Y-60220285D01*
X207279715Y-59853262D01*
X206848141Y-59564893D01*
X206368601Y-59366261D01*
X205859525Y-59265000D01*
X205340475Y-59265000D01*
X204831399Y-59366261D01*
X204392872Y-59547905D01*
X204424365Y-59444085D01*
X204438556Y-59300000D01*
X204435000Y-59263895D01*
X204435000Y-45336105D01*
X204438556Y-45300000D01*
X204424365Y-45155915D01*
X204382337Y-45017367D01*
X204314087Y-44889680D01*
X204222238Y-44777762D01*
X204110320Y-44685913D01*
X203982633Y-44617663D01*
X203844085Y-44575635D01*
X203736105Y-44565000D01*
X203700000Y-44561444D01*
X203663895Y-44565000D01*
X189736105Y-44565000D01*
X189700000Y-44561444D01*
X189663895Y-44565000D01*
X189555915Y-44575635D01*
X189417367Y-44617663D01*
X189289680Y-44685913D01*
X189177762Y-44777762D01*
X189085913Y-44889680D01*
X189017663Y-45017367D01*
X188975635Y-45155915D01*
X188961444Y-45300000D01*
X185335000Y-45300000D01*
X185335000Y-40636105D01*
X185338556Y-40600000D01*
X185324365Y-40455915D01*
X185282337Y-40317367D01*
X185214087Y-40189680D01*
X185122238Y-40077762D01*
X185010320Y-39985913D01*
X184882633Y-39917663D01*
X184744085Y-39875635D01*
X184636105Y-39865000D01*
X184600000Y-39861444D01*
X184563895Y-39865000D01*
X170636105Y-39865000D01*
X170600000Y-39861444D01*
X170563895Y-39865000D01*
X170455915Y-39875635D01*
X170317367Y-39917663D01*
X170189680Y-39985913D01*
X170077762Y-40077762D01*
X169985913Y-40189680D01*
X169917663Y-40317367D01*
X169875635Y-40455915D01*
X169861444Y-40600000D01*
X166335000Y-40600000D01*
X166335000Y-39286105D01*
X166338556Y-39250000D01*
X166324365Y-39105915D01*
X166282337Y-38967367D01*
X166214087Y-38839680D01*
X166122238Y-38727762D01*
X166010320Y-38635913D01*
X165882633Y-38567663D01*
X165744085Y-38525635D01*
X165636105Y-38515000D01*
X165600000Y-38511444D01*
X165563895Y-38515000D01*
X151636105Y-38515000D01*
X151600000Y-38511444D01*
X151563895Y-38515000D01*
X151455915Y-38525635D01*
X151317367Y-38567663D01*
X151189680Y-38635913D01*
X151077762Y-38727762D01*
X150985913Y-38839680D01*
X150917663Y-38967367D01*
X150875635Y-39105915D01*
X150861444Y-39250000D01*
X111473129Y-39250000D01*
X111498950Y-38993430D01*
X111583713Y-38720021D01*
X111718020Y-38472375D01*
X111896426Y-38256060D01*
X112112694Y-38077629D01*
X112360258Y-37943318D01*
X112633559Y-37858558D01*
X112967427Y-37824947D01*
X115212210Y-37821762D01*
X167246872Y-37821762D01*
X178973109Y-37950518D01*
M02*
