G04 #@! TF.GenerationSoftware,KiCad,Pcbnew,(5.1.5)-3*
G04 #@! TF.CreationDate,2020-05-17T14:12:01+04:00*
G04 #@! TF.ProjectId,Lily60_Evo_BOTTOM,4c696c79-3630-45f4-9576-6f5f424f5454,rev?*
G04 #@! TF.SameCoordinates,Original*
G04 #@! TF.FileFunction,Copper,L1,Top*
G04 #@! TF.FilePolarity,Positive*
%FSLAX46Y46*%
G04 Gerber Fmt 4.6, Leading zero omitted, Abs format (unit mm)*
G04 Created by KiCad (PCBNEW (5.1.5)-3) date 2020-05-17 14:12:01*
%MOMM*%
%LPD*%
G04 APERTURE LIST*
%ADD10C,0.100000*%
%ADD11C,0.150000*%
%ADD12C,0.300000*%
%ADD13C,0.400000*%
%ADD14C,0.200000*%
%ADD15C,4.000000*%
%ADD16C,0.254000*%
G04 APERTURE END LIST*
D10*
D11*
X177002200Y-166007200D02*
X177002200Y-198007200D01*
X285002200Y-198007200D01*
X285002200Y-166007200D01*
X177002200Y-166007200D01*
D10*
D11*
X10000000Y-10000000D02*
X10000000Y-200007200D01*
X287002200Y-200007200D01*
X287002200Y-10000000D01*
X10000000Y-10000000D01*
D10*
D11*
X12000000Y-12000000D02*
X12000000Y-198007200D01*
X285002200Y-198007200D01*
X285002200Y-12000000D01*
X12000000Y-12000000D01*
D10*
D11*
X60000000Y-12000000D02*
X60000000Y-10000000D01*
D10*
D11*
X110000000Y-12000000D02*
X110000000Y-10000000D01*
D10*
D11*
X160000000Y-12000000D02*
X160000000Y-10000000D01*
D10*
D11*
X210000000Y-12000000D02*
X210000000Y-10000000D01*
D10*
D11*
X260000000Y-12000000D02*
X260000000Y-10000000D01*
D10*
D11*
X36065476Y-11588095D02*
X35322619Y-11588095D01*
X35694047Y-11588095D02*
X35694047Y-10288095D01*
X35570238Y-10473809D01*
X35446428Y-10597619D01*
X35322619Y-10659523D01*
D10*
D11*
X85322619Y-10411904D02*
X85384523Y-10350000D01*
X85508333Y-10288095D01*
X85817857Y-10288095D01*
X85941666Y-10350000D01*
X86003571Y-10411904D01*
X86065476Y-10535714D01*
X86065476Y-10659523D01*
X86003571Y-10845238D01*
X85260714Y-11588095D01*
X86065476Y-11588095D01*
D10*
D11*
X135260714Y-10288095D02*
X136065476Y-10288095D01*
X135632142Y-10783333D01*
X135817857Y-10783333D01*
X135941666Y-10845238D01*
X136003571Y-10907142D01*
X136065476Y-11030952D01*
X136065476Y-11340476D01*
X136003571Y-11464285D01*
X135941666Y-11526190D01*
X135817857Y-11588095D01*
X135446428Y-11588095D01*
X135322619Y-11526190D01*
X135260714Y-11464285D01*
D10*
D11*
X185941666Y-10721428D02*
X185941666Y-11588095D01*
X185632142Y-10226190D02*
X185322619Y-11154761D01*
X186127380Y-11154761D01*
D10*
D11*
X236003571Y-10288095D02*
X235384523Y-10288095D01*
X235322619Y-10907142D01*
X235384523Y-10845238D01*
X235508333Y-10783333D01*
X235817857Y-10783333D01*
X235941666Y-10845238D01*
X236003571Y-10907142D01*
X236065476Y-11030952D01*
X236065476Y-11340476D01*
X236003571Y-11464285D01*
X235941666Y-11526190D01*
X235817857Y-11588095D01*
X235508333Y-11588095D01*
X235384523Y-11526190D01*
X235322619Y-11464285D01*
D10*
D11*
X285941666Y-10288095D02*
X285694047Y-10288095D01*
X285570238Y-10350000D01*
X285508333Y-10411904D01*
X285384523Y-10597619D01*
X285322619Y-10845238D01*
X285322619Y-11340476D01*
X285384523Y-11464285D01*
X285446428Y-11526190D01*
X285570238Y-11588095D01*
X285817857Y-11588095D01*
X285941666Y-11526190D01*
X286003571Y-11464285D01*
X286065476Y-11340476D01*
X286065476Y-11030952D01*
X286003571Y-10907142D01*
X285941666Y-10845238D01*
X285817857Y-10783333D01*
X285570238Y-10783333D01*
X285446428Y-10845238D01*
X285384523Y-10907142D01*
X285322619Y-11030952D01*
D10*
D11*
X60000000Y-198007200D02*
X60000000Y-200007200D01*
D10*
D11*
X110000000Y-198007200D02*
X110000000Y-200007200D01*
D10*
D11*
X160000000Y-198007200D02*
X160000000Y-200007200D01*
D10*
D11*
X210000000Y-198007200D02*
X210000000Y-200007200D01*
D10*
D11*
X260000000Y-198007200D02*
X260000000Y-200007200D01*
D10*
D11*
X36065476Y-199595295D02*
X35322619Y-199595295D01*
X35694047Y-199595295D02*
X35694047Y-198295295D01*
X35570238Y-198481009D01*
X35446428Y-198604819D01*
X35322619Y-198666723D01*
D10*
D11*
X85322619Y-198419104D02*
X85384523Y-198357200D01*
X85508333Y-198295295D01*
X85817857Y-198295295D01*
X85941666Y-198357200D01*
X86003571Y-198419104D01*
X86065476Y-198542914D01*
X86065476Y-198666723D01*
X86003571Y-198852438D01*
X85260714Y-199595295D01*
X86065476Y-199595295D01*
D10*
D11*
X135260714Y-198295295D02*
X136065476Y-198295295D01*
X135632142Y-198790533D01*
X135817857Y-198790533D01*
X135941666Y-198852438D01*
X136003571Y-198914342D01*
X136065476Y-199038152D01*
X136065476Y-199347676D01*
X136003571Y-199471485D01*
X135941666Y-199533390D01*
X135817857Y-199595295D01*
X135446428Y-199595295D01*
X135322619Y-199533390D01*
X135260714Y-199471485D01*
D10*
D11*
X185941666Y-198728628D02*
X185941666Y-199595295D01*
X185632142Y-198233390D02*
X185322619Y-199161961D01*
X186127380Y-199161961D01*
D10*
D11*
X236003571Y-198295295D02*
X235384523Y-198295295D01*
X235322619Y-198914342D01*
X235384523Y-198852438D01*
X235508333Y-198790533D01*
X235817857Y-198790533D01*
X235941666Y-198852438D01*
X236003571Y-198914342D01*
X236065476Y-199038152D01*
X236065476Y-199347676D01*
X236003571Y-199471485D01*
X235941666Y-199533390D01*
X235817857Y-199595295D01*
X235508333Y-199595295D01*
X235384523Y-199533390D01*
X235322619Y-199471485D01*
D10*
D11*
X285941666Y-198295295D02*
X285694047Y-198295295D01*
X285570238Y-198357200D01*
X285508333Y-198419104D01*
X285384523Y-198604819D01*
X285322619Y-198852438D01*
X285322619Y-199347676D01*
X285384523Y-199471485D01*
X285446428Y-199533390D01*
X285570238Y-199595295D01*
X285817857Y-199595295D01*
X285941666Y-199533390D01*
X286003571Y-199471485D01*
X286065476Y-199347676D01*
X286065476Y-199038152D01*
X286003571Y-198914342D01*
X285941666Y-198852438D01*
X285817857Y-198790533D01*
X285570238Y-198790533D01*
X285446428Y-198852438D01*
X285384523Y-198914342D01*
X285322619Y-199038152D01*
D10*
D11*
X10000000Y-60000000D02*
X12000000Y-60000000D01*
D10*
D11*
X10000000Y-110000000D02*
X12000000Y-110000000D01*
D10*
D11*
X10000000Y-160000000D02*
X12000000Y-160000000D01*
D10*
D11*
X10690476Y-35216666D02*
X11309523Y-35216666D01*
X10566666Y-35588095D02*
X11000000Y-34288095D01*
X11433333Y-35588095D01*
D10*
D11*
X11092857Y-84907142D02*
X11278571Y-84969047D01*
X11340476Y-85030952D01*
X11402380Y-85154761D01*
X11402380Y-85340476D01*
X11340476Y-85464285D01*
X11278571Y-85526190D01*
X11154761Y-85588095D01*
X10659523Y-85588095D01*
X10659523Y-84288095D01*
X11092857Y-84288095D01*
X11216666Y-84350000D01*
X11278571Y-84411904D01*
X11340476Y-84535714D01*
X11340476Y-84659523D01*
X11278571Y-84783333D01*
X11216666Y-84845238D01*
X11092857Y-84907142D01*
X10659523Y-84907142D01*
D10*
D11*
X11402380Y-135464285D02*
X11340476Y-135526190D01*
X11154761Y-135588095D01*
X11030952Y-135588095D01*
X10845238Y-135526190D01*
X10721428Y-135402380D01*
X10659523Y-135278571D01*
X10597619Y-135030952D01*
X10597619Y-134845238D01*
X10659523Y-134597619D01*
X10721428Y-134473809D01*
X10845238Y-134350000D01*
X11030952Y-134288095D01*
X11154761Y-134288095D01*
X11340476Y-134350000D01*
X11402380Y-134411904D01*
D10*
D11*
X10659523Y-185588095D02*
X10659523Y-184288095D01*
X10969047Y-184288095D01*
X11154761Y-184350000D01*
X11278571Y-184473809D01*
X11340476Y-184597619D01*
X11402380Y-184845238D01*
X11402380Y-185030952D01*
X11340476Y-185278571D01*
X11278571Y-185402380D01*
X11154761Y-185526190D01*
X10969047Y-185588095D01*
X10659523Y-185588095D01*
D10*
D11*
X287002200Y-60000000D02*
X285002200Y-60000000D01*
D10*
D11*
X287002200Y-110000000D02*
X285002200Y-110000000D01*
D10*
D11*
X287002200Y-160000000D02*
X285002200Y-160000000D01*
D10*
D11*
X285692676Y-35216666D02*
X286311723Y-35216666D01*
X285568866Y-35588095D02*
X286002200Y-34288095D01*
X286435533Y-35588095D01*
D10*
D11*
X286095057Y-84907142D02*
X286280771Y-84969047D01*
X286342676Y-85030952D01*
X286404580Y-85154761D01*
X286404580Y-85340476D01*
X286342676Y-85464285D01*
X286280771Y-85526190D01*
X286156961Y-85588095D01*
X285661723Y-85588095D01*
X285661723Y-84288095D01*
X286095057Y-84288095D01*
X286218866Y-84350000D01*
X286280771Y-84411904D01*
X286342676Y-84535714D01*
X286342676Y-84659523D01*
X286280771Y-84783333D01*
X286218866Y-84845238D01*
X286095057Y-84907142D01*
X285661723Y-84907142D01*
D10*
D11*
X286404580Y-135464285D02*
X286342676Y-135526190D01*
X286156961Y-135588095D01*
X286033152Y-135588095D01*
X285847438Y-135526190D01*
X285723628Y-135402380D01*
X285661723Y-135278571D01*
X285599819Y-135030952D01*
X285599819Y-134845238D01*
X285661723Y-134597619D01*
X285723628Y-134473809D01*
X285847438Y-134350000D01*
X286033152Y-134288095D01*
X286156961Y-134288095D01*
X286342676Y-134350000D01*
X286404580Y-134411904D01*
D10*
D11*
X285661723Y-185588095D02*
X285661723Y-184288095D01*
X285971247Y-184288095D01*
X286156961Y-184350000D01*
X286280771Y-184473809D01*
X286342676Y-184597619D01*
X286404580Y-184845238D01*
X286404580Y-185030952D01*
X286342676Y-185278571D01*
X286280771Y-185402380D01*
X286156961Y-185526190D01*
X285971247Y-185588095D01*
X285661723Y-185588095D01*
D10*
D11*
X200434342Y-193785771D02*
X200434342Y-192285771D01*
X200791485Y-192285771D01*
X201005771Y-192357200D01*
X201148628Y-192500057D01*
X201220057Y-192642914D01*
X201291485Y-192928628D01*
X201291485Y-193142914D01*
X201220057Y-193428628D01*
X201148628Y-193571485D01*
X201005771Y-193714342D01*
X200791485Y-193785771D01*
X200434342Y-193785771D01*
X202577200Y-193785771D02*
X202577200Y-193000057D01*
X202505771Y-192857200D01*
X202362914Y-192785771D01*
X202077200Y-192785771D01*
X201934342Y-192857200D01*
X202577200Y-193714342D02*
X202434342Y-193785771D01*
X202077200Y-193785771D01*
X201934342Y-193714342D01*
X201862914Y-193571485D01*
X201862914Y-193428628D01*
X201934342Y-193285771D01*
X202077200Y-193214342D01*
X202434342Y-193214342D01*
X202577200Y-193142914D01*
X203077200Y-192785771D02*
X203648628Y-192785771D01*
X203291485Y-192285771D02*
X203291485Y-193571485D01*
X203362914Y-193714342D01*
X203505771Y-193785771D01*
X203648628Y-193785771D01*
X204720057Y-193714342D02*
X204577200Y-193785771D01*
X204291485Y-193785771D01*
X204148628Y-193714342D01*
X204077200Y-193571485D01*
X204077200Y-193000057D01*
X204148628Y-192857200D01*
X204291485Y-192785771D01*
X204577200Y-192785771D01*
X204720057Y-192857200D01*
X204791485Y-193000057D01*
X204791485Y-193142914D01*
X204077200Y-193285771D01*
X205434342Y-193642914D02*
X205505771Y-193714342D01*
X205434342Y-193785771D01*
X205362914Y-193714342D01*
X205434342Y-193642914D01*
X205434342Y-193785771D01*
X205434342Y-192857200D02*
X205505771Y-192928628D01*
X205434342Y-193000057D01*
X205362914Y-192928628D01*
X205434342Y-192857200D01*
X205434342Y-193000057D01*
D10*
D11*
X177002200Y-194507200D02*
X285002200Y-194507200D01*
D10*
D11*
X178434342Y-196585771D02*
X178434342Y-195085771D01*
X179291485Y-196585771D02*
X178648628Y-195728628D01*
X179291485Y-195085771D02*
X178434342Y-195942914D01*
X179934342Y-196585771D02*
X179934342Y-195585771D01*
X179934342Y-195085771D02*
X179862914Y-195157200D01*
X179934342Y-195228628D01*
X180005771Y-195157200D01*
X179934342Y-195085771D01*
X179934342Y-195228628D01*
X181505771Y-196442914D02*
X181434342Y-196514342D01*
X181220057Y-196585771D01*
X181077200Y-196585771D01*
X180862914Y-196514342D01*
X180720057Y-196371485D01*
X180648628Y-196228628D01*
X180577200Y-195942914D01*
X180577200Y-195728628D01*
X180648628Y-195442914D01*
X180720057Y-195300057D01*
X180862914Y-195157200D01*
X181077200Y-195085771D01*
X181220057Y-195085771D01*
X181434342Y-195157200D01*
X181505771Y-195228628D01*
X182791485Y-196585771D02*
X182791485Y-195800057D01*
X182720057Y-195657200D01*
X182577200Y-195585771D01*
X182291485Y-195585771D01*
X182148628Y-195657200D01*
X182791485Y-196514342D02*
X182648628Y-196585771D01*
X182291485Y-196585771D01*
X182148628Y-196514342D01*
X182077200Y-196371485D01*
X182077200Y-196228628D01*
X182148628Y-196085771D01*
X182291485Y-196014342D01*
X182648628Y-196014342D01*
X182791485Y-195942914D01*
X184148628Y-196585771D02*
X184148628Y-195085771D01*
X184148628Y-196514342D02*
X184005771Y-196585771D01*
X183720057Y-196585771D01*
X183577200Y-196514342D01*
X183505771Y-196442914D01*
X183434342Y-196300057D01*
X183434342Y-195871485D01*
X183505771Y-195728628D01*
X183577200Y-195657200D01*
X183720057Y-195585771D01*
X184005771Y-195585771D01*
X184148628Y-195657200D01*
X186005771Y-195800057D02*
X186505771Y-195800057D01*
X186720057Y-196585771D02*
X186005771Y-196585771D01*
X186005771Y-195085771D01*
X186720057Y-195085771D01*
X187362914Y-196442914D02*
X187434342Y-196514342D01*
X187362914Y-196585771D01*
X187291485Y-196514342D01*
X187362914Y-196442914D01*
X187362914Y-196585771D01*
X188077200Y-196585771D02*
X188077200Y-195085771D01*
X188434342Y-195085771D01*
X188648628Y-195157200D01*
X188791485Y-195300057D01*
X188862914Y-195442914D01*
X188934342Y-195728628D01*
X188934342Y-195942914D01*
X188862914Y-196228628D01*
X188791485Y-196371485D01*
X188648628Y-196514342D01*
X188434342Y-196585771D01*
X188077200Y-196585771D01*
X189577200Y-196442914D02*
X189648628Y-196514342D01*
X189577200Y-196585771D01*
X189505771Y-196514342D01*
X189577200Y-196442914D01*
X189577200Y-196585771D01*
X190220057Y-196157200D02*
X190934342Y-196157200D01*
X190077200Y-196585771D02*
X190577200Y-195085771D01*
X191077200Y-196585771D01*
X191577200Y-196442914D02*
X191648628Y-196514342D01*
X191577200Y-196585771D01*
X191505771Y-196514342D01*
X191577200Y-196442914D01*
X191577200Y-196585771D01*
X194577200Y-195585771D02*
X194577200Y-197085771D01*
X194577200Y-195657200D02*
X194720057Y-195585771D01*
X195005771Y-195585771D01*
X195148628Y-195657200D01*
X195220057Y-195728628D01*
X195291485Y-195871485D01*
X195291485Y-196300057D01*
X195220057Y-196442914D01*
X195148628Y-196514342D01*
X195005771Y-196585771D01*
X194720057Y-196585771D01*
X194577200Y-196514342D01*
X196577200Y-196514342D02*
X196434342Y-196585771D01*
X196148628Y-196585771D01*
X196005771Y-196514342D01*
X195934342Y-196442914D01*
X195862914Y-196300057D01*
X195862914Y-195871485D01*
X195934342Y-195728628D01*
X196005771Y-195657200D01*
X196148628Y-195585771D01*
X196434342Y-195585771D01*
X196577200Y-195657200D01*
X197220057Y-196585771D02*
X197220057Y-195085771D01*
X197220057Y-195657200D02*
X197362914Y-195585771D01*
X197648628Y-195585771D01*
X197791485Y-195657200D01*
X197862914Y-195728628D01*
X197934342Y-195871485D01*
X197934342Y-196300057D01*
X197862914Y-196442914D01*
X197791485Y-196514342D01*
X197648628Y-196585771D01*
X197362914Y-196585771D01*
X197220057Y-196514342D01*
X198577200Y-195585771D02*
X198577200Y-196585771D01*
X198577200Y-195728628D02*
X198648628Y-195657200D01*
X198791485Y-195585771D01*
X199005771Y-195585771D01*
X199148628Y-195657200D01*
X199220057Y-195800057D01*
X199220057Y-196585771D01*
X200505771Y-196514342D02*
X200362914Y-196585771D01*
X200077200Y-196585771D01*
X199934342Y-196514342D01*
X199862914Y-196371485D01*
X199862914Y-195800057D01*
X199934342Y-195657200D01*
X200077200Y-195585771D01*
X200362914Y-195585771D01*
X200505771Y-195657200D01*
X200577200Y-195800057D01*
X200577200Y-195942914D01*
X199862914Y-196085771D01*
X201077200Y-195585771D02*
X201362914Y-196585771D01*
X201648628Y-195871485D01*
X201934342Y-196585771D01*
X202220057Y-195585771D01*
X204362914Y-197157200D02*
X204291485Y-197085771D01*
X204148628Y-196871485D01*
X204077200Y-196728628D01*
X204005771Y-196514342D01*
X203934342Y-196157200D01*
X203934342Y-195871485D01*
X204005771Y-195514342D01*
X204077200Y-195300057D01*
X204148628Y-195157200D01*
X204291485Y-194942914D01*
X204362914Y-194871485D01*
X205648628Y-195085771D02*
X204934342Y-195085771D01*
X204862914Y-195800057D01*
X204934342Y-195728628D01*
X205077200Y-195657200D01*
X205434342Y-195657200D01*
X205577200Y-195728628D01*
X205648628Y-195800057D01*
X205720057Y-195942914D01*
X205720057Y-196300057D01*
X205648628Y-196442914D01*
X205577200Y-196514342D01*
X205434342Y-196585771D01*
X205077200Y-196585771D01*
X204934342Y-196514342D01*
X204862914Y-196442914D01*
X206362914Y-196442914D02*
X206434342Y-196514342D01*
X206362914Y-196585771D01*
X206291485Y-196514342D01*
X206362914Y-196442914D01*
X206362914Y-196585771D01*
X207862914Y-196585771D02*
X207005771Y-196585771D01*
X207434342Y-196585771D02*
X207434342Y-195085771D01*
X207291485Y-195300057D01*
X207148628Y-195442914D01*
X207005771Y-195514342D01*
X208505771Y-196442914D02*
X208577200Y-196514342D01*
X208505771Y-196585771D01*
X208434342Y-196514342D01*
X208505771Y-196442914D01*
X208505771Y-196585771D01*
X209934342Y-195085771D02*
X209220057Y-195085771D01*
X209148628Y-195800057D01*
X209220057Y-195728628D01*
X209362914Y-195657200D01*
X209720057Y-195657200D01*
X209862914Y-195728628D01*
X209934342Y-195800057D01*
X210005771Y-195942914D01*
X210005771Y-196300057D01*
X209934342Y-196442914D01*
X209862914Y-196514342D01*
X209720057Y-196585771D01*
X209362914Y-196585771D01*
X209220057Y-196514342D01*
X209148628Y-196442914D01*
X210505771Y-197157200D02*
X210577200Y-197085771D01*
X210720057Y-196871485D01*
X210791485Y-196728628D01*
X210862914Y-196514342D01*
X210934342Y-196157200D01*
X210934342Y-195871485D01*
X210862914Y-195514342D01*
X210791485Y-195300057D01*
X210720057Y-195157200D01*
X210577200Y-194942914D01*
X210505771Y-194871485D01*
X211648628Y-196014342D02*
X212791485Y-196014342D01*
X213362914Y-195085771D02*
X214291485Y-195085771D01*
X213791485Y-195657200D01*
X214005771Y-195657200D01*
X214148628Y-195728628D01*
X214220057Y-195800057D01*
X214291485Y-195942914D01*
X214291485Y-196300057D01*
X214220057Y-196442914D01*
X214148628Y-196514342D01*
X214005771Y-196585771D01*
X213577200Y-196585771D01*
X213434342Y-196514342D01*
X213362914Y-196442914D01*
D10*
D11*
X177002200Y-191507200D02*
X285002200Y-191507200D01*
D10*
D12*
X264411485Y-193785771D02*
X263911485Y-193071485D01*
X263554342Y-193785771D02*
X263554342Y-192285771D01*
X264125771Y-192285771D01*
X264268628Y-192357200D01*
X264340057Y-192428628D01*
X264411485Y-192571485D01*
X264411485Y-192785771D01*
X264340057Y-192928628D01*
X264268628Y-193000057D01*
X264125771Y-193071485D01*
X263554342Y-193071485D01*
X265625771Y-193714342D02*
X265482914Y-193785771D01*
X265197200Y-193785771D01*
X265054342Y-193714342D01*
X264982914Y-193571485D01*
X264982914Y-193000057D01*
X265054342Y-192857200D01*
X265197200Y-192785771D01*
X265482914Y-192785771D01*
X265625771Y-192857200D01*
X265697200Y-193000057D01*
X265697200Y-193142914D01*
X264982914Y-193285771D01*
X266197200Y-192785771D02*
X266554342Y-193785771D01*
X266911485Y-192785771D01*
X267482914Y-193642914D02*
X267554342Y-193714342D01*
X267482914Y-193785771D01*
X267411485Y-193714342D01*
X267482914Y-193642914D01*
X267482914Y-193785771D01*
X267482914Y-192857200D02*
X267554342Y-192928628D01*
X267482914Y-193000057D01*
X267411485Y-192928628D01*
X267482914Y-192857200D01*
X267482914Y-193000057D01*
D10*
D11*
X178362914Y-193714342D02*
X178577200Y-193785771D01*
X178934342Y-193785771D01*
X179077200Y-193714342D01*
X179148628Y-193642914D01*
X179220057Y-193500057D01*
X179220057Y-193357200D01*
X179148628Y-193214342D01*
X179077200Y-193142914D01*
X178934342Y-193071485D01*
X178648628Y-193000057D01*
X178505771Y-192928628D01*
X178434342Y-192857200D01*
X178362914Y-192714342D01*
X178362914Y-192571485D01*
X178434342Y-192428628D01*
X178505771Y-192357200D01*
X178648628Y-192285771D01*
X179005771Y-192285771D01*
X179220057Y-192357200D01*
X179862914Y-193785771D02*
X179862914Y-192785771D01*
X179862914Y-192285771D02*
X179791485Y-192357200D01*
X179862914Y-192428628D01*
X179934342Y-192357200D01*
X179862914Y-192285771D01*
X179862914Y-192428628D01*
X180434342Y-192785771D02*
X181220057Y-192785771D01*
X180434342Y-193785771D01*
X181220057Y-193785771D01*
X182362914Y-193714342D02*
X182220057Y-193785771D01*
X181934342Y-193785771D01*
X181791485Y-193714342D01*
X181720057Y-193571485D01*
X181720057Y-193000057D01*
X181791485Y-192857200D01*
X181934342Y-192785771D01*
X182220057Y-192785771D01*
X182362914Y-192857200D01*
X182434342Y-193000057D01*
X182434342Y-193142914D01*
X181720057Y-193285771D01*
X183077200Y-193642914D02*
X183148628Y-193714342D01*
X183077200Y-193785771D01*
X183005771Y-193714342D01*
X183077200Y-193642914D01*
X183077200Y-193785771D01*
X183077200Y-192857200D02*
X183148628Y-192928628D01*
X183077200Y-193000057D01*
X183005771Y-192928628D01*
X183077200Y-192857200D01*
X183077200Y-193000057D01*
X184862914Y-193357200D02*
X185577200Y-193357200D01*
X184720057Y-193785771D02*
X185220057Y-192285771D01*
X185720057Y-193785771D01*
X186862914Y-192785771D02*
X186862914Y-193785771D01*
X186505771Y-192214342D02*
X186148628Y-193285771D01*
X187077200Y-193285771D01*
D10*
D11*
X263434342Y-196585771D02*
X263434342Y-195085771D01*
X264791485Y-196585771D02*
X264791485Y-195085771D01*
X264791485Y-196514342D02*
X264648628Y-196585771D01*
X264362914Y-196585771D01*
X264220057Y-196514342D01*
X264148628Y-196442914D01*
X264077200Y-196300057D01*
X264077200Y-195871485D01*
X264148628Y-195728628D01*
X264220057Y-195657200D01*
X264362914Y-195585771D01*
X264648628Y-195585771D01*
X264791485Y-195657200D01*
X265505771Y-196442914D02*
X265577200Y-196514342D01*
X265505771Y-196585771D01*
X265434342Y-196514342D01*
X265505771Y-196442914D01*
X265505771Y-196585771D01*
X265505771Y-195657200D02*
X265577200Y-195728628D01*
X265505771Y-195800057D01*
X265434342Y-195728628D01*
X265505771Y-195657200D01*
X265505771Y-195800057D01*
X268148628Y-196585771D02*
X267291485Y-196585771D01*
X267720057Y-196585771D02*
X267720057Y-195085771D01*
X267577200Y-195300057D01*
X267434342Y-195442914D01*
X267291485Y-195514342D01*
X269862914Y-195014342D02*
X268577200Y-196942914D01*
X271148628Y-196585771D02*
X270291485Y-196585771D01*
X270720057Y-196585771D02*
X270720057Y-195085771D01*
X270577200Y-195300057D01*
X270434342Y-195442914D01*
X270291485Y-195514342D01*
D10*
D11*
X177002200Y-187507200D02*
X285002200Y-187507200D01*
D10*
D13*
X178714580Y-188211961D02*
X179857438Y-188211961D01*
X179036009Y-190211961D02*
X179286009Y-188211961D01*
X180274104Y-190211961D02*
X180440771Y-188878628D01*
X180524104Y-188211961D02*
X180416961Y-188307200D01*
X180500295Y-188402438D01*
X180607438Y-188307200D01*
X180524104Y-188211961D01*
X180500295Y-188402438D01*
X181107438Y-188878628D02*
X181869342Y-188878628D01*
X181476485Y-188211961D02*
X181262200Y-189926247D01*
X181333628Y-190116723D01*
X181512200Y-190211961D01*
X181702676Y-190211961D01*
X182655057Y-190211961D02*
X182476485Y-190116723D01*
X182405057Y-189926247D01*
X182619342Y-188211961D01*
X184190771Y-190116723D02*
X183988390Y-190211961D01*
X183607438Y-190211961D01*
X183428866Y-190116723D01*
X183357438Y-189926247D01*
X183452676Y-189164342D01*
X183571723Y-188973866D01*
X183774104Y-188878628D01*
X184155057Y-188878628D01*
X184333628Y-188973866D01*
X184405057Y-189164342D01*
X184381247Y-189354819D01*
X183405057Y-189545295D01*
X185155057Y-190021485D02*
X185238390Y-190116723D01*
X185131247Y-190211961D01*
X185047914Y-190116723D01*
X185155057Y-190021485D01*
X185131247Y-190211961D01*
X185286009Y-188973866D02*
X185369342Y-189069104D01*
X185262200Y-189164342D01*
X185178866Y-189069104D01*
X185286009Y-188973866D01*
X185262200Y-189164342D01*
D10*
D11*
X178934342Y-185600057D02*
X178434342Y-185600057D01*
X178434342Y-186385771D02*
X178434342Y-184885771D01*
X179148628Y-184885771D01*
X179720057Y-186385771D02*
X179720057Y-185385771D01*
X179720057Y-184885771D02*
X179648628Y-184957200D01*
X179720057Y-185028628D01*
X179791485Y-184957200D01*
X179720057Y-184885771D01*
X179720057Y-185028628D01*
X180648628Y-186385771D02*
X180505771Y-186314342D01*
X180434342Y-186171485D01*
X180434342Y-184885771D01*
X181791485Y-186314342D02*
X181648628Y-186385771D01*
X181362914Y-186385771D01*
X181220057Y-186314342D01*
X181148628Y-186171485D01*
X181148628Y-185600057D01*
X181220057Y-185457200D01*
X181362914Y-185385771D01*
X181648628Y-185385771D01*
X181791485Y-185457200D01*
X181862914Y-185600057D01*
X181862914Y-185742914D01*
X181148628Y-185885771D01*
X182505771Y-186242914D02*
X182577200Y-186314342D01*
X182505771Y-186385771D01*
X182434342Y-186314342D01*
X182505771Y-186242914D01*
X182505771Y-186385771D01*
X182505771Y-185457200D02*
X182577200Y-185528628D01*
X182505771Y-185600057D01*
X182434342Y-185528628D01*
X182505771Y-185457200D01*
X182505771Y-185600057D01*
X185077200Y-186385771D02*
X184362914Y-186385771D01*
X184362914Y-184885771D01*
X185577200Y-186385771D02*
X185577200Y-185385771D01*
X185577200Y-184885771D02*
X185505771Y-184957200D01*
X185577200Y-185028628D01*
X185648628Y-184957200D01*
X185577200Y-184885771D01*
X185577200Y-185028628D01*
X186505771Y-186385771D02*
X186362914Y-186314342D01*
X186291485Y-186171485D01*
X186291485Y-184885771D01*
X186934342Y-185385771D02*
X187291485Y-186385771D01*
X187648628Y-185385771D02*
X187291485Y-186385771D01*
X187148628Y-186742914D01*
X187077200Y-186814342D01*
X186934342Y-186885771D01*
X188862914Y-184885771D02*
X188577200Y-184885771D01*
X188434342Y-184957200D01*
X188362914Y-185028628D01*
X188220057Y-185242914D01*
X188148628Y-185528628D01*
X188148628Y-186100057D01*
X188220057Y-186242914D01*
X188291485Y-186314342D01*
X188434342Y-186385771D01*
X188720057Y-186385771D01*
X188862914Y-186314342D01*
X188934342Y-186242914D01*
X189005771Y-186100057D01*
X189005771Y-185742914D01*
X188934342Y-185600057D01*
X188862914Y-185528628D01*
X188720057Y-185457200D01*
X188434342Y-185457200D01*
X188291485Y-185528628D01*
X188220057Y-185600057D01*
X188148628Y-185742914D01*
X189934342Y-184885771D02*
X190077200Y-184885771D01*
X190220057Y-184957200D01*
X190291485Y-185028628D01*
X190362914Y-185171485D01*
X190434342Y-185457200D01*
X190434342Y-185814342D01*
X190362914Y-186100057D01*
X190291485Y-186242914D01*
X190220057Y-186314342D01*
X190077200Y-186385771D01*
X189934342Y-186385771D01*
X189791485Y-186314342D01*
X189720057Y-186242914D01*
X189648628Y-186100057D01*
X189577200Y-185814342D01*
X189577200Y-185457200D01*
X189648628Y-185171485D01*
X189720057Y-185028628D01*
X189791485Y-184957200D01*
X189934342Y-184885771D01*
X190720057Y-186528628D02*
X191862914Y-186528628D01*
X192220057Y-185600057D02*
X192720057Y-185600057D01*
X192934342Y-186385771D02*
X192220057Y-186385771D01*
X192220057Y-184885771D01*
X192934342Y-184885771D01*
X193434342Y-185385771D02*
X193791485Y-186385771D01*
X194148628Y-185385771D01*
X194934342Y-186385771D02*
X194791485Y-186314342D01*
X194720057Y-186242914D01*
X194648628Y-186100057D01*
X194648628Y-185671485D01*
X194720057Y-185528628D01*
X194791485Y-185457200D01*
X194934342Y-185385771D01*
X195148628Y-185385771D01*
X195291485Y-185457200D01*
X195362914Y-185528628D01*
X195434342Y-185671485D01*
X195434342Y-186100057D01*
X195362914Y-186242914D01*
X195291485Y-186314342D01*
X195148628Y-186385771D01*
X194934342Y-186385771D01*
X195720057Y-186528628D02*
X196862914Y-186528628D01*
X197720057Y-185600057D02*
X197934342Y-185671485D01*
X198005771Y-185742914D01*
X198077200Y-185885771D01*
X198077200Y-186100057D01*
X198005771Y-186242914D01*
X197934342Y-186314342D01*
X197791485Y-186385771D01*
X197220057Y-186385771D01*
X197220057Y-184885771D01*
X197720057Y-184885771D01*
X197862914Y-184957200D01*
X197934342Y-185028628D01*
X198005771Y-185171485D01*
X198005771Y-185314342D01*
X197934342Y-185457200D01*
X197862914Y-185528628D01*
X197720057Y-185600057D01*
X197220057Y-185600057D01*
X199005771Y-184885771D02*
X199291485Y-184885771D01*
X199434342Y-184957200D01*
X199577200Y-185100057D01*
X199648628Y-185385771D01*
X199648628Y-185885771D01*
X199577200Y-186171485D01*
X199434342Y-186314342D01*
X199291485Y-186385771D01*
X199005771Y-186385771D01*
X198862914Y-186314342D01*
X198720057Y-186171485D01*
X198648628Y-185885771D01*
X198648628Y-185385771D01*
X198720057Y-185100057D01*
X198862914Y-184957200D01*
X199005771Y-184885771D01*
X200077200Y-184885771D02*
X200934342Y-184885771D01*
X200505771Y-186385771D02*
X200505771Y-184885771D01*
X201220057Y-184885771D02*
X202077200Y-184885771D01*
X201648628Y-186385771D02*
X201648628Y-184885771D01*
X202862914Y-184885771D02*
X203148628Y-184885771D01*
X203291485Y-184957200D01*
X203434342Y-185100057D01*
X203505771Y-185385771D01*
X203505771Y-185885771D01*
X203434342Y-186171485D01*
X203291485Y-186314342D01*
X203148628Y-186385771D01*
X202862914Y-186385771D01*
X202720057Y-186314342D01*
X202577200Y-186171485D01*
X202505771Y-185885771D01*
X202505771Y-185385771D01*
X202577200Y-185100057D01*
X202720057Y-184957200D01*
X202862914Y-184885771D01*
X204148628Y-186385771D02*
X204148628Y-184885771D01*
X204648628Y-185957200D01*
X205148628Y-184885771D01*
X205148628Y-186385771D01*
X205862914Y-186242914D02*
X205934342Y-186314342D01*
X205862914Y-186385771D01*
X205791485Y-186314342D01*
X205862914Y-186242914D01*
X205862914Y-186385771D01*
X206577200Y-186385771D02*
X206577200Y-184885771D01*
X206720057Y-185814342D02*
X207148628Y-186385771D01*
X207148628Y-185385771D02*
X206577200Y-185957200D01*
X207791485Y-186385771D02*
X207791485Y-185385771D01*
X207791485Y-184885771D02*
X207720057Y-184957200D01*
X207791485Y-185028628D01*
X207862914Y-184957200D01*
X207791485Y-184885771D01*
X207791485Y-185028628D01*
X209148628Y-186314342D02*
X209005771Y-186385771D01*
X208720057Y-186385771D01*
X208577200Y-186314342D01*
X208505771Y-186242914D01*
X208434342Y-186100057D01*
X208434342Y-185671485D01*
X208505771Y-185528628D01*
X208577200Y-185457200D01*
X208720057Y-185385771D01*
X209005771Y-185385771D01*
X209148628Y-185457200D01*
X210434342Y-186385771D02*
X210434342Y-185600057D01*
X210362914Y-185457200D01*
X210220057Y-185385771D01*
X209934342Y-185385771D01*
X209791485Y-185457200D01*
X210434342Y-186314342D02*
X210291485Y-186385771D01*
X209934342Y-186385771D01*
X209791485Y-186314342D01*
X209720057Y-186171485D01*
X209720057Y-186028628D01*
X209791485Y-185885771D01*
X209934342Y-185814342D01*
X210291485Y-185814342D01*
X210434342Y-185742914D01*
X211791485Y-186385771D02*
X211791485Y-184885771D01*
X211791485Y-186314342D02*
X211648628Y-186385771D01*
X211362914Y-186385771D01*
X211220057Y-186314342D01*
X211148628Y-186242914D01*
X211077200Y-186100057D01*
X211077200Y-185671485D01*
X211148628Y-185528628D01*
X211220057Y-185457200D01*
X211362914Y-185385771D01*
X211648628Y-185385771D01*
X211791485Y-185457200D01*
X212148628Y-186528628D02*
X213291485Y-186528628D01*
X213648628Y-185385771D02*
X213648628Y-186885771D01*
X213648628Y-185457200D02*
X213791485Y-185385771D01*
X214077200Y-185385771D01*
X214220057Y-185457200D01*
X214291485Y-185528628D01*
X214362914Y-185671485D01*
X214362914Y-186100057D01*
X214291485Y-186242914D01*
X214220057Y-186314342D01*
X214077200Y-186385771D01*
X213791485Y-186385771D01*
X213648628Y-186314342D01*
X215648628Y-186314342D02*
X215505771Y-186385771D01*
X215220057Y-186385771D01*
X215077200Y-186314342D01*
X215005771Y-186242914D01*
X214934342Y-186100057D01*
X214934342Y-185671485D01*
X215005771Y-185528628D01*
X215077200Y-185457200D01*
X215220057Y-185385771D01*
X215505771Y-185385771D01*
X215648628Y-185457200D01*
X216291485Y-186385771D02*
X216291485Y-184885771D01*
X216291485Y-185457200D02*
X216434342Y-185385771D01*
X216720057Y-185385771D01*
X216862914Y-185457200D01*
X216934342Y-185528628D01*
X217005771Y-185671485D01*
X217005771Y-186100057D01*
X216934342Y-186242914D01*
X216862914Y-186314342D01*
X216720057Y-186385771D01*
X216434342Y-186385771D01*
X216291485Y-186314342D01*
D10*
D11*
X177002200Y-181507200D02*
X285002200Y-181507200D01*
D10*
D11*
X178362914Y-183614342D02*
X178577200Y-183685771D01*
X178934342Y-183685771D01*
X179077200Y-183614342D01*
X179148628Y-183542914D01*
X179220057Y-183400057D01*
X179220057Y-183257200D01*
X179148628Y-183114342D01*
X179077200Y-183042914D01*
X178934342Y-182971485D01*
X178648628Y-182900057D01*
X178505771Y-182828628D01*
X178434342Y-182757200D01*
X178362914Y-182614342D01*
X178362914Y-182471485D01*
X178434342Y-182328628D01*
X178505771Y-182257200D01*
X178648628Y-182185771D01*
X179005771Y-182185771D01*
X179220057Y-182257200D01*
X179862914Y-183685771D02*
X179862914Y-182185771D01*
X180505771Y-183685771D02*
X180505771Y-182900057D01*
X180434342Y-182757200D01*
X180291485Y-182685771D01*
X180077200Y-182685771D01*
X179934342Y-182757200D01*
X179862914Y-182828628D01*
X181791485Y-183614342D02*
X181648628Y-183685771D01*
X181362914Y-183685771D01*
X181220057Y-183614342D01*
X181148628Y-183471485D01*
X181148628Y-182900057D01*
X181220057Y-182757200D01*
X181362914Y-182685771D01*
X181648628Y-182685771D01*
X181791485Y-182757200D01*
X181862914Y-182900057D01*
X181862914Y-183042914D01*
X181148628Y-183185771D01*
X183077200Y-183614342D02*
X182934342Y-183685771D01*
X182648628Y-183685771D01*
X182505771Y-183614342D01*
X182434342Y-183471485D01*
X182434342Y-182900057D01*
X182505771Y-182757200D01*
X182648628Y-182685771D01*
X182934342Y-182685771D01*
X183077200Y-182757200D01*
X183148628Y-182900057D01*
X183148628Y-183042914D01*
X182434342Y-183185771D01*
X183577200Y-182685771D02*
X184148628Y-182685771D01*
X183791485Y-182185771D02*
X183791485Y-183471485D01*
X183862914Y-183614342D01*
X184005771Y-183685771D01*
X184148628Y-183685771D01*
X184648628Y-183542914D02*
X184720057Y-183614342D01*
X184648628Y-183685771D01*
X184577200Y-183614342D01*
X184648628Y-183542914D01*
X184648628Y-183685771D01*
X184648628Y-182757200D02*
X184720057Y-182828628D01*
X184648628Y-182900057D01*
X184577200Y-182828628D01*
X184648628Y-182757200D01*
X184648628Y-182900057D01*
D10*
D11*
X197002200Y-191507200D02*
X197002200Y-194507200D01*
D10*
D11*
X261002200Y-191507200D02*
X261002200Y-198007200D01*
D14*
X187714087Y-138785913D02*
X187530998Y-138563960D01*
X188472504Y-139194553D02*
X188190848Y-139107217D01*
X187530998Y-138563960D02*
X187392782Y-138309152D01*
X188190848Y-139107217D02*
X187936039Y-138969001D01*
X187392782Y-138309152D02*
X187305447Y-138027496D01*
X188750000Y-139200000D02*
X188472504Y-139194553D01*
X187936039Y-138969001D02*
X187714087Y-138785913D01*
X186658574Y-133452455D02*
G75*
G02X187300000Y-134150000I-58574J-697545D01*
G01*
X124667888Y-140255128D02*
X127100000Y-138950000D01*
X120963416Y-142391346D02*
X124667888Y-140255128D01*
X117258944Y-144527564D02*
X120963416Y-142391346D01*
X113554472Y-146663782D02*
X117258944Y-144527564D01*
X225459999Y-119289735D02*
X225450000Y-137750000D01*
X204850000Y-139200000D02*
X224277496Y-139194553D01*
X225357217Y-138309152D02*
X225219001Y-138563961D01*
X224559152Y-139107218D02*
X224277496Y-139194553D01*
X224813960Y-138969002D02*
X224559152Y-139107218D01*
X225035913Y-138785913D02*
X224813960Y-138969002D01*
X225444553Y-138027496D02*
X225357217Y-138309152D01*
X225219001Y-138563961D02*
X225035913Y-138785913D01*
X225450000Y-137750000D02*
X225444553Y-138027496D01*
X127100000Y-138950000D02*
X147900000Y-133400000D01*
X187300000Y-134150000D02*
X187305447Y-138027496D01*
X147900000Y-133400000D02*
X186658574Y-133452455D01*
X109882452Y-148801617D02*
X113554472Y-146663782D01*
X188750000Y-139200000D02*
X204850000Y-139200000D01*
X82937528Y-50750629D02*
X82937528Y-44443695D01*
X82937528Y-57057562D02*
X82937528Y-50750629D01*
X115211711Y-37086762D02*
X104803877Y-37086762D01*
X199807654Y-38170488D02*
X189919538Y-37585374D01*
X208420758Y-38945561D02*
X199807654Y-38170488D01*
X215525697Y-39885159D02*
X208420758Y-38945561D01*
X220889319Y-40963847D02*
X215525697Y-39885159D01*
X178989563Y-37215654D02*
X167250881Y-37086762D01*
X189919538Y-37585374D02*
X178989563Y-37215654D01*
X225460000Y-52918378D02*
X225460000Y-62400000D01*
X225460000Y-43436755D02*
X225460000Y-52918378D01*
X82937528Y-69671429D02*
X82937528Y-63364495D01*
X82937528Y-75978362D02*
X82937528Y-69671429D01*
X82937528Y-82285296D02*
X82937528Y-75978362D01*
X82937528Y-88592229D02*
X82937528Y-82285296D01*
X104803877Y-37086762D02*
X94396044Y-37086762D01*
X125619545Y-37086762D02*
X115211711Y-37086762D01*
X136027379Y-37086762D02*
X125619545Y-37086762D01*
X146435213Y-37086762D02*
X136027379Y-37086762D01*
X156843047Y-37086762D02*
X146435213Y-37086762D01*
X167250881Y-37086762D02*
X156843047Y-37086762D01*
X83400937Y-37265961D02*
X83579303Y-37169210D01*
X83245570Y-37394123D02*
X83400937Y-37265961D01*
X83117409Y-37549489D02*
X83245570Y-37394123D01*
X83020657Y-37727855D02*
X83117409Y-37549489D01*
X82959523Y-37925015D02*
X83020657Y-37727855D01*
X82938210Y-38136762D02*
X82959523Y-37925015D01*
X83776462Y-37108075D02*
X83988210Y-37086762D01*
X83579303Y-37169210D02*
X83776462Y-37108075D01*
X94396044Y-37086762D02*
X83988210Y-37086762D01*
X82937528Y-63364495D02*
X82937528Y-57057562D01*
X82937528Y-44443695D02*
X82937528Y-38136762D01*
X88291758Y-116318073D02*
X89993333Y-119989540D01*
X86863105Y-112530670D02*
X88291758Y-116318073D01*
X85688004Y-108649127D02*
X86863105Y-112530670D01*
X84747083Y-104695246D02*
X85688004Y-108649127D01*
X84020972Y-100690825D02*
X84747083Y-104695246D01*
X83490297Y-96657663D02*
X84020972Y-100690825D01*
X83135690Y-92617561D02*
X83490297Y-96657663D01*
X82937777Y-88592317D02*
X83135690Y-92617561D01*
X108038864Y-149857278D02*
X108206758Y-149771756D01*
X107880206Y-149904468D02*
X108038864Y-149857278D01*
X107731252Y-149913974D02*
X107880206Y-149904468D01*
X107592470Y-149886445D02*
X107731252Y-149913974D01*
X107464328Y-149822532D02*
X107592470Y-149886445D01*
X107347295Y-149722884D02*
X107464328Y-149822532D01*
X107241837Y-149588150D02*
X107347295Y-149722884D01*
X107148425Y-149418979D02*
X107241837Y-149588150D01*
X108206758Y-149771756D02*
X109882452Y-148801617D01*
X101722730Y-140052659D02*
X107148425Y-149418979D01*
X100047036Y-137186340D02*
X101722730Y-140052659D01*
X98371341Y-134320020D02*
X100047036Y-137186340D01*
X96695647Y-131453701D02*
X98371341Y-134320020D01*
X95019952Y-128587381D02*
X96695647Y-131453701D01*
X93344258Y-125721062D02*
X95019952Y-128587381D01*
X91668563Y-122854742D02*
X93344258Y-125721062D01*
X89992869Y-119988423D02*
X91668563Y-122854742D01*
X224278471Y-42156190D02*
X220889319Y-40963847D01*
X225460000Y-43436755D02*
X224278471Y-42156190D01*
X225460000Y-109808112D02*
X225460000Y-119289735D01*
X225460000Y-100326490D02*
X225460000Y-109808112D01*
X225460000Y-90844867D02*
X225460000Y-100326490D01*
X225460000Y-81363245D02*
X225460000Y-90844867D01*
X225460000Y-71881623D02*
X225460000Y-81363245D01*
X225460000Y-62400000D02*
X225460000Y-71881623D01*
D15*
X129000000Y-59400000D03*
X205600000Y-61900000D03*
X129000000Y-97600000D03*
X205600000Y-100000000D03*
X108500000Y-120900000D03*
D16*
G36*
X178973109Y-37950518D02*
G01*
X189885418Y-38319640D01*
X199752993Y-38903539D01*
X208339593Y-39676226D01*
X215404929Y-40610587D01*
X220693942Y-41674270D01*
X223862183Y-42788894D01*
X224725000Y-43724033D01*
X224725001Y-52882264D01*
X224725000Y-52882274D01*
X224725001Y-62363886D01*
X224725000Y-62363896D01*
X224725001Y-71845509D01*
X224725000Y-71845519D01*
X224725001Y-81327131D01*
X224725000Y-81327141D01*
X224725001Y-90808753D01*
X224725000Y-90808763D01*
X224725001Y-100290376D01*
X224725000Y-100290386D01*
X224725001Y-109771998D01*
X224725000Y-109772008D01*
X224725001Y-119286472D01*
X224715004Y-137742605D01*
X224711735Y-137909121D01*
X224676631Y-138022331D01*
X224606805Y-138151059D01*
X224513803Y-138263804D01*
X224401059Y-138356806D01*
X224272333Y-138426631D01*
X224166058Y-138459584D01*
X204852917Y-138465000D01*
X188757174Y-138465000D01*
X188590879Y-138461735D01*
X188477669Y-138426631D01*
X188348941Y-138356805D01*
X188236196Y-138263803D01*
X188143194Y-138151059D01*
X188073369Y-138022333D01*
X188040290Y-137915651D01*
X188034948Y-134112863D01*
X188032830Y-134091662D01*
X188028782Y-134023528D01*
X188020559Y-133971605D01*
X188015063Y-133919321D01*
X188012929Y-133909283D01*
X187983592Y-133775854D01*
X187962992Y-133712454D01*
X187943308Y-133648865D01*
X187939266Y-133639432D01*
X187884572Y-133514242D01*
X187852058Y-133456066D01*
X187820386Y-133397489D01*
X187814593Y-133389029D01*
X187814590Y-133389024D01*
X187814587Y-133389020D01*
X187736619Y-133276840D01*
X187693446Y-133226113D01*
X187650984Y-133174784D01*
X187643652Y-133167603D01*
X187545379Y-133072702D01*
X187493163Y-133031316D01*
X187441545Y-132989217D01*
X187432958Y-132983597D01*
X187318123Y-132909591D01*
X187258810Y-132879109D01*
X187200051Y-132847866D01*
X187190537Y-132844021D01*
X187063515Y-132793730D01*
X186999474Y-132775367D01*
X186935708Y-132756115D01*
X186925628Y-132754192D01*
X186832630Y-132737124D01*
X186803638Y-132728286D01*
X186695673Y-132717505D01*
X147912904Y-132665017D01*
X147852468Y-132662975D01*
X147804885Y-132670780D01*
X147756896Y-132675441D01*
X147699014Y-132692914D01*
X126932801Y-138233899D01*
X126884448Y-138243599D01*
X126829616Y-138266417D01*
X126774040Y-138287268D01*
X126732144Y-138313260D01*
X124342259Y-139595729D01*
X124331994Y-139600373D01*
X124310417Y-139612816D01*
X124288535Y-139624558D01*
X124279205Y-139630814D01*
X120627532Y-141736587D01*
X120627522Y-141736591D01*
X116923060Y-143872805D01*
X116923050Y-143872809D01*
X113217261Y-146009788D01*
X113215868Y-146010425D01*
X113185892Y-146027877D01*
X113156025Y-146045100D01*
X113154787Y-146045986D01*
X109513455Y-148165956D01*
X107855572Y-149125783D01*
X107832597Y-149137486D01*
X107805654Y-149088691D01*
X107802520Y-149081802D01*
X107788185Y-149057056D01*
X107774399Y-149032089D01*
X107770120Y-149025870D01*
X102376092Y-139714219D01*
X102375475Y-139712876D01*
X102357885Y-139682788D01*
X102340629Y-139652999D01*
X102339777Y-139651814D01*
X100663337Y-136784219D01*
X100663336Y-136784218D01*
X99024086Y-133980237D01*
X97311948Y-131051580D01*
X97311947Y-131051579D01*
X93960559Y-125318941D01*
X93960558Y-125318940D01*
X92284864Y-122452621D01*
X91225456Y-120640475D01*
X105865000Y-120640475D01*
X105865000Y-121159525D01*
X105966261Y-121668601D01*
X106164893Y-122148141D01*
X106453262Y-122579715D01*
X106820285Y-122946738D01*
X107251859Y-123235107D01*
X107731399Y-123433739D01*
X108240475Y-123535000D01*
X108759525Y-123535000D01*
X109268601Y-123433739D01*
X109748141Y-123235107D01*
X110179715Y-122946738D01*
X110546738Y-122579715D01*
X110835107Y-122148141D01*
X111033739Y-121668601D01*
X111135000Y-121159525D01*
X111135000Y-120640475D01*
X111033739Y-120131399D01*
X110835107Y-119651859D01*
X110546738Y-119220285D01*
X110179715Y-118853262D01*
X109748141Y-118564893D01*
X109268601Y-118366261D01*
X108759525Y-118265000D01*
X108240475Y-118265000D01*
X107731399Y-118366261D01*
X107251859Y-118564893D01*
X106820285Y-118853262D01*
X106453262Y-119220285D01*
X106164893Y-119651859D01*
X105966261Y-120131399D01*
X105865000Y-120640475D01*
X91225456Y-120640475D01*
X90644772Y-119647200D01*
X88969949Y-116033455D01*
X87559469Y-112294231D01*
X86397902Y-108457396D01*
X85466732Y-104544488D01*
X84747363Y-100577251D01*
X84321475Y-97340475D01*
X126365000Y-97340475D01*
X126365000Y-97859525D01*
X126466261Y-98368601D01*
X126664893Y-98848141D01*
X126953262Y-99279715D01*
X127320285Y-99646738D01*
X127751859Y-99935107D01*
X128231399Y-100133739D01*
X128740475Y-100235000D01*
X129259525Y-100235000D01*
X129768601Y-100133739D01*
X130248141Y-99935107D01*
X130539427Y-99740475D01*
X202965000Y-99740475D01*
X202965000Y-100259525D01*
X203066261Y-100768601D01*
X203264893Y-101248141D01*
X203553262Y-101679715D01*
X203920285Y-102046738D01*
X204351859Y-102335107D01*
X204831399Y-102533739D01*
X205340475Y-102635000D01*
X205859525Y-102635000D01*
X206368601Y-102533739D01*
X206848141Y-102335107D01*
X207279715Y-102046738D01*
X207646738Y-101679715D01*
X207935107Y-101248141D01*
X208133739Y-100768601D01*
X208235000Y-100259525D01*
X208235000Y-99740475D01*
X208133739Y-99231399D01*
X207935107Y-98751859D01*
X207646738Y-98320285D01*
X207279715Y-97953262D01*
X206848141Y-97664893D01*
X206368601Y-97466261D01*
X205859525Y-97365000D01*
X205340475Y-97365000D01*
X204831399Y-97466261D01*
X204351859Y-97664893D01*
X203920285Y-97953262D01*
X203553262Y-98320285D01*
X203264893Y-98751859D01*
X203066261Y-99231399D01*
X202965000Y-99740475D01*
X130539427Y-99740475D01*
X130679715Y-99646738D01*
X131046738Y-99279715D01*
X131335107Y-98848141D01*
X131533739Y-98368601D01*
X131635000Y-97859525D01*
X131635000Y-97340475D01*
X131533739Y-96831399D01*
X131335107Y-96351859D01*
X131046738Y-95920285D01*
X130679715Y-95553262D01*
X130248141Y-95264893D01*
X129768601Y-95066261D01*
X129259525Y-94965000D01*
X128740475Y-94965000D01*
X128231399Y-95066261D01*
X127751859Y-95264893D01*
X127320285Y-95553262D01*
X126953262Y-95920285D01*
X126664893Y-96351859D01*
X126466261Y-96831399D01*
X126365000Y-97340475D01*
X84321475Y-97340475D01*
X84221091Y-96577555D01*
X83869110Y-92567363D01*
X83672528Y-88569197D01*
X83672528Y-59140475D01*
X126365000Y-59140475D01*
X126365000Y-59659525D01*
X126466261Y-60168601D01*
X126664893Y-60648141D01*
X126953262Y-61079715D01*
X127320285Y-61446738D01*
X127751859Y-61735107D01*
X128231399Y-61933739D01*
X128740475Y-62035000D01*
X129259525Y-62035000D01*
X129768601Y-61933739D01*
X130248141Y-61735107D01*
X130389767Y-61640475D01*
X202965000Y-61640475D01*
X202965000Y-62159525D01*
X203066261Y-62668601D01*
X203264893Y-63148141D01*
X203553262Y-63579715D01*
X203920285Y-63946738D01*
X204351859Y-64235107D01*
X204831399Y-64433739D01*
X205340475Y-64535000D01*
X205859525Y-64535000D01*
X206368601Y-64433739D01*
X206848141Y-64235107D01*
X207279715Y-63946738D01*
X207646738Y-63579715D01*
X207935107Y-63148141D01*
X208133739Y-62668601D01*
X208235000Y-62159525D01*
X208235000Y-61640475D01*
X208133739Y-61131399D01*
X207935107Y-60651859D01*
X207646738Y-60220285D01*
X207279715Y-59853262D01*
X206848141Y-59564893D01*
X206368601Y-59366261D01*
X205859525Y-59265000D01*
X205340475Y-59265000D01*
X204831399Y-59366261D01*
X204351859Y-59564893D01*
X203920285Y-59853262D01*
X203553262Y-60220285D01*
X203264893Y-60651859D01*
X203066261Y-61131399D01*
X202965000Y-61640475D01*
X130389767Y-61640475D01*
X130679715Y-61446738D01*
X131046738Y-61079715D01*
X131335107Y-60648141D01*
X131533739Y-60168601D01*
X131635000Y-59659525D01*
X131635000Y-59140475D01*
X131533739Y-58631399D01*
X131335107Y-58151859D01*
X131046738Y-57720285D01*
X130679715Y-57353262D01*
X130248141Y-57064893D01*
X129768601Y-56866261D01*
X129259525Y-56765000D01*
X128740475Y-56765000D01*
X128231399Y-56866261D01*
X127751859Y-57064893D01*
X127320285Y-57353262D01*
X126953262Y-57720285D01*
X126664893Y-58151859D01*
X126466261Y-58631399D01*
X126365000Y-59140475D01*
X83672528Y-59140475D01*
X83672528Y-38180432D01*
X83683429Y-38072131D01*
X83701245Y-38014674D01*
X83729605Y-37962391D01*
X83767682Y-37916231D01*
X83813837Y-37878158D01*
X83866124Y-37849796D01*
X83923577Y-37831981D01*
X84025104Y-37821762D01*
X167246872Y-37821762D01*
X178973109Y-37950518D01*
G37*
X178973109Y-37950518D02*
X189885418Y-38319640D01*
X199752993Y-38903539D01*
X208339593Y-39676226D01*
X215404929Y-40610587D01*
X220693942Y-41674270D01*
X223862183Y-42788894D01*
X224725000Y-43724033D01*
X224725001Y-52882264D01*
X224725000Y-52882274D01*
X224725001Y-62363886D01*
X224725000Y-62363896D01*
X224725001Y-71845509D01*
X224725000Y-71845519D01*
X224725001Y-81327131D01*
X224725000Y-81327141D01*
X224725001Y-90808753D01*
X224725000Y-90808763D01*
X224725001Y-100290376D01*
X224725000Y-100290386D01*
X224725001Y-109771998D01*
X224725000Y-109772008D01*
X224725001Y-119286472D01*
X224715004Y-137742605D01*
X224711735Y-137909121D01*
X224676631Y-138022331D01*
X224606805Y-138151059D01*
X224513803Y-138263804D01*
X224401059Y-138356806D01*
X224272333Y-138426631D01*
X224166058Y-138459584D01*
X204852917Y-138465000D01*
X188757174Y-138465000D01*
X188590879Y-138461735D01*
X188477669Y-138426631D01*
X188348941Y-138356805D01*
X188236196Y-138263803D01*
X188143194Y-138151059D01*
X188073369Y-138022333D01*
X188040290Y-137915651D01*
X188034948Y-134112863D01*
X188032830Y-134091662D01*
X188028782Y-134023528D01*
X188020559Y-133971605D01*
X188015063Y-133919321D01*
X188012929Y-133909283D01*
X187983592Y-133775854D01*
X187962992Y-133712454D01*
X187943308Y-133648865D01*
X187939266Y-133639432D01*
X187884572Y-133514242D01*
X187852058Y-133456066D01*
X187820386Y-133397489D01*
X187814593Y-133389029D01*
X187814590Y-133389024D01*
X187814587Y-133389020D01*
X187736619Y-133276840D01*
X187693446Y-133226113D01*
X187650984Y-133174784D01*
X187643652Y-133167603D01*
X187545379Y-133072702D01*
X187493163Y-133031316D01*
X187441545Y-132989217D01*
X187432958Y-132983597D01*
X187318123Y-132909591D01*
X187258810Y-132879109D01*
X187200051Y-132847866D01*
X187190537Y-132844021D01*
X187063515Y-132793730D01*
X186999474Y-132775367D01*
X186935708Y-132756115D01*
X186925628Y-132754192D01*
X186832630Y-132737124D01*
X186803638Y-132728286D01*
X186695673Y-132717505D01*
X147912904Y-132665017D01*
X147852468Y-132662975D01*
X147804885Y-132670780D01*
X147756896Y-132675441D01*
X147699014Y-132692914D01*
X126932801Y-138233899D01*
X126884448Y-138243599D01*
X126829616Y-138266417D01*
X126774040Y-138287268D01*
X126732144Y-138313260D01*
X124342259Y-139595729D01*
X124331994Y-139600373D01*
X124310417Y-139612816D01*
X124288535Y-139624558D01*
X124279205Y-139630814D01*
X120627532Y-141736587D01*
X120627522Y-141736591D01*
X116923060Y-143872805D01*
X116923050Y-143872809D01*
X113217261Y-146009788D01*
X113215868Y-146010425D01*
X113185892Y-146027877D01*
X113156025Y-146045100D01*
X113154787Y-146045986D01*
X109513455Y-148165956D01*
X107855572Y-149125783D01*
X107832597Y-149137486D01*
X107805654Y-149088691D01*
X107802520Y-149081802D01*
X107788185Y-149057056D01*
X107774399Y-149032089D01*
X107770120Y-149025870D01*
X102376092Y-139714219D01*
X102375475Y-139712876D01*
X102357885Y-139682788D01*
X102340629Y-139652999D01*
X102339777Y-139651814D01*
X100663337Y-136784219D01*
X100663336Y-136784218D01*
X99024086Y-133980237D01*
X97311948Y-131051580D01*
X97311947Y-131051579D01*
X93960559Y-125318941D01*
X93960558Y-125318940D01*
X92284864Y-122452621D01*
X91225456Y-120640475D01*
X105865000Y-120640475D01*
X105865000Y-121159525D01*
X105966261Y-121668601D01*
X106164893Y-122148141D01*
X106453262Y-122579715D01*
X106820285Y-122946738D01*
X107251859Y-123235107D01*
X107731399Y-123433739D01*
X108240475Y-123535000D01*
X108759525Y-123535000D01*
X109268601Y-123433739D01*
X109748141Y-123235107D01*
X110179715Y-122946738D01*
X110546738Y-122579715D01*
X110835107Y-122148141D01*
X111033739Y-121668601D01*
X111135000Y-121159525D01*
X111135000Y-120640475D01*
X111033739Y-120131399D01*
X110835107Y-119651859D01*
X110546738Y-119220285D01*
X110179715Y-118853262D01*
X109748141Y-118564893D01*
X109268601Y-118366261D01*
X108759525Y-118265000D01*
X108240475Y-118265000D01*
X107731399Y-118366261D01*
X107251859Y-118564893D01*
X106820285Y-118853262D01*
X106453262Y-119220285D01*
X106164893Y-119651859D01*
X105966261Y-120131399D01*
X105865000Y-120640475D01*
X91225456Y-120640475D01*
X90644772Y-119647200D01*
X88969949Y-116033455D01*
X87559469Y-112294231D01*
X86397902Y-108457396D01*
X85466732Y-104544488D01*
X84747363Y-100577251D01*
X84321475Y-97340475D01*
X126365000Y-97340475D01*
X126365000Y-97859525D01*
X126466261Y-98368601D01*
X126664893Y-98848141D01*
X126953262Y-99279715D01*
X127320285Y-99646738D01*
X127751859Y-99935107D01*
X128231399Y-100133739D01*
X128740475Y-100235000D01*
X129259525Y-100235000D01*
X129768601Y-100133739D01*
X130248141Y-99935107D01*
X130539427Y-99740475D01*
X202965000Y-99740475D01*
X202965000Y-100259525D01*
X203066261Y-100768601D01*
X203264893Y-101248141D01*
X203553262Y-101679715D01*
X203920285Y-102046738D01*
X204351859Y-102335107D01*
X204831399Y-102533739D01*
X205340475Y-102635000D01*
X205859525Y-102635000D01*
X206368601Y-102533739D01*
X206848141Y-102335107D01*
X207279715Y-102046738D01*
X207646738Y-101679715D01*
X207935107Y-101248141D01*
X208133739Y-100768601D01*
X208235000Y-100259525D01*
X208235000Y-99740475D01*
X208133739Y-99231399D01*
X207935107Y-98751859D01*
X207646738Y-98320285D01*
X207279715Y-97953262D01*
X206848141Y-97664893D01*
X206368601Y-97466261D01*
X205859525Y-97365000D01*
X205340475Y-97365000D01*
X204831399Y-97466261D01*
X204351859Y-97664893D01*
X203920285Y-97953262D01*
X203553262Y-98320285D01*
X203264893Y-98751859D01*
X203066261Y-99231399D01*
X202965000Y-99740475D01*
X130539427Y-99740475D01*
X130679715Y-99646738D01*
X131046738Y-99279715D01*
X131335107Y-98848141D01*
X131533739Y-98368601D01*
X131635000Y-97859525D01*
X131635000Y-97340475D01*
X131533739Y-96831399D01*
X131335107Y-96351859D01*
X131046738Y-95920285D01*
X130679715Y-95553262D01*
X130248141Y-95264893D01*
X129768601Y-95066261D01*
X129259525Y-94965000D01*
X128740475Y-94965000D01*
X128231399Y-95066261D01*
X127751859Y-95264893D01*
X127320285Y-95553262D01*
X126953262Y-95920285D01*
X126664893Y-96351859D01*
X126466261Y-96831399D01*
X126365000Y-97340475D01*
X84321475Y-97340475D01*
X84221091Y-96577555D01*
X83869110Y-92567363D01*
X83672528Y-88569197D01*
X83672528Y-59140475D01*
X126365000Y-59140475D01*
X126365000Y-59659525D01*
X126466261Y-60168601D01*
X126664893Y-60648141D01*
X126953262Y-61079715D01*
X127320285Y-61446738D01*
X127751859Y-61735107D01*
X128231399Y-61933739D01*
X128740475Y-62035000D01*
X129259525Y-62035000D01*
X129768601Y-61933739D01*
X130248141Y-61735107D01*
X130389767Y-61640475D01*
X202965000Y-61640475D01*
X202965000Y-62159525D01*
X203066261Y-62668601D01*
X203264893Y-63148141D01*
X203553262Y-63579715D01*
X203920285Y-63946738D01*
X204351859Y-64235107D01*
X204831399Y-64433739D01*
X205340475Y-64535000D01*
X205859525Y-64535000D01*
X206368601Y-64433739D01*
X206848141Y-64235107D01*
X207279715Y-63946738D01*
X207646738Y-63579715D01*
X207935107Y-63148141D01*
X208133739Y-62668601D01*
X208235000Y-62159525D01*
X208235000Y-61640475D01*
X208133739Y-61131399D01*
X207935107Y-60651859D01*
X207646738Y-60220285D01*
X207279715Y-59853262D01*
X206848141Y-59564893D01*
X206368601Y-59366261D01*
X205859525Y-59265000D01*
X205340475Y-59265000D01*
X204831399Y-59366261D01*
X204351859Y-59564893D01*
X203920285Y-59853262D01*
X203553262Y-60220285D01*
X203264893Y-60651859D01*
X203066261Y-61131399D01*
X202965000Y-61640475D01*
X130389767Y-61640475D01*
X130679715Y-61446738D01*
X131046738Y-61079715D01*
X131335107Y-60648141D01*
X131533739Y-60168601D01*
X131635000Y-59659525D01*
X131635000Y-59140475D01*
X131533739Y-58631399D01*
X131335107Y-58151859D01*
X131046738Y-57720285D01*
X130679715Y-57353262D01*
X130248141Y-57064893D01*
X129768601Y-56866261D01*
X129259525Y-56765000D01*
X128740475Y-56765000D01*
X128231399Y-56866261D01*
X127751859Y-57064893D01*
X127320285Y-57353262D01*
X126953262Y-57720285D01*
X126664893Y-58151859D01*
X126466261Y-58631399D01*
X126365000Y-59140475D01*
X83672528Y-59140475D01*
X83672528Y-38180432D01*
X83683429Y-38072131D01*
X83701245Y-38014674D01*
X83729605Y-37962391D01*
X83767682Y-37916231D01*
X83813837Y-37878158D01*
X83866124Y-37849796D01*
X83923577Y-37831981D01*
X84025104Y-37821762D01*
X167246872Y-37821762D01*
X178973109Y-37950518D01*
M02*
