G04 #@! TF.GenerationSoftware,KiCad,Pcbnew,(5.1.5)-3*
G04 #@! TF.CreationDate,2020-05-16T22:18:44+04:00*
G04 #@! TF.ProjectId,Lily58_Pro_NG,4c696c79-3538-45f5-9072-6f5f4e472e6b,rev?*
G04 #@! TF.SameCoordinates,Original*
G04 #@! TF.FileFunction,Legend,Bot*
G04 #@! TF.FilePolarity,Positive*
%FSLAX46Y46*%
G04 Gerber Fmt 4.6, Leading zero omitted, Abs format (unit mm)*
G04 Created by KiCad (PCBNEW (5.1.5)-3) date 2020-05-16 22:18:44*
%MOMM*%
%LPD*%
G04 APERTURE LIST*
%ADD10C,0.100000*%
%ADD11C,0.150000*%
%ADD12C,0.300000*%
%ADD13C,0.400000*%
%ADD14C,0.200000*%
%ADD15C,0.120000*%
G04 APERTURE END LIST*
D10*
D11*
X177002200Y-166007200D02*
X177002200Y-198007200D01*
X285002200Y-198007200D01*
X285002200Y-166007200D01*
X177002200Y-166007200D01*
D10*
D11*
X10000000Y-10000000D02*
X10000000Y-200007200D01*
X287002200Y-200007200D01*
X287002200Y-10000000D01*
X10000000Y-10000000D01*
D10*
D11*
X12000000Y-12000000D02*
X12000000Y-198007200D01*
X285002200Y-198007200D01*
X285002200Y-12000000D01*
X12000000Y-12000000D01*
D10*
D11*
X60000000Y-12000000D02*
X60000000Y-10000000D01*
D10*
D11*
X110000000Y-12000000D02*
X110000000Y-10000000D01*
D10*
D11*
X160000000Y-12000000D02*
X160000000Y-10000000D01*
D10*
D11*
X210000000Y-12000000D02*
X210000000Y-10000000D01*
D10*
D11*
X260000000Y-12000000D02*
X260000000Y-10000000D01*
D10*
D11*
X36065476Y-11588095D02*
X35322619Y-11588095D01*
X35694047Y-11588095D02*
X35694047Y-10288095D01*
X35570238Y-10473809D01*
X35446428Y-10597619D01*
X35322619Y-10659523D01*
D10*
D11*
X85322619Y-10411904D02*
X85384523Y-10350000D01*
X85508333Y-10288095D01*
X85817857Y-10288095D01*
X85941666Y-10350000D01*
X86003571Y-10411904D01*
X86065476Y-10535714D01*
X86065476Y-10659523D01*
X86003571Y-10845238D01*
X85260714Y-11588095D01*
X86065476Y-11588095D01*
D10*
D11*
X135260714Y-10288095D02*
X136065476Y-10288095D01*
X135632142Y-10783333D01*
X135817857Y-10783333D01*
X135941666Y-10845238D01*
X136003571Y-10907142D01*
X136065476Y-11030952D01*
X136065476Y-11340476D01*
X136003571Y-11464285D01*
X135941666Y-11526190D01*
X135817857Y-11588095D01*
X135446428Y-11588095D01*
X135322619Y-11526190D01*
X135260714Y-11464285D01*
D10*
D11*
X185941666Y-10721428D02*
X185941666Y-11588095D01*
X185632142Y-10226190D02*
X185322619Y-11154761D01*
X186127380Y-11154761D01*
D10*
D11*
X236003571Y-10288095D02*
X235384523Y-10288095D01*
X235322619Y-10907142D01*
X235384523Y-10845238D01*
X235508333Y-10783333D01*
X235817857Y-10783333D01*
X235941666Y-10845238D01*
X236003571Y-10907142D01*
X236065476Y-11030952D01*
X236065476Y-11340476D01*
X236003571Y-11464285D01*
X235941666Y-11526190D01*
X235817857Y-11588095D01*
X235508333Y-11588095D01*
X235384523Y-11526190D01*
X235322619Y-11464285D01*
D10*
D11*
X285941666Y-10288095D02*
X285694047Y-10288095D01*
X285570238Y-10350000D01*
X285508333Y-10411904D01*
X285384523Y-10597619D01*
X285322619Y-10845238D01*
X285322619Y-11340476D01*
X285384523Y-11464285D01*
X285446428Y-11526190D01*
X285570238Y-11588095D01*
X285817857Y-11588095D01*
X285941666Y-11526190D01*
X286003571Y-11464285D01*
X286065476Y-11340476D01*
X286065476Y-11030952D01*
X286003571Y-10907142D01*
X285941666Y-10845238D01*
X285817857Y-10783333D01*
X285570238Y-10783333D01*
X285446428Y-10845238D01*
X285384523Y-10907142D01*
X285322619Y-11030952D01*
D10*
D11*
X60000000Y-198007200D02*
X60000000Y-200007200D01*
D10*
D11*
X110000000Y-198007200D02*
X110000000Y-200007200D01*
D10*
D11*
X160000000Y-198007200D02*
X160000000Y-200007200D01*
D10*
D11*
X210000000Y-198007200D02*
X210000000Y-200007200D01*
D10*
D11*
X260000000Y-198007200D02*
X260000000Y-200007200D01*
D10*
D11*
X36065476Y-199595295D02*
X35322619Y-199595295D01*
X35694047Y-199595295D02*
X35694047Y-198295295D01*
X35570238Y-198481009D01*
X35446428Y-198604819D01*
X35322619Y-198666723D01*
D10*
D11*
X85322619Y-198419104D02*
X85384523Y-198357200D01*
X85508333Y-198295295D01*
X85817857Y-198295295D01*
X85941666Y-198357200D01*
X86003571Y-198419104D01*
X86065476Y-198542914D01*
X86065476Y-198666723D01*
X86003571Y-198852438D01*
X85260714Y-199595295D01*
X86065476Y-199595295D01*
D10*
D11*
X135260714Y-198295295D02*
X136065476Y-198295295D01*
X135632142Y-198790533D01*
X135817857Y-198790533D01*
X135941666Y-198852438D01*
X136003571Y-198914342D01*
X136065476Y-199038152D01*
X136065476Y-199347676D01*
X136003571Y-199471485D01*
X135941666Y-199533390D01*
X135817857Y-199595295D01*
X135446428Y-199595295D01*
X135322619Y-199533390D01*
X135260714Y-199471485D01*
D10*
D11*
X185941666Y-198728628D02*
X185941666Y-199595295D01*
X185632142Y-198233390D02*
X185322619Y-199161961D01*
X186127380Y-199161961D01*
D10*
D11*
X236003571Y-198295295D02*
X235384523Y-198295295D01*
X235322619Y-198914342D01*
X235384523Y-198852438D01*
X235508333Y-198790533D01*
X235817857Y-198790533D01*
X235941666Y-198852438D01*
X236003571Y-198914342D01*
X236065476Y-199038152D01*
X236065476Y-199347676D01*
X236003571Y-199471485D01*
X235941666Y-199533390D01*
X235817857Y-199595295D01*
X235508333Y-199595295D01*
X235384523Y-199533390D01*
X235322619Y-199471485D01*
D10*
D11*
X285941666Y-198295295D02*
X285694047Y-198295295D01*
X285570238Y-198357200D01*
X285508333Y-198419104D01*
X285384523Y-198604819D01*
X285322619Y-198852438D01*
X285322619Y-199347676D01*
X285384523Y-199471485D01*
X285446428Y-199533390D01*
X285570238Y-199595295D01*
X285817857Y-199595295D01*
X285941666Y-199533390D01*
X286003571Y-199471485D01*
X286065476Y-199347676D01*
X286065476Y-199038152D01*
X286003571Y-198914342D01*
X285941666Y-198852438D01*
X285817857Y-198790533D01*
X285570238Y-198790533D01*
X285446428Y-198852438D01*
X285384523Y-198914342D01*
X285322619Y-199038152D01*
D10*
D11*
X10000000Y-60000000D02*
X12000000Y-60000000D01*
D10*
D11*
X10000000Y-110000000D02*
X12000000Y-110000000D01*
D10*
D11*
X10000000Y-160000000D02*
X12000000Y-160000000D01*
D10*
D11*
X10690476Y-35216666D02*
X11309523Y-35216666D01*
X10566666Y-35588095D02*
X11000000Y-34288095D01*
X11433333Y-35588095D01*
D10*
D11*
X11092857Y-84907142D02*
X11278571Y-84969047D01*
X11340476Y-85030952D01*
X11402380Y-85154761D01*
X11402380Y-85340476D01*
X11340476Y-85464285D01*
X11278571Y-85526190D01*
X11154761Y-85588095D01*
X10659523Y-85588095D01*
X10659523Y-84288095D01*
X11092857Y-84288095D01*
X11216666Y-84350000D01*
X11278571Y-84411904D01*
X11340476Y-84535714D01*
X11340476Y-84659523D01*
X11278571Y-84783333D01*
X11216666Y-84845238D01*
X11092857Y-84907142D01*
X10659523Y-84907142D01*
D10*
D11*
X11402380Y-135464285D02*
X11340476Y-135526190D01*
X11154761Y-135588095D01*
X11030952Y-135588095D01*
X10845238Y-135526190D01*
X10721428Y-135402380D01*
X10659523Y-135278571D01*
X10597619Y-135030952D01*
X10597619Y-134845238D01*
X10659523Y-134597619D01*
X10721428Y-134473809D01*
X10845238Y-134350000D01*
X11030952Y-134288095D01*
X11154761Y-134288095D01*
X11340476Y-134350000D01*
X11402380Y-134411904D01*
D10*
D11*
X10659523Y-185588095D02*
X10659523Y-184288095D01*
X10969047Y-184288095D01*
X11154761Y-184350000D01*
X11278571Y-184473809D01*
X11340476Y-184597619D01*
X11402380Y-184845238D01*
X11402380Y-185030952D01*
X11340476Y-185278571D01*
X11278571Y-185402380D01*
X11154761Y-185526190D01*
X10969047Y-185588095D01*
X10659523Y-185588095D01*
D10*
D11*
X287002200Y-60000000D02*
X285002200Y-60000000D01*
D10*
D11*
X287002200Y-110000000D02*
X285002200Y-110000000D01*
D10*
D11*
X287002200Y-160000000D02*
X285002200Y-160000000D01*
D10*
D11*
X285692676Y-35216666D02*
X286311723Y-35216666D01*
X285568866Y-35588095D02*
X286002200Y-34288095D01*
X286435533Y-35588095D01*
D10*
D11*
X286095057Y-84907142D02*
X286280771Y-84969047D01*
X286342676Y-85030952D01*
X286404580Y-85154761D01*
X286404580Y-85340476D01*
X286342676Y-85464285D01*
X286280771Y-85526190D01*
X286156961Y-85588095D01*
X285661723Y-85588095D01*
X285661723Y-84288095D01*
X286095057Y-84288095D01*
X286218866Y-84350000D01*
X286280771Y-84411904D01*
X286342676Y-84535714D01*
X286342676Y-84659523D01*
X286280771Y-84783333D01*
X286218866Y-84845238D01*
X286095057Y-84907142D01*
X285661723Y-84907142D01*
D10*
D11*
X286404580Y-135464285D02*
X286342676Y-135526190D01*
X286156961Y-135588095D01*
X286033152Y-135588095D01*
X285847438Y-135526190D01*
X285723628Y-135402380D01*
X285661723Y-135278571D01*
X285599819Y-135030952D01*
X285599819Y-134845238D01*
X285661723Y-134597619D01*
X285723628Y-134473809D01*
X285847438Y-134350000D01*
X286033152Y-134288095D01*
X286156961Y-134288095D01*
X286342676Y-134350000D01*
X286404580Y-134411904D01*
D10*
D11*
X285661723Y-185588095D02*
X285661723Y-184288095D01*
X285971247Y-184288095D01*
X286156961Y-184350000D01*
X286280771Y-184473809D01*
X286342676Y-184597619D01*
X286404580Y-184845238D01*
X286404580Y-185030952D01*
X286342676Y-185278571D01*
X286280771Y-185402380D01*
X286156961Y-185526190D01*
X285971247Y-185588095D01*
X285661723Y-185588095D01*
D10*
D11*
X200434342Y-193785771D02*
X200434342Y-192285771D01*
X200791485Y-192285771D01*
X201005771Y-192357200D01*
X201148628Y-192500057D01*
X201220057Y-192642914D01*
X201291485Y-192928628D01*
X201291485Y-193142914D01*
X201220057Y-193428628D01*
X201148628Y-193571485D01*
X201005771Y-193714342D01*
X200791485Y-193785771D01*
X200434342Y-193785771D01*
X202577200Y-193785771D02*
X202577200Y-193000057D01*
X202505771Y-192857200D01*
X202362914Y-192785771D01*
X202077200Y-192785771D01*
X201934342Y-192857200D01*
X202577200Y-193714342D02*
X202434342Y-193785771D01*
X202077200Y-193785771D01*
X201934342Y-193714342D01*
X201862914Y-193571485D01*
X201862914Y-193428628D01*
X201934342Y-193285771D01*
X202077200Y-193214342D01*
X202434342Y-193214342D01*
X202577200Y-193142914D01*
X203077200Y-192785771D02*
X203648628Y-192785771D01*
X203291485Y-192285771D02*
X203291485Y-193571485D01*
X203362914Y-193714342D01*
X203505771Y-193785771D01*
X203648628Y-193785771D01*
X204720057Y-193714342D02*
X204577200Y-193785771D01*
X204291485Y-193785771D01*
X204148628Y-193714342D01*
X204077200Y-193571485D01*
X204077200Y-193000057D01*
X204148628Y-192857200D01*
X204291485Y-192785771D01*
X204577200Y-192785771D01*
X204720057Y-192857200D01*
X204791485Y-193000057D01*
X204791485Y-193142914D01*
X204077200Y-193285771D01*
X205434342Y-193642914D02*
X205505771Y-193714342D01*
X205434342Y-193785771D01*
X205362914Y-193714342D01*
X205434342Y-193642914D01*
X205434342Y-193785771D01*
X205434342Y-192857200D02*
X205505771Y-192928628D01*
X205434342Y-193000057D01*
X205362914Y-192928628D01*
X205434342Y-192857200D01*
X205434342Y-193000057D01*
D10*
D11*
X177002200Y-194507200D02*
X285002200Y-194507200D01*
D10*
D11*
X178434342Y-196585771D02*
X178434342Y-195085771D01*
X179291485Y-196585771D02*
X178648628Y-195728628D01*
X179291485Y-195085771D02*
X178434342Y-195942914D01*
X179934342Y-196585771D02*
X179934342Y-195585771D01*
X179934342Y-195085771D02*
X179862914Y-195157200D01*
X179934342Y-195228628D01*
X180005771Y-195157200D01*
X179934342Y-195085771D01*
X179934342Y-195228628D01*
X181505771Y-196442914D02*
X181434342Y-196514342D01*
X181220057Y-196585771D01*
X181077200Y-196585771D01*
X180862914Y-196514342D01*
X180720057Y-196371485D01*
X180648628Y-196228628D01*
X180577200Y-195942914D01*
X180577200Y-195728628D01*
X180648628Y-195442914D01*
X180720057Y-195300057D01*
X180862914Y-195157200D01*
X181077200Y-195085771D01*
X181220057Y-195085771D01*
X181434342Y-195157200D01*
X181505771Y-195228628D01*
X182791485Y-196585771D02*
X182791485Y-195800057D01*
X182720057Y-195657200D01*
X182577200Y-195585771D01*
X182291485Y-195585771D01*
X182148628Y-195657200D01*
X182791485Y-196514342D02*
X182648628Y-196585771D01*
X182291485Y-196585771D01*
X182148628Y-196514342D01*
X182077200Y-196371485D01*
X182077200Y-196228628D01*
X182148628Y-196085771D01*
X182291485Y-196014342D01*
X182648628Y-196014342D01*
X182791485Y-195942914D01*
X184148628Y-196585771D02*
X184148628Y-195085771D01*
X184148628Y-196514342D02*
X184005771Y-196585771D01*
X183720057Y-196585771D01*
X183577200Y-196514342D01*
X183505771Y-196442914D01*
X183434342Y-196300057D01*
X183434342Y-195871485D01*
X183505771Y-195728628D01*
X183577200Y-195657200D01*
X183720057Y-195585771D01*
X184005771Y-195585771D01*
X184148628Y-195657200D01*
X186005771Y-195800057D02*
X186505771Y-195800057D01*
X186720057Y-196585771D02*
X186005771Y-196585771D01*
X186005771Y-195085771D01*
X186720057Y-195085771D01*
X187362914Y-196442914D02*
X187434342Y-196514342D01*
X187362914Y-196585771D01*
X187291485Y-196514342D01*
X187362914Y-196442914D01*
X187362914Y-196585771D01*
X188077200Y-196585771D02*
X188077200Y-195085771D01*
X188434342Y-195085771D01*
X188648628Y-195157200D01*
X188791485Y-195300057D01*
X188862914Y-195442914D01*
X188934342Y-195728628D01*
X188934342Y-195942914D01*
X188862914Y-196228628D01*
X188791485Y-196371485D01*
X188648628Y-196514342D01*
X188434342Y-196585771D01*
X188077200Y-196585771D01*
X189577200Y-196442914D02*
X189648628Y-196514342D01*
X189577200Y-196585771D01*
X189505771Y-196514342D01*
X189577200Y-196442914D01*
X189577200Y-196585771D01*
X190220057Y-196157200D02*
X190934342Y-196157200D01*
X190077200Y-196585771D02*
X190577200Y-195085771D01*
X191077200Y-196585771D01*
X191577200Y-196442914D02*
X191648628Y-196514342D01*
X191577200Y-196585771D01*
X191505771Y-196514342D01*
X191577200Y-196442914D01*
X191577200Y-196585771D01*
X194577200Y-196585771D02*
X194577200Y-195085771D01*
X194720057Y-196014342D02*
X195148628Y-196585771D01*
X195148628Y-195585771D02*
X194577200Y-196157200D01*
X195791485Y-196585771D02*
X195791485Y-195585771D01*
X195791485Y-195085771D02*
X195720057Y-195157200D01*
X195791485Y-195228628D01*
X195862914Y-195157200D01*
X195791485Y-195085771D01*
X195791485Y-195228628D01*
X197148628Y-196514342D02*
X197005771Y-196585771D01*
X196720057Y-196585771D01*
X196577200Y-196514342D01*
X196505771Y-196442914D01*
X196434342Y-196300057D01*
X196434342Y-195871485D01*
X196505771Y-195728628D01*
X196577200Y-195657200D01*
X196720057Y-195585771D01*
X197005771Y-195585771D01*
X197148628Y-195657200D01*
X198434342Y-196585771D02*
X198434342Y-195800057D01*
X198362914Y-195657200D01*
X198220057Y-195585771D01*
X197934342Y-195585771D01*
X197791485Y-195657200D01*
X198434342Y-196514342D02*
X198291485Y-196585771D01*
X197934342Y-196585771D01*
X197791485Y-196514342D01*
X197720057Y-196371485D01*
X197720057Y-196228628D01*
X197791485Y-196085771D01*
X197934342Y-196014342D01*
X198291485Y-196014342D01*
X198434342Y-195942914D01*
X199791485Y-196585771D02*
X199791485Y-195085771D01*
X199791485Y-196514342D02*
X199648628Y-196585771D01*
X199362914Y-196585771D01*
X199220057Y-196514342D01*
X199148628Y-196442914D01*
X199077200Y-196300057D01*
X199077200Y-195871485D01*
X199148628Y-195728628D01*
X199220057Y-195657200D01*
X199362914Y-195585771D01*
X199648628Y-195585771D01*
X199791485Y-195657200D01*
X202077200Y-197157200D02*
X202005771Y-197085771D01*
X201862914Y-196871485D01*
X201791485Y-196728628D01*
X201720057Y-196514342D01*
X201648628Y-196157200D01*
X201648628Y-195871485D01*
X201720057Y-195514342D01*
X201791485Y-195300057D01*
X201862914Y-195157200D01*
X202005771Y-194942914D01*
X202077200Y-194871485D01*
X203362914Y-195085771D02*
X202648628Y-195085771D01*
X202577200Y-195800057D01*
X202648628Y-195728628D01*
X202791485Y-195657200D01*
X203148628Y-195657200D01*
X203291485Y-195728628D01*
X203362914Y-195800057D01*
X203434342Y-195942914D01*
X203434342Y-196300057D01*
X203362914Y-196442914D01*
X203291485Y-196514342D01*
X203148628Y-196585771D01*
X202791485Y-196585771D01*
X202648628Y-196514342D01*
X202577200Y-196442914D01*
X204077200Y-196442914D02*
X204148628Y-196514342D01*
X204077200Y-196585771D01*
X204005771Y-196514342D01*
X204077200Y-196442914D01*
X204077200Y-196585771D01*
X205577200Y-196585771D02*
X204720057Y-196585771D01*
X205148628Y-196585771D02*
X205148628Y-195085771D01*
X205005771Y-195300057D01*
X204862914Y-195442914D01*
X204720057Y-195514342D01*
X206220057Y-196442914D02*
X206291485Y-196514342D01*
X206220057Y-196585771D01*
X206148628Y-196514342D01*
X206220057Y-196442914D01*
X206220057Y-196585771D01*
X207648628Y-195085771D02*
X206934342Y-195085771D01*
X206862914Y-195800057D01*
X206934342Y-195728628D01*
X207077200Y-195657200D01*
X207434342Y-195657200D01*
X207577200Y-195728628D01*
X207648628Y-195800057D01*
X207720057Y-195942914D01*
X207720057Y-196300057D01*
X207648628Y-196442914D01*
X207577200Y-196514342D01*
X207434342Y-196585771D01*
X207077200Y-196585771D01*
X206934342Y-196514342D01*
X206862914Y-196442914D01*
X208220057Y-197157200D02*
X208291485Y-197085771D01*
X208434342Y-196871485D01*
X208505771Y-196728628D01*
X208577200Y-196514342D01*
X208648628Y-196157200D01*
X208648628Y-195871485D01*
X208577200Y-195514342D01*
X208505771Y-195300057D01*
X208434342Y-195157200D01*
X208291485Y-194942914D01*
X208220057Y-194871485D01*
X209362914Y-196014342D02*
X210505771Y-196014342D01*
X211077200Y-195085771D02*
X212005771Y-195085771D01*
X211505771Y-195657200D01*
X211720057Y-195657200D01*
X211862914Y-195728628D01*
X211934342Y-195800057D01*
X212005771Y-195942914D01*
X212005771Y-196300057D01*
X211934342Y-196442914D01*
X211862914Y-196514342D01*
X211720057Y-196585771D01*
X211291485Y-196585771D01*
X211148628Y-196514342D01*
X211077200Y-196442914D01*
D10*
D11*
X177002200Y-191507200D02*
X285002200Y-191507200D01*
D10*
D12*
X264411485Y-193785771D02*
X263911485Y-193071485D01*
X263554342Y-193785771D02*
X263554342Y-192285771D01*
X264125771Y-192285771D01*
X264268628Y-192357200D01*
X264340057Y-192428628D01*
X264411485Y-192571485D01*
X264411485Y-192785771D01*
X264340057Y-192928628D01*
X264268628Y-193000057D01*
X264125771Y-193071485D01*
X263554342Y-193071485D01*
X265625771Y-193714342D02*
X265482914Y-193785771D01*
X265197200Y-193785771D01*
X265054342Y-193714342D01*
X264982914Y-193571485D01*
X264982914Y-193000057D01*
X265054342Y-192857200D01*
X265197200Y-192785771D01*
X265482914Y-192785771D01*
X265625771Y-192857200D01*
X265697200Y-193000057D01*
X265697200Y-193142914D01*
X264982914Y-193285771D01*
X266197200Y-192785771D02*
X266554342Y-193785771D01*
X266911485Y-192785771D01*
X267482914Y-193642914D02*
X267554342Y-193714342D01*
X267482914Y-193785771D01*
X267411485Y-193714342D01*
X267482914Y-193642914D01*
X267482914Y-193785771D01*
X267482914Y-192857200D02*
X267554342Y-192928628D01*
X267482914Y-193000057D01*
X267411485Y-192928628D01*
X267482914Y-192857200D01*
X267482914Y-193000057D01*
D10*
D11*
X178362914Y-193714342D02*
X178577200Y-193785771D01*
X178934342Y-193785771D01*
X179077200Y-193714342D01*
X179148628Y-193642914D01*
X179220057Y-193500057D01*
X179220057Y-193357200D01*
X179148628Y-193214342D01*
X179077200Y-193142914D01*
X178934342Y-193071485D01*
X178648628Y-193000057D01*
X178505771Y-192928628D01*
X178434342Y-192857200D01*
X178362914Y-192714342D01*
X178362914Y-192571485D01*
X178434342Y-192428628D01*
X178505771Y-192357200D01*
X178648628Y-192285771D01*
X179005771Y-192285771D01*
X179220057Y-192357200D01*
X179862914Y-193785771D02*
X179862914Y-192785771D01*
X179862914Y-192285771D02*
X179791485Y-192357200D01*
X179862914Y-192428628D01*
X179934342Y-192357200D01*
X179862914Y-192285771D01*
X179862914Y-192428628D01*
X180434342Y-192785771D02*
X181220057Y-192785771D01*
X180434342Y-193785771D01*
X181220057Y-193785771D01*
X182362914Y-193714342D02*
X182220057Y-193785771D01*
X181934342Y-193785771D01*
X181791485Y-193714342D01*
X181720057Y-193571485D01*
X181720057Y-193000057D01*
X181791485Y-192857200D01*
X181934342Y-192785771D01*
X182220057Y-192785771D01*
X182362914Y-192857200D01*
X182434342Y-193000057D01*
X182434342Y-193142914D01*
X181720057Y-193285771D01*
X183077200Y-193642914D02*
X183148628Y-193714342D01*
X183077200Y-193785771D01*
X183005771Y-193714342D01*
X183077200Y-193642914D01*
X183077200Y-193785771D01*
X183077200Y-192857200D02*
X183148628Y-192928628D01*
X183077200Y-193000057D01*
X183005771Y-192928628D01*
X183077200Y-192857200D01*
X183077200Y-193000057D01*
X184862914Y-193357200D02*
X185577200Y-193357200D01*
X184720057Y-193785771D02*
X185220057Y-192285771D01*
X185720057Y-193785771D01*
X186862914Y-192785771D02*
X186862914Y-193785771D01*
X186505771Y-192214342D02*
X186148628Y-193285771D01*
X187077200Y-193285771D01*
D10*
D11*
X263434342Y-196585771D02*
X263434342Y-195085771D01*
X264791485Y-196585771D02*
X264791485Y-195085771D01*
X264791485Y-196514342D02*
X264648628Y-196585771D01*
X264362914Y-196585771D01*
X264220057Y-196514342D01*
X264148628Y-196442914D01*
X264077200Y-196300057D01*
X264077200Y-195871485D01*
X264148628Y-195728628D01*
X264220057Y-195657200D01*
X264362914Y-195585771D01*
X264648628Y-195585771D01*
X264791485Y-195657200D01*
X265505771Y-196442914D02*
X265577200Y-196514342D01*
X265505771Y-196585771D01*
X265434342Y-196514342D01*
X265505771Y-196442914D01*
X265505771Y-196585771D01*
X265505771Y-195657200D02*
X265577200Y-195728628D01*
X265505771Y-195800057D01*
X265434342Y-195728628D01*
X265505771Y-195657200D01*
X265505771Y-195800057D01*
X268148628Y-196585771D02*
X267291485Y-196585771D01*
X267720057Y-196585771D02*
X267720057Y-195085771D01*
X267577200Y-195300057D01*
X267434342Y-195442914D01*
X267291485Y-195514342D01*
X269862914Y-195014342D02*
X268577200Y-196942914D01*
X271148628Y-196585771D02*
X270291485Y-196585771D01*
X270720057Y-196585771D02*
X270720057Y-195085771D01*
X270577200Y-195300057D01*
X270434342Y-195442914D01*
X270291485Y-195514342D01*
D10*
D11*
X177002200Y-187507200D02*
X285002200Y-187507200D01*
D10*
D13*
X178714580Y-188211961D02*
X179857438Y-188211961D01*
X179036009Y-190211961D02*
X179286009Y-188211961D01*
X180274104Y-190211961D02*
X180440771Y-188878628D01*
X180524104Y-188211961D02*
X180416961Y-188307200D01*
X180500295Y-188402438D01*
X180607438Y-188307200D01*
X180524104Y-188211961D01*
X180500295Y-188402438D01*
X181107438Y-188878628D02*
X181869342Y-188878628D01*
X181476485Y-188211961D02*
X181262200Y-189926247D01*
X181333628Y-190116723D01*
X181512200Y-190211961D01*
X181702676Y-190211961D01*
X182655057Y-190211961D02*
X182476485Y-190116723D01*
X182405057Y-189926247D01*
X182619342Y-188211961D01*
X184190771Y-190116723D02*
X183988390Y-190211961D01*
X183607438Y-190211961D01*
X183428866Y-190116723D01*
X183357438Y-189926247D01*
X183452676Y-189164342D01*
X183571723Y-188973866D01*
X183774104Y-188878628D01*
X184155057Y-188878628D01*
X184333628Y-188973866D01*
X184405057Y-189164342D01*
X184381247Y-189354819D01*
X183405057Y-189545295D01*
X185155057Y-190021485D02*
X185238390Y-190116723D01*
X185131247Y-190211961D01*
X185047914Y-190116723D01*
X185155057Y-190021485D01*
X185131247Y-190211961D01*
X185286009Y-188973866D02*
X185369342Y-189069104D01*
X185262200Y-189164342D01*
X185178866Y-189069104D01*
X185286009Y-188973866D01*
X185262200Y-189164342D01*
D10*
D11*
X178934342Y-185600057D02*
X178434342Y-185600057D01*
X178434342Y-186385771D02*
X178434342Y-184885771D01*
X179148628Y-184885771D01*
X179720057Y-186385771D02*
X179720057Y-185385771D01*
X179720057Y-184885771D02*
X179648628Y-184957200D01*
X179720057Y-185028628D01*
X179791485Y-184957200D01*
X179720057Y-184885771D01*
X179720057Y-185028628D01*
X180648628Y-186385771D02*
X180505771Y-186314342D01*
X180434342Y-186171485D01*
X180434342Y-184885771D01*
X181791485Y-186314342D02*
X181648628Y-186385771D01*
X181362914Y-186385771D01*
X181220057Y-186314342D01*
X181148628Y-186171485D01*
X181148628Y-185600057D01*
X181220057Y-185457200D01*
X181362914Y-185385771D01*
X181648628Y-185385771D01*
X181791485Y-185457200D01*
X181862914Y-185600057D01*
X181862914Y-185742914D01*
X181148628Y-185885771D01*
X182505771Y-186242914D02*
X182577200Y-186314342D01*
X182505771Y-186385771D01*
X182434342Y-186314342D01*
X182505771Y-186242914D01*
X182505771Y-186385771D01*
X182505771Y-185457200D02*
X182577200Y-185528628D01*
X182505771Y-185600057D01*
X182434342Y-185528628D01*
X182505771Y-185457200D01*
X182505771Y-185600057D01*
X185077200Y-186385771D02*
X184362914Y-186385771D01*
X184362914Y-184885771D01*
X185577200Y-186385771D02*
X185577200Y-185385771D01*
X185577200Y-184885771D02*
X185505771Y-184957200D01*
X185577200Y-185028628D01*
X185648628Y-184957200D01*
X185577200Y-184885771D01*
X185577200Y-185028628D01*
X186505771Y-186385771D02*
X186362914Y-186314342D01*
X186291485Y-186171485D01*
X186291485Y-184885771D01*
X186934342Y-185385771D02*
X187291485Y-186385771D01*
X187648628Y-185385771D02*
X187291485Y-186385771D01*
X187148628Y-186742914D01*
X187077200Y-186814342D01*
X186934342Y-186885771D01*
X188934342Y-184885771D02*
X188220057Y-184885771D01*
X188148628Y-185600057D01*
X188220057Y-185528628D01*
X188362914Y-185457200D01*
X188720057Y-185457200D01*
X188862914Y-185528628D01*
X188934342Y-185600057D01*
X189005771Y-185742914D01*
X189005771Y-186100057D01*
X188934342Y-186242914D01*
X188862914Y-186314342D01*
X188720057Y-186385771D01*
X188362914Y-186385771D01*
X188220057Y-186314342D01*
X188148628Y-186242914D01*
X189862914Y-185528628D02*
X189720057Y-185457200D01*
X189648628Y-185385771D01*
X189577200Y-185242914D01*
X189577200Y-185171485D01*
X189648628Y-185028628D01*
X189720057Y-184957200D01*
X189862914Y-184885771D01*
X190148628Y-184885771D01*
X190291485Y-184957200D01*
X190362914Y-185028628D01*
X190434342Y-185171485D01*
X190434342Y-185242914D01*
X190362914Y-185385771D01*
X190291485Y-185457200D01*
X190148628Y-185528628D01*
X189862914Y-185528628D01*
X189720057Y-185600057D01*
X189648628Y-185671485D01*
X189577200Y-185814342D01*
X189577200Y-186100057D01*
X189648628Y-186242914D01*
X189720057Y-186314342D01*
X189862914Y-186385771D01*
X190148628Y-186385771D01*
X190291485Y-186314342D01*
X190362914Y-186242914D01*
X190434342Y-186100057D01*
X190434342Y-185814342D01*
X190362914Y-185671485D01*
X190291485Y-185600057D01*
X190148628Y-185528628D01*
X190720057Y-186528628D02*
X191862914Y-186528628D01*
X192220057Y-186385771D02*
X192220057Y-184885771D01*
X192791485Y-184885771D01*
X192934342Y-184957200D01*
X193005771Y-185028628D01*
X193077200Y-185171485D01*
X193077200Y-185385771D01*
X193005771Y-185528628D01*
X192934342Y-185600057D01*
X192791485Y-185671485D01*
X192220057Y-185671485D01*
X193720057Y-186385771D02*
X193720057Y-185385771D01*
X193720057Y-185671485D02*
X193791485Y-185528628D01*
X193862914Y-185457200D01*
X194005771Y-185385771D01*
X194148628Y-185385771D01*
X194862914Y-186385771D02*
X194720057Y-186314342D01*
X194648628Y-186242914D01*
X194577200Y-186100057D01*
X194577200Y-185671485D01*
X194648628Y-185528628D01*
X194720057Y-185457200D01*
X194862914Y-185385771D01*
X195077200Y-185385771D01*
X195220057Y-185457200D01*
X195291485Y-185528628D01*
X195362914Y-185671485D01*
X195362914Y-186100057D01*
X195291485Y-186242914D01*
X195220057Y-186314342D01*
X195077200Y-186385771D01*
X194862914Y-186385771D01*
X195648628Y-186528628D02*
X196791485Y-186528628D01*
X197148628Y-186385771D02*
X197148628Y-184885771D01*
X198005771Y-186385771D01*
X198005771Y-184885771D01*
X199505771Y-184957200D02*
X199362914Y-184885771D01*
X199148628Y-184885771D01*
X198934342Y-184957200D01*
X198791485Y-185100057D01*
X198720057Y-185242914D01*
X198648628Y-185528628D01*
X198648628Y-185742914D01*
X198720057Y-186028628D01*
X198791485Y-186171485D01*
X198934342Y-186314342D01*
X199148628Y-186385771D01*
X199291485Y-186385771D01*
X199505771Y-186314342D01*
X199577200Y-186242914D01*
X199577200Y-185742914D01*
X199291485Y-185742914D01*
X200220057Y-186242914D02*
X200291485Y-186314342D01*
X200220057Y-186385771D01*
X200148628Y-186314342D01*
X200220057Y-186242914D01*
X200220057Y-186385771D01*
X200934342Y-186385771D02*
X200934342Y-184885771D01*
X201077200Y-185814342D02*
X201505771Y-186385771D01*
X201505771Y-185385771D02*
X200934342Y-185957200D01*
X202148628Y-186385771D02*
X202148628Y-185385771D01*
X202148628Y-184885771D02*
X202077200Y-184957200D01*
X202148628Y-185028628D01*
X202220057Y-184957200D01*
X202148628Y-184885771D01*
X202148628Y-185028628D01*
X203505771Y-186314342D02*
X203362914Y-186385771D01*
X203077200Y-186385771D01*
X202934342Y-186314342D01*
X202862914Y-186242914D01*
X202791485Y-186100057D01*
X202791485Y-185671485D01*
X202862914Y-185528628D01*
X202934342Y-185457200D01*
X203077200Y-185385771D01*
X203362914Y-185385771D01*
X203505771Y-185457200D01*
X204791485Y-186385771D02*
X204791485Y-185600057D01*
X204720057Y-185457200D01*
X204577200Y-185385771D01*
X204291485Y-185385771D01*
X204148628Y-185457200D01*
X204791485Y-186314342D02*
X204648628Y-186385771D01*
X204291485Y-186385771D01*
X204148628Y-186314342D01*
X204077200Y-186171485D01*
X204077200Y-186028628D01*
X204148628Y-185885771D01*
X204291485Y-185814342D01*
X204648628Y-185814342D01*
X204791485Y-185742914D01*
X206148628Y-186385771D02*
X206148628Y-184885771D01*
X206148628Y-186314342D02*
X206005771Y-186385771D01*
X205720057Y-186385771D01*
X205577200Y-186314342D01*
X205505771Y-186242914D01*
X205434342Y-186100057D01*
X205434342Y-185671485D01*
X205505771Y-185528628D01*
X205577200Y-185457200D01*
X205720057Y-185385771D01*
X206005771Y-185385771D01*
X206148628Y-185457200D01*
X206505771Y-186528628D02*
X207648628Y-186528628D01*
X208005771Y-185385771D02*
X208005771Y-186885771D01*
X208005771Y-185457200D02*
X208148628Y-185385771D01*
X208434342Y-185385771D01*
X208577200Y-185457200D01*
X208648628Y-185528628D01*
X208720057Y-185671485D01*
X208720057Y-186100057D01*
X208648628Y-186242914D01*
X208577200Y-186314342D01*
X208434342Y-186385771D01*
X208148628Y-186385771D01*
X208005771Y-186314342D01*
X210005771Y-186314342D02*
X209862914Y-186385771D01*
X209577200Y-186385771D01*
X209434342Y-186314342D01*
X209362914Y-186242914D01*
X209291485Y-186100057D01*
X209291485Y-185671485D01*
X209362914Y-185528628D01*
X209434342Y-185457200D01*
X209577200Y-185385771D01*
X209862914Y-185385771D01*
X210005771Y-185457200D01*
X210648628Y-186385771D02*
X210648628Y-184885771D01*
X210648628Y-185457200D02*
X210791485Y-185385771D01*
X211077200Y-185385771D01*
X211220057Y-185457200D01*
X211291485Y-185528628D01*
X211362914Y-185671485D01*
X211362914Y-186100057D01*
X211291485Y-186242914D01*
X211220057Y-186314342D01*
X211077200Y-186385771D01*
X210791485Y-186385771D01*
X210648628Y-186314342D01*
D10*
D11*
X177002200Y-181507200D02*
X285002200Y-181507200D01*
D10*
D11*
X178362914Y-183614342D02*
X178577200Y-183685771D01*
X178934342Y-183685771D01*
X179077200Y-183614342D01*
X179148628Y-183542914D01*
X179220057Y-183400057D01*
X179220057Y-183257200D01*
X179148628Y-183114342D01*
X179077200Y-183042914D01*
X178934342Y-182971485D01*
X178648628Y-182900057D01*
X178505771Y-182828628D01*
X178434342Y-182757200D01*
X178362914Y-182614342D01*
X178362914Y-182471485D01*
X178434342Y-182328628D01*
X178505771Y-182257200D01*
X178648628Y-182185771D01*
X179005771Y-182185771D01*
X179220057Y-182257200D01*
X179862914Y-183685771D02*
X179862914Y-182185771D01*
X180505771Y-183685771D02*
X180505771Y-182900057D01*
X180434342Y-182757200D01*
X180291485Y-182685771D01*
X180077200Y-182685771D01*
X179934342Y-182757200D01*
X179862914Y-182828628D01*
X181791485Y-183614342D02*
X181648628Y-183685771D01*
X181362914Y-183685771D01*
X181220057Y-183614342D01*
X181148628Y-183471485D01*
X181148628Y-182900057D01*
X181220057Y-182757200D01*
X181362914Y-182685771D01*
X181648628Y-182685771D01*
X181791485Y-182757200D01*
X181862914Y-182900057D01*
X181862914Y-183042914D01*
X181148628Y-183185771D01*
X183077200Y-183614342D02*
X182934342Y-183685771D01*
X182648628Y-183685771D01*
X182505771Y-183614342D01*
X182434342Y-183471485D01*
X182434342Y-182900057D01*
X182505771Y-182757200D01*
X182648628Y-182685771D01*
X182934342Y-182685771D01*
X183077200Y-182757200D01*
X183148628Y-182900057D01*
X183148628Y-183042914D01*
X182434342Y-183185771D01*
X183577200Y-182685771D02*
X184148628Y-182685771D01*
X183791485Y-182185771D02*
X183791485Y-183471485D01*
X183862914Y-183614342D01*
X184005771Y-183685771D01*
X184148628Y-183685771D01*
X184648628Y-183542914D02*
X184720057Y-183614342D01*
X184648628Y-183685771D01*
X184577200Y-183614342D01*
X184648628Y-183542914D01*
X184648628Y-183685771D01*
X184648628Y-182757200D02*
X184720057Y-182828628D01*
X184648628Y-182900057D01*
X184577200Y-182828628D01*
X184648628Y-182757200D01*
X184648628Y-182900057D01*
D10*
D11*
X197002200Y-191507200D02*
X197002200Y-194507200D01*
D10*
D11*
X261002200Y-191507200D02*
X261002200Y-198007200D01*
D14*
X225459999Y-119289735D02*
X225450000Y-137750000D01*
X204850000Y-139200000D02*
X224277496Y-139194553D01*
X225357217Y-138309152D02*
X225219001Y-138563961D01*
X224559152Y-139107218D02*
X224277496Y-139194553D01*
X224813960Y-138969002D02*
X224559152Y-139107218D01*
X225035913Y-138785913D02*
X224813960Y-138969002D01*
X225444553Y-138027496D02*
X225357217Y-138309152D01*
X225219001Y-138563961D02*
X225035913Y-138785913D01*
X225450000Y-137750000D02*
X225444553Y-138027496D01*
X117150000Y-135900000D02*
X129900000Y-135900000D01*
X129900000Y-135900000D02*
X137050000Y-134700000D01*
X177900000Y-134700000D02*
X185300000Y-139200000D01*
X137050000Y-134700000D02*
X177900000Y-134700000D01*
X113445528Y-138036218D02*
X117150000Y-135900000D01*
X110094139Y-139976496D02*
X113445528Y-138036218D01*
X185300000Y-139200000D02*
X204850000Y-139200000D01*
X106132452Y-142301617D02*
X107808147Y-141331479D01*
X82937528Y-50750629D02*
X82937528Y-44443695D01*
X82937528Y-57057562D02*
X82937528Y-50750629D01*
X115211711Y-37086762D02*
X104803877Y-37086762D01*
X199807654Y-38170488D02*
X189919538Y-37585374D01*
X208420758Y-38945561D02*
X199807654Y-38170488D01*
X215525697Y-39885159D02*
X208420758Y-38945561D01*
X220889319Y-40963847D02*
X215525697Y-39885159D01*
X178989563Y-37215654D02*
X167250881Y-37086762D01*
X189919538Y-37585374D02*
X178989563Y-37215654D01*
X225460000Y-52918378D02*
X225460000Y-62400000D01*
X225460000Y-43436755D02*
X225460000Y-52918378D01*
X82937528Y-69671429D02*
X82937528Y-63364495D01*
X82937528Y-75978362D02*
X82937528Y-69671429D01*
X82937528Y-82285296D02*
X82937528Y-75978362D01*
X82937528Y-88592229D02*
X82937528Y-82285296D01*
X104803877Y-37086762D02*
X94396044Y-37086762D01*
X125619545Y-37086762D02*
X115211711Y-37086762D01*
X136027379Y-37086762D02*
X125619545Y-37086762D01*
X146435213Y-37086762D02*
X136027379Y-37086762D01*
X156843047Y-37086762D02*
X146435213Y-37086762D01*
X167250881Y-37086762D02*
X156843047Y-37086762D01*
X83400937Y-37265961D02*
X83579303Y-37169210D01*
X83245570Y-37394123D02*
X83400937Y-37265961D01*
X83117409Y-37549489D02*
X83245570Y-37394123D01*
X83020657Y-37727855D02*
X83117409Y-37549489D01*
X82959523Y-37925015D02*
X83020657Y-37727855D01*
X82938210Y-38136762D02*
X82959523Y-37925015D01*
X83776462Y-37108075D02*
X83988210Y-37086762D01*
X83579303Y-37169210D02*
X83776462Y-37108075D01*
X94396044Y-37086762D02*
X83988210Y-37086762D01*
X82937528Y-63364495D02*
X82937528Y-57057562D01*
X82937528Y-44443695D02*
X82937528Y-38136762D01*
X88291758Y-116318073D02*
X89993333Y-119989540D01*
X86863105Y-112530670D02*
X88291758Y-116318073D01*
X85688004Y-108649127D02*
X86863105Y-112530670D01*
X84747083Y-104695246D02*
X85688004Y-108649127D01*
X84020972Y-100690825D02*
X84747083Y-104695246D01*
X83490297Y-96657663D02*
X84020972Y-100690825D01*
X83135690Y-92617561D02*
X83490297Y-96657663D01*
X82937777Y-88592317D02*
X83135690Y-92617561D01*
X104288864Y-143357278D02*
X104456758Y-143271756D01*
X104130206Y-143404468D02*
X104288864Y-143357278D01*
X103981252Y-143413974D02*
X104130206Y-143404468D01*
X103842470Y-143386445D02*
X103981252Y-143413974D01*
X103714328Y-143322532D02*
X103842470Y-143386445D01*
X103597295Y-143222884D02*
X103714328Y-143322532D01*
X103491837Y-143088150D02*
X103597295Y-143222884D01*
X103398425Y-142918979D02*
X103491837Y-143088150D01*
X107808147Y-141331479D02*
X110094139Y-139976496D01*
X104456758Y-143271756D02*
X106132452Y-142301617D01*
X101722730Y-140052659D02*
X103398425Y-142918979D01*
X100047036Y-137186340D02*
X101722730Y-140052659D01*
X98371341Y-134320020D02*
X100047036Y-137186340D01*
X96695647Y-131453701D02*
X98371341Y-134320020D01*
X95019952Y-128587381D02*
X96695647Y-131453701D01*
X93344258Y-125721062D02*
X95019952Y-128587381D01*
X91668563Y-122854742D02*
X93344258Y-125721062D01*
X89992869Y-119988423D02*
X91668563Y-122854742D01*
X224278471Y-42156190D02*
X220889319Y-40963847D01*
X225460000Y-43436755D02*
X224278471Y-42156190D01*
X225460000Y-109808112D02*
X225460000Y-119289735D01*
X225460000Y-100326490D02*
X225460000Y-109808112D01*
X225460000Y-90844867D02*
X225460000Y-100326490D01*
X225460000Y-81363245D02*
X225460000Y-90844867D01*
X225460000Y-71881623D02*
X225460000Y-81363245D01*
X225460000Y-62400000D02*
X225460000Y-71881623D01*
D15*
X217000000Y-128500000D02*
X217000000Y-129500000D01*
X216500000Y-129000000D02*
X217500000Y-129000000D01*
X220500000Y-135100000D02*
X222900000Y-135100000D01*
X215700000Y-135100000D02*
X218300000Y-135100000D01*
X211100000Y-135100000D02*
X213500000Y-135100000D01*
X212900000Y-121800000D02*
X213200000Y-121500000D01*
X212900000Y-121200000D02*
X212900000Y-121800000D01*
X213200000Y-121500000D02*
X212900000Y-121200000D01*
X211100000Y-122900000D02*
X222900000Y-122900000D01*
X211100000Y-127000000D02*
X211100000Y-122900000D01*
X222900000Y-127000000D02*
X222900000Y-122900000D01*
X222900000Y-135100000D02*
X222900000Y-131000000D01*
X211100000Y-131000000D02*
X211100000Y-135100000D01*
X220000000Y-129000000D02*
G75*
G03X220000000Y-129000000I-3000000J0D01*
G01*
D11*
X83200000Y-70700000D02*
X83200000Y-64800000D01*
X83200000Y-70700000D02*
X83200000Y-64700000D01*
X86700000Y-64700000D02*
X86700000Y-70700000D01*
X83200000Y-64700000D02*
X83900000Y-64700000D01*
X86700000Y-64700000D02*
X86100000Y-64700000D01*
X86700000Y-70700000D02*
X86100000Y-70700000D01*
X83200000Y-70700000D02*
X83900000Y-70700000D01*
X127500000Y-43000000D02*
X127500000Y-44000000D01*
X113500000Y-44000000D02*
X113500000Y-43000000D01*
X113500000Y-43000000D02*
X114500000Y-43000000D01*
X126500000Y-43000000D02*
X127500000Y-43000000D01*
X127500000Y-57000000D02*
X126500000Y-57000000D01*
X127500000Y-56000000D02*
X127500000Y-57000000D01*
X114500000Y-57000000D02*
X113500000Y-57000000D01*
X113500000Y-57000000D02*
X113500000Y-56604000D01*
X122964162Y-50616040D02*
G75*
G02X120500000Y-52540000I-2464162J616040D01*
G01*
X126850000Y-54445000D02*
G75*
G02X124310000Y-56985000I-2540000J0D01*
G01*
X126850000Y-54445000D02*
X126850000Y-54064000D01*
X126850000Y-51016000D02*
X126850000Y-50635000D01*
X126850000Y-50635000D02*
X126469000Y-50635000D01*
X126850000Y-50635000D02*
X123040000Y-50635000D01*
X120500000Y-52540000D02*
X118214000Y-52540000D01*
X115420000Y-53175000D02*
X115420000Y-53556000D01*
X115420000Y-56604000D02*
X115420000Y-56985000D01*
X115420000Y-56985000D02*
X124310000Y-56985000D01*
X146500000Y-40600000D02*
X146500000Y-41600000D01*
X132500000Y-41600000D02*
X132500000Y-40600000D01*
X132500000Y-40600000D02*
X133500000Y-40600000D01*
X145500000Y-40600000D02*
X146500000Y-40600000D01*
X146500000Y-54600000D02*
X145500000Y-54600000D01*
X146500000Y-53600000D02*
X146500000Y-54600000D01*
X133500000Y-54600000D02*
X132500000Y-54600000D01*
X132500000Y-54600000D02*
X132500000Y-54204000D01*
X141964162Y-48216040D02*
G75*
G02X139500000Y-50140000I-2464162J616040D01*
G01*
X145850000Y-52045000D02*
G75*
G02X143310000Y-54585000I-2540000J0D01*
G01*
X145850000Y-52045000D02*
X145850000Y-51664000D01*
X145850000Y-48616000D02*
X145850000Y-48235000D01*
X145850000Y-48235000D02*
X145469000Y-48235000D01*
X145850000Y-48235000D02*
X142040000Y-48235000D01*
X139500000Y-50140000D02*
X137214000Y-50140000D01*
X134420000Y-50775000D02*
X134420000Y-51156000D01*
X134420000Y-54204000D02*
X134420000Y-54585000D01*
X134420000Y-54585000D02*
X143310000Y-54585000D01*
X165600000Y-39210000D02*
X165600000Y-40210000D01*
X151600000Y-40210000D02*
X151600000Y-39210000D01*
X151600000Y-39210000D02*
X152600000Y-39210000D01*
X164600000Y-39210000D02*
X165600000Y-39210000D01*
X165600000Y-53210000D02*
X164600000Y-53210000D01*
X165600000Y-52210000D02*
X165600000Y-53210000D01*
X152600000Y-53210000D02*
X151600000Y-53210000D01*
X151600000Y-53210000D02*
X151600000Y-52814000D01*
X161064162Y-46826040D02*
G75*
G02X158600000Y-48750000I-2464162J616040D01*
G01*
X164950000Y-50655000D02*
G75*
G02X162410000Y-53195000I-2540000J0D01*
G01*
X164950000Y-50655000D02*
X164950000Y-50274000D01*
X164950000Y-47226000D02*
X164950000Y-46845000D01*
X164950000Y-46845000D02*
X164569000Y-46845000D01*
X164950000Y-46845000D02*
X161140000Y-46845000D01*
X158600000Y-48750000D02*
X156314000Y-48750000D01*
X153520000Y-49385000D02*
X153520000Y-49766000D01*
X153520000Y-52814000D02*
X153520000Y-53195000D01*
X153520000Y-53195000D02*
X162410000Y-53195000D01*
X184600000Y-40600000D02*
X184600000Y-41600000D01*
X170600000Y-41600000D02*
X170600000Y-40600000D01*
X170600000Y-40600000D02*
X171600000Y-40600000D01*
X183600000Y-40600000D02*
X184600000Y-40600000D01*
X184600000Y-54600000D02*
X183600000Y-54600000D01*
X184600000Y-53600000D02*
X184600000Y-54600000D01*
X171600000Y-54600000D02*
X170600000Y-54600000D01*
X170600000Y-54600000D02*
X170600000Y-54204000D01*
X180064162Y-48216040D02*
G75*
G02X177600000Y-50140000I-2464162J616040D01*
G01*
X183950000Y-52045000D02*
G75*
G02X181410000Y-54585000I-2540000J0D01*
G01*
X183950000Y-52045000D02*
X183950000Y-51664000D01*
X183950000Y-48616000D02*
X183950000Y-48235000D01*
X183950000Y-48235000D02*
X183569000Y-48235000D01*
X183950000Y-48235000D02*
X180140000Y-48235000D01*
X177600000Y-50140000D02*
X175314000Y-50140000D01*
X172520000Y-50775000D02*
X172520000Y-51156000D01*
X172520000Y-54204000D02*
X172520000Y-54585000D01*
X172520000Y-54585000D02*
X181410000Y-54585000D01*
X203700000Y-45400000D02*
X203700000Y-46400000D01*
X189700000Y-46400000D02*
X189700000Y-45400000D01*
X189700000Y-45400000D02*
X190700000Y-45400000D01*
X202700000Y-45400000D02*
X203700000Y-45400000D01*
X203700000Y-59400000D02*
X202700000Y-59400000D01*
X203700000Y-58400000D02*
X203700000Y-59400000D01*
X190700000Y-59400000D02*
X189700000Y-59400000D01*
X189700000Y-59400000D02*
X189700000Y-59004000D01*
X199164162Y-53016040D02*
G75*
G02X196700000Y-54940000I-2464162J616040D01*
G01*
X203050000Y-56845000D02*
G75*
G02X200510000Y-59385000I-2540000J0D01*
G01*
X203050000Y-56845000D02*
X203050000Y-56464000D01*
X203050000Y-53416000D02*
X203050000Y-53035000D01*
X203050000Y-53035000D02*
X202669000Y-53035000D01*
X203050000Y-53035000D02*
X199240000Y-53035000D01*
X196700000Y-54940000D02*
X194414000Y-54940000D01*
X191620000Y-55575000D02*
X191620000Y-55956000D01*
X191620000Y-59004000D02*
X191620000Y-59385000D01*
X191620000Y-59385000D02*
X200510000Y-59385000D01*
X222700000Y-46900000D02*
X222700000Y-47900000D01*
X208700000Y-47900000D02*
X208700000Y-46900000D01*
X208700000Y-46900000D02*
X209700000Y-46900000D01*
X221700000Y-46900000D02*
X222700000Y-46900000D01*
X222700000Y-60900000D02*
X221700000Y-60900000D01*
X222700000Y-59900000D02*
X222700000Y-60900000D01*
X209700000Y-60900000D02*
X208700000Y-60900000D01*
X208700000Y-60900000D02*
X208700000Y-60504000D01*
X218164162Y-54516040D02*
G75*
G02X215700000Y-56440000I-2464162J616040D01*
G01*
X222050000Y-58345000D02*
G75*
G02X219510000Y-60885000I-2540000J0D01*
G01*
X222050000Y-58345000D02*
X222050000Y-57964000D01*
X222050000Y-54916000D02*
X222050000Y-54535000D01*
X222050000Y-54535000D02*
X221669000Y-54535000D01*
X222050000Y-54535000D02*
X218240000Y-54535000D01*
X215700000Y-56440000D02*
X213414000Y-56440000D01*
X210620000Y-57075000D02*
X210620000Y-57456000D01*
X210620000Y-60504000D02*
X210620000Y-60885000D01*
X210620000Y-60885000D02*
X219510000Y-60885000D01*
X127500000Y-62100000D02*
X127500000Y-63100000D01*
X113500000Y-63100000D02*
X113500000Y-62100000D01*
X113500000Y-62100000D02*
X114500000Y-62100000D01*
X126500000Y-62100000D02*
X127500000Y-62100000D01*
X127500000Y-76100000D02*
X126500000Y-76100000D01*
X127500000Y-75100000D02*
X127500000Y-76100000D01*
X114500000Y-76100000D02*
X113500000Y-76100000D01*
X113500000Y-76100000D02*
X113500000Y-75704000D01*
X122964162Y-69716040D02*
G75*
G02X120500000Y-71640000I-2464162J616040D01*
G01*
X126850000Y-73545000D02*
G75*
G02X124310000Y-76085000I-2540000J0D01*
G01*
X126850000Y-73545000D02*
X126850000Y-73164000D01*
X126850000Y-70116000D02*
X126850000Y-69735000D01*
X126850000Y-69735000D02*
X126469000Y-69735000D01*
X126850000Y-69735000D02*
X123040000Y-69735000D01*
X120500000Y-71640000D02*
X118214000Y-71640000D01*
X115420000Y-72275000D02*
X115420000Y-72656000D01*
X115420000Y-75704000D02*
X115420000Y-76085000D01*
X115420000Y-76085000D02*
X124310000Y-76085000D01*
X146500000Y-59700000D02*
X146500000Y-60700000D01*
X132500000Y-60700000D02*
X132500000Y-59700000D01*
X132500000Y-59700000D02*
X133500000Y-59700000D01*
X145500000Y-59700000D02*
X146500000Y-59700000D01*
X146500000Y-73700000D02*
X145500000Y-73700000D01*
X146500000Y-72700000D02*
X146500000Y-73700000D01*
X133500000Y-73700000D02*
X132500000Y-73700000D01*
X132500000Y-73700000D02*
X132500000Y-73304000D01*
X141964162Y-67316040D02*
G75*
G02X139500000Y-69240000I-2464162J616040D01*
G01*
X145850000Y-71145000D02*
G75*
G02X143310000Y-73685000I-2540000J0D01*
G01*
X145850000Y-71145000D02*
X145850000Y-70764000D01*
X145850000Y-67716000D02*
X145850000Y-67335000D01*
X145850000Y-67335000D02*
X145469000Y-67335000D01*
X145850000Y-67335000D02*
X142040000Y-67335000D01*
X139500000Y-69240000D02*
X137214000Y-69240000D01*
X134420000Y-69875000D02*
X134420000Y-70256000D01*
X134420000Y-73304000D02*
X134420000Y-73685000D01*
X134420000Y-73685000D02*
X143310000Y-73685000D01*
X165600000Y-58300000D02*
X165600000Y-59300000D01*
X151600000Y-59300000D02*
X151600000Y-58300000D01*
X151600000Y-58300000D02*
X152600000Y-58300000D01*
X164600000Y-58300000D02*
X165600000Y-58300000D01*
X165600000Y-72300000D02*
X164600000Y-72300000D01*
X165600000Y-71300000D02*
X165600000Y-72300000D01*
X152600000Y-72300000D02*
X151600000Y-72300000D01*
X151600000Y-72300000D02*
X151600000Y-71904000D01*
X161064162Y-65916040D02*
G75*
G02X158600000Y-67840000I-2464162J616040D01*
G01*
X164950000Y-69745000D02*
G75*
G02X162410000Y-72285000I-2540000J0D01*
G01*
X164950000Y-69745000D02*
X164950000Y-69364000D01*
X164950000Y-66316000D02*
X164950000Y-65935000D01*
X164950000Y-65935000D02*
X164569000Y-65935000D01*
X164950000Y-65935000D02*
X161140000Y-65935000D01*
X158600000Y-67840000D02*
X156314000Y-67840000D01*
X153520000Y-68475000D02*
X153520000Y-68856000D01*
X153520000Y-71904000D02*
X153520000Y-72285000D01*
X153520000Y-72285000D02*
X162410000Y-72285000D01*
X184600000Y-59600000D02*
X184600000Y-60600000D01*
X170600000Y-60600000D02*
X170600000Y-59600000D01*
X170600000Y-59600000D02*
X171600000Y-59600000D01*
X183600000Y-59600000D02*
X184600000Y-59600000D01*
X184600000Y-73600000D02*
X183600000Y-73600000D01*
X184600000Y-72600000D02*
X184600000Y-73600000D01*
X171600000Y-73600000D02*
X170600000Y-73600000D01*
X170600000Y-73600000D02*
X170600000Y-73204000D01*
X180064162Y-67216040D02*
G75*
G02X177600000Y-69140000I-2464162J616040D01*
G01*
X183950000Y-71045000D02*
G75*
G02X181410000Y-73585000I-2540000J0D01*
G01*
X183950000Y-71045000D02*
X183950000Y-70664000D01*
X183950000Y-67616000D02*
X183950000Y-67235000D01*
X183950000Y-67235000D02*
X183569000Y-67235000D01*
X183950000Y-67235000D02*
X180140000Y-67235000D01*
X177600000Y-69140000D02*
X175314000Y-69140000D01*
X172520000Y-69775000D02*
X172520000Y-70156000D01*
X172520000Y-73204000D02*
X172520000Y-73585000D01*
X172520000Y-73585000D02*
X181410000Y-73585000D01*
X203700000Y-64300000D02*
X203700000Y-65300000D01*
X189700000Y-65300000D02*
X189700000Y-64300000D01*
X189700000Y-64300000D02*
X190700000Y-64300000D01*
X202700000Y-64300000D02*
X203700000Y-64300000D01*
X203700000Y-78300000D02*
X202700000Y-78300000D01*
X203700000Y-77300000D02*
X203700000Y-78300000D01*
X190700000Y-78300000D02*
X189700000Y-78300000D01*
X189700000Y-78300000D02*
X189700000Y-77904000D01*
X199164162Y-71916040D02*
G75*
G02X196700000Y-73840000I-2464162J616040D01*
G01*
X203050000Y-75745000D02*
G75*
G02X200510000Y-78285000I-2540000J0D01*
G01*
X203050000Y-75745000D02*
X203050000Y-75364000D01*
X203050000Y-72316000D02*
X203050000Y-71935000D01*
X203050000Y-71935000D02*
X202669000Y-71935000D01*
X203050000Y-71935000D02*
X199240000Y-71935000D01*
X196700000Y-73840000D02*
X194414000Y-73840000D01*
X191620000Y-74475000D02*
X191620000Y-74856000D01*
X191620000Y-77904000D02*
X191620000Y-78285000D01*
X191620000Y-78285000D02*
X200510000Y-78285000D01*
X222700000Y-65800000D02*
X222700000Y-66800000D01*
X208700000Y-66800000D02*
X208700000Y-65800000D01*
X208700000Y-65800000D02*
X209700000Y-65800000D01*
X221700000Y-65800000D02*
X222700000Y-65800000D01*
X222700000Y-79800000D02*
X221700000Y-79800000D01*
X222700000Y-78800000D02*
X222700000Y-79800000D01*
X209700000Y-79800000D02*
X208700000Y-79800000D01*
X208700000Y-79800000D02*
X208700000Y-79404000D01*
X218164162Y-73416040D02*
G75*
G02X215700000Y-75340000I-2464162J616040D01*
G01*
X222050000Y-77245000D02*
G75*
G02X219510000Y-79785000I-2540000J0D01*
G01*
X222050000Y-77245000D02*
X222050000Y-76864000D01*
X222050000Y-73816000D02*
X222050000Y-73435000D01*
X222050000Y-73435000D02*
X221669000Y-73435000D01*
X222050000Y-73435000D02*
X218240000Y-73435000D01*
X215700000Y-75340000D02*
X213414000Y-75340000D01*
X210620000Y-75975000D02*
X210620000Y-76356000D01*
X210620000Y-79404000D02*
X210620000Y-79785000D01*
X210620000Y-79785000D02*
X219510000Y-79785000D01*
X127500000Y-81100000D02*
X127500000Y-82100000D01*
X113500000Y-82100000D02*
X113500000Y-81100000D01*
X113500000Y-81100000D02*
X114500000Y-81100000D01*
X126500000Y-81100000D02*
X127500000Y-81100000D01*
X127500000Y-95100000D02*
X126500000Y-95100000D01*
X127500000Y-94100000D02*
X127500000Y-95100000D01*
X114500000Y-95100000D02*
X113500000Y-95100000D01*
X113500000Y-95100000D02*
X113500000Y-94704000D01*
X122964162Y-88716040D02*
G75*
G02X120500000Y-90640000I-2464162J616040D01*
G01*
X126850000Y-92545000D02*
G75*
G02X124310000Y-95085000I-2540000J0D01*
G01*
X126850000Y-92545000D02*
X126850000Y-92164000D01*
X126850000Y-89116000D02*
X126850000Y-88735000D01*
X126850000Y-88735000D02*
X126469000Y-88735000D01*
X126850000Y-88735000D02*
X123040000Y-88735000D01*
X120500000Y-90640000D02*
X118214000Y-90640000D01*
X115420000Y-91275000D02*
X115420000Y-91656000D01*
X115420000Y-94704000D02*
X115420000Y-95085000D01*
X115420000Y-95085000D02*
X124310000Y-95085000D01*
X146500000Y-78700000D02*
X146500000Y-79700000D01*
X132500000Y-79700000D02*
X132500000Y-78700000D01*
X132500000Y-78700000D02*
X133500000Y-78700000D01*
X145500000Y-78700000D02*
X146500000Y-78700000D01*
X146500000Y-92700000D02*
X145500000Y-92700000D01*
X146500000Y-91700000D02*
X146500000Y-92700000D01*
X133500000Y-92700000D02*
X132500000Y-92700000D01*
X132500000Y-92700000D02*
X132500000Y-92304000D01*
X141964162Y-86316040D02*
G75*
G02X139500000Y-88240000I-2464162J616040D01*
G01*
X145850000Y-90145000D02*
G75*
G02X143310000Y-92685000I-2540000J0D01*
G01*
X145850000Y-90145000D02*
X145850000Y-89764000D01*
X145850000Y-86716000D02*
X145850000Y-86335000D01*
X145850000Y-86335000D02*
X145469000Y-86335000D01*
X145850000Y-86335000D02*
X142040000Y-86335000D01*
X139500000Y-88240000D02*
X137214000Y-88240000D01*
X134420000Y-88875000D02*
X134420000Y-89256000D01*
X134420000Y-92304000D02*
X134420000Y-92685000D01*
X134420000Y-92685000D02*
X143310000Y-92685000D01*
X165600000Y-77400000D02*
X165600000Y-78400000D01*
X151600000Y-78400000D02*
X151600000Y-77400000D01*
X151600000Y-77400000D02*
X152600000Y-77400000D01*
X164600000Y-77400000D02*
X165600000Y-77400000D01*
X165600000Y-91400000D02*
X164600000Y-91400000D01*
X165600000Y-90400000D02*
X165600000Y-91400000D01*
X152600000Y-91400000D02*
X151600000Y-91400000D01*
X151600000Y-91400000D02*
X151600000Y-91004000D01*
X161064162Y-85016040D02*
G75*
G02X158600000Y-86940000I-2464162J616040D01*
G01*
X164950000Y-88845000D02*
G75*
G02X162410000Y-91385000I-2540000J0D01*
G01*
X164950000Y-88845000D02*
X164950000Y-88464000D01*
X164950000Y-85416000D02*
X164950000Y-85035000D01*
X164950000Y-85035000D02*
X164569000Y-85035000D01*
X164950000Y-85035000D02*
X161140000Y-85035000D01*
X158600000Y-86940000D02*
X156314000Y-86940000D01*
X153520000Y-87575000D02*
X153520000Y-87956000D01*
X153520000Y-91004000D02*
X153520000Y-91385000D01*
X153520000Y-91385000D02*
X162410000Y-91385000D01*
X184600000Y-78700000D02*
X184600000Y-79700000D01*
X170600000Y-79700000D02*
X170600000Y-78700000D01*
X170600000Y-78700000D02*
X171600000Y-78700000D01*
X183600000Y-78700000D02*
X184600000Y-78700000D01*
X184600000Y-92700000D02*
X183600000Y-92700000D01*
X184600000Y-91700000D02*
X184600000Y-92700000D01*
X171600000Y-92700000D02*
X170600000Y-92700000D01*
X170600000Y-92700000D02*
X170600000Y-92304000D01*
X180064162Y-86316040D02*
G75*
G02X177600000Y-88240000I-2464162J616040D01*
G01*
X183950000Y-90145000D02*
G75*
G02X181410000Y-92685000I-2540000J0D01*
G01*
X183950000Y-90145000D02*
X183950000Y-89764000D01*
X183950000Y-86716000D02*
X183950000Y-86335000D01*
X183950000Y-86335000D02*
X183569000Y-86335000D01*
X183950000Y-86335000D02*
X180140000Y-86335000D01*
X177600000Y-88240000D02*
X175314000Y-88240000D01*
X172520000Y-88875000D02*
X172520000Y-89256000D01*
X172520000Y-92304000D02*
X172520000Y-92685000D01*
X172520000Y-92685000D02*
X181410000Y-92685000D01*
X203700000Y-83500000D02*
X203700000Y-84500000D01*
X189700000Y-84500000D02*
X189700000Y-83500000D01*
X189700000Y-83500000D02*
X190700000Y-83500000D01*
X202700000Y-83500000D02*
X203700000Y-83500000D01*
X203700000Y-97500000D02*
X202700000Y-97500000D01*
X203700000Y-96500000D02*
X203700000Y-97500000D01*
X190700000Y-97500000D02*
X189700000Y-97500000D01*
X189700000Y-97500000D02*
X189700000Y-97104000D01*
X199164162Y-91116040D02*
G75*
G02X196700000Y-93040000I-2464162J616040D01*
G01*
X203050000Y-94945000D02*
G75*
G02X200510000Y-97485000I-2540000J0D01*
G01*
X203050000Y-94945000D02*
X203050000Y-94564000D01*
X203050000Y-91516000D02*
X203050000Y-91135000D01*
X203050000Y-91135000D02*
X202669000Y-91135000D01*
X203050000Y-91135000D02*
X199240000Y-91135000D01*
X196700000Y-93040000D02*
X194414000Y-93040000D01*
X191620000Y-93675000D02*
X191620000Y-94056000D01*
X191620000Y-97104000D02*
X191620000Y-97485000D01*
X191620000Y-97485000D02*
X200510000Y-97485000D01*
X222700000Y-85000000D02*
X222700000Y-86000000D01*
X208700000Y-86000000D02*
X208700000Y-85000000D01*
X208700000Y-85000000D02*
X209700000Y-85000000D01*
X221700000Y-85000000D02*
X222700000Y-85000000D01*
X222700000Y-99000000D02*
X221700000Y-99000000D01*
X222700000Y-98000000D02*
X222700000Y-99000000D01*
X209700000Y-99000000D02*
X208700000Y-99000000D01*
X208700000Y-99000000D02*
X208700000Y-98604000D01*
X218164162Y-92616040D02*
G75*
G02X215700000Y-94540000I-2464162J616040D01*
G01*
X222050000Y-96445000D02*
G75*
G02X219510000Y-98985000I-2540000J0D01*
G01*
X222050000Y-96445000D02*
X222050000Y-96064000D01*
X222050000Y-93016000D02*
X222050000Y-92635000D01*
X222050000Y-92635000D02*
X221669000Y-92635000D01*
X222050000Y-92635000D02*
X218240000Y-92635000D01*
X215700000Y-94540000D02*
X213414000Y-94540000D01*
X210620000Y-95175000D02*
X210620000Y-95556000D01*
X210620000Y-98604000D02*
X210620000Y-98985000D01*
X210620000Y-98985000D02*
X219510000Y-98985000D01*
X127500000Y-100100000D02*
X127500000Y-101100000D01*
X113500000Y-101100000D02*
X113500000Y-100100000D01*
X113500000Y-100100000D02*
X114500000Y-100100000D01*
X126500000Y-100100000D02*
X127500000Y-100100000D01*
X127500000Y-114100000D02*
X126500000Y-114100000D01*
X127500000Y-113100000D02*
X127500000Y-114100000D01*
X114500000Y-114100000D02*
X113500000Y-114100000D01*
X113500000Y-114100000D02*
X113500000Y-113704000D01*
X122964162Y-107716040D02*
G75*
G02X120500000Y-109640000I-2464162J616040D01*
G01*
X126850000Y-111545000D02*
G75*
G02X124310000Y-114085000I-2540000J0D01*
G01*
X126850000Y-111545000D02*
X126850000Y-111164000D01*
X126850000Y-108116000D02*
X126850000Y-107735000D01*
X126850000Y-107735000D02*
X126469000Y-107735000D01*
X126850000Y-107735000D02*
X123040000Y-107735000D01*
X120500000Y-109640000D02*
X118214000Y-109640000D01*
X115420000Y-110275000D02*
X115420000Y-110656000D01*
X115420000Y-113704000D02*
X115420000Y-114085000D01*
X115420000Y-114085000D02*
X124310000Y-114085000D01*
X146500000Y-97800000D02*
X146500000Y-98800000D01*
X132500000Y-98800000D02*
X132500000Y-97800000D01*
X132500000Y-97800000D02*
X133500000Y-97800000D01*
X145500000Y-97800000D02*
X146500000Y-97800000D01*
X146500000Y-111800000D02*
X145500000Y-111800000D01*
X146500000Y-110800000D02*
X146500000Y-111800000D01*
X133500000Y-111800000D02*
X132500000Y-111800000D01*
X132500000Y-111800000D02*
X132500000Y-111404000D01*
X141964162Y-105416040D02*
G75*
G02X139500000Y-107340000I-2464162J616040D01*
G01*
X145850000Y-109245000D02*
G75*
G02X143310000Y-111785000I-2540000J0D01*
G01*
X145850000Y-109245000D02*
X145850000Y-108864000D01*
X145850000Y-105816000D02*
X145850000Y-105435000D01*
X145850000Y-105435000D02*
X145469000Y-105435000D01*
X145850000Y-105435000D02*
X142040000Y-105435000D01*
X139500000Y-107340000D02*
X137214000Y-107340000D01*
X134420000Y-107975000D02*
X134420000Y-108356000D01*
X134420000Y-111404000D02*
X134420000Y-111785000D01*
X134420000Y-111785000D02*
X143310000Y-111785000D01*
X165600000Y-96400000D02*
X165600000Y-97400000D01*
X151600000Y-97400000D02*
X151600000Y-96400000D01*
X151600000Y-96400000D02*
X152600000Y-96400000D01*
X164600000Y-96400000D02*
X165600000Y-96400000D01*
X165600000Y-110400000D02*
X164600000Y-110400000D01*
X165600000Y-109400000D02*
X165600000Y-110400000D01*
X152600000Y-110400000D02*
X151600000Y-110400000D01*
X151600000Y-110400000D02*
X151600000Y-110004000D01*
X161064162Y-104016040D02*
G75*
G02X158600000Y-105940000I-2464162J616040D01*
G01*
X164950000Y-107845000D02*
G75*
G02X162410000Y-110385000I-2540000J0D01*
G01*
X164950000Y-107845000D02*
X164950000Y-107464000D01*
X164950000Y-104416000D02*
X164950000Y-104035000D01*
X164950000Y-104035000D02*
X164569000Y-104035000D01*
X164950000Y-104035000D02*
X161140000Y-104035000D01*
X158600000Y-105940000D02*
X156314000Y-105940000D01*
X153520000Y-106575000D02*
X153520000Y-106956000D01*
X153520000Y-110004000D02*
X153520000Y-110385000D01*
X153520000Y-110385000D02*
X162410000Y-110385000D01*
X184600000Y-97800000D02*
X184600000Y-98800000D01*
X170600000Y-98800000D02*
X170600000Y-97800000D01*
X170600000Y-97800000D02*
X171600000Y-97800000D01*
X183600000Y-97800000D02*
X184600000Y-97800000D01*
X184600000Y-111800000D02*
X183600000Y-111800000D01*
X184600000Y-110800000D02*
X184600000Y-111800000D01*
X171600000Y-111800000D02*
X170600000Y-111800000D01*
X170600000Y-111800000D02*
X170600000Y-111404000D01*
X180064162Y-105416040D02*
G75*
G02X177600000Y-107340000I-2464162J616040D01*
G01*
X183950000Y-109245000D02*
G75*
G02X181410000Y-111785000I-2540000J0D01*
G01*
X183950000Y-109245000D02*
X183950000Y-108864000D01*
X183950000Y-105816000D02*
X183950000Y-105435000D01*
X183950000Y-105435000D02*
X183569000Y-105435000D01*
X183950000Y-105435000D02*
X180140000Y-105435000D01*
X177600000Y-107340000D02*
X175314000Y-107340000D01*
X172520000Y-107975000D02*
X172520000Y-108356000D01*
X172520000Y-111404000D02*
X172520000Y-111785000D01*
X172520000Y-111785000D02*
X181410000Y-111785000D01*
X203700000Y-102500000D02*
X203700000Y-103500000D01*
X189700000Y-103500000D02*
X189700000Y-102500000D01*
X189700000Y-102500000D02*
X190700000Y-102500000D01*
X202700000Y-102500000D02*
X203700000Y-102500000D01*
X203700000Y-116500000D02*
X202700000Y-116500000D01*
X203700000Y-115500000D02*
X203700000Y-116500000D01*
X190700000Y-116500000D02*
X189700000Y-116500000D01*
X189700000Y-116500000D02*
X189700000Y-116104000D01*
X199164162Y-110116040D02*
G75*
G02X196700000Y-112040000I-2464162J616040D01*
G01*
X203050000Y-113945000D02*
G75*
G02X200510000Y-116485000I-2540000J0D01*
G01*
X203050000Y-113945000D02*
X203050000Y-113564000D01*
X203050000Y-110516000D02*
X203050000Y-110135000D01*
X203050000Y-110135000D02*
X202669000Y-110135000D01*
X203050000Y-110135000D02*
X199240000Y-110135000D01*
X196700000Y-112040000D02*
X194414000Y-112040000D01*
X191620000Y-112675000D02*
X191620000Y-113056000D01*
X191620000Y-116104000D02*
X191620000Y-116485000D01*
X191620000Y-116485000D02*
X200510000Y-116485000D01*
X222750000Y-104000000D02*
X222750000Y-105000000D01*
X208750000Y-105000000D02*
X208750000Y-104000000D01*
X208750000Y-104000000D02*
X209750000Y-104000000D01*
X221750000Y-104000000D02*
X222750000Y-104000000D01*
X222750000Y-118000000D02*
X221750000Y-118000000D01*
X222750000Y-117000000D02*
X222750000Y-118000000D01*
X209750000Y-118000000D02*
X208750000Y-118000000D01*
X208750000Y-118000000D02*
X208750000Y-117604000D01*
X218214162Y-111616040D02*
G75*
G02X215750000Y-113540000I-2464162J616040D01*
G01*
X222100000Y-115445000D02*
G75*
G02X219560000Y-117985000I-2540000J0D01*
G01*
X222100000Y-115445000D02*
X222100000Y-115064000D01*
X222100000Y-112016000D02*
X222100000Y-111635000D01*
X222100000Y-111635000D02*
X221719000Y-111635000D01*
X222100000Y-111635000D02*
X218290000Y-111635000D01*
X215750000Y-113540000D02*
X213464000Y-113540000D01*
X210670000Y-114175000D02*
X210670000Y-114556000D01*
X210670000Y-117604000D02*
X210670000Y-117985000D01*
X210670000Y-117985000D02*
X219560000Y-117985000D01*
X108400000Y-90500000D02*
X108400000Y-91500000D01*
X94400000Y-91500000D02*
X94400000Y-90500000D01*
X94400000Y-90500000D02*
X95400000Y-90500000D01*
X107400000Y-90500000D02*
X108400000Y-90500000D01*
X108400000Y-104500000D02*
X107400000Y-104500000D01*
X108400000Y-103500000D02*
X108400000Y-104500000D01*
X95400000Y-104500000D02*
X94400000Y-104500000D01*
X94400000Y-104500000D02*
X94400000Y-104104000D01*
X103864162Y-98116040D02*
G75*
G02X101400000Y-100040000I-2464162J616040D01*
G01*
X107750000Y-101945000D02*
G75*
G02X105210000Y-104485000I-2540000J0D01*
G01*
X107750000Y-101945000D02*
X107750000Y-101564000D01*
X107750000Y-98516000D02*
X107750000Y-98135000D01*
X107750000Y-98135000D02*
X107369000Y-98135000D01*
X107750000Y-98135000D02*
X103940000Y-98135000D01*
X101400000Y-100040000D02*
X99114000Y-100040000D01*
X96320000Y-100675000D02*
X96320000Y-101056000D01*
X96320000Y-104104000D02*
X96320000Y-104485000D01*
X96320000Y-104485000D02*
X105210000Y-104485000D01*
X114562178Y-129562178D02*
X113696152Y-130062178D01*
X106696152Y-117937822D02*
X107562178Y-117437822D01*
X107562178Y-117437822D02*
X108062178Y-118303848D01*
X114062178Y-128696152D02*
X114562178Y-129562178D01*
X102437822Y-136562178D02*
X101937822Y-135696152D01*
X103303848Y-136062178D02*
X102437822Y-136562178D01*
X95937822Y-125303848D02*
X95437822Y-124437822D01*
X95437822Y-124437822D02*
X95780768Y-124239822D01*
X105698574Y-129442047D02*
G75*
G02X102800295Y-128270000I-698574J2442047D01*
G01*
X104325517Y-134721761D02*
G75*
G02X100855813Y-133792057I-1270000J2199704D01*
G01*
X104325517Y-134721761D02*
X104655473Y-134531261D01*
X107295118Y-133007261D02*
X107625074Y-132816761D01*
X107625074Y-132816761D02*
X107434574Y-132486806D01*
X107625074Y-132816761D02*
X105720074Y-129517205D01*
X102800295Y-128270000D02*
X101657295Y-126290266D01*
X99710369Y-124188091D02*
X99380414Y-124378591D01*
X96740768Y-125902591D02*
X96410813Y-126093091D01*
X96410813Y-126093091D02*
X100855813Y-133792057D01*
X135678117Y-116740808D02*
X135851765Y-117725616D01*
X122064457Y-120156691D02*
X121890808Y-119171883D01*
X121890808Y-119171883D02*
X122875616Y-118998235D01*
X134693309Y-116914457D02*
X135678117Y-116740808D01*
X138109192Y-130528117D02*
X137124384Y-130701765D01*
X137935543Y-129543309D02*
X138109192Y-130528117D01*
X125306691Y-132785543D02*
X124321883Y-132959192D01*
X124321883Y-132959192D02*
X124253118Y-132569208D01*
X132533700Y-125028785D02*
G75*
G02X130441066Y-127351412I-2533700J178785D01*
G01*
X137025396Y-128124805D02*
G75*
G02X134965050Y-131067283I-2501412J-441066D01*
G01*
X137025395Y-128124805D02*
X136959235Y-127749593D01*
X136429956Y-124747899D02*
X136363796Y-124372687D01*
X136363796Y-124372687D02*
X135988584Y-124438847D01*
X136363796Y-124372687D02*
X132611678Y-125034287D01*
X130441066Y-127351412D02*
X128189796Y-127748371D01*
X125548510Y-128858897D02*
X125614670Y-129234109D01*
X126143949Y-132235803D02*
X126210109Y-132611015D01*
X126210109Y-132611015D02*
X134965050Y-131067283D01*
X165600000Y-115300000D02*
X165600000Y-116300000D01*
X151600000Y-116300000D02*
X151600000Y-115300000D01*
X151600000Y-115300000D02*
X152600000Y-115300000D01*
X164600000Y-115300000D02*
X165600000Y-115300000D01*
X165600000Y-129300000D02*
X164600000Y-129300000D01*
X165600000Y-128300000D02*
X165600000Y-129300000D01*
X152600000Y-129300000D02*
X151600000Y-129300000D01*
X151600000Y-129300000D02*
X151600000Y-128904000D01*
X161064162Y-122916040D02*
G75*
G02X158600000Y-124840000I-2464162J616040D01*
G01*
X164950000Y-126745000D02*
G75*
G02X162410000Y-129285000I-2540000J0D01*
G01*
X164950000Y-126745000D02*
X164950000Y-126364000D01*
X164950000Y-123316000D02*
X164950000Y-122935000D01*
X164950000Y-122935000D02*
X164569000Y-122935000D01*
X164950000Y-122935000D02*
X161140000Y-122935000D01*
X158600000Y-124840000D02*
X156314000Y-124840000D01*
X153520000Y-125475000D02*
X153520000Y-125856000D01*
X153520000Y-128904000D02*
X153520000Y-129285000D01*
X153520000Y-129285000D02*
X162410000Y-129285000D01*
X184600000Y-116850000D02*
X184600000Y-117850000D01*
X170600000Y-117850000D02*
X170600000Y-116850000D01*
X170600000Y-116850000D02*
X171600000Y-116850000D01*
X183600000Y-116850000D02*
X184600000Y-116850000D01*
X184600000Y-130850000D02*
X183600000Y-130850000D01*
X184600000Y-129850000D02*
X184600000Y-130850000D01*
X171600000Y-130850000D02*
X170600000Y-130850000D01*
X170600000Y-130850000D02*
X170600000Y-130454000D01*
X180064162Y-124466040D02*
G75*
G02X177600000Y-126390000I-2464162J616040D01*
G01*
X183950000Y-128295000D02*
G75*
G02X181410000Y-130835000I-2540000J0D01*
G01*
X183950000Y-128295000D02*
X183950000Y-127914000D01*
X183950000Y-124866000D02*
X183950000Y-124485000D01*
X183950000Y-124485000D02*
X183569000Y-124485000D01*
X183950000Y-124485000D02*
X180140000Y-124485000D01*
X177600000Y-126390000D02*
X175314000Y-126390000D01*
X172520000Y-127025000D02*
X172520000Y-127406000D01*
X172520000Y-130454000D02*
X172520000Y-130835000D01*
X172520000Y-130835000D02*
X181410000Y-130835000D01*
X203700000Y-121400000D02*
X203700000Y-122400000D01*
X189700000Y-122400000D02*
X189700000Y-121400000D01*
X189700000Y-121400000D02*
X190700000Y-121400000D01*
X202700000Y-121400000D02*
X203700000Y-121400000D01*
X203700000Y-135400000D02*
X202700000Y-135400000D01*
X203700000Y-134400000D02*
X203700000Y-135400000D01*
X190700000Y-135400000D02*
X189700000Y-135400000D01*
X189700000Y-135400000D02*
X189700000Y-135004000D01*
X199164162Y-129016040D02*
G75*
G02X196700000Y-130940000I-2464162J616040D01*
G01*
X203050000Y-132845000D02*
G75*
G02X200510000Y-135385000I-2540000J0D01*
G01*
X203050000Y-132845000D02*
X203050000Y-132464000D01*
X203050000Y-129416000D02*
X203050000Y-129035000D01*
X203050000Y-129035000D02*
X202669000Y-129035000D01*
X203050000Y-129035000D02*
X199240000Y-129035000D01*
X196700000Y-130940000D02*
X194414000Y-130940000D01*
X191620000Y-131575000D02*
X191620000Y-131956000D01*
X191620000Y-135004000D02*
X191620000Y-135385000D01*
X191620000Y-135385000D02*
X200510000Y-135385000D01*
X113900000Y-58000000D02*
X114800000Y-57300000D01*
X114800000Y-57300000D02*
X114800000Y-58700000D01*
X114800000Y-58700000D02*
X113900000Y-58000000D01*
X113900000Y-57300000D02*
X113900000Y-58700000D01*
X134800000Y-55000000D02*
X134800000Y-56400000D01*
X135700000Y-56400000D02*
X134800000Y-55700000D01*
X135700000Y-55000000D02*
X135700000Y-56400000D01*
X134800000Y-55700000D02*
X135700000Y-55000000D01*
X152000000Y-53500000D02*
X152000000Y-54900000D01*
X152900000Y-54900000D02*
X152000000Y-54200000D01*
X152900000Y-53500000D02*
X152900000Y-54900000D01*
X152000000Y-54200000D02*
X152900000Y-53500000D01*
X171000000Y-55600000D02*
X171900000Y-54900000D01*
X171900000Y-54900000D02*
X171900000Y-56300000D01*
X171900000Y-56300000D02*
X171000000Y-55600000D01*
X171000000Y-54900000D02*
X171000000Y-56300000D01*
X190100000Y-59700000D02*
X190100000Y-61100000D01*
X191000000Y-61100000D02*
X190100000Y-60400000D01*
X191000000Y-59700000D02*
X191000000Y-61100000D01*
X190100000Y-60400000D02*
X191000000Y-59700000D01*
X221300000Y-61800000D02*
X222200000Y-61100000D01*
X222200000Y-61100000D02*
X222200000Y-62500000D01*
X222200000Y-62500000D02*
X221300000Y-61800000D01*
X221300000Y-61100000D02*
X221300000Y-62500000D01*
X113900000Y-60400000D02*
X113900000Y-61800000D01*
X114800000Y-61800000D02*
X113900000Y-61100000D01*
X114800000Y-60400000D02*
X114800000Y-61800000D01*
X113900000Y-61100000D02*
X114800000Y-60400000D01*
X134800000Y-58000000D02*
X134800000Y-59400000D01*
X135700000Y-59400000D02*
X134800000Y-58700000D01*
X135700000Y-58000000D02*
X135700000Y-59400000D01*
X134800000Y-58700000D02*
X135700000Y-58000000D01*
X152100000Y-56700000D02*
X152100000Y-58100000D01*
X153000000Y-58100000D02*
X152100000Y-57400000D01*
X153000000Y-56700000D02*
X153000000Y-58100000D01*
X152100000Y-57400000D02*
X153000000Y-56700000D01*
X171000000Y-58700000D02*
X171900000Y-58000000D01*
X171900000Y-58000000D02*
X171900000Y-59400000D01*
X171900000Y-59400000D02*
X171000000Y-58700000D01*
X171000000Y-58000000D02*
X171000000Y-59400000D01*
X190100000Y-62600000D02*
X190100000Y-64000000D01*
X191000000Y-64000000D02*
X190100000Y-63300000D01*
X191000000Y-62600000D02*
X191000000Y-64000000D01*
X190100000Y-63300000D02*
X191000000Y-62600000D01*
X221300000Y-64900000D02*
X222200000Y-64200000D01*
X222200000Y-64200000D02*
X222200000Y-65600000D01*
X222200000Y-65600000D02*
X221300000Y-64900000D01*
X221300000Y-64200000D02*
X221300000Y-65600000D01*
X113900000Y-96000000D02*
X114800000Y-95300000D01*
X114800000Y-95300000D02*
X114800000Y-96700000D01*
X114800000Y-96700000D02*
X113900000Y-96000000D01*
X113900000Y-95300000D02*
X113900000Y-96700000D01*
X134800000Y-93100000D02*
X134800000Y-94500000D01*
X135700000Y-94500000D02*
X134800000Y-93800000D01*
X135700000Y-93100000D02*
X135700000Y-94500000D01*
X134800000Y-93800000D02*
X135700000Y-93100000D01*
X152000000Y-92300000D02*
X152900000Y-91600000D01*
X152900000Y-91600000D02*
X152900000Y-93000000D01*
X152900000Y-93000000D02*
X152000000Y-92300000D01*
X152000000Y-91600000D02*
X152000000Y-93000000D01*
X171000000Y-92900000D02*
X171000000Y-94300000D01*
X171900000Y-94300000D02*
X171000000Y-93600000D01*
X171900000Y-92900000D02*
X171900000Y-94300000D01*
X171000000Y-93600000D02*
X171900000Y-92900000D01*
X190100000Y-98300000D02*
X191000000Y-97600000D01*
X191000000Y-97600000D02*
X191000000Y-99000000D01*
X191000000Y-99000000D02*
X190100000Y-98300000D01*
X190100000Y-97600000D02*
X190100000Y-99000000D01*
X221300000Y-99200000D02*
X221300000Y-100600000D01*
X222200000Y-100600000D02*
X221300000Y-99900000D01*
X222200000Y-99200000D02*
X222200000Y-100600000D01*
X221300000Y-99900000D02*
X222200000Y-99200000D01*
X113900000Y-98400000D02*
X113900000Y-99800000D01*
X114800000Y-99800000D02*
X113900000Y-99100000D01*
X114800000Y-98400000D02*
X114800000Y-99800000D01*
X113900000Y-99100000D02*
X114800000Y-98400000D01*
X134800000Y-96800000D02*
X135700000Y-96100000D01*
X135700000Y-96100000D02*
X135700000Y-97500000D01*
X135700000Y-97500000D02*
X134800000Y-96800000D01*
X134800000Y-96100000D02*
X134800000Y-97500000D01*
X152000000Y-94700000D02*
X152000000Y-96100000D01*
X152900000Y-96100000D02*
X152000000Y-95400000D01*
X152900000Y-94700000D02*
X152900000Y-96100000D01*
X152000000Y-95400000D02*
X152900000Y-94700000D01*
X171000000Y-96800000D02*
X171900000Y-96100000D01*
X171900000Y-96100000D02*
X171900000Y-97500000D01*
X171900000Y-97500000D02*
X171000000Y-96800000D01*
X171000000Y-96100000D02*
X171000000Y-97500000D01*
X190100000Y-100800000D02*
X190100000Y-102200000D01*
X191000000Y-102200000D02*
X190100000Y-101500000D01*
X191000000Y-100800000D02*
X191000000Y-102200000D01*
X190100000Y-101500000D02*
X191000000Y-100800000D01*
X221400000Y-103100000D02*
X222300000Y-102400000D01*
X222300000Y-102400000D02*
X222300000Y-103800000D01*
X222300000Y-103800000D02*
X221400000Y-103100000D01*
X221400000Y-102400000D02*
X221400000Y-103800000D01*
X96400000Y-89550000D02*
X97300000Y-88850000D01*
X97300000Y-88850000D02*
X97300000Y-90250000D01*
X97300000Y-90250000D02*
X96400000Y-89550000D01*
X96400000Y-88850000D02*
X96400000Y-90250000D01*
X110156218Y-118516987D02*
X108943782Y-119216987D01*
X109393782Y-119996410D02*
X109550000Y-118866987D01*
X110606218Y-119296410D02*
X109393782Y-119996410D01*
X109550000Y-118866987D02*
X110606218Y-119296410D01*
X132283423Y-116182026D02*
X133048196Y-115336377D01*
X133048196Y-115336377D02*
X133291304Y-116715108D01*
X133291304Y-116715108D02*
X132283423Y-116182026D01*
X132161869Y-115492661D02*
X132404977Y-116871392D01*
X152000000Y-114300000D02*
X152900000Y-113600000D01*
X152900000Y-113600000D02*
X152900000Y-115000000D01*
X152900000Y-115000000D02*
X152000000Y-114300000D01*
X152000000Y-113600000D02*
X152000000Y-115000000D01*
X171000000Y-115200000D02*
X171000000Y-116600000D01*
X171900000Y-116600000D02*
X171000000Y-115900000D01*
X171900000Y-115200000D02*
X171900000Y-116600000D01*
X171000000Y-115900000D02*
X171900000Y-115200000D01*
X202300000Y-120400000D02*
X203200000Y-119700000D01*
X203200000Y-119700000D02*
X203200000Y-121100000D01*
X203200000Y-121100000D02*
X202300000Y-120400000D01*
X202300000Y-119700000D02*
X202300000Y-121100000D01*
X110000000Y-75100000D02*
X110000000Y-76900000D01*
X108200000Y-75100000D02*
X110000000Y-75100000D01*
X108200000Y-76900000D02*
X108200000Y-75100000D01*
X110000000Y-76900000D02*
X108200000Y-76900000D01*
X110000000Y-80200000D02*
X110000000Y-82000000D01*
X108200000Y-80200000D02*
X110000000Y-80200000D01*
X108200000Y-82000000D02*
X108200000Y-80200000D01*
X110000000Y-82000000D02*
X108200000Y-82000000D01*
X110000000Y-77700000D02*
X110000000Y-79500000D01*
X108200000Y-77700000D02*
X110000000Y-77700000D01*
X108200000Y-79500000D02*
X108200000Y-77700000D01*
X110000000Y-79500000D02*
X108200000Y-79500000D01*
X88650000Y-39300000D02*
X88650000Y-37400000D01*
X89150000Y-39300000D02*
X88650000Y-39300000D01*
X83700000Y-37400000D02*
X88650000Y-37400000D01*
X83650000Y-39300000D02*
X83650000Y-37400000D01*
X83150000Y-51300000D02*
X83150000Y-39300000D01*
X89150000Y-51300000D02*
X83150000Y-51300000D01*
X89150000Y-39300000D02*
X89150000Y-51300000D01*
X83150000Y-39300000D02*
X83650000Y-39300000D01*
X95430000Y-73330000D02*
X105590000Y-73330000D01*
X105590000Y-73330000D02*
X105590000Y-75870000D01*
X105590000Y-75870000D02*
X95430000Y-75870000D01*
X95430000Y-75870000D02*
X95430000Y-73330000D01*
X105189000Y-70443000D02*
X105189000Y-68157000D01*
X105189000Y-68157000D02*
X103411000Y-68157000D01*
X103411000Y-68157000D02*
X103411000Y-70443000D01*
X103411000Y-70443000D02*
X105189000Y-70443000D01*
X100811000Y-70443000D02*
X102589000Y-70443000D01*
X100811000Y-68157000D02*
X100811000Y-70443000D01*
X102589000Y-68157000D02*
X100811000Y-68157000D01*
X102589000Y-70443000D02*
X102589000Y-68157000D01*
X100089000Y-70443000D02*
X100089000Y-68157000D01*
X100089000Y-68157000D02*
X98311000Y-68157000D01*
X98311000Y-68157000D02*
X98311000Y-70443000D01*
X98311000Y-70443000D02*
X100089000Y-70443000D01*
X95811000Y-70443000D02*
X97589000Y-70443000D01*
X95811000Y-68157000D02*
X95811000Y-70443000D01*
X97589000Y-68157000D02*
X95811000Y-68157000D01*
X97589000Y-70443000D02*
X97589000Y-68157000D01*
X85700000Y-61700000D02*
X83700000Y-61700000D01*
X83700000Y-61700000D02*
X83700000Y-59700000D01*
X83700000Y-59700000D02*
X85700000Y-59700000D01*
X85700000Y-59700000D02*
X85700000Y-61700000D01*
X87900000Y-59700000D02*
X87900000Y-61700000D01*
X85900000Y-59700000D02*
X87900000Y-59700000D01*
X85900000Y-61700000D02*
X85900000Y-59700000D01*
X87900000Y-61700000D02*
X85900000Y-61700000D01*
X83688035Y-54539272D02*
X85688035Y-54539272D01*
X83688035Y-57539272D02*
X83688035Y-54539272D01*
X85688035Y-57539272D02*
X83688035Y-57539272D01*
X85688035Y-54539272D02*
X85688035Y-57539272D01*
X87938035Y-54539272D02*
X87938035Y-57539272D01*
X87938035Y-57539272D02*
X85938035Y-57539272D01*
X85938035Y-57539272D02*
X85938035Y-54539272D01*
X85938035Y-54539272D02*
X87938035Y-54539272D01*
X90910000Y-70440000D02*
X90910000Y-39960000D01*
X93450000Y-70440000D02*
X90910000Y-70440000D01*
X93450000Y-39960000D02*
X93450000Y-70440000D01*
X90910000Y-39960000D02*
X93450000Y-39960000D01*
X106150000Y-70440000D02*
X106150000Y-39960000D01*
X108690000Y-70440000D02*
X106150000Y-70440000D01*
X108690000Y-39960000D02*
X108690000Y-70440000D01*
X106150000Y-39960000D02*
X108690000Y-39960000D01*
X90910000Y-70440000D02*
X90910000Y-37420000D01*
X108690000Y-37420000D02*
X108690000Y-70440000D01*
X90910000Y-37420000D02*
X108690000Y-37420000D01*
X88000000Y-72500000D02*
X88000000Y-69500000D01*
X88000000Y-69500000D02*
X90000000Y-69500000D01*
X90000000Y-69500000D02*
X90000000Y-72500000D01*
X90000000Y-72500000D02*
X88000000Y-72500000D01*
X218809523Y-134604761D02*
X218666666Y-134652380D01*
X218428571Y-134652380D01*
X218333333Y-134604761D01*
X218285714Y-134557142D01*
X218238095Y-134461904D01*
X218238095Y-134366666D01*
X218285714Y-134271428D01*
X218333333Y-134223809D01*
X218428571Y-134176190D01*
X218619047Y-134128571D01*
X218714285Y-134080952D01*
X218761904Y-134033333D01*
X218809523Y-133938095D01*
X218809523Y-133842857D01*
X218761904Y-133747619D01*
X218714285Y-133700000D01*
X218619047Y-133652380D01*
X218380952Y-133652380D01*
X218238095Y-133700000D01*
X217904761Y-133652380D02*
X217666666Y-134652380D01*
X217476190Y-133938095D01*
X217285714Y-134652380D01*
X217047619Y-133652380D01*
X216761904Y-133652380D02*
X216142857Y-133652380D01*
X216476190Y-134033333D01*
X216333333Y-134033333D01*
X216238095Y-134080952D01*
X216190476Y-134128571D01*
X216142857Y-134223809D01*
X216142857Y-134461904D01*
X216190476Y-134557142D01*
X216238095Y-134604761D01*
X216333333Y-134652380D01*
X216619047Y-134652380D01*
X216714285Y-134604761D01*
X216761904Y-134557142D01*
X215190476Y-134652380D02*
X215761904Y-134652380D01*
X215476190Y-134652380D02*
X215476190Y-133652380D01*
X215571428Y-133795238D01*
X215666666Y-133890476D01*
X215761904Y-133938095D01*
X85361904Y-66538095D02*
X84980952Y-66271428D01*
X85361904Y-66080952D02*
X84561904Y-66080952D01*
X84561904Y-66385714D01*
X84600000Y-66461904D01*
X84638095Y-66500000D01*
X84714285Y-66538095D01*
X84828571Y-66538095D01*
X84904761Y-66500000D01*
X84942857Y-66461904D01*
X84980952Y-66385714D01*
X84980952Y-66080952D01*
X84942857Y-66880952D02*
X84942857Y-67147619D01*
X85361904Y-67261904D02*
X85361904Y-66880952D01*
X84561904Y-66880952D01*
X84561904Y-67261904D01*
X85323809Y-67566666D02*
X85361904Y-67680952D01*
X85361904Y-67871428D01*
X85323809Y-67947619D01*
X85285714Y-67985714D01*
X85209523Y-68023809D01*
X85133333Y-68023809D01*
X85057142Y-67985714D01*
X85019047Y-67947619D01*
X84980952Y-67871428D01*
X84942857Y-67719047D01*
X84904761Y-67642857D01*
X84866666Y-67604761D01*
X84790476Y-67566666D01*
X84714285Y-67566666D01*
X84638095Y-67604761D01*
X84600000Y-67642857D01*
X84561904Y-67719047D01*
X84561904Y-67909523D01*
X84600000Y-68023809D01*
X84942857Y-68366666D02*
X84942857Y-68633333D01*
X85361904Y-68747619D02*
X85361904Y-68366666D01*
X84561904Y-68366666D01*
X84561904Y-68747619D01*
X84561904Y-68976190D02*
X84561904Y-69433333D01*
X85361904Y-69204761D02*
X84561904Y-69204761D01*
X116233333Y-50404761D02*
X116090476Y-50452380D01*
X115852380Y-50452380D01*
X115757142Y-50404761D01*
X115709523Y-50357142D01*
X115661904Y-50261904D01*
X115661904Y-50166666D01*
X115709523Y-50071428D01*
X115757142Y-50023809D01*
X115852380Y-49976190D01*
X116042857Y-49928571D01*
X116138095Y-49880952D01*
X116185714Y-49833333D01*
X116233333Y-49738095D01*
X116233333Y-49642857D01*
X116185714Y-49547619D01*
X116138095Y-49500000D01*
X116042857Y-49452380D01*
X115804761Y-49452380D01*
X115661904Y-49500000D01*
X115328571Y-49452380D02*
X115090476Y-50452380D01*
X114900000Y-49738095D01*
X114709523Y-50452380D01*
X114471428Y-49452380D01*
X113566666Y-50452380D02*
X114138095Y-50452380D01*
X113852380Y-50452380D02*
X113852380Y-49452380D01*
X113947619Y-49595238D01*
X114042857Y-49690476D01*
X114138095Y-49738095D01*
X135233333Y-48004761D02*
X135090476Y-48052380D01*
X134852380Y-48052380D01*
X134757142Y-48004761D01*
X134709523Y-47957142D01*
X134661904Y-47861904D01*
X134661904Y-47766666D01*
X134709523Y-47671428D01*
X134757142Y-47623809D01*
X134852380Y-47576190D01*
X135042857Y-47528571D01*
X135138095Y-47480952D01*
X135185714Y-47433333D01*
X135233333Y-47338095D01*
X135233333Y-47242857D01*
X135185714Y-47147619D01*
X135138095Y-47100000D01*
X135042857Y-47052380D01*
X134804761Y-47052380D01*
X134661904Y-47100000D01*
X134328571Y-47052380D02*
X134090476Y-48052380D01*
X133900000Y-47338095D01*
X133709523Y-48052380D01*
X133471428Y-47052380D01*
X133138095Y-47147619D02*
X133090476Y-47100000D01*
X132995238Y-47052380D01*
X132757142Y-47052380D01*
X132661904Y-47100000D01*
X132614285Y-47147619D01*
X132566666Y-47242857D01*
X132566666Y-47338095D01*
X132614285Y-47480952D01*
X133185714Y-48052380D01*
X132566666Y-48052380D01*
X154333333Y-46614761D02*
X154190476Y-46662380D01*
X153952380Y-46662380D01*
X153857142Y-46614761D01*
X153809523Y-46567142D01*
X153761904Y-46471904D01*
X153761904Y-46376666D01*
X153809523Y-46281428D01*
X153857142Y-46233809D01*
X153952380Y-46186190D01*
X154142857Y-46138571D01*
X154238095Y-46090952D01*
X154285714Y-46043333D01*
X154333333Y-45948095D01*
X154333333Y-45852857D01*
X154285714Y-45757619D01*
X154238095Y-45710000D01*
X154142857Y-45662380D01*
X153904761Y-45662380D01*
X153761904Y-45710000D01*
X153428571Y-45662380D02*
X153190476Y-46662380D01*
X153000000Y-45948095D01*
X152809523Y-46662380D01*
X152571428Y-45662380D01*
X152285714Y-45662380D02*
X151666666Y-45662380D01*
X152000000Y-46043333D01*
X151857142Y-46043333D01*
X151761904Y-46090952D01*
X151714285Y-46138571D01*
X151666666Y-46233809D01*
X151666666Y-46471904D01*
X151714285Y-46567142D01*
X151761904Y-46614761D01*
X151857142Y-46662380D01*
X152142857Y-46662380D01*
X152238095Y-46614761D01*
X152285714Y-46567142D01*
X173333333Y-48004761D02*
X173190476Y-48052380D01*
X172952380Y-48052380D01*
X172857142Y-48004761D01*
X172809523Y-47957142D01*
X172761904Y-47861904D01*
X172761904Y-47766666D01*
X172809523Y-47671428D01*
X172857142Y-47623809D01*
X172952380Y-47576190D01*
X173142857Y-47528571D01*
X173238095Y-47480952D01*
X173285714Y-47433333D01*
X173333333Y-47338095D01*
X173333333Y-47242857D01*
X173285714Y-47147619D01*
X173238095Y-47100000D01*
X173142857Y-47052380D01*
X172904761Y-47052380D01*
X172761904Y-47100000D01*
X172428571Y-47052380D02*
X172190476Y-48052380D01*
X172000000Y-47338095D01*
X171809523Y-48052380D01*
X171571428Y-47052380D01*
X170761904Y-47385714D02*
X170761904Y-48052380D01*
X171000000Y-47004761D02*
X171238095Y-47719047D01*
X170619047Y-47719047D01*
X192433333Y-52804761D02*
X192290476Y-52852380D01*
X192052380Y-52852380D01*
X191957142Y-52804761D01*
X191909523Y-52757142D01*
X191861904Y-52661904D01*
X191861904Y-52566666D01*
X191909523Y-52471428D01*
X191957142Y-52423809D01*
X192052380Y-52376190D01*
X192242857Y-52328571D01*
X192338095Y-52280952D01*
X192385714Y-52233333D01*
X192433333Y-52138095D01*
X192433333Y-52042857D01*
X192385714Y-51947619D01*
X192338095Y-51900000D01*
X192242857Y-51852380D01*
X192004761Y-51852380D01*
X191861904Y-51900000D01*
X191528571Y-51852380D02*
X191290476Y-52852380D01*
X191100000Y-52138095D01*
X190909523Y-52852380D01*
X190671428Y-51852380D01*
X189814285Y-51852380D02*
X190290476Y-51852380D01*
X190338095Y-52328571D01*
X190290476Y-52280952D01*
X190195238Y-52233333D01*
X189957142Y-52233333D01*
X189861904Y-52280952D01*
X189814285Y-52328571D01*
X189766666Y-52423809D01*
X189766666Y-52661904D01*
X189814285Y-52757142D01*
X189861904Y-52804761D01*
X189957142Y-52852380D01*
X190195238Y-52852380D01*
X190290476Y-52804761D01*
X190338095Y-52757142D01*
X211433333Y-54304761D02*
X211290476Y-54352380D01*
X211052380Y-54352380D01*
X210957142Y-54304761D01*
X210909523Y-54257142D01*
X210861904Y-54161904D01*
X210861904Y-54066666D01*
X210909523Y-53971428D01*
X210957142Y-53923809D01*
X211052380Y-53876190D01*
X211242857Y-53828571D01*
X211338095Y-53780952D01*
X211385714Y-53733333D01*
X211433333Y-53638095D01*
X211433333Y-53542857D01*
X211385714Y-53447619D01*
X211338095Y-53400000D01*
X211242857Y-53352380D01*
X211004761Y-53352380D01*
X210861904Y-53400000D01*
X210528571Y-53352380D02*
X210290476Y-54352380D01*
X210100000Y-53638095D01*
X209909523Y-54352380D01*
X209671428Y-53352380D01*
X208861904Y-53352380D02*
X209052380Y-53352380D01*
X209147619Y-53400000D01*
X209195238Y-53447619D01*
X209290476Y-53590476D01*
X209338095Y-53780952D01*
X209338095Y-54161904D01*
X209290476Y-54257142D01*
X209242857Y-54304761D01*
X209147619Y-54352380D01*
X208957142Y-54352380D01*
X208861904Y-54304761D01*
X208814285Y-54257142D01*
X208766666Y-54161904D01*
X208766666Y-53923809D01*
X208814285Y-53828571D01*
X208861904Y-53780952D01*
X208957142Y-53733333D01*
X209147619Y-53733333D01*
X209242857Y-53780952D01*
X209290476Y-53828571D01*
X209338095Y-53923809D01*
X116233333Y-69504761D02*
X116090476Y-69552380D01*
X115852380Y-69552380D01*
X115757142Y-69504761D01*
X115709523Y-69457142D01*
X115661904Y-69361904D01*
X115661904Y-69266666D01*
X115709523Y-69171428D01*
X115757142Y-69123809D01*
X115852380Y-69076190D01*
X116042857Y-69028571D01*
X116138095Y-68980952D01*
X116185714Y-68933333D01*
X116233333Y-68838095D01*
X116233333Y-68742857D01*
X116185714Y-68647619D01*
X116138095Y-68600000D01*
X116042857Y-68552380D01*
X115804761Y-68552380D01*
X115661904Y-68600000D01*
X115328571Y-68552380D02*
X115090476Y-69552380D01*
X114900000Y-68838095D01*
X114709523Y-69552380D01*
X114471428Y-68552380D01*
X114185714Y-68552380D02*
X113519047Y-68552380D01*
X113947619Y-69552380D01*
X135233333Y-67104761D02*
X135090476Y-67152380D01*
X134852380Y-67152380D01*
X134757142Y-67104761D01*
X134709523Y-67057142D01*
X134661904Y-66961904D01*
X134661904Y-66866666D01*
X134709523Y-66771428D01*
X134757142Y-66723809D01*
X134852380Y-66676190D01*
X135042857Y-66628571D01*
X135138095Y-66580952D01*
X135185714Y-66533333D01*
X135233333Y-66438095D01*
X135233333Y-66342857D01*
X135185714Y-66247619D01*
X135138095Y-66200000D01*
X135042857Y-66152380D01*
X134804761Y-66152380D01*
X134661904Y-66200000D01*
X134328571Y-66152380D02*
X134090476Y-67152380D01*
X133900000Y-66438095D01*
X133709523Y-67152380D01*
X133471428Y-66152380D01*
X132947619Y-66580952D02*
X133042857Y-66533333D01*
X133090476Y-66485714D01*
X133138095Y-66390476D01*
X133138095Y-66342857D01*
X133090476Y-66247619D01*
X133042857Y-66200000D01*
X132947619Y-66152380D01*
X132757142Y-66152380D01*
X132661904Y-66200000D01*
X132614285Y-66247619D01*
X132566666Y-66342857D01*
X132566666Y-66390476D01*
X132614285Y-66485714D01*
X132661904Y-66533333D01*
X132757142Y-66580952D01*
X132947619Y-66580952D01*
X133042857Y-66628571D01*
X133090476Y-66676190D01*
X133138095Y-66771428D01*
X133138095Y-66961904D01*
X133090476Y-67057142D01*
X133042857Y-67104761D01*
X132947619Y-67152380D01*
X132757142Y-67152380D01*
X132661904Y-67104761D01*
X132614285Y-67057142D01*
X132566666Y-66961904D01*
X132566666Y-66771428D01*
X132614285Y-66676190D01*
X132661904Y-66628571D01*
X132757142Y-66580952D01*
X154333333Y-65704761D02*
X154190476Y-65752380D01*
X153952380Y-65752380D01*
X153857142Y-65704761D01*
X153809523Y-65657142D01*
X153761904Y-65561904D01*
X153761904Y-65466666D01*
X153809523Y-65371428D01*
X153857142Y-65323809D01*
X153952380Y-65276190D01*
X154142857Y-65228571D01*
X154238095Y-65180952D01*
X154285714Y-65133333D01*
X154333333Y-65038095D01*
X154333333Y-64942857D01*
X154285714Y-64847619D01*
X154238095Y-64800000D01*
X154142857Y-64752380D01*
X153904761Y-64752380D01*
X153761904Y-64800000D01*
X153428571Y-64752380D02*
X153190476Y-65752380D01*
X153000000Y-65038095D01*
X152809523Y-65752380D01*
X152571428Y-64752380D01*
X152142857Y-65752380D02*
X151952380Y-65752380D01*
X151857142Y-65704761D01*
X151809523Y-65657142D01*
X151714285Y-65514285D01*
X151666666Y-65323809D01*
X151666666Y-64942857D01*
X151714285Y-64847619D01*
X151761904Y-64800000D01*
X151857142Y-64752380D01*
X152047619Y-64752380D01*
X152142857Y-64800000D01*
X152190476Y-64847619D01*
X152238095Y-64942857D01*
X152238095Y-65180952D01*
X152190476Y-65276190D01*
X152142857Y-65323809D01*
X152047619Y-65371428D01*
X151857142Y-65371428D01*
X151761904Y-65323809D01*
X151714285Y-65276190D01*
X151666666Y-65180952D01*
X173809523Y-67004761D02*
X173666666Y-67052380D01*
X173428571Y-67052380D01*
X173333333Y-67004761D01*
X173285714Y-66957142D01*
X173238095Y-66861904D01*
X173238095Y-66766666D01*
X173285714Y-66671428D01*
X173333333Y-66623809D01*
X173428571Y-66576190D01*
X173619047Y-66528571D01*
X173714285Y-66480952D01*
X173761904Y-66433333D01*
X173809523Y-66338095D01*
X173809523Y-66242857D01*
X173761904Y-66147619D01*
X173714285Y-66100000D01*
X173619047Y-66052380D01*
X173380952Y-66052380D01*
X173238095Y-66100000D01*
X172904761Y-66052380D02*
X172666666Y-67052380D01*
X172476190Y-66338095D01*
X172285714Y-67052380D01*
X172047619Y-66052380D01*
X171142857Y-67052380D02*
X171714285Y-67052380D01*
X171428571Y-67052380D02*
X171428571Y-66052380D01*
X171523809Y-66195238D01*
X171619047Y-66290476D01*
X171714285Y-66338095D01*
X170523809Y-66052380D02*
X170428571Y-66052380D01*
X170333333Y-66100000D01*
X170285714Y-66147619D01*
X170238095Y-66242857D01*
X170190476Y-66433333D01*
X170190476Y-66671428D01*
X170238095Y-66861904D01*
X170285714Y-66957142D01*
X170333333Y-67004761D01*
X170428571Y-67052380D01*
X170523809Y-67052380D01*
X170619047Y-67004761D01*
X170666666Y-66957142D01*
X170714285Y-66861904D01*
X170761904Y-66671428D01*
X170761904Y-66433333D01*
X170714285Y-66242857D01*
X170666666Y-66147619D01*
X170619047Y-66100000D01*
X170523809Y-66052380D01*
X192909523Y-71704761D02*
X192766666Y-71752380D01*
X192528571Y-71752380D01*
X192433333Y-71704761D01*
X192385714Y-71657142D01*
X192338095Y-71561904D01*
X192338095Y-71466666D01*
X192385714Y-71371428D01*
X192433333Y-71323809D01*
X192528571Y-71276190D01*
X192719047Y-71228571D01*
X192814285Y-71180952D01*
X192861904Y-71133333D01*
X192909523Y-71038095D01*
X192909523Y-70942857D01*
X192861904Y-70847619D01*
X192814285Y-70800000D01*
X192719047Y-70752380D01*
X192480952Y-70752380D01*
X192338095Y-70800000D01*
X192004761Y-70752380D02*
X191766666Y-71752380D01*
X191576190Y-71038095D01*
X191385714Y-71752380D01*
X191147619Y-70752380D01*
X190242857Y-71752380D02*
X190814285Y-71752380D01*
X190528571Y-71752380D02*
X190528571Y-70752380D01*
X190623809Y-70895238D01*
X190719047Y-70990476D01*
X190814285Y-71038095D01*
X189290476Y-71752380D02*
X189861904Y-71752380D01*
X189576190Y-71752380D02*
X189576190Y-70752380D01*
X189671428Y-70895238D01*
X189766666Y-70990476D01*
X189861904Y-71038095D01*
X211909523Y-73204761D02*
X211766666Y-73252380D01*
X211528571Y-73252380D01*
X211433333Y-73204761D01*
X211385714Y-73157142D01*
X211338095Y-73061904D01*
X211338095Y-72966666D01*
X211385714Y-72871428D01*
X211433333Y-72823809D01*
X211528571Y-72776190D01*
X211719047Y-72728571D01*
X211814285Y-72680952D01*
X211861904Y-72633333D01*
X211909523Y-72538095D01*
X211909523Y-72442857D01*
X211861904Y-72347619D01*
X211814285Y-72300000D01*
X211719047Y-72252380D01*
X211480952Y-72252380D01*
X211338095Y-72300000D01*
X211004761Y-72252380D02*
X210766666Y-73252380D01*
X210576190Y-72538095D01*
X210385714Y-73252380D01*
X210147619Y-72252380D01*
X209242857Y-73252380D02*
X209814285Y-73252380D01*
X209528571Y-73252380D02*
X209528571Y-72252380D01*
X209623809Y-72395238D01*
X209719047Y-72490476D01*
X209814285Y-72538095D01*
X208861904Y-72347619D02*
X208814285Y-72300000D01*
X208719047Y-72252380D01*
X208480952Y-72252380D01*
X208385714Y-72300000D01*
X208338095Y-72347619D01*
X208290476Y-72442857D01*
X208290476Y-72538095D01*
X208338095Y-72680952D01*
X208909523Y-73252380D01*
X208290476Y-73252380D01*
X116709523Y-88504761D02*
X116566666Y-88552380D01*
X116328571Y-88552380D01*
X116233333Y-88504761D01*
X116185714Y-88457142D01*
X116138095Y-88361904D01*
X116138095Y-88266666D01*
X116185714Y-88171428D01*
X116233333Y-88123809D01*
X116328571Y-88076190D01*
X116519047Y-88028571D01*
X116614285Y-87980952D01*
X116661904Y-87933333D01*
X116709523Y-87838095D01*
X116709523Y-87742857D01*
X116661904Y-87647619D01*
X116614285Y-87600000D01*
X116519047Y-87552380D01*
X116280952Y-87552380D01*
X116138095Y-87600000D01*
X115804761Y-87552380D02*
X115566666Y-88552380D01*
X115376190Y-87838095D01*
X115185714Y-88552380D01*
X114947619Y-87552380D01*
X114042857Y-88552380D02*
X114614285Y-88552380D01*
X114328571Y-88552380D02*
X114328571Y-87552380D01*
X114423809Y-87695238D01*
X114519047Y-87790476D01*
X114614285Y-87838095D01*
X113709523Y-87552380D02*
X113090476Y-87552380D01*
X113423809Y-87933333D01*
X113280952Y-87933333D01*
X113185714Y-87980952D01*
X113138095Y-88028571D01*
X113090476Y-88123809D01*
X113090476Y-88361904D01*
X113138095Y-88457142D01*
X113185714Y-88504761D01*
X113280952Y-88552380D01*
X113566666Y-88552380D01*
X113661904Y-88504761D01*
X113709523Y-88457142D01*
X135709523Y-86104761D02*
X135566666Y-86152380D01*
X135328571Y-86152380D01*
X135233333Y-86104761D01*
X135185714Y-86057142D01*
X135138095Y-85961904D01*
X135138095Y-85866666D01*
X135185714Y-85771428D01*
X135233333Y-85723809D01*
X135328571Y-85676190D01*
X135519047Y-85628571D01*
X135614285Y-85580952D01*
X135661904Y-85533333D01*
X135709523Y-85438095D01*
X135709523Y-85342857D01*
X135661904Y-85247619D01*
X135614285Y-85200000D01*
X135519047Y-85152380D01*
X135280952Y-85152380D01*
X135138095Y-85200000D01*
X134804761Y-85152380D02*
X134566666Y-86152380D01*
X134376190Y-85438095D01*
X134185714Y-86152380D01*
X133947619Y-85152380D01*
X133042857Y-86152380D02*
X133614285Y-86152380D01*
X133328571Y-86152380D02*
X133328571Y-85152380D01*
X133423809Y-85295238D01*
X133519047Y-85390476D01*
X133614285Y-85438095D01*
X132185714Y-85485714D02*
X132185714Y-86152380D01*
X132423809Y-85104761D02*
X132661904Y-85819047D01*
X132042857Y-85819047D01*
X154809523Y-84804761D02*
X154666666Y-84852380D01*
X154428571Y-84852380D01*
X154333333Y-84804761D01*
X154285714Y-84757142D01*
X154238095Y-84661904D01*
X154238095Y-84566666D01*
X154285714Y-84471428D01*
X154333333Y-84423809D01*
X154428571Y-84376190D01*
X154619047Y-84328571D01*
X154714285Y-84280952D01*
X154761904Y-84233333D01*
X154809523Y-84138095D01*
X154809523Y-84042857D01*
X154761904Y-83947619D01*
X154714285Y-83900000D01*
X154619047Y-83852380D01*
X154380952Y-83852380D01*
X154238095Y-83900000D01*
X153904761Y-83852380D02*
X153666666Y-84852380D01*
X153476190Y-84138095D01*
X153285714Y-84852380D01*
X153047619Y-83852380D01*
X152142857Y-84852380D02*
X152714285Y-84852380D01*
X152428571Y-84852380D02*
X152428571Y-83852380D01*
X152523809Y-83995238D01*
X152619047Y-84090476D01*
X152714285Y-84138095D01*
X151238095Y-83852380D02*
X151714285Y-83852380D01*
X151761904Y-84328571D01*
X151714285Y-84280952D01*
X151619047Y-84233333D01*
X151380952Y-84233333D01*
X151285714Y-84280952D01*
X151238095Y-84328571D01*
X151190476Y-84423809D01*
X151190476Y-84661904D01*
X151238095Y-84757142D01*
X151285714Y-84804761D01*
X151380952Y-84852380D01*
X151619047Y-84852380D01*
X151714285Y-84804761D01*
X151761904Y-84757142D01*
X173809523Y-86104761D02*
X173666666Y-86152380D01*
X173428571Y-86152380D01*
X173333333Y-86104761D01*
X173285714Y-86057142D01*
X173238095Y-85961904D01*
X173238095Y-85866666D01*
X173285714Y-85771428D01*
X173333333Y-85723809D01*
X173428571Y-85676190D01*
X173619047Y-85628571D01*
X173714285Y-85580952D01*
X173761904Y-85533333D01*
X173809523Y-85438095D01*
X173809523Y-85342857D01*
X173761904Y-85247619D01*
X173714285Y-85200000D01*
X173619047Y-85152380D01*
X173380952Y-85152380D01*
X173238095Y-85200000D01*
X172904761Y-85152380D02*
X172666666Y-86152380D01*
X172476190Y-85438095D01*
X172285714Y-86152380D01*
X172047619Y-85152380D01*
X171142857Y-86152380D02*
X171714285Y-86152380D01*
X171428571Y-86152380D02*
X171428571Y-85152380D01*
X171523809Y-85295238D01*
X171619047Y-85390476D01*
X171714285Y-85438095D01*
X170285714Y-85152380D02*
X170476190Y-85152380D01*
X170571428Y-85200000D01*
X170619047Y-85247619D01*
X170714285Y-85390476D01*
X170761904Y-85580952D01*
X170761904Y-85961904D01*
X170714285Y-86057142D01*
X170666666Y-86104761D01*
X170571428Y-86152380D01*
X170380952Y-86152380D01*
X170285714Y-86104761D01*
X170238095Y-86057142D01*
X170190476Y-85961904D01*
X170190476Y-85723809D01*
X170238095Y-85628571D01*
X170285714Y-85580952D01*
X170380952Y-85533333D01*
X170571428Y-85533333D01*
X170666666Y-85580952D01*
X170714285Y-85628571D01*
X170761904Y-85723809D01*
X192909523Y-90904761D02*
X192766666Y-90952380D01*
X192528571Y-90952380D01*
X192433333Y-90904761D01*
X192385714Y-90857142D01*
X192338095Y-90761904D01*
X192338095Y-90666666D01*
X192385714Y-90571428D01*
X192433333Y-90523809D01*
X192528571Y-90476190D01*
X192719047Y-90428571D01*
X192814285Y-90380952D01*
X192861904Y-90333333D01*
X192909523Y-90238095D01*
X192909523Y-90142857D01*
X192861904Y-90047619D01*
X192814285Y-90000000D01*
X192719047Y-89952380D01*
X192480952Y-89952380D01*
X192338095Y-90000000D01*
X192004761Y-89952380D02*
X191766666Y-90952380D01*
X191576190Y-90238095D01*
X191385714Y-90952380D01*
X191147619Y-89952380D01*
X190242857Y-90952380D02*
X190814285Y-90952380D01*
X190528571Y-90952380D02*
X190528571Y-89952380D01*
X190623809Y-90095238D01*
X190719047Y-90190476D01*
X190814285Y-90238095D01*
X189909523Y-89952380D02*
X189242857Y-89952380D01*
X189671428Y-90952380D01*
X211909523Y-92404761D02*
X211766666Y-92452380D01*
X211528571Y-92452380D01*
X211433333Y-92404761D01*
X211385714Y-92357142D01*
X211338095Y-92261904D01*
X211338095Y-92166666D01*
X211385714Y-92071428D01*
X211433333Y-92023809D01*
X211528571Y-91976190D01*
X211719047Y-91928571D01*
X211814285Y-91880952D01*
X211861904Y-91833333D01*
X211909523Y-91738095D01*
X211909523Y-91642857D01*
X211861904Y-91547619D01*
X211814285Y-91500000D01*
X211719047Y-91452380D01*
X211480952Y-91452380D01*
X211338095Y-91500000D01*
X211004761Y-91452380D02*
X210766666Y-92452380D01*
X210576190Y-91738095D01*
X210385714Y-92452380D01*
X210147619Y-91452380D01*
X209242857Y-92452380D02*
X209814285Y-92452380D01*
X209528571Y-92452380D02*
X209528571Y-91452380D01*
X209623809Y-91595238D01*
X209719047Y-91690476D01*
X209814285Y-91738095D01*
X208671428Y-91880952D02*
X208766666Y-91833333D01*
X208814285Y-91785714D01*
X208861904Y-91690476D01*
X208861904Y-91642857D01*
X208814285Y-91547619D01*
X208766666Y-91500000D01*
X208671428Y-91452380D01*
X208480952Y-91452380D01*
X208385714Y-91500000D01*
X208338095Y-91547619D01*
X208290476Y-91642857D01*
X208290476Y-91690476D01*
X208338095Y-91785714D01*
X208385714Y-91833333D01*
X208480952Y-91880952D01*
X208671428Y-91880952D01*
X208766666Y-91928571D01*
X208814285Y-91976190D01*
X208861904Y-92071428D01*
X208861904Y-92261904D01*
X208814285Y-92357142D01*
X208766666Y-92404761D01*
X208671428Y-92452380D01*
X208480952Y-92452380D01*
X208385714Y-92404761D01*
X208338095Y-92357142D01*
X208290476Y-92261904D01*
X208290476Y-92071428D01*
X208338095Y-91976190D01*
X208385714Y-91928571D01*
X208480952Y-91880952D01*
X116709523Y-107504761D02*
X116566666Y-107552380D01*
X116328571Y-107552380D01*
X116233333Y-107504761D01*
X116185714Y-107457142D01*
X116138095Y-107361904D01*
X116138095Y-107266666D01*
X116185714Y-107171428D01*
X116233333Y-107123809D01*
X116328571Y-107076190D01*
X116519047Y-107028571D01*
X116614285Y-106980952D01*
X116661904Y-106933333D01*
X116709523Y-106838095D01*
X116709523Y-106742857D01*
X116661904Y-106647619D01*
X116614285Y-106600000D01*
X116519047Y-106552380D01*
X116280952Y-106552380D01*
X116138095Y-106600000D01*
X115804761Y-106552380D02*
X115566666Y-107552380D01*
X115376190Y-106838095D01*
X115185714Y-107552380D01*
X114947619Y-106552380D01*
X114042857Y-107552380D02*
X114614285Y-107552380D01*
X114328571Y-107552380D02*
X114328571Y-106552380D01*
X114423809Y-106695238D01*
X114519047Y-106790476D01*
X114614285Y-106838095D01*
X113566666Y-107552380D02*
X113376190Y-107552380D01*
X113280952Y-107504761D01*
X113233333Y-107457142D01*
X113138095Y-107314285D01*
X113090476Y-107123809D01*
X113090476Y-106742857D01*
X113138095Y-106647619D01*
X113185714Y-106600000D01*
X113280952Y-106552380D01*
X113471428Y-106552380D01*
X113566666Y-106600000D01*
X113614285Y-106647619D01*
X113661904Y-106742857D01*
X113661904Y-106980952D01*
X113614285Y-107076190D01*
X113566666Y-107123809D01*
X113471428Y-107171428D01*
X113280952Y-107171428D01*
X113185714Y-107123809D01*
X113138095Y-107076190D01*
X113090476Y-106980952D01*
X135709523Y-105204761D02*
X135566666Y-105252380D01*
X135328571Y-105252380D01*
X135233333Y-105204761D01*
X135185714Y-105157142D01*
X135138095Y-105061904D01*
X135138095Y-104966666D01*
X135185714Y-104871428D01*
X135233333Y-104823809D01*
X135328571Y-104776190D01*
X135519047Y-104728571D01*
X135614285Y-104680952D01*
X135661904Y-104633333D01*
X135709523Y-104538095D01*
X135709523Y-104442857D01*
X135661904Y-104347619D01*
X135614285Y-104300000D01*
X135519047Y-104252380D01*
X135280952Y-104252380D01*
X135138095Y-104300000D01*
X134804761Y-104252380D02*
X134566666Y-105252380D01*
X134376190Y-104538095D01*
X134185714Y-105252380D01*
X133947619Y-104252380D01*
X133614285Y-104347619D02*
X133566666Y-104300000D01*
X133471428Y-104252380D01*
X133233333Y-104252380D01*
X133138095Y-104300000D01*
X133090476Y-104347619D01*
X133042857Y-104442857D01*
X133042857Y-104538095D01*
X133090476Y-104680952D01*
X133661904Y-105252380D01*
X133042857Y-105252380D01*
X132423809Y-104252380D02*
X132328571Y-104252380D01*
X132233333Y-104300000D01*
X132185714Y-104347619D01*
X132138095Y-104442857D01*
X132090476Y-104633333D01*
X132090476Y-104871428D01*
X132138095Y-105061904D01*
X132185714Y-105157142D01*
X132233333Y-105204761D01*
X132328571Y-105252380D01*
X132423809Y-105252380D01*
X132519047Y-105204761D01*
X132566666Y-105157142D01*
X132614285Y-105061904D01*
X132661904Y-104871428D01*
X132661904Y-104633333D01*
X132614285Y-104442857D01*
X132566666Y-104347619D01*
X132519047Y-104300000D01*
X132423809Y-104252380D01*
X154809523Y-103804761D02*
X154666666Y-103852380D01*
X154428571Y-103852380D01*
X154333333Y-103804761D01*
X154285714Y-103757142D01*
X154238095Y-103661904D01*
X154238095Y-103566666D01*
X154285714Y-103471428D01*
X154333333Y-103423809D01*
X154428571Y-103376190D01*
X154619047Y-103328571D01*
X154714285Y-103280952D01*
X154761904Y-103233333D01*
X154809523Y-103138095D01*
X154809523Y-103042857D01*
X154761904Y-102947619D01*
X154714285Y-102900000D01*
X154619047Y-102852380D01*
X154380952Y-102852380D01*
X154238095Y-102900000D01*
X153904761Y-102852380D02*
X153666666Y-103852380D01*
X153476190Y-103138095D01*
X153285714Y-103852380D01*
X153047619Y-102852380D01*
X152714285Y-102947619D02*
X152666666Y-102900000D01*
X152571428Y-102852380D01*
X152333333Y-102852380D01*
X152238095Y-102900000D01*
X152190476Y-102947619D01*
X152142857Y-103042857D01*
X152142857Y-103138095D01*
X152190476Y-103280952D01*
X152761904Y-103852380D01*
X152142857Y-103852380D01*
X151190476Y-103852380D02*
X151761904Y-103852380D01*
X151476190Y-103852380D02*
X151476190Y-102852380D01*
X151571428Y-102995238D01*
X151666666Y-103090476D01*
X151761904Y-103138095D01*
X173809523Y-105204761D02*
X173666666Y-105252380D01*
X173428571Y-105252380D01*
X173333333Y-105204761D01*
X173285714Y-105157142D01*
X173238095Y-105061904D01*
X173238095Y-104966666D01*
X173285714Y-104871428D01*
X173333333Y-104823809D01*
X173428571Y-104776190D01*
X173619047Y-104728571D01*
X173714285Y-104680952D01*
X173761904Y-104633333D01*
X173809523Y-104538095D01*
X173809523Y-104442857D01*
X173761904Y-104347619D01*
X173714285Y-104300000D01*
X173619047Y-104252380D01*
X173380952Y-104252380D01*
X173238095Y-104300000D01*
X172904761Y-104252380D02*
X172666666Y-105252380D01*
X172476190Y-104538095D01*
X172285714Y-105252380D01*
X172047619Y-104252380D01*
X171714285Y-104347619D02*
X171666666Y-104300000D01*
X171571428Y-104252380D01*
X171333333Y-104252380D01*
X171238095Y-104300000D01*
X171190476Y-104347619D01*
X171142857Y-104442857D01*
X171142857Y-104538095D01*
X171190476Y-104680952D01*
X171761904Y-105252380D01*
X171142857Y-105252380D01*
X170761904Y-104347619D02*
X170714285Y-104300000D01*
X170619047Y-104252380D01*
X170380952Y-104252380D01*
X170285714Y-104300000D01*
X170238095Y-104347619D01*
X170190476Y-104442857D01*
X170190476Y-104538095D01*
X170238095Y-104680952D01*
X170809523Y-105252380D01*
X170190476Y-105252380D01*
X192909523Y-109904761D02*
X192766666Y-109952380D01*
X192528571Y-109952380D01*
X192433333Y-109904761D01*
X192385714Y-109857142D01*
X192338095Y-109761904D01*
X192338095Y-109666666D01*
X192385714Y-109571428D01*
X192433333Y-109523809D01*
X192528571Y-109476190D01*
X192719047Y-109428571D01*
X192814285Y-109380952D01*
X192861904Y-109333333D01*
X192909523Y-109238095D01*
X192909523Y-109142857D01*
X192861904Y-109047619D01*
X192814285Y-109000000D01*
X192719047Y-108952380D01*
X192480952Y-108952380D01*
X192338095Y-109000000D01*
X192004761Y-108952380D02*
X191766666Y-109952380D01*
X191576190Y-109238095D01*
X191385714Y-109952380D01*
X191147619Y-108952380D01*
X190814285Y-109047619D02*
X190766666Y-109000000D01*
X190671428Y-108952380D01*
X190433333Y-108952380D01*
X190338095Y-109000000D01*
X190290476Y-109047619D01*
X190242857Y-109142857D01*
X190242857Y-109238095D01*
X190290476Y-109380952D01*
X190861904Y-109952380D01*
X190242857Y-109952380D01*
X189909523Y-108952380D02*
X189290476Y-108952380D01*
X189623809Y-109333333D01*
X189480952Y-109333333D01*
X189385714Y-109380952D01*
X189338095Y-109428571D01*
X189290476Y-109523809D01*
X189290476Y-109761904D01*
X189338095Y-109857142D01*
X189385714Y-109904761D01*
X189480952Y-109952380D01*
X189766666Y-109952380D01*
X189861904Y-109904761D01*
X189909523Y-109857142D01*
X211959523Y-111404761D02*
X211816666Y-111452380D01*
X211578571Y-111452380D01*
X211483333Y-111404761D01*
X211435714Y-111357142D01*
X211388095Y-111261904D01*
X211388095Y-111166666D01*
X211435714Y-111071428D01*
X211483333Y-111023809D01*
X211578571Y-110976190D01*
X211769047Y-110928571D01*
X211864285Y-110880952D01*
X211911904Y-110833333D01*
X211959523Y-110738095D01*
X211959523Y-110642857D01*
X211911904Y-110547619D01*
X211864285Y-110500000D01*
X211769047Y-110452380D01*
X211530952Y-110452380D01*
X211388095Y-110500000D01*
X211054761Y-110452380D02*
X210816666Y-111452380D01*
X210626190Y-110738095D01*
X210435714Y-111452380D01*
X210197619Y-110452380D01*
X209864285Y-110547619D02*
X209816666Y-110500000D01*
X209721428Y-110452380D01*
X209483333Y-110452380D01*
X209388095Y-110500000D01*
X209340476Y-110547619D01*
X209292857Y-110642857D01*
X209292857Y-110738095D01*
X209340476Y-110880952D01*
X209911904Y-111452380D01*
X209292857Y-111452380D01*
X208435714Y-110785714D02*
X208435714Y-111452380D01*
X208673809Y-110404761D02*
X208911904Y-111119047D01*
X208292857Y-111119047D01*
X97609523Y-97904761D02*
X97466666Y-97952380D01*
X97228571Y-97952380D01*
X97133333Y-97904761D01*
X97085714Y-97857142D01*
X97038095Y-97761904D01*
X97038095Y-97666666D01*
X97085714Y-97571428D01*
X97133333Y-97523809D01*
X97228571Y-97476190D01*
X97419047Y-97428571D01*
X97514285Y-97380952D01*
X97561904Y-97333333D01*
X97609523Y-97238095D01*
X97609523Y-97142857D01*
X97561904Y-97047619D01*
X97514285Y-97000000D01*
X97419047Y-96952380D01*
X97180952Y-96952380D01*
X97038095Y-97000000D01*
X96704761Y-96952380D02*
X96466666Y-97952380D01*
X96276190Y-97238095D01*
X96085714Y-97952380D01*
X95847619Y-96952380D01*
X95514285Y-97047619D02*
X95466666Y-97000000D01*
X95371428Y-96952380D01*
X95133333Y-96952380D01*
X95038095Y-97000000D01*
X94990476Y-97047619D01*
X94942857Y-97142857D01*
X94942857Y-97238095D01*
X94990476Y-97380952D01*
X95561904Y-97952380D01*
X94942857Y-97952380D01*
X94038095Y-96952380D02*
X94514285Y-96952380D01*
X94561904Y-97428571D01*
X94514285Y-97380952D01*
X94419047Y-97333333D01*
X94180952Y-97333333D01*
X94085714Y-97380952D01*
X94038095Y-97428571D01*
X93990476Y-97523809D01*
X93990476Y-97761904D01*
X94038095Y-97857142D01*
X94085714Y-97904761D01*
X94180952Y-97952380D01*
X94419047Y-97952380D01*
X94514285Y-97904761D01*
X94561904Y-97857142D01*
X102754227Y-123919732D02*
X102641559Y-123819824D01*
X102522512Y-123613627D01*
X102516132Y-123507339D01*
X102533562Y-123442290D01*
X102592231Y-123353432D01*
X102674710Y-123305813D01*
X102780998Y-123299433D01*
X102846047Y-123316863D01*
X102934905Y-123375532D01*
X103071382Y-123516680D01*
X103160241Y-123575349D01*
X103225289Y-123592778D01*
X103331578Y-123586399D01*
X103414056Y-123538780D01*
X103472725Y-123449921D01*
X103490155Y-123384872D01*
X103483775Y-123278584D01*
X103364728Y-123072388D01*
X103252060Y-122972479D01*
X103126632Y-122659995D02*
X102141559Y-122953798D01*
X102664911Y-122431698D01*
X101951083Y-122623884D01*
X102698061Y-121917687D01*
X102448916Y-121676631D02*
X102466346Y-121611582D01*
X102459966Y-121505294D01*
X102340918Y-121299098D01*
X102252060Y-121240429D01*
X102187011Y-121222999D01*
X102080723Y-121229379D01*
X101998244Y-121276998D01*
X101898336Y-121389666D01*
X101689178Y-122170251D01*
X101379655Y-121634140D01*
X101817109Y-120391833D02*
X101912347Y-120556790D01*
X101918726Y-120663078D01*
X101901297Y-120728127D01*
X101825198Y-120882034D01*
X101684050Y-121018512D01*
X101354136Y-121208988D01*
X101247848Y-121215368D01*
X101182799Y-121197938D01*
X101093940Y-121139269D01*
X100998702Y-120974312D01*
X100992323Y-120868023D01*
X101009752Y-120802975D01*
X101068421Y-120714116D01*
X101274618Y-120595069D01*
X101380906Y-120588689D01*
X101445955Y-120606119D01*
X101534813Y-120664788D01*
X101630051Y-120829745D01*
X101636431Y-120936033D01*
X101619001Y-121001082D01*
X101560332Y-121089940D01*
X126337396Y-125906822D02*
X126204978Y-125978524D01*
X125970500Y-126019869D01*
X125868440Y-125989511D01*
X125813275Y-125950885D01*
X125749842Y-125865362D01*
X125733304Y-125771571D01*
X125763661Y-125669511D01*
X125802288Y-125614346D01*
X125887810Y-125550913D01*
X126067124Y-125470941D01*
X126152646Y-125407508D01*
X126191273Y-125352343D01*
X126221630Y-125250283D01*
X126205092Y-125156492D01*
X126141659Y-125070970D01*
X126086494Y-125032343D01*
X125984434Y-125001985D01*
X125749956Y-125043330D01*
X125617538Y-125115033D01*
X125281000Y-125126020D02*
X125220170Y-126152172D01*
X124908553Y-125481814D01*
X124845005Y-126218324D01*
X124436879Y-125274861D01*
X124125148Y-125426535D02*
X124069983Y-125387908D01*
X123967923Y-125357551D01*
X123733445Y-125398895D01*
X123647923Y-125462329D01*
X123609296Y-125517494D01*
X123578938Y-125619554D01*
X123595476Y-125713345D01*
X123667179Y-125845763D01*
X124329154Y-126309283D01*
X123719511Y-126416779D01*
X123217593Y-125489854D02*
X122561055Y-125605619D01*
X123156763Y-126516007D01*
X154809523Y-122704761D02*
X154666666Y-122752380D01*
X154428571Y-122752380D01*
X154333333Y-122704761D01*
X154285714Y-122657142D01*
X154238095Y-122561904D01*
X154238095Y-122466666D01*
X154285714Y-122371428D01*
X154333333Y-122323809D01*
X154428571Y-122276190D01*
X154619047Y-122228571D01*
X154714285Y-122180952D01*
X154761904Y-122133333D01*
X154809523Y-122038095D01*
X154809523Y-121942857D01*
X154761904Y-121847619D01*
X154714285Y-121800000D01*
X154619047Y-121752380D01*
X154380952Y-121752380D01*
X154238095Y-121800000D01*
X153904761Y-121752380D02*
X153666666Y-122752380D01*
X153476190Y-122038095D01*
X153285714Y-122752380D01*
X153047619Y-121752380D01*
X152714285Y-121847619D02*
X152666666Y-121800000D01*
X152571428Y-121752380D01*
X152333333Y-121752380D01*
X152238095Y-121800000D01*
X152190476Y-121847619D01*
X152142857Y-121942857D01*
X152142857Y-122038095D01*
X152190476Y-122180952D01*
X152761904Y-122752380D01*
X152142857Y-122752380D01*
X151571428Y-122180952D02*
X151666666Y-122133333D01*
X151714285Y-122085714D01*
X151761904Y-121990476D01*
X151761904Y-121942857D01*
X151714285Y-121847619D01*
X151666666Y-121800000D01*
X151571428Y-121752380D01*
X151380952Y-121752380D01*
X151285714Y-121800000D01*
X151238095Y-121847619D01*
X151190476Y-121942857D01*
X151190476Y-121990476D01*
X151238095Y-122085714D01*
X151285714Y-122133333D01*
X151380952Y-122180952D01*
X151571428Y-122180952D01*
X151666666Y-122228571D01*
X151714285Y-122276190D01*
X151761904Y-122371428D01*
X151761904Y-122561904D01*
X151714285Y-122657142D01*
X151666666Y-122704761D01*
X151571428Y-122752380D01*
X151380952Y-122752380D01*
X151285714Y-122704761D01*
X151238095Y-122657142D01*
X151190476Y-122561904D01*
X151190476Y-122371428D01*
X151238095Y-122276190D01*
X151285714Y-122228571D01*
X151380952Y-122180952D01*
X173809523Y-124254761D02*
X173666666Y-124302380D01*
X173428571Y-124302380D01*
X173333333Y-124254761D01*
X173285714Y-124207142D01*
X173238095Y-124111904D01*
X173238095Y-124016666D01*
X173285714Y-123921428D01*
X173333333Y-123873809D01*
X173428571Y-123826190D01*
X173619047Y-123778571D01*
X173714285Y-123730952D01*
X173761904Y-123683333D01*
X173809523Y-123588095D01*
X173809523Y-123492857D01*
X173761904Y-123397619D01*
X173714285Y-123350000D01*
X173619047Y-123302380D01*
X173380952Y-123302380D01*
X173238095Y-123350000D01*
X172904761Y-123302380D02*
X172666666Y-124302380D01*
X172476190Y-123588095D01*
X172285714Y-124302380D01*
X172047619Y-123302380D01*
X171714285Y-123397619D02*
X171666666Y-123350000D01*
X171571428Y-123302380D01*
X171333333Y-123302380D01*
X171238095Y-123350000D01*
X171190476Y-123397619D01*
X171142857Y-123492857D01*
X171142857Y-123588095D01*
X171190476Y-123730952D01*
X171761904Y-124302380D01*
X171142857Y-124302380D01*
X170666666Y-124302380D02*
X170476190Y-124302380D01*
X170380952Y-124254761D01*
X170333333Y-124207142D01*
X170238095Y-124064285D01*
X170190476Y-123873809D01*
X170190476Y-123492857D01*
X170238095Y-123397619D01*
X170285714Y-123350000D01*
X170380952Y-123302380D01*
X170571428Y-123302380D01*
X170666666Y-123350000D01*
X170714285Y-123397619D01*
X170761904Y-123492857D01*
X170761904Y-123730952D01*
X170714285Y-123826190D01*
X170666666Y-123873809D01*
X170571428Y-123921428D01*
X170380952Y-123921428D01*
X170285714Y-123873809D01*
X170238095Y-123826190D01*
X170190476Y-123730952D01*
X192909523Y-128804761D02*
X192766666Y-128852380D01*
X192528571Y-128852380D01*
X192433333Y-128804761D01*
X192385714Y-128757142D01*
X192338095Y-128661904D01*
X192338095Y-128566666D01*
X192385714Y-128471428D01*
X192433333Y-128423809D01*
X192528571Y-128376190D01*
X192719047Y-128328571D01*
X192814285Y-128280952D01*
X192861904Y-128233333D01*
X192909523Y-128138095D01*
X192909523Y-128042857D01*
X192861904Y-127947619D01*
X192814285Y-127900000D01*
X192719047Y-127852380D01*
X192480952Y-127852380D01*
X192338095Y-127900000D01*
X192004761Y-127852380D02*
X191766666Y-128852380D01*
X191576190Y-128138095D01*
X191385714Y-128852380D01*
X191147619Y-127852380D01*
X190861904Y-127852380D02*
X190242857Y-127852380D01*
X190576190Y-128233333D01*
X190433333Y-128233333D01*
X190338095Y-128280952D01*
X190290476Y-128328571D01*
X190242857Y-128423809D01*
X190242857Y-128661904D01*
X190290476Y-128757142D01*
X190338095Y-128804761D01*
X190433333Y-128852380D01*
X190719047Y-128852380D01*
X190814285Y-128804761D01*
X190861904Y-128757142D01*
X189623809Y-127852380D02*
X189528571Y-127852380D01*
X189433333Y-127900000D01*
X189385714Y-127947619D01*
X189338095Y-128042857D01*
X189290476Y-128233333D01*
X189290476Y-128471428D01*
X189338095Y-128661904D01*
X189385714Y-128757142D01*
X189433333Y-128804761D01*
X189528571Y-128852380D01*
X189623809Y-128852380D01*
X189719047Y-128804761D01*
X189766666Y-128757142D01*
X189814285Y-128661904D01*
X189861904Y-128471428D01*
X189861904Y-128233333D01*
X189814285Y-128042857D01*
X189766666Y-127947619D01*
X189719047Y-127900000D01*
X189623809Y-127852380D01*
X112366666Y-80761904D02*
X112100000Y-81561904D01*
X111833333Y-80761904D01*
X111109523Y-81485714D02*
X111147619Y-81523809D01*
X111261904Y-81561904D01*
X111338095Y-81561904D01*
X111452380Y-81523809D01*
X111528571Y-81447619D01*
X111566666Y-81371428D01*
X111604761Y-81219047D01*
X111604761Y-81104761D01*
X111566666Y-80952380D01*
X111528571Y-80876190D01*
X111452380Y-80800000D01*
X111338095Y-80761904D01*
X111261904Y-80761904D01*
X111147619Y-80800000D01*
X111109523Y-80838095D01*
X110309523Y-81485714D02*
X110347619Y-81523809D01*
X110461904Y-81561904D01*
X110538095Y-81561904D01*
X110652380Y-81523809D01*
X110728571Y-81447619D01*
X110766666Y-81371428D01*
X110804761Y-81219047D01*
X110804761Y-81104761D01*
X110766666Y-80952380D01*
X110728571Y-80876190D01*
X110652380Y-80800000D01*
X110538095Y-80761904D01*
X110461904Y-80761904D01*
X110347619Y-80800000D01*
X110309523Y-80838095D01*
X111814285Y-78961904D02*
X112195238Y-78961904D01*
X112195238Y-78161904D01*
X111547619Y-78542857D02*
X111280952Y-78542857D01*
X111166666Y-78961904D02*
X111547619Y-78961904D01*
X111547619Y-78161904D01*
X111166666Y-78161904D01*
X110823809Y-78961904D02*
X110823809Y-78161904D01*
X110633333Y-78161904D01*
X110519047Y-78200000D01*
X110442857Y-78276190D01*
X110404761Y-78352380D01*
X110366666Y-78504761D01*
X110366666Y-78619047D01*
X110404761Y-78771428D01*
X110442857Y-78847619D01*
X110519047Y-78923809D01*
X110633333Y-78961904D01*
X110823809Y-78961904D01*
X111959523Y-75650000D02*
X112035714Y-75611904D01*
X112150000Y-75611904D01*
X112264285Y-75650000D01*
X112340476Y-75726190D01*
X112378571Y-75802380D01*
X112416666Y-75954761D01*
X112416666Y-76069047D01*
X112378571Y-76221428D01*
X112340476Y-76297619D01*
X112264285Y-76373809D01*
X112150000Y-76411904D01*
X112073809Y-76411904D01*
X111959523Y-76373809D01*
X111921428Y-76335714D01*
X111921428Y-76069047D01*
X112073809Y-76069047D01*
X111578571Y-76411904D02*
X111578571Y-75611904D01*
X111121428Y-76411904D01*
X111121428Y-75611904D01*
X110740476Y-76411904D02*
X110740476Y-75611904D01*
X110550000Y-75611904D01*
X110435714Y-75650000D01*
X110359523Y-75726190D01*
X110321428Y-75802380D01*
X110283333Y-75954761D01*
X110283333Y-76069047D01*
X110321428Y-76221428D01*
X110359523Y-76297619D01*
X110435714Y-76373809D01*
X110550000Y-76411904D01*
X110740476Y-76411904D01*
X83499923Y-60967695D02*
X83499923Y-60154895D01*
X83190285Y-60154895D01*
X83112876Y-60193600D01*
X83074171Y-60232304D01*
X83035466Y-60309714D01*
X83035466Y-60425828D01*
X83074171Y-60503238D01*
X83112876Y-60541942D01*
X83190285Y-60580647D01*
X83499923Y-60580647D01*
X82261371Y-60967695D02*
X82725828Y-60967695D01*
X82493600Y-60967695D02*
X82493600Y-60154895D01*
X82571009Y-60271009D01*
X82648419Y-60348419D01*
X82725828Y-60387123D01*
X85699923Y-60967695D02*
X85699923Y-60154895D01*
X85390285Y-60154895D01*
X85312876Y-60193600D01*
X85274171Y-60232304D01*
X85235466Y-60309714D01*
X85235466Y-60425828D01*
X85274171Y-60503238D01*
X85312876Y-60541942D01*
X85390285Y-60580647D01*
X85699923Y-60580647D01*
X84461371Y-60967695D02*
X84925828Y-60967695D01*
X84693600Y-60967695D02*
X84693600Y-60154895D01*
X84771009Y-60271009D01*
X84848419Y-60348419D01*
X84925828Y-60387123D01*
X85049939Y-55905938D02*
X84668987Y-55639272D01*
X85049939Y-55448795D02*
X84249939Y-55448795D01*
X84249939Y-55753557D01*
X84288035Y-55829748D01*
X84326130Y-55867843D01*
X84402320Y-55905938D01*
X84516606Y-55905938D01*
X84592796Y-55867843D01*
X84630892Y-55829748D01*
X84668987Y-55753557D01*
X84668987Y-55448795D01*
X85049939Y-56667843D02*
X85049939Y-56210700D01*
X85049939Y-56439272D02*
X84249939Y-56439272D01*
X84364225Y-56363081D01*
X84440415Y-56286891D01*
X84478511Y-56210700D01*
X87299939Y-55905938D02*
X86918987Y-55639272D01*
X87299939Y-55448795D02*
X86499939Y-55448795D01*
X86499939Y-55753557D01*
X86538035Y-55829748D01*
X86576130Y-55867843D01*
X86652320Y-55905938D01*
X86766606Y-55905938D01*
X86842796Y-55867843D01*
X86880892Y-55829748D01*
X86918987Y-55753557D01*
X86918987Y-55448795D01*
X87299939Y-56667843D02*
X87299939Y-56210700D01*
X87299939Y-56439272D02*
X86499939Y-56439272D01*
X86614225Y-56363081D01*
X86690415Y-56286891D01*
X86728511Y-56210700D01*
X89361904Y-70866666D02*
X88980952Y-70600000D01*
X89361904Y-70409523D02*
X88561904Y-70409523D01*
X88561904Y-70714285D01*
X88600000Y-70790476D01*
X88638095Y-70828571D01*
X88714285Y-70866666D01*
X88828571Y-70866666D01*
X88904761Y-70828571D01*
X88942857Y-70790476D01*
X88980952Y-70714285D01*
X88980952Y-70409523D01*
X89361904Y-71628571D02*
X89361904Y-71171428D01*
X89361904Y-71400000D02*
X88561904Y-71400000D01*
X88676190Y-71323809D01*
X88752380Y-71247619D01*
X88790476Y-71171428D01*
M02*
