G04 #@! TF.GenerationSoftware,KiCad,Pcbnew,(5.1.5)-3*
G04 #@! TF.CreationDate,2020-05-17T14:35:01+04:00*
G04 #@! TF.ProjectId,Lily58_Pro_NG,4c696c79-3538-45f5-9072-6f5f4e472e6b,rev?*
G04 #@! TF.SameCoordinates,Original*
G04 #@! TF.FileFunction,Soldermask,Top*
G04 #@! TF.FilePolarity,Negative*
%FSLAX46Y46*%
G04 Gerber Fmt 4.6, Leading zero omitted, Abs format (unit mm)*
G04 Created by KiCad (PCBNEW (5.1.5)-3) date 2020-05-17 14:35:01*
%MOMM*%
%LPD*%
G04 APERTURE LIST*
%ADD10C,0.100000*%
%ADD11C,0.150000*%
%ADD12C,0.300000*%
%ADD13C,0.400000*%
%ADD14C,0.200000*%
%ADD15C,2.101800*%
%ADD16R,2.950000X2.900000*%
%ADD17C,3.400000*%
%ADD18C,2.686000*%
%ADD19C,4.387800*%
%ADD20R,2.900000X2.950000*%
%ADD21R,2.400000X2.400000*%
%ADD22C,2.400000*%
%ADD23R,2.400000X3.600000*%
%ADD24R,0.781000X0.781000*%
%ADD25R,1.543000X1.035000*%
%ADD26C,4.400000*%
%ADD27R,2.200000X1.900000*%
%ADD28R,1.900000X2.200000*%
%ADD29R,1.924000X1.924000*%
%ADD30C,1.600000*%
%ADD31R,1.400000X2.500000*%
%ADD32C,1.797000*%
%ADD33C,5.100400*%
%ADD34C,1.924000*%
G04 APERTURE END LIST*
D10*
D11*
X177002200Y-166007200D02*
X177002200Y-198007200D01*
X285002200Y-198007200D01*
X285002200Y-166007200D01*
X177002200Y-166007200D01*
D10*
D11*
X10000000Y-10000000D02*
X10000000Y-200007200D01*
X287002200Y-200007200D01*
X287002200Y-10000000D01*
X10000000Y-10000000D01*
D10*
D11*
X12000000Y-12000000D02*
X12000000Y-198007200D01*
X285002200Y-198007200D01*
X285002200Y-12000000D01*
X12000000Y-12000000D01*
D10*
D11*
X60000000Y-12000000D02*
X60000000Y-10000000D01*
D10*
D11*
X110000000Y-12000000D02*
X110000000Y-10000000D01*
D10*
D11*
X160000000Y-12000000D02*
X160000000Y-10000000D01*
D10*
D11*
X210000000Y-12000000D02*
X210000000Y-10000000D01*
D10*
D11*
X260000000Y-12000000D02*
X260000000Y-10000000D01*
D10*
D11*
X36065476Y-11588095D02*
X35322619Y-11588095D01*
X35694047Y-11588095D02*
X35694047Y-10288095D01*
X35570238Y-10473809D01*
X35446428Y-10597619D01*
X35322619Y-10659523D01*
D10*
D11*
X85322619Y-10411904D02*
X85384523Y-10350000D01*
X85508333Y-10288095D01*
X85817857Y-10288095D01*
X85941666Y-10350000D01*
X86003571Y-10411904D01*
X86065476Y-10535714D01*
X86065476Y-10659523D01*
X86003571Y-10845238D01*
X85260714Y-11588095D01*
X86065476Y-11588095D01*
D10*
D11*
X135260714Y-10288095D02*
X136065476Y-10288095D01*
X135632142Y-10783333D01*
X135817857Y-10783333D01*
X135941666Y-10845238D01*
X136003571Y-10907142D01*
X136065476Y-11030952D01*
X136065476Y-11340476D01*
X136003571Y-11464285D01*
X135941666Y-11526190D01*
X135817857Y-11588095D01*
X135446428Y-11588095D01*
X135322619Y-11526190D01*
X135260714Y-11464285D01*
D10*
D11*
X185941666Y-10721428D02*
X185941666Y-11588095D01*
X185632142Y-10226190D02*
X185322619Y-11154761D01*
X186127380Y-11154761D01*
D10*
D11*
X236003571Y-10288095D02*
X235384523Y-10288095D01*
X235322619Y-10907142D01*
X235384523Y-10845238D01*
X235508333Y-10783333D01*
X235817857Y-10783333D01*
X235941666Y-10845238D01*
X236003571Y-10907142D01*
X236065476Y-11030952D01*
X236065476Y-11340476D01*
X236003571Y-11464285D01*
X235941666Y-11526190D01*
X235817857Y-11588095D01*
X235508333Y-11588095D01*
X235384523Y-11526190D01*
X235322619Y-11464285D01*
D10*
D11*
X285941666Y-10288095D02*
X285694047Y-10288095D01*
X285570238Y-10350000D01*
X285508333Y-10411904D01*
X285384523Y-10597619D01*
X285322619Y-10845238D01*
X285322619Y-11340476D01*
X285384523Y-11464285D01*
X285446428Y-11526190D01*
X285570238Y-11588095D01*
X285817857Y-11588095D01*
X285941666Y-11526190D01*
X286003571Y-11464285D01*
X286065476Y-11340476D01*
X286065476Y-11030952D01*
X286003571Y-10907142D01*
X285941666Y-10845238D01*
X285817857Y-10783333D01*
X285570238Y-10783333D01*
X285446428Y-10845238D01*
X285384523Y-10907142D01*
X285322619Y-11030952D01*
D10*
D11*
X60000000Y-198007200D02*
X60000000Y-200007200D01*
D10*
D11*
X110000000Y-198007200D02*
X110000000Y-200007200D01*
D10*
D11*
X160000000Y-198007200D02*
X160000000Y-200007200D01*
D10*
D11*
X210000000Y-198007200D02*
X210000000Y-200007200D01*
D10*
D11*
X260000000Y-198007200D02*
X260000000Y-200007200D01*
D10*
D11*
X36065476Y-199595295D02*
X35322619Y-199595295D01*
X35694047Y-199595295D02*
X35694047Y-198295295D01*
X35570238Y-198481009D01*
X35446428Y-198604819D01*
X35322619Y-198666723D01*
D10*
D11*
X85322619Y-198419104D02*
X85384523Y-198357200D01*
X85508333Y-198295295D01*
X85817857Y-198295295D01*
X85941666Y-198357200D01*
X86003571Y-198419104D01*
X86065476Y-198542914D01*
X86065476Y-198666723D01*
X86003571Y-198852438D01*
X85260714Y-199595295D01*
X86065476Y-199595295D01*
D10*
D11*
X135260714Y-198295295D02*
X136065476Y-198295295D01*
X135632142Y-198790533D01*
X135817857Y-198790533D01*
X135941666Y-198852438D01*
X136003571Y-198914342D01*
X136065476Y-199038152D01*
X136065476Y-199347676D01*
X136003571Y-199471485D01*
X135941666Y-199533390D01*
X135817857Y-199595295D01*
X135446428Y-199595295D01*
X135322619Y-199533390D01*
X135260714Y-199471485D01*
D10*
D11*
X185941666Y-198728628D02*
X185941666Y-199595295D01*
X185632142Y-198233390D02*
X185322619Y-199161961D01*
X186127380Y-199161961D01*
D10*
D11*
X236003571Y-198295295D02*
X235384523Y-198295295D01*
X235322619Y-198914342D01*
X235384523Y-198852438D01*
X235508333Y-198790533D01*
X235817857Y-198790533D01*
X235941666Y-198852438D01*
X236003571Y-198914342D01*
X236065476Y-199038152D01*
X236065476Y-199347676D01*
X236003571Y-199471485D01*
X235941666Y-199533390D01*
X235817857Y-199595295D01*
X235508333Y-199595295D01*
X235384523Y-199533390D01*
X235322619Y-199471485D01*
D10*
D11*
X285941666Y-198295295D02*
X285694047Y-198295295D01*
X285570238Y-198357200D01*
X285508333Y-198419104D01*
X285384523Y-198604819D01*
X285322619Y-198852438D01*
X285322619Y-199347676D01*
X285384523Y-199471485D01*
X285446428Y-199533390D01*
X285570238Y-199595295D01*
X285817857Y-199595295D01*
X285941666Y-199533390D01*
X286003571Y-199471485D01*
X286065476Y-199347676D01*
X286065476Y-199038152D01*
X286003571Y-198914342D01*
X285941666Y-198852438D01*
X285817857Y-198790533D01*
X285570238Y-198790533D01*
X285446428Y-198852438D01*
X285384523Y-198914342D01*
X285322619Y-199038152D01*
D10*
D11*
X10000000Y-60000000D02*
X12000000Y-60000000D01*
D10*
D11*
X10000000Y-110000000D02*
X12000000Y-110000000D01*
D10*
D11*
X10000000Y-160000000D02*
X12000000Y-160000000D01*
D10*
D11*
X10690476Y-35216666D02*
X11309523Y-35216666D01*
X10566666Y-35588095D02*
X11000000Y-34288095D01*
X11433333Y-35588095D01*
D10*
D11*
X11092857Y-84907142D02*
X11278571Y-84969047D01*
X11340476Y-85030952D01*
X11402380Y-85154761D01*
X11402380Y-85340476D01*
X11340476Y-85464285D01*
X11278571Y-85526190D01*
X11154761Y-85588095D01*
X10659523Y-85588095D01*
X10659523Y-84288095D01*
X11092857Y-84288095D01*
X11216666Y-84350000D01*
X11278571Y-84411904D01*
X11340476Y-84535714D01*
X11340476Y-84659523D01*
X11278571Y-84783333D01*
X11216666Y-84845238D01*
X11092857Y-84907142D01*
X10659523Y-84907142D01*
D10*
D11*
X11402380Y-135464285D02*
X11340476Y-135526190D01*
X11154761Y-135588095D01*
X11030952Y-135588095D01*
X10845238Y-135526190D01*
X10721428Y-135402380D01*
X10659523Y-135278571D01*
X10597619Y-135030952D01*
X10597619Y-134845238D01*
X10659523Y-134597619D01*
X10721428Y-134473809D01*
X10845238Y-134350000D01*
X11030952Y-134288095D01*
X11154761Y-134288095D01*
X11340476Y-134350000D01*
X11402380Y-134411904D01*
D10*
D11*
X10659523Y-185588095D02*
X10659523Y-184288095D01*
X10969047Y-184288095D01*
X11154761Y-184350000D01*
X11278571Y-184473809D01*
X11340476Y-184597619D01*
X11402380Y-184845238D01*
X11402380Y-185030952D01*
X11340476Y-185278571D01*
X11278571Y-185402380D01*
X11154761Y-185526190D01*
X10969047Y-185588095D01*
X10659523Y-185588095D01*
D10*
D11*
X287002200Y-60000000D02*
X285002200Y-60000000D01*
D10*
D11*
X287002200Y-110000000D02*
X285002200Y-110000000D01*
D10*
D11*
X287002200Y-160000000D02*
X285002200Y-160000000D01*
D10*
D11*
X285692676Y-35216666D02*
X286311723Y-35216666D01*
X285568866Y-35588095D02*
X286002200Y-34288095D01*
X286435533Y-35588095D01*
D10*
D11*
X286095057Y-84907142D02*
X286280771Y-84969047D01*
X286342676Y-85030952D01*
X286404580Y-85154761D01*
X286404580Y-85340476D01*
X286342676Y-85464285D01*
X286280771Y-85526190D01*
X286156961Y-85588095D01*
X285661723Y-85588095D01*
X285661723Y-84288095D01*
X286095057Y-84288095D01*
X286218866Y-84350000D01*
X286280771Y-84411904D01*
X286342676Y-84535714D01*
X286342676Y-84659523D01*
X286280771Y-84783333D01*
X286218866Y-84845238D01*
X286095057Y-84907142D01*
X285661723Y-84907142D01*
D10*
D11*
X286404580Y-135464285D02*
X286342676Y-135526190D01*
X286156961Y-135588095D01*
X286033152Y-135588095D01*
X285847438Y-135526190D01*
X285723628Y-135402380D01*
X285661723Y-135278571D01*
X285599819Y-135030952D01*
X285599819Y-134845238D01*
X285661723Y-134597619D01*
X285723628Y-134473809D01*
X285847438Y-134350000D01*
X286033152Y-134288095D01*
X286156961Y-134288095D01*
X286342676Y-134350000D01*
X286404580Y-134411904D01*
D10*
D11*
X285661723Y-185588095D02*
X285661723Y-184288095D01*
X285971247Y-184288095D01*
X286156961Y-184350000D01*
X286280771Y-184473809D01*
X286342676Y-184597619D01*
X286404580Y-184845238D01*
X286404580Y-185030952D01*
X286342676Y-185278571D01*
X286280771Y-185402380D01*
X286156961Y-185526190D01*
X285971247Y-185588095D01*
X285661723Y-185588095D01*
D10*
D11*
X200434342Y-193785771D02*
X200434342Y-192285771D01*
X200791485Y-192285771D01*
X201005771Y-192357200D01*
X201148628Y-192500057D01*
X201220057Y-192642914D01*
X201291485Y-192928628D01*
X201291485Y-193142914D01*
X201220057Y-193428628D01*
X201148628Y-193571485D01*
X201005771Y-193714342D01*
X200791485Y-193785771D01*
X200434342Y-193785771D01*
X202577200Y-193785771D02*
X202577200Y-193000057D01*
X202505771Y-192857200D01*
X202362914Y-192785771D01*
X202077200Y-192785771D01*
X201934342Y-192857200D01*
X202577200Y-193714342D02*
X202434342Y-193785771D01*
X202077200Y-193785771D01*
X201934342Y-193714342D01*
X201862914Y-193571485D01*
X201862914Y-193428628D01*
X201934342Y-193285771D01*
X202077200Y-193214342D01*
X202434342Y-193214342D01*
X202577200Y-193142914D01*
X203077200Y-192785771D02*
X203648628Y-192785771D01*
X203291485Y-192285771D02*
X203291485Y-193571485D01*
X203362914Y-193714342D01*
X203505771Y-193785771D01*
X203648628Y-193785771D01*
X204720057Y-193714342D02*
X204577200Y-193785771D01*
X204291485Y-193785771D01*
X204148628Y-193714342D01*
X204077200Y-193571485D01*
X204077200Y-193000057D01*
X204148628Y-192857200D01*
X204291485Y-192785771D01*
X204577200Y-192785771D01*
X204720057Y-192857200D01*
X204791485Y-193000057D01*
X204791485Y-193142914D01*
X204077200Y-193285771D01*
X205434342Y-193642914D02*
X205505771Y-193714342D01*
X205434342Y-193785771D01*
X205362914Y-193714342D01*
X205434342Y-193642914D01*
X205434342Y-193785771D01*
X205434342Y-192857200D02*
X205505771Y-192928628D01*
X205434342Y-193000057D01*
X205362914Y-192928628D01*
X205434342Y-192857200D01*
X205434342Y-193000057D01*
D10*
D11*
X177002200Y-194507200D02*
X285002200Y-194507200D01*
D10*
D11*
X178434342Y-196585771D02*
X178434342Y-195085771D01*
X179291485Y-196585771D02*
X178648628Y-195728628D01*
X179291485Y-195085771D02*
X178434342Y-195942914D01*
X179934342Y-196585771D02*
X179934342Y-195585771D01*
X179934342Y-195085771D02*
X179862914Y-195157200D01*
X179934342Y-195228628D01*
X180005771Y-195157200D01*
X179934342Y-195085771D01*
X179934342Y-195228628D01*
X181505771Y-196442914D02*
X181434342Y-196514342D01*
X181220057Y-196585771D01*
X181077200Y-196585771D01*
X180862914Y-196514342D01*
X180720057Y-196371485D01*
X180648628Y-196228628D01*
X180577200Y-195942914D01*
X180577200Y-195728628D01*
X180648628Y-195442914D01*
X180720057Y-195300057D01*
X180862914Y-195157200D01*
X181077200Y-195085771D01*
X181220057Y-195085771D01*
X181434342Y-195157200D01*
X181505771Y-195228628D01*
X182791485Y-196585771D02*
X182791485Y-195800057D01*
X182720057Y-195657200D01*
X182577200Y-195585771D01*
X182291485Y-195585771D01*
X182148628Y-195657200D01*
X182791485Y-196514342D02*
X182648628Y-196585771D01*
X182291485Y-196585771D01*
X182148628Y-196514342D01*
X182077200Y-196371485D01*
X182077200Y-196228628D01*
X182148628Y-196085771D01*
X182291485Y-196014342D01*
X182648628Y-196014342D01*
X182791485Y-195942914D01*
X184148628Y-196585771D02*
X184148628Y-195085771D01*
X184148628Y-196514342D02*
X184005771Y-196585771D01*
X183720057Y-196585771D01*
X183577200Y-196514342D01*
X183505771Y-196442914D01*
X183434342Y-196300057D01*
X183434342Y-195871485D01*
X183505771Y-195728628D01*
X183577200Y-195657200D01*
X183720057Y-195585771D01*
X184005771Y-195585771D01*
X184148628Y-195657200D01*
X186005771Y-195800057D02*
X186505771Y-195800057D01*
X186720057Y-196585771D02*
X186005771Y-196585771D01*
X186005771Y-195085771D01*
X186720057Y-195085771D01*
X187362914Y-196442914D02*
X187434342Y-196514342D01*
X187362914Y-196585771D01*
X187291485Y-196514342D01*
X187362914Y-196442914D01*
X187362914Y-196585771D01*
X188077200Y-196585771D02*
X188077200Y-195085771D01*
X188434342Y-195085771D01*
X188648628Y-195157200D01*
X188791485Y-195300057D01*
X188862914Y-195442914D01*
X188934342Y-195728628D01*
X188934342Y-195942914D01*
X188862914Y-196228628D01*
X188791485Y-196371485D01*
X188648628Y-196514342D01*
X188434342Y-196585771D01*
X188077200Y-196585771D01*
X189577200Y-196442914D02*
X189648628Y-196514342D01*
X189577200Y-196585771D01*
X189505771Y-196514342D01*
X189577200Y-196442914D01*
X189577200Y-196585771D01*
X190220057Y-196157200D02*
X190934342Y-196157200D01*
X190077200Y-196585771D02*
X190577200Y-195085771D01*
X191077200Y-196585771D01*
X191577200Y-196442914D02*
X191648628Y-196514342D01*
X191577200Y-196585771D01*
X191505771Y-196514342D01*
X191577200Y-196442914D01*
X191577200Y-196585771D01*
X194577200Y-195585771D02*
X194577200Y-197085771D01*
X194577200Y-195657200D02*
X194720057Y-195585771D01*
X195005771Y-195585771D01*
X195148628Y-195657200D01*
X195220057Y-195728628D01*
X195291485Y-195871485D01*
X195291485Y-196300057D01*
X195220057Y-196442914D01*
X195148628Y-196514342D01*
X195005771Y-196585771D01*
X194720057Y-196585771D01*
X194577200Y-196514342D01*
X196577200Y-196514342D02*
X196434342Y-196585771D01*
X196148628Y-196585771D01*
X196005771Y-196514342D01*
X195934342Y-196442914D01*
X195862914Y-196300057D01*
X195862914Y-195871485D01*
X195934342Y-195728628D01*
X196005771Y-195657200D01*
X196148628Y-195585771D01*
X196434342Y-195585771D01*
X196577200Y-195657200D01*
X197220057Y-196585771D02*
X197220057Y-195085771D01*
X197220057Y-195657200D02*
X197362914Y-195585771D01*
X197648628Y-195585771D01*
X197791485Y-195657200D01*
X197862914Y-195728628D01*
X197934342Y-195871485D01*
X197934342Y-196300057D01*
X197862914Y-196442914D01*
X197791485Y-196514342D01*
X197648628Y-196585771D01*
X197362914Y-196585771D01*
X197220057Y-196514342D01*
X198577200Y-195585771D02*
X198577200Y-196585771D01*
X198577200Y-195728628D02*
X198648628Y-195657200D01*
X198791485Y-195585771D01*
X199005771Y-195585771D01*
X199148628Y-195657200D01*
X199220057Y-195800057D01*
X199220057Y-196585771D01*
X200505771Y-196514342D02*
X200362914Y-196585771D01*
X200077200Y-196585771D01*
X199934342Y-196514342D01*
X199862914Y-196371485D01*
X199862914Y-195800057D01*
X199934342Y-195657200D01*
X200077200Y-195585771D01*
X200362914Y-195585771D01*
X200505771Y-195657200D01*
X200577200Y-195800057D01*
X200577200Y-195942914D01*
X199862914Y-196085771D01*
X201077200Y-195585771D02*
X201362914Y-196585771D01*
X201648628Y-195871485D01*
X201934342Y-196585771D01*
X202220057Y-195585771D01*
X204362914Y-197157200D02*
X204291485Y-197085771D01*
X204148628Y-196871485D01*
X204077200Y-196728628D01*
X204005771Y-196514342D01*
X203934342Y-196157200D01*
X203934342Y-195871485D01*
X204005771Y-195514342D01*
X204077200Y-195300057D01*
X204148628Y-195157200D01*
X204291485Y-194942914D01*
X204362914Y-194871485D01*
X205648628Y-195085771D02*
X204934342Y-195085771D01*
X204862914Y-195800057D01*
X204934342Y-195728628D01*
X205077200Y-195657200D01*
X205434342Y-195657200D01*
X205577200Y-195728628D01*
X205648628Y-195800057D01*
X205720057Y-195942914D01*
X205720057Y-196300057D01*
X205648628Y-196442914D01*
X205577200Y-196514342D01*
X205434342Y-196585771D01*
X205077200Y-196585771D01*
X204934342Y-196514342D01*
X204862914Y-196442914D01*
X206362914Y-196442914D02*
X206434342Y-196514342D01*
X206362914Y-196585771D01*
X206291485Y-196514342D01*
X206362914Y-196442914D01*
X206362914Y-196585771D01*
X207862914Y-196585771D02*
X207005771Y-196585771D01*
X207434342Y-196585771D02*
X207434342Y-195085771D01*
X207291485Y-195300057D01*
X207148628Y-195442914D01*
X207005771Y-195514342D01*
X208505771Y-196442914D02*
X208577200Y-196514342D01*
X208505771Y-196585771D01*
X208434342Y-196514342D01*
X208505771Y-196442914D01*
X208505771Y-196585771D01*
X209934342Y-195085771D02*
X209220057Y-195085771D01*
X209148628Y-195800057D01*
X209220057Y-195728628D01*
X209362914Y-195657200D01*
X209720057Y-195657200D01*
X209862914Y-195728628D01*
X209934342Y-195800057D01*
X210005771Y-195942914D01*
X210005771Y-196300057D01*
X209934342Y-196442914D01*
X209862914Y-196514342D01*
X209720057Y-196585771D01*
X209362914Y-196585771D01*
X209220057Y-196514342D01*
X209148628Y-196442914D01*
X210505771Y-197157200D02*
X210577200Y-197085771D01*
X210720057Y-196871485D01*
X210791485Y-196728628D01*
X210862914Y-196514342D01*
X210934342Y-196157200D01*
X210934342Y-195871485D01*
X210862914Y-195514342D01*
X210791485Y-195300057D01*
X210720057Y-195157200D01*
X210577200Y-194942914D01*
X210505771Y-194871485D01*
X211648628Y-196014342D02*
X212791485Y-196014342D01*
X213362914Y-195085771D02*
X214291485Y-195085771D01*
X213791485Y-195657200D01*
X214005771Y-195657200D01*
X214148628Y-195728628D01*
X214220057Y-195800057D01*
X214291485Y-195942914D01*
X214291485Y-196300057D01*
X214220057Y-196442914D01*
X214148628Y-196514342D01*
X214005771Y-196585771D01*
X213577200Y-196585771D01*
X213434342Y-196514342D01*
X213362914Y-196442914D01*
D10*
D11*
X177002200Y-191507200D02*
X285002200Y-191507200D01*
D10*
D12*
X264411485Y-193785771D02*
X263911485Y-193071485D01*
X263554342Y-193785771D02*
X263554342Y-192285771D01*
X264125771Y-192285771D01*
X264268628Y-192357200D01*
X264340057Y-192428628D01*
X264411485Y-192571485D01*
X264411485Y-192785771D01*
X264340057Y-192928628D01*
X264268628Y-193000057D01*
X264125771Y-193071485D01*
X263554342Y-193071485D01*
X265625771Y-193714342D02*
X265482914Y-193785771D01*
X265197200Y-193785771D01*
X265054342Y-193714342D01*
X264982914Y-193571485D01*
X264982914Y-193000057D01*
X265054342Y-192857200D01*
X265197200Y-192785771D01*
X265482914Y-192785771D01*
X265625771Y-192857200D01*
X265697200Y-193000057D01*
X265697200Y-193142914D01*
X264982914Y-193285771D01*
X266197200Y-192785771D02*
X266554342Y-193785771D01*
X266911485Y-192785771D01*
X267482914Y-193642914D02*
X267554342Y-193714342D01*
X267482914Y-193785771D01*
X267411485Y-193714342D01*
X267482914Y-193642914D01*
X267482914Y-193785771D01*
X267482914Y-192857200D02*
X267554342Y-192928628D01*
X267482914Y-193000057D01*
X267411485Y-192928628D01*
X267482914Y-192857200D01*
X267482914Y-193000057D01*
D10*
D11*
X178362914Y-193714342D02*
X178577200Y-193785771D01*
X178934342Y-193785771D01*
X179077200Y-193714342D01*
X179148628Y-193642914D01*
X179220057Y-193500057D01*
X179220057Y-193357200D01*
X179148628Y-193214342D01*
X179077200Y-193142914D01*
X178934342Y-193071485D01*
X178648628Y-193000057D01*
X178505771Y-192928628D01*
X178434342Y-192857200D01*
X178362914Y-192714342D01*
X178362914Y-192571485D01*
X178434342Y-192428628D01*
X178505771Y-192357200D01*
X178648628Y-192285771D01*
X179005771Y-192285771D01*
X179220057Y-192357200D01*
X179862914Y-193785771D02*
X179862914Y-192785771D01*
X179862914Y-192285771D02*
X179791485Y-192357200D01*
X179862914Y-192428628D01*
X179934342Y-192357200D01*
X179862914Y-192285771D01*
X179862914Y-192428628D01*
X180434342Y-192785771D02*
X181220057Y-192785771D01*
X180434342Y-193785771D01*
X181220057Y-193785771D01*
X182362914Y-193714342D02*
X182220057Y-193785771D01*
X181934342Y-193785771D01*
X181791485Y-193714342D01*
X181720057Y-193571485D01*
X181720057Y-193000057D01*
X181791485Y-192857200D01*
X181934342Y-192785771D01*
X182220057Y-192785771D01*
X182362914Y-192857200D01*
X182434342Y-193000057D01*
X182434342Y-193142914D01*
X181720057Y-193285771D01*
X183077200Y-193642914D02*
X183148628Y-193714342D01*
X183077200Y-193785771D01*
X183005771Y-193714342D01*
X183077200Y-193642914D01*
X183077200Y-193785771D01*
X183077200Y-192857200D02*
X183148628Y-192928628D01*
X183077200Y-193000057D01*
X183005771Y-192928628D01*
X183077200Y-192857200D01*
X183077200Y-193000057D01*
X184862914Y-193357200D02*
X185577200Y-193357200D01*
X184720057Y-193785771D02*
X185220057Y-192285771D01*
X185720057Y-193785771D01*
X186862914Y-192785771D02*
X186862914Y-193785771D01*
X186505771Y-192214342D02*
X186148628Y-193285771D01*
X187077200Y-193285771D01*
D10*
D11*
X263434342Y-196585771D02*
X263434342Y-195085771D01*
X264791485Y-196585771D02*
X264791485Y-195085771D01*
X264791485Y-196514342D02*
X264648628Y-196585771D01*
X264362914Y-196585771D01*
X264220057Y-196514342D01*
X264148628Y-196442914D01*
X264077200Y-196300057D01*
X264077200Y-195871485D01*
X264148628Y-195728628D01*
X264220057Y-195657200D01*
X264362914Y-195585771D01*
X264648628Y-195585771D01*
X264791485Y-195657200D01*
X265505771Y-196442914D02*
X265577200Y-196514342D01*
X265505771Y-196585771D01*
X265434342Y-196514342D01*
X265505771Y-196442914D01*
X265505771Y-196585771D01*
X265505771Y-195657200D02*
X265577200Y-195728628D01*
X265505771Y-195800057D01*
X265434342Y-195728628D01*
X265505771Y-195657200D01*
X265505771Y-195800057D01*
X268148628Y-196585771D02*
X267291485Y-196585771D01*
X267720057Y-196585771D02*
X267720057Y-195085771D01*
X267577200Y-195300057D01*
X267434342Y-195442914D01*
X267291485Y-195514342D01*
X269862914Y-195014342D02*
X268577200Y-196942914D01*
X271148628Y-196585771D02*
X270291485Y-196585771D01*
X270720057Y-196585771D02*
X270720057Y-195085771D01*
X270577200Y-195300057D01*
X270434342Y-195442914D01*
X270291485Y-195514342D01*
D10*
D11*
X177002200Y-187507200D02*
X285002200Y-187507200D01*
D10*
D13*
X178714580Y-188211961D02*
X179857438Y-188211961D01*
X179036009Y-190211961D02*
X179286009Y-188211961D01*
X180274104Y-190211961D02*
X180440771Y-188878628D01*
X180524104Y-188211961D02*
X180416961Y-188307200D01*
X180500295Y-188402438D01*
X180607438Y-188307200D01*
X180524104Y-188211961D01*
X180500295Y-188402438D01*
X181107438Y-188878628D02*
X181869342Y-188878628D01*
X181476485Y-188211961D02*
X181262200Y-189926247D01*
X181333628Y-190116723D01*
X181512200Y-190211961D01*
X181702676Y-190211961D01*
X182655057Y-190211961D02*
X182476485Y-190116723D01*
X182405057Y-189926247D01*
X182619342Y-188211961D01*
X184190771Y-190116723D02*
X183988390Y-190211961D01*
X183607438Y-190211961D01*
X183428866Y-190116723D01*
X183357438Y-189926247D01*
X183452676Y-189164342D01*
X183571723Y-188973866D01*
X183774104Y-188878628D01*
X184155057Y-188878628D01*
X184333628Y-188973866D01*
X184405057Y-189164342D01*
X184381247Y-189354819D01*
X183405057Y-189545295D01*
X185155057Y-190021485D02*
X185238390Y-190116723D01*
X185131247Y-190211961D01*
X185047914Y-190116723D01*
X185155057Y-190021485D01*
X185131247Y-190211961D01*
X185286009Y-188973866D02*
X185369342Y-189069104D01*
X185262200Y-189164342D01*
X185178866Y-189069104D01*
X185286009Y-188973866D01*
X185262200Y-189164342D01*
D10*
D11*
X178934342Y-185600057D02*
X178434342Y-185600057D01*
X178434342Y-186385771D02*
X178434342Y-184885771D01*
X179148628Y-184885771D01*
X179720057Y-186385771D02*
X179720057Y-185385771D01*
X179720057Y-184885771D02*
X179648628Y-184957200D01*
X179720057Y-185028628D01*
X179791485Y-184957200D01*
X179720057Y-184885771D01*
X179720057Y-185028628D01*
X180648628Y-186385771D02*
X180505771Y-186314342D01*
X180434342Y-186171485D01*
X180434342Y-184885771D01*
X181791485Y-186314342D02*
X181648628Y-186385771D01*
X181362914Y-186385771D01*
X181220057Y-186314342D01*
X181148628Y-186171485D01*
X181148628Y-185600057D01*
X181220057Y-185457200D01*
X181362914Y-185385771D01*
X181648628Y-185385771D01*
X181791485Y-185457200D01*
X181862914Y-185600057D01*
X181862914Y-185742914D01*
X181148628Y-185885771D01*
X182505771Y-186242914D02*
X182577200Y-186314342D01*
X182505771Y-186385771D01*
X182434342Y-186314342D01*
X182505771Y-186242914D01*
X182505771Y-186385771D01*
X182505771Y-185457200D02*
X182577200Y-185528628D01*
X182505771Y-185600057D01*
X182434342Y-185528628D01*
X182505771Y-185457200D01*
X182505771Y-185600057D01*
X185077200Y-186385771D02*
X184362914Y-186385771D01*
X184362914Y-184885771D01*
X185577200Y-186385771D02*
X185577200Y-185385771D01*
X185577200Y-184885771D02*
X185505771Y-184957200D01*
X185577200Y-185028628D01*
X185648628Y-184957200D01*
X185577200Y-184885771D01*
X185577200Y-185028628D01*
X186505771Y-186385771D02*
X186362914Y-186314342D01*
X186291485Y-186171485D01*
X186291485Y-184885771D01*
X186934342Y-185385771D02*
X187291485Y-186385771D01*
X187648628Y-185385771D02*
X187291485Y-186385771D01*
X187148628Y-186742914D01*
X187077200Y-186814342D01*
X186934342Y-186885771D01*
X188934342Y-184885771D02*
X188220057Y-184885771D01*
X188148628Y-185600057D01*
X188220057Y-185528628D01*
X188362914Y-185457200D01*
X188720057Y-185457200D01*
X188862914Y-185528628D01*
X188934342Y-185600057D01*
X189005771Y-185742914D01*
X189005771Y-186100057D01*
X188934342Y-186242914D01*
X188862914Y-186314342D01*
X188720057Y-186385771D01*
X188362914Y-186385771D01*
X188220057Y-186314342D01*
X188148628Y-186242914D01*
X189862914Y-185528628D02*
X189720057Y-185457200D01*
X189648628Y-185385771D01*
X189577200Y-185242914D01*
X189577200Y-185171485D01*
X189648628Y-185028628D01*
X189720057Y-184957200D01*
X189862914Y-184885771D01*
X190148628Y-184885771D01*
X190291485Y-184957200D01*
X190362914Y-185028628D01*
X190434342Y-185171485D01*
X190434342Y-185242914D01*
X190362914Y-185385771D01*
X190291485Y-185457200D01*
X190148628Y-185528628D01*
X189862914Y-185528628D01*
X189720057Y-185600057D01*
X189648628Y-185671485D01*
X189577200Y-185814342D01*
X189577200Y-186100057D01*
X189648628Y-186242914D01*
X189720057Y-186314342D01*
X189862914Y-186385771D01*
X190148628Y-186385771D01*
X190291485Y-186314342D01*
X190362914Y-186242914D01*
X190434342Y-186100057D01*
X190434342Y-185814342D01*
X190362914Y-185671485D01*
X190291485Y-185600057D01*
X190148628Y-185528628D01*
X190720057Y-186528628D02*
X191862914Y-186528628D01*
X192220057Y-186385771D02*
X192220057Y-184885771D01*
X192791485Y-184885771D01*
X192934342Y-184957200D01*
X193005771Y-185028628D01*
X193077200Y-185171485D01*
X193077200Y-185385771D01*
X193005771Y-185528628D01*
X192934342Y-185600057D01*
X192791485Y-185671485D01*
X192220057Y-185671485D01*
X193720057Y-186385771D02*
X193720057Y-185385771D01*
X193720057Y-185671485D02*
X193791485Y-185528628D01*
X193862914Y-185457200D01*
X194005771Y-185385771D01*
X194148628Y-185385771D01*
X194862914Y-186385771D02*
X194720057Y-186314342D01*
X194648628Y-186242914D01*
X194577200Y-186100057D01*
X194577200Y-185671485D01*
X194648628Y-185528628D01*
X194720057Y-185457200D01*
X194862914Y-185385771D01*
X195077200Y-185385771D01*
X195220057Y-185457200D01*
X195291485Y-185528628D01*
X195362914Y-185671485D01*
X195362914Y-186100057D01*
X195291485Y-186242914D01*
X195220057Y-186314342D01*
X195077200Y-186385771D01*
X194862914Y-186385771D01*
X195648628Y-186528628D02*
X196791485Y-186528628D01*
X197148628Y-186385771D02*
X197148628Y-184885771D01*
X198005771Y-186385771D01*
X198005771Y-184885771D01*
X199505771Y-184957200D02*
X199362914Y-184885771D01*
X199148628Y-184885771D01*
X198934342Y-184957200D01*
X198791485Y-185100057D01*
X198720057Y-185242914D01*
X198648628Y-185528628D01*
X198648628Y-185742914D01*
X198720057Y-186028628D01*
X198791485Y-186171485D01*
X198934342Y-186314342D01*
X199148628Y-186385771D01*
X199291485Y-186385771D01*
X199505771Y-186314342D01*
X199577200Y-186242914D01*
X199577200Y-185742914D01*
X199291485Y-185742914D01*
X200220057Y-186242914D02*
X200291485Y-186314342D01*
X200220057Y-186385771D01*
X200148628Y-186314342D01*
X200220057Y-186242914D01*
X200220057Y-186385771D01*
X200934342Y-186385771D02*
X200934342Y-184885771D01*
X201077200Y-185814342D02*
X201505771Y-186385771D01*
X201505771Y-185385771D02*
X200934342Y-185957200D01*
X202148628Y-186385771D02*
X202148628Y-185385771D01*
X202148628Y-184885771D02*
X202077200Y-184957200D01*
X202148628Y-185028628D01*
X202220057Y-184957200D01*
X202148628Y-184885771D01*
X202148628Y-185028628D01*
X203505771Y-186314342D02*
X203362914Y-186385771D01*
X203077200Y-186385771D01*
X202934342Y-186314342D01*
X202862914Y-186242914D01*
X202791485Y-186100057D01*
X202791485Y-185671485D01*
X202862914Y-185528628D01*
X202934342Y-185457200D01*
X203077200Y-185385771D01*
X203362914Y-185385771D01*
X203505771Y-185457200D01*
X204791485Y-186385771D02*
X204791485Y-185600057D01*
X204720057Y-185457200D01*
X204577200Y-185385771D01*
X204291485Y-185385771D01*
X204148628Y-185457200D01*
X204791485Y-186314342D02*
X204648628Y-186385771D01*
X204291485Y-186385771D01*
X204148628Y-186314342D01*
X204077200Y-186171485D01*
X204077200Y-186028628D01*
X204148628Y-185885771D01*
X204291485Y-185814342D01*
X204648628Y-185814342D01*
X204791485Y-185742914D01*
X206148628Y-186385771D02*
X206148628Y-184885771D01*
X206148628Y-186314342D02*
X206005771Y-186385771D01*
X205720057Y-186385771D01*
X205577200Y-186314342D01*
X205505771Y-186242914D01*
X205434342Y-186100057D01*
X205434342Y-185671485D01*
X205505771Y-185528628D01*
X205577200Y-185457200D01*
X205720057Y-185385771D01*
X206005771Y-185385771D01*
X206148628Y-185457200D01*
X206505771Y-186528628D02*
X207648628Y-186528628D01*
X208005771Y-185385771D02*
X208005771Y-186885771D01*
X208005771Y-185457200D02*
X208148628Y-185385771D01*
X208434342Y-185385771D01*
X208577200Y-185457200D01*
X208648628Y-185528628D01*
X208720057Y-185671485D01*
X208720057Y-186100057D01*
X208648628Y-186242914D01*
X208577200Y-186314342D01*
X208434342Y-186385771D01*
X208148628Y-186385771D01*
X208005771Y-186314342D01*
X210005771Y-186314342D02*
X209862914Y-186385771D01*
X209577200Y-186385771D01*
X209434342Y-186314342D01*
X209362914Y-186242914D01*
X209291485Y-186100057D01*
X209291485Y-185671485D01*
X209362914Y-185528628D01*
X209434342Y-185457200D01*
X209577200Y-185385771D01*
X209862914Y-185385771D01*
X210005771Y-185457200D01*
X210648628Y-186385771D02*
X210648628Y-184885771D01*
X210648628Y-185457200D02*
X210791485Y-185385771D01*
X211077200Y-185385771D01*
X211220057Y-185457200D01*
X211291485Y-185528628D01*
X211362914Y-185671485D01*
X211362914Y-186100057D01*
X211291485Y-186242914D01*
X211220057Y-186314342D01*
X211077200Y-186385771D01*
X210791485Y-186385771D01*
X210648628Y-186314342D01*
D10*
D11*
X177002200Y-181507200D02*
X285002200Y-181507200D01*
D10*
D11*
X178362914Y-183614342D02*
X178577200Y-183685771D01*
X178934342Y-183685771D01*
X179077200Y-183614342D01*
X179148628Y-183542914D01*
X179220057Y-183400057D01*
X179220057Y-183257200D01*
X179148628Y-183114342D01*
X179077200Y-183042914D01*
X178934342Y-182971485D01*
X178648628Y-182900057D01*
X178505771Y-182828628D01*
X178434342Y-182757200D01*
X178362914Y-182614342D01*
X178362914Y-182471485D01*
X178434342Y-182328628D01*
X178505771Y-182257200D01*
X178648628Y-182185771D01*
X179005771Y-182185771D01*
X179220057Y-182257200D01*
X179862914Y-183685771D02*
X179862914Y-182185771D01*
X180505771Y-183685771D02*
X180505771Y-182900057D01*
X180434342Y-182757200D01*
X180291485Y-182685771D01*
X180077200Y-182685771D01*
X179934342Y-182757200D01*
X179862914Y-182828628D01*
X181791485Y-183614342D02*
X181648628Y-183685771D01*
X181362914Y-183685771D01*
X181220057Y-183614342D01*
X181148628Y-183471485D01*
X181148628Y-182900057D01*
X181220057Y-182757200D01*
X181362914Y-182685771D01*
X181648628Y-182685771D01*
X181791485Y-182757200D01*
X181862914Y-182900057D01*
X181862914Y-183042914D01*
X181148628Y-183185771D01*
X183077200Y-183614342D02*
X182934342Y-183685771D01*
X182648628Y-183685771D01*
X182505771Y-183614342D01*
X182434342Y-183471485D01*
X182434342Y-182900057D01*
X182505771Y-182757200D01*
X182648628Y-182685771D01*
X182934342Y-182685771D01*
X183077200Y-182757200D01*
X183148628Y-182900057D01*
X183148628Y-183042914D01*
X182434342Y-183185771D01*
X183577200Y-182685771D02*
X184148628Y-182685771D01*
X183791485Y-182185771D02*
X183791485Y-183471485D01*
X183862914Y-183614342D01*
X184005771Y-183685771D01*
X184148628Y-183685771D01*
X184648628Y-183542914D02*
X184720057Y-183614342D01*
X184648628Y-183685771D01*
X184577200Y-183614342D01*
X184648628Y-183542914D01*
X184648628Y-183685771D01*
X184648628Y-182757200D02*
X184720057Y-182828628D01*
X184648628Y-182900057D01*
X184577200Y-182828628D01*
X184648628Y-182757200D01*
X184648628Y-182900057D01*
D10*
D11*
X197002200Y-191507200D02*
X197002200Y-194507200D01*
D10*
D11*
X261002200Y-191507200D02*
X261002200Y-198007200D01*
D14*
X187714087Y-138785913D02*
X187530998Y-138563960D01*
X188472504Y-139194553D02*
X188190848Y-139107217D01*
X187530998Y-138563960D02*
X187392782Y-138309152D01*
X188190848Y-139107217D02*
X187936039Y-138969001D01*
X187392782Y-138309152D02*
X187305447Y-138027496D01*
X188750000Y-139200000D02*
X188472504Y-139194553D01*
X187936039Y-138969001D02*
X187714087Y-138785913D01*
X186658574Y-133452455D02*
G75*
G02X187300000Y-134150000I-58574J-697545D01*
G01*
X124667888Y-140255128D02*
X127100000Y-138950000D01*
X120963416Y-142391346D02*
X124667888Y-140255128D01*
X117258944Y-144527564D02*
X120963416Y-142391346D01*
X113554472Y-146663782D02*
X117258944Y-144527564D01*
X225459999Y-119289735D02*
X225450000Y-137750000D01*
X204850000Y-139200000D02*
X224277496Y-139194553D01*
X225357217Y-138309152D02*
X225219001Y-138563961D01*
X224559152Y-139107218D02*
X224277496Y-139194553D01*
X224813960Y-138969002D02*
X224559152Y-139107218D01*
X225035913Y-138785913D02*
X224813960Y-138969002D01*
X225444553Y-138027496D02*
X225357217Y-138309152D01*
X225219001Y-138563961D02*
X225035913Y-138785913D01*
X225450000Y-137750000D02*
X225444553Y-138027496D01*
X127100000Y-138950000D02*
X147900000Y-133400000D01*
X187300000Y-134150000D02*
X187305447Y-138027496D01*
X147900000Y-133400000D02*
X186658574Y-133452455D01*
X109882452Y-148801617D02*
X113554472Y-146663782D01*
X188750000Y-139200000D02*
X204850000Y-139200000D01*
X82937528Y-50750629D02*
X82937528Y-44443695D01*
X82937528Y-57057562D02*
X82937528Y-50750629D01*
X115211711Y-37086762D02*
X104803877Y-37086762D01*
X199807654Y-38170488D02*
X189919538Y-37585374D01*
X208420758Y-38945561D02*
X199807654Y-38170488D01*
X215525697Y-39885159D02*
X208420758Y-38945561D01*
X220889319Y-40963847D02*
X215525697Y-39885159D01*
X178989563Y-37215654D02*
X167250881Y-37086762D01*
X189919538Y-37585374D02*
X178989563Y-37215654D01*
X225460000Y-52918378D02*
X225460000Y-62400000D01*
X225460000Y-43436755D02*
X225460000Y-52918378D01*
X82937528Y-69671429D02*
X82937528Y-63364495D01*
X82937528Y-75978362D02*
X82937528Y-69671429D01*
X82937528Y-82285296D02*
X82937528Y-75978362D01*
X82937528Y-88592229D02*
X82937528Y-82285296D01*
X104803877Y-37086762D02*
X94396044Y-37086762D01*
X125619545Y-37086762D02*
X115211711Y-37086762D01*
X136027379Y-37086762D02*
X125619545Y-37086762D01*
X146435213Y-37086762D02*
X136027379Y-37086762D01*
X156843047Y-37086762D02*
X146435213Y-37086762D01*
X167250881Y-37086762D02*
X156843047Y-37086762D01*
X83400937Y-37265961D02*
X83579303Y-37169210D01*
X83245570Y-37394123D02*
X83400937Y-37265961D01*
X83117409Y-37549489D02*
X83245570Y-37394123D01*
X83020657Y-37727855D02*
X83117409Y-37549489D01*
X82959523Y-37925015D02*
X83020657Y-37727855D01*
X82938210Y-38136762D02*
X82959523Y-37925015D01*
X83776462Y-37108075D02*
X83988210Y-37086762D01*
X83579303Y-37169210D02*
X83776462Y-37108075D01*
X94396044Y-37086762D02*
X83988210Y-37086762D01*
X82937528Y-63364495D02*
X82937528Y-57057562D01*
X82937528Y-44443695D02*
X82937528Y-38136762D01*
X88291758Y-116318073D02*
X89993333Y-119989540D01*
X86863105Y-112530670D02*
X88291758Y-116318073D01*
X85688004Y-108649127D02*
X86863105Y-112530670D01*
X84747083Y-104695246D02*
X85688004Y-108649127D01*
X84020972Y-100690825D02*
X84747083Y-104695246D01*
X83490297Y-96657663D02*
X84020972Y-100690825D01*
X83135690Y-92617561D02*
X83490297Y-96657663D01*
X82937777Y-88592317D02*
X83135690Y-92617561D01*
X108038864Y-149857278D02*
X108206758Y-149771756D01*
X107880206Y-149904468D02*
X108038864Y-149857278D01*
X107731252Y-149913974D02*
X107880206Y-149904468D01*
X107592470Y-149886445D02*
X107731252Y-149913974D01*
X107464328Y-149822532D02*
X107592470Y-149886445D01*
X107347295Y-149722884D02*
X107464328Y-149822532D01*
X107241837Y-149588150D02*
X107347295Y-149722884D01*
X107148425Y-149418979D02*
X107241837Y-149588150D01*
X108206758Y-149771756D02*
X109882452Y-148801617D01*
X101722730Y-140052659D02*
X107148425Y-149418979D01*
X100047036Y-137186340D02*
X101722730Y-140052659D01*
X98371341Y-134320020D02*
X100047036Y-137186340D01*
X96695647Y-131453701D02*
X98371341Y-134320020D01*
X95019952Y-128587381D02*
X96695647Y-131453701D01*
X93344258Y-125721062D02*
X95019952Y-128587381D01*
X91668563Y-122854742D02*
X93344258Y-125721062D01*
X89992869Y-119988423D02*
X91668563Y-122854742D01*
X224278471Y-42156190D02*
X220889319Y-40963847D01*
X225460000Y-43436755D02*
X224278471Y-42156190D01*
X225460000Y-109808112D02*
X225460000Y-119289735D01*
X225460000Y-100326490D02*
X225460000Y-109808112D01*
X225460000Y-90844867D02*
X225460000Y-100326490D01*
X225460000Y-81363245D02*
X225460000Y-90844867D01*
X225460000Y-71881623D02*
X225460000Y-81363245D01*
X225460000Y-62400000D02*
X225460000Y-71881623D01*
D15*
X125580000Y-50000000D03*
X115420000Y-50000000D03*
D16*
X114210000Y-44920000D03*
X128060000Y-47460000D03*
D17*
X117960000Y-55080000D03*
X124310000Y-52540000D03*
D18*
X123040000Y-44920000D03*
X116690000Y-47460000D03*
D17*
X117960000Y-44920000D03*
X124310000Y-47460000D03*
D18*
X123040000Y-55080000D03*
D19*
X120500000Y-50000000D03*
D18*
X116690000Y-52540000D03*
D15*
X144580000Y-47600000D03*
X134420000Y-47600000D03*
D16*
X133210000Y-42520000D03*
X147060000Y-45060000D03*
D17*
X136960000Y-52680000D03*
X143310000Y-50140000D03*
D18*
X142040000Y-42520000D03*
X135690000Y-45060000D03*
D17*
X136960000Y-42520000D03*
X143310000Y-45060000D03*
D18*
X142040000Y-52680000D03*
D19*
X139500000Y-47600000D03*
D18*
X135690000Y-50140000D03*
D15*
X163680000Y-46250000D03*
X153520000Y-46250000D03*
D16*
X152310000Y-41170000D03*
X166160000Y-43710000D03*
D17*
X156060000Y-51330000D03*
X162410000Y-48790000D03*
D18*
X161140000Y-41170000D03*
X154790000Y-43710000D03*
D17*
X156060000Y-41170000D03*
X162410000Y-43710000D03*
D18*
X161140000Y-51330000D03*
D19*
X158600000Y-46250000D03*
D18*
X154790000Y-48790000D03*
D15*
X182680000Y-47600000D03*
X172520000Y-47600000D03*
D16*
X171310000Y-42520000D03*
X185160000Y-45060000D03*
D17*
X175060000Y-52680000D03*
X181410000Y-50140000D03*
D18*
X180140000Y-42520000D03*
X173790000Y-45060000D03*
D17*
X175060000Y-42520000D03*
X181410000Y-45060000D03*
D18*
X180140000Y-52680000D03*
D19*
X177600000Y-47600000D03*
D18*
X173790000Y-50140000D03*
D15*
X201780000Y-52300000D03*
X191620000Y-52300000D03*
D16*
X190410000Y-47220000D03*
X204260000Y-49760000D03*
D17*
X194160000Y-57380000D03*
X200510000Y-54840000D03*
D18*
X199240000Y-47220000D03*
X192890000Y-49760000D03*
D17*
X194160000Y-47220000D03*
X200510000Y-49760000D03*
D18*
X199240000Y-57380000D03*
D19*
X196700000Y-52300000D03*
D18*
X192890000Y-54840000D03*
D15*
X220780000Y-53750000D03*
X210620000Y-53750000D03*
D16*
X209410000Y-48670000D03*
X223260000Y-51210000D03*
D17*
X213160000Y-58830000D03*
X219510000Y-56290000D03*
D18*
X218240000Y-48670000D03*
X211890000Y-51210000D03*
D17*
X213160000Y-48670000D03*
X219510000Y-51210000D03*
D18*
X218240000Y-58830000D03*
D19*
X215700000Y-53750000D03*
D18*
X211890000Y-56290000D03*
D15*
X125580000Y-69050000D03*
X115420000Y-69050000D03*
D16*
X114210000Y-63970000D03*
X128060000Y-66510000D03*
D17*
X117960000Y-74130000D03*
X124310000Y-71590000D03*
D18*
X123040000Y-63970000D03*
X116690000Y-66510000D03*
D17*
X117960000Y-63970000D03*
X124310000Y-66510000D03*
D18*
X123040000Y-74130000D03*
D19*
X120500000Y-69050000D03*
D18*
X116690000Y-71590000D03*
D15*
X144580000Y-66650000D03*
X134420000Y-66650000D03*
D16*
X133210000Y-61570000D03*
X147060000Y-64110000D03*
D17*
X136960000Y-71730000D03*
X143310000Y-69190000D03*
D18*
X142040000Y-61570000D03*
X135690000Y-64110000D03*
D17*
X136960000Y-61570000D03*
X143310000Y-64110000D03*
D18*
X142040000Y-71730000D03*
D19*
X139500000Y-66650000D03*
D18*
X135690000Y-69190000D03*
D15*
X163680000Y-65300000D03*
X153520000Y-65300000D03*
D16*
X152310000Y-60220000D03*
X166160000Y-62760000D03*
D17*
X156060000Y-70380000D03*
X162410000Y-67840000D03*
D18*
X161140000Y-60220000D03*
X154790000Y-62760000D03*
D17*
X156060000Y-60220000D03*
X162410000Y-62760000D03*
D18*
X161140000Y-70380000D03*
D19*
X158600000Y-65300000D03*
D18*
X154790000Y-67840000D03*
D15*
X182680000Y-66650000D03*
X172520000Y-66650000D03*
D16*
X171310000Y-61570000D03*
X185160000Y-64110000D03*
D17*
X175060000Y-71730000D03*
X181410000Y-69190000D03*
D18*
X180140000Y-61570000D03*
X173790000Y-64110000D03*
D17*
X175060000Y-61570000D03*
X181410000Y-64110000D03*
D18*
X180140000Y-71730000D03*
D19*
X177600000Y-66650000D03*
D18*
X173790000Y-69190000D03*
D15*
X201780000Y-71350000D03*
X191620000Y-71350000D03*
D16*
X190410000Y-66270000D03*
X204260000Y-68810000D03*
D17*
X194160000Y-76430000D03*
X200510000Y-73890000D03*
D18*
X199240000Y-66270000D03*
X192890000Y-68810000D03*
D17*
X194160000Y-66270000D03*
X200510000Y-68810000D03*
D18*
X199240000Y-76430000D03*
D19*
X196700000Y-71350000D03*
D18*
X192890000Y-73890000D03*
D15*
X220780000Y-72800000D03*
X210620000Y-72800000D03*
D16*
X209410000Y-67720000D03*
X223260000Y-70260000D03*
D17*
X213160000Y-77880000D03*
X219510000Y-75340000D03*
D18*
X218240000Y-67720000D03*
X211890000Y-70260000D03*
D17*
X213160000Y-67720000D03*
X219510000Y-70260000D03*
D18*
X218240000Y-77880000D03*
D19*
X215700000Y-72800000D03*
D18*
X211890000Y-75340000D03*
D15*
X125580000Y-88100000D03*
X115420000Y-88100000D03*
D16*
X114210000Y-83020000D03*
X128060000Y-85560000D03*
D17*
X117960000Y-93180000D03*
X124310000Y-90640000D03*
D18*
X123040000Y-83020000D03*
X116690000Y-85560000D03*
D17*
X117960000Y-83020000D03*
X124310000Y-85560000D03*
D18*
X123040000Y-93180000D03*
D19*
X120500000Y-88100000D03*
D18*
X116690000Y-90640000D03*
D15*
X144580000Y-85700000D03*
X134420000Y-85700000D03*
D16*
X133210000Y-80620000D03*
X147060000Y-83160000D03*
D17*
X136960000Y-90780000D03*
X143310000Y-88240000D03*
D18*
X142040000Y-80620000D03*
X135690000Y-83160000D03*
D17*
X136960000Y-80620000D03*
X143310000Y-83160000D03*
D18*
X142040000Y-90780000D03*
D19*
X139500000Y-85700000D03*
D18*
X135690000Y-88240000D03*
D15*
X163680000Y-84350000D03*
X153520000Y-84350000D03*
D16*
X152310000Y-79270000D03*
X166160000Y-81810000D03*
D17*
X156060000Y-89430000D03*
X162410000Y-86890000D03*
D18*
X161140000Y-79270000D03*
X154790000Y-81810000D03*
D17*
X156060000Y-79270000D03*
X162410000Y-81810000D03*
D18*
X161140000Y-89430000D03*
D19*
X158600000Y-84350000D03*
D18*
X154790000Y-86890000D03*
D15*
X182680000Y-85700000D03*
X172520000Y-85700000D03*
D16*
X171310000Y-80620000D03*
X185160000Y-83160000D03*
D17*
X175060000Y-90780000D03*
X181410000Y-88240000D03*
D18*
X180140000Y-80620000D03*
X173790000Y-83160000D03*
D17*
X175060000Y-80620000D03*
X181410000Y-83160000D03*
D18*
X180140000Y-90780000D03*
D19*
X177600000Y-85700000D03*
D18*
X173790000Y-88240000D03*
D15*
X201780000Y-90400000D03*
X191620000Y-90400000D03*
D16*
X190410000Y-85320000D03*
X204260000Y-87860000D03*
D17*
X194160000Y-95480000D03*
X200510000Y-92940000D03*
D18*
X199240000Y-85320000D03*
X192890000Y-87860000D03*
D17*
X194160000Y-85320000D03*
X200510000Y-87860000D03*
D18*
X199240000Y-95480000D03*
D19*
X196700000Y-90400000D03*
D18*
X192890000Y-92940000D03*
D15*
X220780000Y-91850000D03*
X210620000Y-91850000D03*
D16*
X209410000Y-86770000D03*
X223260000Y-89310000D03*
D17*
X213160000Y-96930000D03*
X219510000Y-94390000D03*
D18*
X218240000Y-86770000D03*
X211890000Y-89310000D03*
D17*
X213160000Y-86770000D03*
X219510000Y-89310000D03*
D18*
X218240000Y-96930000D03*
D19*
X215700000Y-91850000D03*
D18*
X211890000Y-94390000D03*
D15*
X125580000Y-107150000D03*
X115420000Y-107150000D03*
D16*
X114210000Y-102070000D03*
X128060000Y-104610000D03*
D17*
X117960000Y-112230000D03*
X124310000Y-109690000D03*
D18*
X123040000Y-102070000D03*
X116690000Y-104610000D03*
D17*
X117960000Y-102070000D03*
X124310000Y-104610000D03*
D18*
X123040000Y-112230000D03*
D19*
X120500000Y-107150000D03*
D18*
X116690000Y-109690000D03*
D15*
X144580000Y-104750000D03*
X134420000Y-104750000D03*
D16*
X133210000Y-99670000D03*
X147060000Y-102210000D03*
D17*
X136960000Y-109830000D03*
X143310000Y-107290000D03*
D18*
X142040000Y-99670000D03*
X135690000Y-102210000D03*
D17*
X136960000Y-99670000D03*
X143310000Y-102210000D03*
D18*
X142040000Y-109830000D03*
D19*
X139500000Y-104750000D03*
D18*
X135690000Y-107290000D03*
D15*
X163680000Y-103400000D03*
X153520000Y-103400000D03*
D16*
X152310000Y-98320000D03*
X166160000Y-100860000D03*
D17*
X156060000Y-108480000D03*
X162410000Y-105940000D03*
D18*
X161140000Y-98320000D03*
X154790000Y-100860000D03*
D17*
X156060000Y-98320000D03*
X162410000Y-100860000D03*
D18*
X161140000Y-108480000D03*
D19*
X158600000Y-103400000D03*
D18*
X154790000Y-105940000D03*
D15*
X182680000Y-104750000D03*
X172520000Y-104750000D03*
D16*
X171310000Y-99670000D03*
X185160000Y-102210000D03*
D17*
X175060000Y-109830000D03*
X181410000Y-107290000D03*
D18*
X180140000Y-99670000D03*
X173790000Y-102210000D03*
D17*
X175060000Y-99670000D03*
X181410000Y-102210000D03*
D18*
X180140000Y-109830000D03*
D19*
X177600000Y-104750000D03*
D18*
X173790000Y-107290000D03*
D15*
X201780000Y-109450000D03*
X191620000Y-109450000D03*
D16*
X190410000Y-104370000D03*
X204260000Y-106910000D03*
D17*
X194160000Y-114530000D03*
X200510000Y-111990000D03*
D18*
X199240000Y-104370000D03*
X192890000Y-106910000D03*
D17*
X194160000Y-104370000D03*
X200510000Y-106910000D03*
D18*
X199240000Y-114530000D03*
D19*
X196700000Y-109450000D03*
D18*
X192890000Y-111990000D03*
D15*
X220830000Y-110900000D03*
X210670000Y-110900000D03*
D16*
X209460000Y-105820000D03*
X223310000Y-108360000D03*
D17*
X213210000Y-115980000D03*
X219560000Y-113440000D03*
D18*
X218290000Y-105820000D03*
X211940000Y-108360000D03*
D17*
X213210000Y-105820000D03*
X219560000Y-108360000D03*
D18*
X218290000Y-115980000D03*
D19*
X215750000Y-110900000D03*
D18*
X211940000Y-113440000D03*
D15*
X101400000Y-96070000D03*
X101400000Y-106230000D03*
D20*
X96320000Y-107440000D03*
X98860000Y-93590000D03*
D17*
X106480000Y-103690000D03*
X103940000Y-97340000D03*
D18*
X96320000Y-98610000D03*
X98860000Y-104960000D03*
D17*
X96320000Y-103690000D03*
X98860000Y-97340000D03*
D18*
X106480000Y-98610000D03*
D19*
X101400000Y-101150000D03*
D18*
X103940000Y-104960000D03*
D15*
X111340000Y-137549409D03*
X106260000Y-128750591D03*
D10*
G36*
X108061172Y-124610313D02*
G01*
X110572646Y-123160313D01*
X112047646Y-125715087D01*
X109536172Y-127165087D01*
X108061172Y-124610313D01*
G37*
G36*
X112786468Y-137874765D02*
G01*
X115297942Y-136424765D01*
X116772942Y-138979539D01*
X114261468Y-140429539D01*
X112786468Y-137874765D01*
G37*
D17*
X103130591Y-133490295D03*
X108505295Y-137719557D03*
D18*
X114469409Y-132809705D03*
X109094705Y-128580443D03*
D17*
X111929409Y-128410295D03*
X112904705Y-135179557D03*
D18*
X105670591Y-137889705D03*
D19*
X108800000Y-133150000D03*
D18*
X104695295Y-131120443D03*
D15*
X139106903Y-125985199D03*
X129293097Y-128614801D03*
D10*
G36*
X125760073Y-125803420D02*
G01*
X125009498Y-123002235D01*
X127858979Y-122238718D01*
X128609554Y-125039903D01*
X125760073Y-125803420D01*
G37*
G36*
X139795546Y-124672227D02*
G01*
X139044971Y-121871042D01*
X141894452Y-121107525D01*
X142645027Y-123908710D01*
X139795546Y-124672227D01*
G37*
D17*
X133061349Y-132864304D03*
X138537578Y-128767351D03*
D18*
X135338651Y-121735696D03*
X129862422Y-125832649D03*
D17*
X130431748Y-123050497D03*
X137222777Y-123860448D03*
D18*
X137968252Y-131549503D03*
D19*
X134200000Y-127300000D03*
D18*
X131177223Y-130739552D03*
D15*
X163680000Y-122450000D03*
X153520000Y-122450000D03*
D16*
X152310000Y-117370000D03*
X166160000Y-119910000D03*
D17*
X156060000Y-127530000D03*
X162410000Y-124990000D03*
D18*
X161140000Y-117370000D03*
X154790000Y-119910000D03*
D17*
X156060000Y-117370000D03*
X162410000Y-119910000D03*
D18*
X161140000Y-127530000D03*
D19*
X158600000Y-122450000D03*
D18*
X154790000Y-124990000D03*
D15*
X182680000Y-123800000D03*
X172520000Y-123800000D03*
D16*
X171310000Y-118720000D03*
X185160000Y-121260000D03*
D17*
X175060000Y-128880000D03*
X181410000Y-126340000D03*
D18*
X180140000Y-118720000D03*
X173790000Y-121260000D03*
D17*
X175060000Y-118720000D03*
X181410000Y-121260000D03*
D18*
X180140000Y-128880000D03*
D19*
X177600000Y-123800000D03*
D18*
X173790000Y-126340000D03*
D15*
X201780000Y-128500000D03*
X191620000Y-128500000D03*
D16*
X190410000Y-123420000D03*
X204260000Y-125960000D03*
D17*
X194160000Y-133580000D03*
X200510000Y-131040000D03*
D18*
X199240000Y-123420000D03*
X192890000Y-125960000D03*
D17*
X194160000Y-123420000D03*
X200510000Y-125960000D03*
D18*
X199240000Y-133580000D03*
D19*
X196700000Y-128500000D03*
D18*
X192890000Y-131040000D03*
D10*
G36*
X112777276Y-125744615D02*
G01*
X114422724Y-124794615D01*
X115522724Y-126699871D01*
X113877276Y-127649871D01*
X112777276Y-125744615D01*
G37*
G36*
X111077276Y-122800129D02*
G01*
X112722724Y-121850129D01*
X113822724Y-123755385D01*
X112177276Y-124705385D01*
X111077276Y-122800129D01*
G37*
D21*
X214500000Y-121500000D03*
D22*
X217000000Y-121500000D03*
X219500000Y-121500000D03*
D23*
X211400000Y-129000000D03*
X222600000Y-129000000D03*
D22*
X214500000Y-136000000D03*
X219500000Y-136000000D03*
X85000000Y-70950000D03*
X85000000Y-64450000D03*
D24*
X89000000Y-60700000D03*
D25*
X89000000Y-60199620D03*
X89000000Y-61200380D03*
D26*
X86000000Y-85000000D03*
X108000000Y-85000000D03*
D27*
X112700000Y-58000000D03*
X116100000Y-58000000D03*
X137000000Y-55700000D03*
X133600000Y-55700000D03*
X154200000Y-54300000D03*
X150800000Y-54300000D03*
X169800000Y-55650000D03*
X173200000Y-55650000D03*
X192300000Y-60400000D03*
X188900000Y-60400000D03*
X220100000Y-61750000D03*
X223500000Y-61750000D03*
X116100000Y-61100000D03*
X112700000Y-61100000D03*
X137000000Y-58700000D03*
X133600000Y-58700000D03*
X154350000Y-57250000D03*
X150950000Y-57250000D03*
X169800000Y-58600000D03*
X173200000Y-58600000D03*
X192300000Y-63250000D03*
X188900000Y-63250000D03*
X220100000Y-64800000D03*
X223500000Y-64800000D03*
X112700000Y-96100000D03*
X116100000Y-96100000D03*
X137000000Y-93800000D03*
X133600000Y-93800000D03*
X150800000Y-92400000D03*
X154200000Y-92400000D03*
X173200000Y-93750000D03*
X169800000Y-93750000D03*
X188900000Y-98400000D03*
X192300000Y-98400000D03*
X223500000Y-99800000D03*
X220100000Y-99800000D03*
X116100000Y-99100000D03*
X112700000Y-99100000D03*
X133600000Y-96800000D03*
X137000000Y-96800000D03*
X154200000Y-95350000D03*
X150800000Y-95350000D03*
X169850000Y-96650000D03*
X173250000Y-96650000D03*
X192300000Y-101400000D03*
X188900000Y-101400000D03*
X220200000Y-103000000D03*
X223600000Y-103000000D03*
D28*
X109500000Y-95100000D03*
X109500000Y-98500000D03*
D10*
G36*
X125491286Y-122192322D02*
G01*
X124999529Y-120357063D01*
X127124566Y-119787662D01*
X127616323Y-121622921D01*
X125491286Y-122192322D01*
G37*
G36*
X128775434Y-121312338D02*
G01*
X128283677Y-119477079D01*
X130408714Y-118907678D01*
X130900471Y-120742937D01*
X128775434Y-121312338D01*
G37*
D27*
X150800000Y-114350000D03*
X154200000Y-114350000D03*
X173200000Y-115750000D03*
X169800000Y-115750000D03*
X201100000Y-120400000D03*
X204500000Y-120400000D03*
D29*
X109100000Y-76000000D03*
X109100000Y-78600000D03*
X109100000Y-81100000D03*
D30*
X86150000Y-47800000D03*
X86150000Y-40800000D03*
D31*
X84050000Y-49600000D03*
X88250000Y-51100000D03*
X84050000Y-42600000D03*
X84050000Y-45600000D03*
D30*
X87900000Y-40800000D03*
X87900000Y-47800000D03*
D31*
X90000000Y-42600000D03*
X90000000Y-45600000D03*
X90000000Y-49600000D03*
X85800000Y-51100000D03*
D32*
X96700000Y-74600000D03*
X99240000Y-74600000D03*
X101780000Y-74600000D03*
X104320000Y-74600000D03*
D25*
X104300000Y-69800380D03*
X104300000Y-68799620D03*
X101700000Y-68799620D03*
X101700000Y-69800380D03*
X99200000Y-69800380D03*
X99200000Y-68799620D03*
X96700000Y-68799620D03*
X96700000Y-69800380D03*
D32*
X84700000Y-60700000D03*
X86900000Y-60700000D03*
X84688035Y-58579272D03*
X84688035Y-53499272D03*
X86938035Y-53499272D03*
X86938035Y-58579272D03*
D33*
X129000000Y-59400000D03*
X205600000Y-61900000D03*
X129000000Y-97600000D03*
X205600000Y-100000000D03*
X108500000Y-120900000D03*
D34*
X107420000Y-41230000D03*
X107420000Y-43770000D03*
X107420000Y-46310000D03*
X107420000Y-48850000D03*
X107420000Y-51390000D03*
X107420000Y-53930000D03*
X107420000Y-56470000D03*
X107420000Y-59010000D03*
X107420000Y-61550000D03*
X107420000Y-64090000D03*
X107420000Y-66630000D03*
X107420000Y-69170000D03*
X92180000Y-69170000D03*
X92180000Y-66630000D03*
X92180000Y-64090000D03*
X92180000Y-61550000D03*
X92180000Y-59010000D03*
X92180000Y-56470000D03*
X92180000Y-53930000D03*
X92180000Y-51390000D03*
X92180000Y-48850000D03*
X92180000Y-46310000D03*
X92180000Y-43770000D03*
X92180000Y-41230000D03*
X108718815Y-52585745D03*
X108718815Y-57665745D03*
X93478815Y-42425745D03*
X108718815Y-44965745D03*
X108718815Y-67825745D03*
X93478815Y-70365745D03*
X108718815Y-60205745D03*
X108718815Y-62745745D03*
X93478815Y-60205745D03*
X93478815Y-65285745D03*
X93478815Y-52585745D03*
X93478815Y-50045745D03*
X93478815Y-44965745D03*
X93478815Y-55125745D03*
X108718815Y-70365745D03*
X93478815Y-62745745D03*
X108718815Y-42425745D03*
X108718815Y-47505745D03*
X93478815Y-67825745D03*
X108718815Y-50045745D03*
X108718815Y-55125745D03*
X93478815Y-57665745D03*
X108718815Y-65285745D03*
X93478815Y-47505745D03*
D32*
X89000000Y-73540000D03*
X89000000Y-68460000D03*
M02*
