M48
; DRILL file {KiCad (5.1.5)-3} date 05/17/20 14:35:06
; FORMAT={3:3/ absolute / metric / suppress leading zeros}
; #@! TF.CreationDate,2020-05-17T14:35:06+04:00
; #@! TF.GenerationSoftware,Kicad,Pcbnew,(5.1.5)-3
FMAT,2
METRIC,TZ
T1C0.300
T2C0.400
T3C0.813
T4C1.000
T5C1.300
T6C1.499
T7C2.400
T8C1.200
T9C1.500
T10C1.702
T11C3.000
T12C3.988
T13C4.700
%
G90
G05
T1
X89000Y-57900
X90000Y-47700
X90275Y-58285
X90300Y-59100
X90500Y-62400
X95100Y-44200
X96050Y-67806
X96100Y-51390
X96700Y-67800
X96900Y-44966
X96900Y-48800
X100200Y-39400
X100250Y-43001
X100400Y-50046
X100400Y-68800
X101460Y-93570
X101700Y-53930
X102450Y-81050
X102675Y-57666
X103000Y-68800
X103100Y-67900
X103175Y-60206
X103700Y-62746
X104300Y-64575
X105000Y-66000
X105328Y-67072
X105600Y-51400
X105600Y-65200
X105700Y-56700
X105700Y-44000
X105700Y-59000
X105700Y-61900
X105700Y-64000
X105700Y-41600
X105700Y-54200
X107400Y-76000
X109775Y-64100
X113000Y-76800
X113050Y-139450
X113150Y-80000
X113450Y-77400
X113850Y-77950
X128060Y-50040
X128100Y-68600
X128100Y-87900
X128100Y-106900
X141440Y-125270
X147050Y-85550
X147100Y-47400
X147100Y-66300
X147100Y-104800
X166150Y-84350
X166200Y-46200
X166200Y-65300
X166200Y-103100
X166200Y-122400
X185200Y-47600
X185200Y-66500
X185200Y-85500
X185200Y-104800
X185200Y-123450
X203300Y-81150
X203650Y-80550
X204050Y-80000
X204250Y-109200
X204260Y-128340
X204300Y-52400
X204300Y-71200
X204300Y-90350
X207700Y-109650
X208500Y-109250
X209300Y-108800
X223260Y-92240
X223300Y-53600
X223300Y-72800
X223300Y-111000
T2
X150800Y-54300
X154200Y-54300
X112700Y-96100
X116100Y-96100
X133600Y-96800
X137000Y-96800
X133600Y-93800
X137000Y-93800
X188900Y-60400
X192300Y-60400
X169800Y-115750
X173200Y-115750
X112700Y-99100
X116100Y-99100
X112700Y-58000
X116100Y-58000
X220200Y-103000
X223600Y-103000
X109500Y-95100
X109500Y-98500
X112700Y-61100
X116100Y-61100
X150950Y-57250
X154350Y-57250
X188900Y-101400
X192300Y-101400
X126308Y-120990
X129592Y-120110
X220100Y-64800
X223500Y-64800
X169850Y-96650
X173250Y-96650
X150800Y-114350
X154200Y-114350
X201100Y-120400
X204500Y-120400
X169800Y-55650
X173200Y-55650
X112450Y-123278
X114150Y-126222
X133600Y-58700
X137000Y-58700
X188900Y-63250
X192300Y-63250
X150800Y-92400
X154200Y-92400
X220100Y-99800
X223500Y-99800
X133600Y-55700
X137000Y-55700
X169800Y-58600
X173200Y-58600
X220100Y-61750
X223500Y-61750
X188900Y-98400
X192300Y-98400
X150800Y-95350
X154200Y-95350
X169800Y-93750
X173200Y-93750
T3
X84688Y-53499
X84688Y-58579
X86900Y-60700
X89000Y-68460
X89000Y-73540
X96700Y-74600
X99240Y-74600
X101780Y-74600
X104320Y-74600
X92180Y-41230
X92180Y-43770
X92180Y-46310
X92180Y-48850
X92180Y-51390
X92180Y-53930
X92180Y-56470
X92180Y-59010
X92180Y-61550
X92180Y-64090
X92180Y-66630
X92180Y-69170
X93479Y-42426
X93479Y-44966
X93479Y-47506
X93479Y-50046
X93479Y-52586
X93479Y-55126
X93479Y-57666
X93479Y-60206
X93479Y-62746
X93479Y-65286
X93479Y-67826
X93479Y-70366
X107420Y-41230
X107420Y-43770
X107420Y-46310
X107420Y-48850
X107420Y-51390
X107420Y-53930
X107420Y-56470
X107420Y-59010
X107420Y-61550
X107420Y-64090
X107420Y-66630
X107420Y-69170
X108719Y-42426
X108719Y-44966
X108719Y-47506
X108719Y-50046
X108719Y-52586
X108719Y-55126
X108719Y-57666
X108719Y-60206
X108719Y-62746
X108719Y-65286
X108719Y-67826
X108719Y-70366
X86938Y-53499
X86938Y-58579
X84700Y-60700
T4
X109100Y-76000
X109100Y-78600
X109100Y-81100
X214500Y-121500
X214500Y-136000
X217000Y-121500
X219500Y-121500
X219500Y-136000
T5
X85000Y-64450
X85000Y-70950
T6
X135690Y-83160
X135690Y-88240
X142040Y-80620
X142040Y-90780
X129862Y-125833
X131177Y-130740
X135339Y-121736
X137968Y-131550
X173790Y-102210
X173790Y-107290
X180140Y-99670
X180140Y-109830
X135690Y-64110
X135690Y-69190
X142040Y-61570
X142040Y-71730
X173790Y-83160
X173790Y-88240
X180140Y-80620
X180140Y-90780
X192890Y-106910
X192890Y-111990
X199240Y-104370
X199240Y-114530
X116690Y-85560
X116690Y-90640
X123040Y-83020
X123040Y-93180
X116690Y-47460
X116690Y-52540
X123040Y-44920
X123040Y-55080
X211890Y-70260
X211890Y-75340
X218240Y-67720
X218240Y-77880
X192890Y-125960
X192890Y-131040
X199240Y-123420
X199240Y-133580
X116690Y-104610
X116690Y-109690
X123040Y-102070
X123040Y-112230
X135690Y-45060
X135690Y-50140
X142040Y-42520
X142040Y-52680
X192890Y-68810
X192890Y-73890
X199240Y-66270
X199240Y-76430
X154790Y-119910
X154790Y-124990
X161140Y-117370
X161140Y-127530
X192890Y-87860
X192890Y-92940
X199240Y-85320
X199240Y-95480
X116690Y-66510
X116690Y-71590
X123040Y-63970
X123040Y-74130
X154790Y-62760
X154790Y-67840
X161140Y-60220
X161140Y-70380
X154790Y-81810
X154790Y-86890
X161140Y-79270
X161140Y-89430
X135690Y-102210
X135690Y-107290
X142040Y-99670
X142040Y-109830
X173790Y-45060
X173790Y-50140
X180140Y-42520
X180140Y-52680
X104695Y-131120
X105671Y-137890
X109095Y-128580
X114469Y-132810
X154790Y-100860
X154790Y-105940
X161140Y-98320
X161140Y-108480
X173790Y-121260
X173790Y-126340
X180140Y-118720
X180140Y-128880
X211890Y-51210
X211890Y-56290
X218240Y-48670
X218240Y-58830
X154790Y-43710
X154790Y-48790
X161140Y-41170
X161140Y-51330
X192890Y-49760
X192890Y-54840
X199240Y-47220
X199240Y-57380
X211940Y-108360
X211940Y-113440
X218290Y-105820
X218290Y-115980
X211890Y-89310
X211890Y-94390
X218240Y-86770
X218240Y-96930
X96320Y-98610
X98860Y-104960
X103940Y-104960
X106480Y-98610
X173790Y-64110
X173790Y-69190
X180140Y-61570
X180140Y-71730
T7
X108000Y-85000
X86000Y-85000
T8
X86150Y-40800
X86150Y-47800
X87900Y-40800
X87900Y-47800
T10
X106260Y-128751
X111340Y-137549
X153520Y-103400
X163680Y-103400
X172520Y-123800
X182680Y-123800
X210620Y-53750
X220780Y-53750
X153520Y-46250
X163680Y-46250
X191620Y-52300
X201780Y-52300
X210670Y-110900
X220830Y-110900
X210620Y-91850
X220780Y-91850
X101400Y-96070
X101400Y-106230
X172520Y-66650
X182680Y-66650
X134420Y-85700
X144580Y-85700
X129293Y-128615
X139107Y-125985
X172520Y-104750
X182680Y-104750
X134420Y-66650
X144580Y-66650
X172520Y-85700
X182680Y-85700
X191620Y-109450
X201780Y-109450
X115420Y-88100
X125580Y-88100
X115420Y-50000
X125580Y-50000
X210620Y-72800
X220780Y-72800
X191620Y-128500
X201780Y-128500
X115420Y-107150
X125580Y-107150
X134420Y-47600
X144580Y-47600
X191620Y-71350
X201780Y-71350
X153520Y-122450
X163680Y-122450
X191620Y-90400
X201780Y-90400
X115420Y-69050
X125580Y-69050
X153520Y-65300
X163680Y-65300
X153520Y-84350
X163680Y-84350
X134420Y-104750
X144580Y-104750
X172520Y-47600
X182680Y-47600
T11
X136960Y-80620
X136960Y-90780
X143310Y-83160
X143310Y-88240
X130432Y-123050
X133061Y-132864
X137223Y-123860
X138538Y-128767
X175060Y-99670
X175060Y-109830
X181410Y-102210
X181410Y-107290
X136960Y-61570
X136960Y-71730
X143310Y-64110
X143310Y-69190
X175060Y-80620
X175060Y-90780
X181410Y-83160
X181410Y-88240
X194160Y-104370
X194160Y-114530
X200510Y-106910
X200510Y-111990
X117960Y-83020
X117960Y-93180
X124310Y-85560
X124310Y-90640
X117960Y-44920
X117960Y-55080
X124310Y-47460
X124310Y-52540
X213160Y-67720
X213160Y-77880
X219510Y-70260
X219510Y-75340
X194160Y-123420
X194160Y-133580
X200510Y-125960
X200510Y-131040
X117960Y-102070
X117960Y-112230
X124310Y-104610
X124310Y-109690
X136960Y-42520
X136960Y-52680
X143310Y-45060
X143310Y-50140
X194160Y-66270
X194160Y-76430
X200510Y-68810
X200510Y-73890
X156060Y-117370
X156060Y-127530
X162410Y-119910
X162410Y-124990
X194160Y-85320
X194160Y-95480
X200510Y-87860
X200510Y-92940
X117960Y-63970
X117960Y-74130
X124310Y-66510
X124310Y-71590
X156060Y-60220
X156060Y-70380
X162410Y-62760
X162410Y-67840
X156060Y-79270
X156060Y-89430
X162410Y-81810
X162410Y-86890
X136960Y-99670
X136960Y-109830
X143310Y-102210
X143310Y-107290
X175060Y-42520
X175060Y-52680
X181410Y-45060
X181410Y-50140
X103131Y-133490
X108505Y-137720
X111929Y-128410
X112905Y-135180
X156060Y-98320
X156060Y-108480
X162410Y-100860
X162410Y-105940
X175060Y-118720
X175060Y-128880
X181410Y-121260
X181410Y-126340
X213160Y-48670
X213160Y-58830
X219510Y-51210
X219510Y-56290
X156060Y-41170
X156060Y-51330
X162410Y-43710
X162410Y-48790
X194160Y-47220
X194160Y-57380
X200510Y-49760
X200510Y-54840
X213210Y-105820
X213210Y-115980
X219560Y-108360
X219560Y-113440
X213160Y-86770
X213160Y-96930
X219510Y-89310
X219510Y-94390
X96320Y-103690
X98860Y-97340
X103940Y-97340
X106480Y-103690
X175060Y-61570
X175060Y-71730
X181410Y-64110
X181410Y-69190
T12
X177600Y-85700
X196700Y-109450
X120500Y-88100
X120500Y-50000
X215700Y-72800
X196700Y-128500
X120500Y-107150
X139500Y-47600
X196700Y-71350
X158600Y-122450
X196700Y-90400
X120500Y-69050
X158600Y-65300
X158600Y-84350
X139500Y-104750
X177600Y-47600
X108800Y-133150
X158600Y-103400
X177600Y-123800
X215700Y-53750
X158600Y-46250
X196700Y-52300
X215750Y-110900
X215700Y-91850
X101400Y-101150
X177600Y-66650
X139500Y-85700
X134200Y-127300
X177600Y-104750
X139500Y-66650
T13
X129000Y-97600
X205600Y-61900
X205600Y-100000
X108500Y-120900
X129000Y-59400
T1
G00X84050Y-41950
M15
G01X84050Y-43250
M16
G05
G00X84050Y-44950
M15
G01X84050Y-46250
M16
G05
G00X84050Y-48950
M15
G01X84050Y-50250
M16
G05
G00X85800Y-50450
M15
G01X85800Y-51750
M16
G05
G00X88250Y-50450
M15
G01X88250Y-51750
M16
G05
G00X90000Y-41950
M15
G01X90000Y-43250
M16
G05
G00X90000Y-44950
M15
G01X90000Y-46250
M16
G05
G00X90000Y-48950
M15
G01X90000Y-50250
M16
G05
T9
G00X211400Y-128350
M15
G01X211400Y-129650
M16
G05
G00X222600Y-128350
M15
G01X222600Y-129650
M16
G05
T0
M30
