M48
; DRILL file {KiCad (5.1.5)-3} date 05/06/20 00:40:06
; FORMAT={3:3/ absolute / metric / suppress leading zeros}
; #@! TF.CreationDate,2020-05-06T00:40:06+04:00
; #@! TF.GenerationSoftware,Kicad,Pcbnew,(5.1.5)-3
FMAT,2
METRIC,TZ
T1C0.300
T2C0.400
T3C0.500
T4C0.813
T5C1.000
T6C1.300
T7C2.400
T8C4.700
T9C0.100
T10C1.200
T11C1.700
T12C3.000
T13C4.000
%
G90
G05
T1
X90000Y-47700
X90275Y-58285
X90300Y-59100
X90500Y-62400
X93200Y-92400
X95100Y-44200
X96050Y-67806
X96100Y-51390
X96700Y-67800
X96900Y-44966
X96900Y-48800
X100400Y-50046
X100400Y-68800
X101700Y-53930
X102675Y-57666
X103000Y-68800
X103100Y-67900
X103175Y-60206
X103700Y-62746
X104300Y-64575
X105000Y-66000
X105328Y-67072
X105600Y-51400
X105600Y-65200
X105700Y-56700
X105700Y-44000
X105700Y-59000
X105700Y-61900
X105700Y-64000
X105700Y-41600
X105700Y-54200
X107200Y-117100
X109600Y-92500
X109800Y-76200
X109900Y-80600
X110300Y-64100
X112300Y-64100
X112300Y-83000
X112400Y-44900
X112400Y-102000
X113200Y-131700
X121900Y-120900
X128500Y-44900
X128600Y-102000
X128700Y-64000
X128700Y-83000
X131300Y-80600
X131300Y-100400
X131400Y-42500
X131400Y-62200
X138000Y-120900
X140800Y-118700
X147500Y-61600
X147600Y-42500
X147600Y-99700
X147800Y-80600
X150300Y-98300
X150400Y-79300
X150500Y-41100
X150600Y-60200
X157100Y-118700
X159900Y-118700
X166600Y-60200
X166700Y-41100
X166800Y-79300
X166800Y-98300
X169400Y-42500
X169400Y-99700
X169500Y-61500
X169500Y-80600
X176200Y-118700
X185600Y-61500
X185600Y-99700
X185700Y-42500
X185900Y-80600
X188500Y-85400
X188500Y-104400
X188600Y-47300
X188600Y-66200
X204700Y-47300
X204700Y-66200
X204900Y-85400
X204900Y-104400
X207200Y-48800
X207500Y-105900
X207600Y-67700
X207600Y-86900
X223139Y-56769
X223139Y-95377
X223700Y-48800
X223700Y-67700
X223900Y-86900
X223900Y-105900
T2
X150900Y-57400
X154300Y-57400
X169800Y-96800
X173200Y-96800
X188900Y-101500
X192300Y-101500
X188900Y-98300
X192300Y-98300
X112700Y-58000
X116100Y-58000
X188900Y-60400
X192300Y-60400
X220100Y-99900
X223500Y-99900
X122200Y-118000
X125600Y-118000
X112700Y-61100
X116100Y-61100
X141200Y-115800
X144600Y-115800
X220100Y-61800
X223500Y-61800
X150800Y-95400
X154200Y-95400
X160300Y-115800
X163700Y-115800
X150800Y-92300
X154200Y-92300
X220100Y-64900
X223500Y-64900
X169800Y-93600
X173200Y-93600
X169800Y-55600
X173200Y-55600
X108950Y-117828
X110650Y-120772
X133600Y-58700
X137000Y-58700
X169800Y-58700
X173200Y-58700
X133600Y-96800
X137000Y-96800
X132600Y-93800
X136000Y-93800
X220200Y-103100
X223600Y-103100
X150800Y-54200
X154200Y-54200
X103900Y-89500
X107300Y-89500
X188900Y-63300
X192300Y-63300
X112700Y-99100
X116100Y-99100
X112700Y-96000
X116100Y-96000
X132600Y-55700
X136000Y-55700
T4
X84688Y-53499
X84688Y-58579
X86900Y-60700
X96700Y-74600
X99240Y-74600
X101780Y-74600
X104320Y-74600
X84700Y-60700
X92180Y-41230
X92180Y-43770
X92180Y-46310
X92180Y-48850
X92180Y-51390
X92180Y-53930
X92180Y-56470
X92180Y-59010
X92180Y-61550
X92180Y-64090
X92180Y-66630
X92180Y-69170
X93479Y-42426
X93479Y-44966
X93479Y-47506
X93479Y-50046
X93479Y-52586
X93479Y-55126
X93479Y-57666
X93479Y-60206
X93479Y-62746
X93479Y-65286
X93479Y-67826
X93479Y-70366
X107420Y-41230
X107420Y-43770
X107420Y-46310
X107420Y-48850
X107420Y-51390
X107420Y-53930
X107420Y-56470
X107420Y-59010
X107420Y-61550
X107420Y-64090
X107420Y-66630
X107420Y-69170
X108719Y-42426
X108719Y-44966
X108719Y-47506
X108719Y-50046
X108719Y-52586
X108719Y-55126
X108719Y-57666
X108719Y-60206
X108719Y-62746
X108719Y-65286
X108719Y-67826
X108719Y-70366
X86938Y-53499
X86938Y-58579
T5
X112700Y-76500
X112700Y-78600
X112700Y-80600
T6
X85000Y-64450
X85000Y-70950
T7
X86000Y-85000
X108000Y-85000
T8
X105000Y-114800
X129600Y-97600
X205800Y-100000
X205800Y-61800
X129600Y-59600
T9
X97575Y-94920
X105225Y-94920
X211875Y-70220
X219525Y-70220
X192875Y-87920
X200525Y-87920
X154775Y-100820
X162425Y-100820
X135675Y-45020
X143325Y-45020
X126175Y-123420
X133825Y-123420
X173775Y-45020
X181425Y-45020
X116675Y-104520
X124325Y-104520
X135675Y-64120
X143325Y-64120
X192875Y-49820
X200525Y-49820
X211875Y-89420
X219525Y-89420
X116675Y-66520
X124325Y-66520
X173775Y-64020
X181425Y-64020
X211875Y-51320
X219525Y-51320
X192875Y-106920
X200525Y-106920
X154775Y-62720
X162425Y-62720
X116675Y-85520
X124325Y-85520
X154775Y-81820
X162425Y-81820
X135675Y-102220
X143325Y-102220
X116675Y-47420
X124325Y-47420
X154775Y-43630
X162425Y-43630
X211925Y-108420
X219575Y-108420
X105322Y-122397
X109147Y-129023
X173775Y-102220
X181425Y-102220
X192875Y-68720
X200525Y-68720
X145175Y-121170
X152825Y-121170
X135675Y-83120
X143325Y-83120
X164275Y-121170
X171925Y-121170
X173775Y-83120
X181425Y-83120
T10
X86150Y-40800
X86150Y-47800
X87900Y-40800
X87900Y-47800
T11
X96320Y-97500
X106480Y-97500
X210620Y-72800
X220780Y-72800
X191620Y-90500
X201780Y-90500
X153520Y-103400
X163680Y-103400
X134420Y-47600
X144580Y-47600
X124920Y-126000
X135080Y-126000
X172520Y-47600
X182680Y-47600
X115420Y-107100
X125580Y-107100
X134420Y-66700
X144580Y-66700
X191620Y-52400
X201780Y-52400
X210620Y-92000
X220780Y-92000
X115420Y-69100
X125580Y-69100
X172520Y-66600
X182680Y-66600
X210620Y-53900
X220780Y-53900
X191620Y-109500
X201780Y-109500
X153520Y-65300
X163680Y-65300
X115420Y-88100
X125580Y-88100
X153520Y-84400
X163680Y-84400
X134420Y-104800
X144580Y-104800
X115420Y-50000
X125580Y-50000
X153520Y-46210
X163680Y-46210
X210670Y-111000
X220830Y-111000
X102460Y-122601
X107540Y-131399
X172520Y-104800
X182680Y-104800
X191620Y-71300
X201780Y-71300
X143920Y-123750
X154080Y-123750
X134420Y-85700
X144580Y-85700
X163020Y-123750
X173180Y-123750
X172520Y-85700
X182680Y-85700
T12
X97590Y-94960
X98860Y-92420
X103940Y-92420
X105210Y-94960
X105210Y-94960
X211890Y-70260
X213160Y-67720
X218240Y-67720
X219510Y-70260
X219510Y-70260
X192890Y-87960
X194160Y-85420
X199240Y-85420
X200510Y-87960
X200510Y-87960
X154790Y-100860
X156060Y-98320
X161140Y-98320
X162410Y-100860
X162410Y-100860
X135690Y-45060
X136960Y-42520
X142040Y-42520
X143310Y-45060
X143310Y-45060
X126190Y-123460
X127460Y-120920
X132540Y-120920
X133810Y-123460
X133810Y-123460
X173790Y-45060
X175060Y-42520
X180140Y-42520
X181410Y-45060
X181410Y-45060
X116690Y-104560
X117960Y-102020
X123040Y-102020
X124310Y-104560
X124310Y-104560
X135690Y-64160
X136960Y-61620
X142040Y-61620
X143310Y-64160
X143310Y-64160
X192890Y-49860
X194160Y-47320
X199240Y-47320
X200510Y-49860
X200510Y-49860
X211890Y-89460
X213160Y-86920
X218240Y-86920
X219510Y-89460
X219510Y-89460
X116690Y-66560
X117960Y-64020
X123040Y-64020
X124310Y-66560
X124310Y-66560
X173790Y-64060
X175060Y-61520
X180140Y-61520
X181410Y-64060
X181410Y-64060
X211890Y-51360
X213160Y-48820
X218240Y-48820
X219510Y-51360
X219510Y-51360
X192890Y-106960
X194160Y-104420
X199240Y-104420
X200510Y-106960
X200510Y-106960
X154790Y-62760
X156060Y-60220
X161140Y-60220
X162410Y-62760
X162410Y-62760
X116690Y-85560
X117960Y-83020
X123040Y-83020
X124310Y-85560
X124310Y-85560
X154790Y-81860
X156060Y-79320
X161140Y-79320
X162410Y-81860
X162410Y-81860
X135690Y-102260
X136960Y-99720
X142040Y-99720
X143310Y-102260
X143310Y-102260
X116690Y-47460
X117960Y-44920
X123040Y-44920
X124310Y-47460
X124310Y-47460
X154790Y-43670
X156060Y-41130
X161140Y-41130
X162410Y-43670
X162410Y-43670
X211940Y-108460
X213210Y-105920
X218290Y-105920
X219560Y-108460
X219560Y-108460
X105295Y-122430
X108129Y-122260
X109105Y-129030
X109105Y-129030
X110669Y-126660
X173790Y-102260
X175060Y-99720
X180140Y-99720
X181410Y-102260
X181410Y-102260
X192890Y-68760
X194160Y-66220
X199240Y-66220
X200510Y-68760
X200510Y-68760
X145190Y-121210
X146460Y-118670
X151540Y-118670
X152810Y-121210
X152810Y-121210
X135690Y-83160
X136960Y-80620
X142040Y-80620
X143310Y-83160
X143310Y-83160
X164290Y-121210
X165560Y-118670
X170640Y-118670
X171910Y-121210
X171910Y-121210
X173790Y-83160
X175060Y-80620
X180140Y-80620
X181410Y-83160
X181410Y-83160
T13
X139500Y-66700
X196700Y-52400
X215700Y-92000
X120500Y-69100
X177600Y-66600
X215700Y-53900
X196700Y-109500
X158600Y-65300
X120500Y-88100
X158600Y-84400
X139500Y-104800
X120500Y-50000
X158600Y-46210
X215750Y-111000
X105000Y-127000
X177600Y-104800
X196700Y-71300
X149000Y-123750
X139500Y-85700
X168100Y-123750
X177600Y-85700
X101400Y-97500
X215700Y-72800
X196700Y-90500
X158600Y-103400
X139500Y-47600
X130000Y-126000
X177600Y-47600
X120500Y-107100
T3
G00X84050Y-42050
M15
G01X84050Y-43150
M16
G05
G00X84050Y-45050
M15
G01X84050Y-46150
M16
G05
G00X84050Y-49050
M15
G01X84050Y-50150
M16
G05
G00X85800Y-50550
M15
G01X85800Y-51650
M16
G05
G00X88250Y-50550
M15
G01X88250Y-51650
M16
G05
G00X90000Y-42050
M15
G01X90000Y-43150
M16
G05
G00X90000Y-45050
M15
G01X90000Y-46150
M16
G05
G00X90000Y-49050
M15
G01X90000Y-50150
M16
G05
T0
M30
