G04 #@! TF.GenerationSoftware,KiCad,Pcbnew,(5.1.5)-3*
G04 #@! TF.CreationDate,2020-05-16T22:18:44+04:00*
G04 #@! TF.ProjectId,Lily58_Pro_NG,4c696c79-3538-45f5-9072-6f5f4e472e6b,rev?*
G04 #@! TF.SameCoordinates,Original*
G04 #@! TF.FileFunction,Legend,Top*
G04 #@! TF.FilePolarity,Positive*
%FSLAX46Y46*%
G04 Gerber Fmt 4.6, Leading zero omitted, Abs format (unit mm)*
G04 Created by KiCad (PCBNEW (5.1.5)-3) date 2020-05-16 22:18:44*
%MOMM*%
%LPD*%
G04 APERTURE LIST*
%ADD10C,0.100000*%
%ADD11C,0.150000*%
%ADD12C,0.300000*%
%ADD13C,0.400000*%
%ADD14C,0.200000*%
%ADD15C,0.120000*%
G04 APERTURE END LIST*
D10*
D11*
X177002200Y-166007200D02*
X177002200Y-198007200D01*
X285002200Y-198007200D01*
X285002200Y-166007200D01*
X177002200Y-166007200D01*
D10*
D11*
X10000000Y-10000000D02*
X10000000Y-200007200D01*
X287002200Y-200007200D01*
X287002200Y-10000000D01*
X10000000Y-10000000D01*
D10*
D11*
X12000000Y-12000000D02*
X12000000Y-198007200D01*
X285002200Y-198007200D01*
X285002200Y-12000000D01*
X12000000Y-12000000D01*
D10*
D11*
X60000000Y-12000000D02*
X60000000Y-10000000D01*
D10*
D11*
X110000000Y-12000000D02*
X110000000Y-10000000D01*
D10*
D11*
X160000000Y-12000000D02*
X160000000Y-10000000D01*
D10*
D11*
X210000000Y-12000000D02*
X210000000Y-10000000D01*
D10*
D11*
X260000000Y-12000000D02*
X260000000Y-10000000D01*
D10*
D11*
X36065476Y-11588095D02*
X35322619Y-11588095D01*
X35694047Y-11588095D02*
X35694047Y-10288095D01*
X35570238Y-10473809D01*
X35446428Y-10597619D01*
X35322619Y-10659523D01*
D10*
D11*
X85322619Y-10411904D02*
X85384523Y-10350000D01*
X85508333Y-10288095D01*
X85817857Y-10288095D01*
X85941666Y-10350000D01*
X86003571Y-10411904D01*
X86065476Y-10535714D01*
X86065476Y-10659523D01*
X86003571Y-10845238D01*
X85260714Y-11588095D01*
X86065476Y-11588095D01*
D10*
D11*
X135260714Y-10288095D02*
X136065476Y-10288095D01*
X135632142Y-10783333D01*
X135817857Y-10783333D01*
X135941666Y-10845238D01*
X136003571Y-10907142D01*
X136065476Y-11030952D01*
X136065476Y-11340476D01*
X136003571Y-11464285D01*
X135941666Y-11526190D01*
X135817857Y-11588095D01*
X135446428Y-11588095D01*
X135322619Y-11526190D01*
X135260714Y-11464285D01*
D10*
D11*
X185941666Y-10721428D02*
X185941666Y-11588095D01*
X185632142Y-10226190D02*
X185322619Y-11154761D01*
X186127380Y-11154761D01*
D10*
D11*
X236003571Y-10288095D02*
X235384523Y-10288095D01*
X235322619Y-10907142D01*
X235384523Y-10845238D01*
X235508333Y-10783333D01*
X235817857Y-10783333D01*
X235941666Y-10845238D01*
X236003571Y-10907142D01*
X236065476Y-11030952D01*
X236065476Y-11340476D01*
X236003571Y-11464285D01*
X235941666Y-11526190D01*
X235817857Y-11588095D01*
X235508333Y-11588095D01*
X235384523Y-11526190D01*
X235322619Y-11464285D01*
D10*
D11*
X285941666Y-10288095D02*
X285694047Y-10288095D01*
X285570238Y-10350000D01*
X285508333Y-10411904D01*
X285384523Y-10597619D01*
X285322619Y-10845238D01*
X285322619Y-11340476D01*
X285384523Y-11464285D01*
X285446428Y-11526190D01*
X285570238Y-11588095D01*
X285817857Y-11588095D01*
X285941666Y-11526190D01*
X286003571Y-11464285D01*
X286065476Y-11340476D01*
X286065476Y-11030952D01*
X286003571Y-10907142D01*
X285941666Y-10845238D01*
X285817857Y-10783333D01*
X285570238Y-10783333D01*
X285446428Y-10845238D01*
X285384523Y-10907142D01*
X285322619Y-11030952D01*
D10*
D11*
X60000000Y-198007200D02*
X60000000Y-200007200D01*
D10*
D11*
X110000000Y-198007200D02*
X110000000Y-200007200D01*
D10*
D11*
X160000000Y-198007200D02*
X160000000Y-200007200D01*
D10*
D11*
X210000000Y-198007200D02*
X210000000Y-200007200D01*
D10*
D11*
X260000000Y-198007200D02*
X260000000Y-200007200D01*
D10*
D11*
X36065476Y-199595295D02*
X35322619Y-199595295D01*
X35694047Y-199595295D02*
X35694047Y-198295295D01*
X35570238Y-198481009D01*
X35446428Y-198604819D01*
X35322619Y-198666723D01*
D10*
D11*
X85322619Y-198419104D02*
X85384523Y-198357200D01*
X85508333Y-198295295D01*
X85817857Y-198295295D01*
X85941666Y-198357200D01*
X86003571Y-198419104D01*
X86065476Y-198542914D01*
X86065476Y-198666723D01*
X86003571Y-198852438D01*
X85260714Y-199595295D01*
X86065476Y-199595295D01*
D10*
D11*
X135260714Y-198295295D02*
X136065476Y-198295295D01*
X135632142Y-198790533D01*
X135817857Y-198790533D01*
X135941666Y-198852438D01*
X136003571Y-198914342D01*
X136065476Y-199038152D01*
X136065476Y-199347676D01*
X136003571Y-199471485D01*
X135941666Y-199533390D01*
X135817857Y-199595295D01*
X135446428Y-199595295D01*
X135322619Y-199533390D01*
X135260714Y-199471485D01*
D10*
D11*
X185941666Y-198728628D02*
X185941666Y-199595295D01*
X185632142Y-198233390D02*
X185322619Y-199161961D01*
X186127380Y-199161961D01*
D10*
D11*
X236003571Y-198295295D02*
X235384523Y-198295295D01*
X235322619Y-198914342D01*
X235384523Y-198852438D01*
X235508333Y-198790533D01*
X235817857Y-198790533D01*
X235941666Y-198852438D01*
X236003571Y-198914342D01*
X236065476Y-199038152D01*
X236065476Y-199347676D01*
X236003571Y-199471485D01*
X235941666Y-199533390D01*
X235817857Y-199595295D01*
X235508333Y-199595295D01*
X235384523Y-199533390D01*
X235322619Y-199471485D01*
D10*
D11*
X285941666Y-198295295D02*
X285694047Y-198295295D01*
X285570238Y-198357200D01*
X285508333Y-198419104D01*
X285384523Y-198604819D01*
X285322619Y-198852438D01*
X285322619Y-199347676D01*
X285384523Y-199471485D01*
X285446428Y-199533390D01*
X285570238Y-199595295D01*
X285817857Y-199595295D01*
X285941666Y-199533390D01*
X286003571Y-199471485D01*
X286065476Y-199347676D01*
X286065476Y-199038152D01*
X286003571Y-198914342D01*
X285941666Y-198852438D01*
X285817857Y-198790533D01*
X285570238Y-198790533D01*
X285446428Y-198852438D01*
X285384523Y-198914342D01*
X285322619Y-199038152D01*
D10*
D11*
X10000000Y-60000000D02*
X12000000Y-60000000D01*
D10*
D11*
X10000000Y-110000000D02*
X12000000Y-110000000D01*
D10*
D11*
X10000000Y-160000000D02*
X12000000Y-160000000D01*
D10*
D11*
X10690476Y-35216666D02*
X11309523Y-35216666D01*
X10566666Y-35588095D02*
X11000000Y-34288095D01*
X11433333Y-35588095D01*
D10*
D11*
X11092857Y-84907142D02*
X11278571Y-84969047D01*
X11340476Y-85030952D01*
X11402380Y-85154761D01*
X11402380Y-85340476D01*
X11340476Y-85464285D01*
X11278571Y-85526190D01*
X11154761Y-85588095D01*
X10659523Y-85588095D01*
X10659523Y-84288095D01*
X11092857Y-84288095D01*
X11216666Y-84350000D01*
X11278571Y-84411904D01*
X11340476Y-84535714D01*
X11340476Y-84659523D01*
X11278571Y-84783333D01*
X11216666Y-84845238D01*
X11092857Y-84907142D01*
X10659523Y-84907142D01*
D10*
D11*
X11402380Y-135464285D02*
X11340476Y-135526190D01*
X11154761Y-135588095D01*
X11030952Y-135588095D01*
X10845238Y-135526190D01*
X10721428Y-135402380D01*
X10659523Y-135278571D01*
X10597619Y-135030952D01*
X10597619Y-134845238D01*
X10659523Y-134597619D01*
X10721428Y-134473809D01*
X10845238Y-134350000D01*
X11030952Y-134288095D01*
X11154761Y-134288095D01*
X11340476Y-134350000D01*
X11402380Y-134411904D01*
D10*
D11*
X10659523Y-185588095D02*
X10659523Y-184288095D01*
X10969047Y-184288095D01*
X11154761Y-184350000D01*
X11278571Y-184473809D01*
X11340476Y-184597619D01*
X11402380Y-184845238D01*
X11402380Y-185030952D01*
X11340476Y-185278571D01*
X11278571Y-185402380D01*
X11154761Y-185526190D01*
X10969047Y-185588095D01*
X10659523Y-185588095D01*
D10*
D11*
X287002200Y-60000000D02*
X285002200Y-60000000D01*
D10*
D11*
X287002200Y-110000000D02*
X285002200Y-110000000D01*
D10*
D11*
X287002200Y-160000000D02*
X285002200Y-160000000D01*
D10*
D11*
X285692676Y-35216666D02*
X286311723Y-35216666D01*
X285568866Y-35588095D02*
X286002200Y-34288095D01*
X286435533Y-35588095D01*
D10*
D11*
X286095057Y-84907142D02*
X286280771Y-84969047D01*
X286342676Y-85030952D01*
X286404580Y-85154761D01*
X286404580Y-85340476D01*
X286342676Y-85464285D01*
X286280771Y-85526190D01*
X286156961Y-85588095D01*
X285661723Y-85588095D01*
X285661723Y-84288095D01*
X286095057Y-84288095D01*
X286218866Y-84350000D01*
X286280771Y-84411904D01*
X286342676Y-84535714D01*
X286342676Y-84659523D01*
X286280771Y-84783333D01*
X286218866Y-84845238D01*
X286095057Y-84907142D01*
X285661723Y-84907142D01*
D10*
D11*
X286404580Y-135464285D02*
X286342676Y-135526190D01*
X286156961Y-135588095D01*
X286033152Y-135588095D01*
X285847438Y-135526190D01*
X285723628Y-135402380D01*
X285661723Y-135278571D01*
X285599819Y-135030952D01*
X285599819Y-134845238D01*
X285661723Y-134597619D01*
X285723628Y-134473809D01*
X285847438Y-134350000D01*
X286033152Y-134288095D01*
X286156961Y-134288095D01*
X286342676Y-134350000D01*
X286404580Y-134411904D01*
D10*
D11*
X285661723Y-185588095D02*
X285661723Y-184288095D01*
X285971247Y-184288095D01*
X286156961Y-184350000D01*
X286280771Y-184473809D01*
X286342676Y-184597619D01*
X286404580Y-184845238D01*
X286404580Y-185030952D01*
X286342676Y-185278571D01*
X286280771Y-185402380D01*
X286156961Y-185526190D01*
X285971247Y-185588095D01*
X285661723Y-185588095D01*
D10*
D11*
X200434342Y-193785771D02*
X200434342Y-192285771D01*
X200791485Y-192285771D01*
X201005771Y-192357200D01*
X201148628Y-192500057D01*
X201220057Y-192642914D01*
X201291485Y-192928628D01*
X201291485Y-193142914D01*
X201220057Y-193428628D01*
X201148628Y-193571485D01*
X201005771Y-193714342D01*
X200791485Y-193785771D01*
X200434342Y-193785771D01*
X202577200Y-193785771D02*
X202577200Y-193000057D01*
X202505771Y-192857200D01*
X202362914Y-192785771D01*
X202077200Y-192785771D01*
X201934342Y-192857200D01*
X202577200Y-193714342D02*
X202434342Y-193785771D01*
X202077200Y-193785771D01*
X201934342Y-193714342D01*
X201862914Y-193571485D01*
X201862914Y-193428628D01*
X201934342Y-193285771D01*
X202077200Y-193214342D01*
X202434342Y-193214342D01*
X202577200Y-193142914D01*
X203077200Y-192785771D02*
X203648628Y-192785771D01*
X203291485Y-192285771D02*
X203291485Y-193571485D01*
X203362914Y-193714342D01*
X203505771Y-193785771D01*
X203648628Y-193785771D01*
X204720057Y-193714342D02*
X204577200Y-193785771D01*
X204291485Y-193785771D01*
X204148628Y-193714342D01*
X204077200Y-193571485D01*
X204077200Y-193000057D01*
X204148628Y-192857200D01*
X204291485Y-192785771D01*
X204577200Y-192785771D01*
X204720057Y-192857200D01*
X204791485Y-193000057D01*
X204791485Y-193142914D01*
X204077200Y-193285771D01*
X205434342Y-193642914D02*
X205505771Y-193714342D01*
X205434342Y-193785771D01*
X205362914Y-193714342D01*
X205434342Y-193642914D01*
X205434342Y-193785771D01*
X205434342Y-192857200D02*
X205505771Y-192928628D01*
X205434342Y-193000057D01*
X205362914Y-192928628D01*
X205434342Y-192857200D01*
X205434342Y-193000057D01*
D10*
D11*
X177002200Y-194507200D02*
X285002200Y-194507200D01*
D10*
D11*
X178434342Y-196585771D02*
X178434342Y-195085771D01*
X179291485Y-196585771D02*
X178648628Y-195728628D01*
X179291485Y-195085771D02*
X178434342Y-195942914D01*
X179934342Y-196585771D02*
X179934342Y-195585771D01*
X179934342Y-195085771D02*
X179862914Y-195157200D01*
X179934342Y-195228628D01*
X180005771Y-195157200D01*
X179934342Y-195085771D01*
X179934342Y-195228628D01*
X181505771Y-196442914D02*
X181434342Y-196514342D01*
X181220057Y-196585771D01*
X181077200Y-196585771D01*
X180862914Y-196514342D01*
X180720057Y-196371485D01*
X180648628Y-196228628D01*
X180577200Y-195942914D01*
X180577200Y-195728628D01*
X180648628Y-195442914D01*
X180720057Y-195300057D01*
X180862914Y-195157200D01*
X181077200Y-195085771D01*
X181220057Y-195085771D01*
X181434342Y-195157200D01*
X181505771Y-195228628D01*
X182791485Y-196585771D02*
X182791485Y-195800057D01*
X182720057Y-195657200D01*
X182577200Y-195585771D01*
X182291485Y-195585771D01*
X182148628Y-195657200D01*
X182791485Y-196514342D02*
X182648628Y-196585771D01*
X182291485Y-196585771D01*
X182148628Y-196514342D01*
X182077200Y-196371485D01*
X182077200Y-196228628D01*
X182148628Y-196085771D01*
X182291485Y-196014342D01*
X182648628Y-196014342D01*
X182791485Y-195942914D01*
X184148628Y-196585771D02*
X184148628Y-195085771D01*
X184148628Y-196514342D02*
X184005771Y-196585771D01*
X183720057Y-196585771D01*
X183577200Y-196514342D01*
X183505771Y-196442914D01*
X183434342Y-196300057D01*
X183434342Y-195871485D01*
X183505771Y-195728628D01*
X183577200Y-195657200D01*
X183720057Y-195585771D01*
X184005771Y-195585771D01*
X184148628Y-195657200D01*
X186005771Y-195800057D02*
X186505771Y-195800057D01*
X186720057Y-196585771D02*
X186005771Y-196585771D01*
X186005771Y-195085771D01*
X186720057Y-195085771D01*
X187362914Y-196442914D02*
X187434342Y-196514342D01*
X187362914Y-196585771D01*
X187291485Y-196514342D01*
X187362914Y-196442914D01*
X187362914Y-196585771D01*
X188077200Y-196585771D02*
X188077200Y-195085771D01*
X188434342Y-195085771D01*
X188648628Y-195157200D01*
X188791485Y-195300057D01*
X188862914Y-195442914D01*
X188934342Y-195728628D01*
X188934342Y-195942914D01*
X188862914Y-196228628D01*
X188791485Y-196371485D01*
X188648628Y-196514342D01*
X188434342Y-196585771D01*
X188077200Y-196585771D01*
X189577200Y-196442914D02*
X189648628Y-196514342D01*
X189577200Y-196585771D01*
X189505771Y-196514342D01*
X189577200Y-196442914D01*
X189577200Y-196585771D01*
X190220057Y-196157200D02*
X190934342Y-196157200D01*
X190077200Y-196585771D02*
X190577200Y-195085771D01*
X191077200Y-196585771D01*
X191577200Y-196442914D02*
X191648628Y-196514342D01*
X191577200Y-196585771D01*
X191505771Y-196514342D01*
X191577200Y-196442914D01*
X191577200Y-196585771D01*
X194577200Y-196585771D02*
X194577200Y-195085771D01*
X194720057Y-196014342D02*
X195148628Y-196585771D01*
X195148628Y-195585771D02*
X194577200Y-196157200D01*
X195791485Y-196585771D02*
X195791485Y-195585771D01*
X195791485Y-195085771D02*
X195720057Y-195157200D01*
X195791485Y-195228628D01*
X195862914Y-195157200D01*
X195791485Y-195085771D01*
X195791485Y-195228628D01*
X197148628Y-196514342D02*
X197005771Y-196585771D01*
X196720057Y-196585771D01*
X196577200Y-196514342D01*
X196505771Y-196442914D01*
X196434342Y-196300057D01*
X196434342Y-195871485D01*
X196505771Y-195728628D01*
X196577200Y-195657200D01*
X196720057Y-195585771D01*
X197005771Y-195585771D01*
X197148628Y-195657200D01*
X198434342Y-196585771D02*
X198434342Y-195800057D01*
X198362914Y-195657200D01*
X198220057Y-195585771D01*
X197934342Y-195585771D01*
X197791485Y-195657200D01*
X198434342Y-196514342D02*
X198291485Y-196585771D01*
X197934342Y-196585771D01*
X197791485Y-196514342D01*
X197720057Y-196371485D01*
X197720057Y-196228628D01*
X197791485Y-196085771D01*
X197934342Y-196014342D01*
X198291485Y-196014342D01*
X198434342Y-195942914D01*
X199791485Y-196585771D02*
X199791485Y-195085771D01*
X199791485Y-196514342D02*
X199648628Y-196585771D01*
X199362914Y-196585771D01*
X199220057Y-196514342D01*
X199148628Y-196442914D01*
X199077200Y-196300057D01*
X199077200Y-195871485D01*
X199148628Y-195728628D01*
X199220057Y-195657200D01*
X199362914Y-195585771D01*
X199648628Y-195585771D01*
X199791485Y-195657200D01*
X202077200Y-197157200D02*
X202005771Y-197085771D01*
X201862914Y-196871485D01*
X201791485Y-196728628D01*
X201720057Y-196514342D01*
X201648628Y-196157200D01*
X201648628Y-195871485D01*
X201720057Y-195514342D01*
X201791485Y-195300057D01*
X201862914Y-195157200D01*
X202005771Y-194942914D01*
X202077200Y-194871485D01*
X203362914Y-195085771D02*
X202648628Y-195085771D01*
X202577200Y-195800057D01*
X202648628Y-195728628D01*
X202791485Y-195657200D01*
X203148628Y-195657200D01*
X203291485Y-195728628D01*
X203362914Y-195800057D01*
X203434342Y-195942914D01*
X203434342Y-196300057D01*
X203362914Y-196442914D01*
X203291485Y-196514342D01*
X203148628Y-196585771D01*
X202791485Y-196585771D01*
X202648628Y-196514342D01*
X202577200Y-196442914D01*
X204077200Y-196442914D02*
X204148628Y-196514342D01*
X204077200Y-196585771D01*
X204005771Y-196514342D01*
X204077200Y-196442914D01*
X204077200Y-196585771D01*
X205577200Y-196585771D02*
X204720057Y-196585771D01*
X205148628Y-196585771D02*
X205148628Y-195085771D01*
X205005771Y-195300057D01*
X204862914Y-195442914D01*
X204720057Y-195514342D01*
X206220057Y-196442914D02*
X206291485Y-196514342D01*
X206220057Y-196585771D01*
X206148628Y-196514342D01*
X206220057Y-196442914D01*
X206220057Y-196585771D01*
X207648628Y-195085771D02*
X206934342Y-195085771D01*
X206862914Y-195800057D01*
X206934342Y-195728628D01*
X207077200Y-195657200D01*
X207434342Y-195657200D01*
X207577200Y-195728628D01*
X207648628Y-195800057D01*
X207720057Y-195942914D01*
X207720057Y-196300057D01*
X207648628Y-196442914D01*
X207577200Y-196514342D01*
X207434342Y-196585771D01*
X207077200Y-196585771D01*
X206934342Y-196514342D01*
X206862914Y-196442914D01*
X208220057Y-197157200D02*
X208291485Y-197085771D01*
X208434342Y-196871485D01*
X208505771Y-196728628D01*
X208577200Y-196514342D01*
X208648628Y-196157200D01*
X208648628Y-195871485D01*
X208577200Y-195514342D01*
X208505771Y-195300057D01*
X208434342Y-195157200D01*
X208291485Y-194942914D01*
X208220057Y-194871485D01*
X209362914Y-196014342D02*
X210505771Y-196014342D01*
X211077200Y-195085771D02*
X212005771Y-195085771D01*
X211505771Y-195657200D01*
X211720057Y-195657200D01*
X211862914Y-195728628D01*
X211934342Y-195800057D01*
X212005771Y-195942914D01*
X212005771Y-196300057D01*
X211934342Y-196442914D01*
X211862914Y-196514342D01*
X211720057Y-196585771D01*
X211291485Y-196585771D01*
X211148628Y-196514342D01*
X211077200Y-196442914D01*
D10*
D11*
X177002200Y-191507200D02*
X285002200Y-191507200D01*
D10*
D12*
X264411485Y-193785771D02*
X263911485Y-193071485D01*
X263554342Y-193785771D02*
X263554342Y-192285771D01*
X264125771Y-192285771D01*
X264268628Y-192357200D01*
X264340057Y-192428628D01*
X264411485Y-192571485D01*
X264411485Y-192785771D01*
X264340057Y-192928628D01*
X264268628Y-193000057D01*
X264125771Y-193071485D01*
X263554342Y-193071485D01*
X265625771Y-193714342D02*
X265482914Y-193785771D01*
X265197200Y-193785771D01*
X265054342Y-193714342D01*
X264982914Y-193571485D01*
X264982914Y-193000057D01*
X265054342Y-192857200D01*
X265197200Y-192785771D01*
X265482914Y-192785771D01*
X265625771Y-192857200D01*
X265697200Y-193000057D01*
X265697200Y-193142914D01*
X264982914Y-193285771D01*
X266197200Y-192785771D02*
X266554342Y-193785771D01*
X266911485Y-192785771D01*
X267482914Y-193642914D02*
X267554342Y-193714342D01*
X267482914Y-193785771D01*
X267411485Y-193714342D01*
X267482914Y-193642914D01*
X267482914Y-193785771D01*
X267482914Y-192857200D02*
X267554342Y-192928628D01*
X267482914Y-193000057D01*
X267411485Y-192928628D01*
X267482914Y-192857200D01*
X267482914Y-193000057D01*
D10*
D11*
X178362914Y-193714342D02*
X178577200Y-193785771D01*
X178934342Y-193785771D01*
X179077200Y-193714342D01*
X179148628Y-193642914D01*
X179220057Y-193500057D01*
X179220057Y-193357200D01*
X179148628Y-193214342D01*
X179077200Y-193142914D01*
X178934342Y-193071485D01*
X178648628Y-193000057D01*
X178505771Y-192928628D01*
X178434342Y-192857200D01*
X178362914Y-192714342D01*
X178362914Y-192571485D01*
X178434342Y-192428628D01*
X178505771Y-192357200D01*
X178648628Y-192285771D01*
X179005771Y-192285771D01*
X179220057Y-192357200D01*
X179862914Y-193785771D02*
X179862914Y-192785771D01*
X179862914Y-192285771D02*
X179791485Y-192357200D01*
X179862914Y-192428628D01*
X179934342Y-192357200D01*
X179862914Y-192285771D01*
X179862914Y-192428628D01*
X180434342Y-192785771D02*
X181220057Y-192785771D01*
X180434342Y-193785771D01*
X181220057Y-193785771D01*
X182362914Y-193714342D02*
X182220057Y-193785771D01*
X181934342Y-193785771D01*
X181791485Y-193714342D01*
X181720057Y-193571485D01*
X181720057Y-193000057D01*
X181791485Y-192857200D01*
X181934342Y-192785771D01*
X182220057Y-192785771D01*
X182362914Y-192857200D01*
X182434342Y-193000057D01*
X182434342Y-193142914D01*
X181720057Y-193285771D01*
X183077200Y-193642914D02*
X183148628Y-193714342D01*
X183077200Y-193785771D01*
X183005771Y-193714342D01*
X183077200Y-193642914D01*
X183077200Y-193785771D01*
X183077200Y-192857200D02*
X183148628Y-192928628D01*
X183077200Y-193000057D01*
X183005771Y-192928628D01*
X183077200Y-192857200D01*
X183077200Y-193000057D01*
X184862914Y-193357200D02*
X185577200Y-193357200D01*
X184720057Y-193785771D02*
X185220057Y-192285771D01*
X185720057Y-193785771D01*
X186862914Y-192785771D02*
X186862914Y-193785771D01*
X186505771Y-192214342D02*
X186148628Y-193285771D01*
X187077200Y-193285771D01*
D10*
D11*
X263434342Y-196585771D02*
X263434342Y-195085771D01*
X264791485Y-196585771D02*
X264791485Y-195085771D01*
X264791485Y-196514342D02*
X264648628Y-196585771D01*
X264362914Y-196585771D01*
X264220057Y-196514342D01*
X264148628Y-196442914D01*
X264077200Y-196300057D01*
X264077200Y-195871485D01*
X264148628Y-195728628D01*
X264220057Y-195657200D01*
X264362914Y-195585771D01*
X264648628Y-195585771D01*
X264791485Y-195657200D01*
X265505771Y-196442914D02*
X265577200Y-196514342D01*
X265505771Y-196585771D01*
X265434342Y-196514342D01*
X265505771Y-196442914D01*
X265505771Y-196585771D01*
X265505771Y-195657200D02*
X265577200Y-195728628D01*
X265505771Y-195800057D01*
X265434342Y-195728628D01*
X265505771Y-195657200D01*
X265505771Y-195800057D01*
X268148628Y-196585771D02*
X267291485Y-196585771D01*
X267720057Y-196585771D02*
X267720057Y-195085771D01*
X267577200Y-195300057D01*
X267434342Y-195442914D01*
X267291485Y-195514342D01*
X269862914Y-195014342D02*
X268577200Y-196942914D01*
X271148628Y-196585771D02*
X270291485Y-196585771D01*
X270720057Y-196585771D02*
X270720057Y-195085771D01*
X270577200Y-195300057D01*
X270434342Y-195442914D01*
X270291485Y-195514342D01*
D10*
D11*
X177002200Y-187507200D02*
X285002200Y-187507200D01*
D10*
D13*
X178714580Y-188211961D02*
X179857438Y-188211961D01*
X179036009Y-190211961D02*
X179286009Y-188211961D01*
X180274104Y-190211961D02*
X180440771Y-188878628D01*
X180524104Y-188211961D02*
X180416961Y-188307200D01*
X180500295Y-188402438D01*
X180607438Y-188307200D01*
X180524104Y-188211961D01*
X180500295Y-188402438D01*
X181107438Y-188878628D02*
X181869342Y-188878628D01*
X181476485Y-188211961D02*
X181262200Y-189926247D01*
X181333628Y-190116723D01*
X181512200Y-190211961D01*
X181702676Y-190211961D01*
X182655057Y-190211961D02*
X182476485Y-190116723D01*
X182405057Y-189926247D01*
X182619342Y-188211961D01*
X184190771Y-190116723D02*
X183988390Y-190211961D01*
X183607438Y-190211961D01*
X183428866Y-190116723D01*
X183357438Y-189926247D01*
X183452676Y-189164342D01*
X183571723Y-188973866D01*
X183774104Y-188878628D01*
X184155057Y-188878628D01*
X184333628Y-188973866D01*
X184405057Y-189164342D01*
X184381247Y-189354819D01*
X183405057Y-189545295D01*
X185155057Y-190021485D02*
X185238390Y-190116723D01*
X185131247Y-190211961D01*
X185047914Y-190116723D01*
X185155057Y-190021485D01*
X185131247Y-190211961D01*
X185286009Y-188973866D02*
X185369342Y-189069104D01*
X185262200Y-189164342D01*
X185178866Y-189069104D01*
X185286009Y-188973866D01*
X185262200Y-189164342D01*
D10*
D11*
X178934342Y-185600057D02*
X178434342Y-185600057D01*
X178434342Y-186385771D02*
X178434342Y-184885771D01*
X179148628Y-184885771D01*
X179720057Y-186385771D02*
X179720057Y-185385771D01*
X179720057Y-184885771D02*
X179648628Y-184957200D01*
X179720057Y-185028628D01*
X179791485Y-184957200D01*
X179720057Y-184885771D01*
X179720057Y-185028628D01*
X180648628Y-186385771D02*
X180505771Y-186314342D01*
X180434342Y-186171485D01*
X180434342Y-184885771D01*
X181791485Y-186314342D02*
X181648628Y-186385771D01*
X181362914Y-186385771D01*
X181220057Y-186314342D01*
X181148628Y-186171485D01*
X181148628Y-185600057D01*
X181220057Y-185457200D01*
X181362914Y-185385771D01*
X181648628Y-185385771D01*
X181791485Y-185457200D01*
X181862914Y-185600057D01*
X181862914Y-185742914D01*
X181148628Y-185885771D01*
X182505771Y-186242914D02*
X182577200Y-186314342D01*
X182505771Y-186385771D01*
X182434342Y-186314342D01*
X182505771Y-186242914D01*
X182505771Y-186385771D01*
X182505771Y-185457200D02*
X182577200Y-185528628D01*
X182505771Y-185600057D01*
X182434342Y-185528628D01*
X182505771Y-185457200D01*
X182505771Y-185600057D01*
X185077200Y-186385771D02*
X184362914Y-186385771D01*
X184362914Y-184885771D01*
X185577200Y-186385771D02*
X185577200Y-185385771D01*
X185577200Y-184885771D02*
X185505771Y-184957200D01*
X185577200Y-185028628D01*
X185648628Y-184957200D01*
X185577200Y-184885771D01*
X185577200Y-185028628D01*
X186505771Y-186385771D02*
X186362914Y-186314342D01*
X186291485Y-186171485D01*
X186291485Y-184885771D01*
X186934342Y-185385771D02*
X187291485Y-186385771D01*
X187648628Y-185385771D02*
X187291485Y-186385771D01*
X187148628Y-186742914D01*
X187077200Y-186814342D01*
X186934342Y-186885771D01*
X188934342Y-184885771D02*
X188220057Y-184885771D01*
X188148628Y-185600057D01*
X188220057Y-185528628D01*
X188362914Y-185457200D01*
X188720057Y-185457200D01*
X188862914Y-185528628D01*
X188934342Y-185600057D01*
X189005771Y-185742914D01*
X189005771Y-186100057D01*
X188934342Y-186242914D01*
X188862914Y-186314342D01*
X188720057Y-186385771D01*
X188362914Y-186385771D01*
X188220057Y-186314342D01*
X188148628Y-186242914D01*
X189862914Y-185528628D02*
X189720057Y-185457200D01*
X189648628Y-185385771D01*
X189577200Y-185242914D01*
X189577200Y-185171485D01*
X189648628Y-185028628D01*
X189720057Y-184957200D01*
X189862914Y-184885771D01*
X190148628Y-184885771D01*
X190291485Y-184957200D01*
X190362914Y-185028628D01*
X190434342Y-185171485D01*
X190434342Y-185242914D01*
X190362914Y-185385771D01*
X190291485Y-185457200D01*
X190148628Y-185528628D01*
X189862914Y-185528628D01*
X189720057Y-185600057D01*
X189648628Y-185671485D01*
X189577200Y-185814342D01*
X189577200Y-186100057D01*
X189648628Y-186242914D01*
X189720057Y-186314342D01*
X189862914Y-186385771D01*
X190148628Y-186385771D01*
X190291485Y-186314342D01*
X190362914Y-186242914D01*
X190434342Y-186100057D01*
X190434342Y-185814342D01*
X190362914Y-185671485D01*
X190291485Y-185600057D01*
X190148628Y-185528628D01*
X190720057Y-186528628D02*
X191862914Y-186528628D01*
X192220057Y-186385771D02*
X192220057Y-184885771D01*
X192791485Y-184885771D01*
X192934342Y-184957200D01*
X193005771Y-185028628D01*
X193077200Y-185171485D01*
X193077200Y-185385771D01*
X193005771Y-185528628D01*
X192934342Y-185600057D01*
X192791485Y-185671485D01*
X192220057Y-185671485D01*
X193720057Y-186385771D02*
X193720057Y-185385771D01*
X193720057Y-185671485D02*
X193791485Y-185528628D01*
X193862914Y-185457200D01*
X194005771Y-185385771D01*
X194148628Y-185385771D01*
X194862914Y-186385771D02*
X194720057Y-186314342D01*
X194648628Y-186242914D01*
X194577200Y-186100057D01*
X194577200Y-185671485D01*
X194648628Y-185528628D01*
X194720057Y-185457200D01*
X194862914Y-185385771D01*
X195077200Y-185385771D01*
X195220057Y-185457200D01*
X195291485Y-185528628D01*
X195362914Y-185671485D01*
X195362914Y-186100057D01*
X195291485Y-186242914D01*
X195220057Y-186314342D01*
X195077200Y-186385771D01*
X194862914Y-186385771D01*
X195648628Y-186528628D02*
X196791485Y-186528628D01*
X197148628Y-186385771D02*
X197148628Y-184885771D01*
X198005771Y-186385771D01*
X198005771Y-184885771D01*
X199505771Y-184957200D02*
X199362914Y-184885771D01*
X199148628Y-184885771D01*
X198934342Y-184957200D01*
X198791485Y-185100057D01*
X198720057Y-185242914D01*
X198648628Y-185528628D01*
X198648628Y-185742914D01*
X198720057Y-186028628D01*
X198791485Y-186171485D01*
X198934342Y-186314342D01*
X199148628Y-186385771D01*
X199291485Y-186385771D01*
X199505771Y-186314342D01*
X199577200Y-186242914D01*
X199577200Y-185742914D01*
X199291485Y-185742914D01*
X200220057Y-186242914D02*
X200291485Y-186314342D01*
X200220057Y-186385771D01*
X200148628Y-186314342D01*
X200220057Y-186242914D01*
X200220057Y-186385771D01*
X200934342Y-186385771D02*
X200934342Y-184885771D01*
X201077200Y-185814342D02*
X201505771Y-186385771D01*
X201505771Y-185385771D02*
X200934342Y-185957200D01*
X202148628Y-186385771D02*
X202148628Y-185385771D01*
X202148628Y-184885771D02*
X202077200Y-184957200D01*
X202148628Y-185028628D01*
X202220057Y-184957200D01*
X202148628Y-184885771D01*
X202148628Y-185028628D01*
X203505771Y-186314342D02*
X203362914Y-186385771D01*
X203077200Y-186385771D01*
X202934342Y-186314342D01*
X202862914Y-186242914D01*
X202791485Y-186100057D01*
X202791485Y-185671485D01*
X202862914Y-185528628D01*
X202934342Y-185457200D01*
X203077200Y-185385771D01*
X203362914Y-185385771D01*
X203505771Y-185457200D01*
X204791485Y-186385771D02*
X204791485Y-185600057D01*
X204720057Y-185457200D01*
X204577200Y-185385771D01*
X204291485Y-185385771D01*
X204148628Y-185457200D01*
X204791485Y-186314342D02*
X204648628Y-186385771D01*
X204291485Y-186385771D01*
X204148628Y-186314342D01*
X204077200Y-186171485D01*
X204077200Y-186028628D01*
X204148628Y-185885771D01*
X204291485Y-185814342D01*
X204648628Y-185814342D01*
X204791485Y-185742914D01*
X206148628Y-186385771D02*
X206148628Y-184885771D01*
X206148628Y-186314342D02*
X206005771Y-186385771D01*
X205720057Y-186385771D01*
X205577200Y-186314342D01*
X205505771Y-186242914D01*
X205434342Y-186100057D01*
X205434342Y-185671485D01*
X205505771Y-185528628D01*
X205577200Y-185457200D01*
X205720057Y-185385771D01*
X206005771Y-185385771D01*
X206148628Y-185457200D01*
X206505771Y-186528628D02*
X207648628Y-186528628D01*
X208005771Y-185385771D02*
X208005771Y-186885771D01*
X208005771Y-185457200D02*
X208148628Y-185385771D01*
X208434342Y-185385771D01*
X208577200Y-185457200D01*
X208648628Y-185528628D01*
X208720057Y-185671485D01*
X208720057Y-186100057D01*
X208648628Y-186242914D01*
X208577200Y-186314342D01*
X208434342Y-186385771D01*
X208148628Y-186385771D01*
X208005771Y-186314342D01*
X210005771Y-186314342D02*
X209862914Y-186385771D01*
X209577200Y-186385771D01*
X209434342Y-186314342D01*
X209362914Y-186242914D01*
X209291485Y-186100057D01*
X209291485Y-185671485D01*
X209362914Y-185528628D01*
X209434342Y-185457200D01*
X209577200Y-185385771D01*
X209862914Y-185385771D01*
X210005771Y-185457200D01*
X210648628Y-186385771D02*
X210648628Y-184885771D01*
X210648628Y-185457200D02*
X210791485Y-185385771D01*
X211077200Y-185385771D01*
X211220057Y-185457200D01*
X211291485Y-185528628D01*
X211362914Y-185671485D01*
X211362914Y-186100057D01*
X211291485Y-186242914D01*
X211220057Y-186314342D01*
X211077200Y-186385771D01*
X210791485Y-186385771D01*
X210648628Y-186314342D01*
D10*
D11*
X177002200Y-181507200D02*
X285002200Y-181507200D01*
D10*
D11*
X178362914Y-183614342D02*
X178577200Y-183685771D01*
X178934342Y-183685771D01*
X179077200Y-183614342D01*
X179148628Y-183542914D01*
X179220057Y-183400057D01*
X179220057Y-183257200D01*
X179148628Y-183114342D01*
X179077200Y-183042914D01*
X178934342Y-182971485D01*
X178648628Y-182900057D01*
X178505771Y-182828628D01*
X178434342Y-182757200D01*
X178362914Y-182614342D01*
X178362914Y-182471485D01*
X178434342Y-182328628D01*
X178505771Y-182257200D01*
X178648628Y-182185771D01*
X179005771Y-182185771D01*
X179220057Y-182257200D01*
X179862914Y-183685771D02*
X179862914Y-182185771D01*
X180505771Y-183685771D02*
X180505771Y-182900057D01*
X180434342Y-182757200D01*
X180291485Y-182685771D01*
X180077200Y-182685771D01*
X179934342Y-182757200D01*
X179862914Y-182828628D01*
X181791485Y-183614342D02*
X181648628Y-183685771D01*
X181362914Y-183685771D01*
X181220057Y-183614342D01*
X181148628Y-183471485D01*
X181148628Y-182900057D01*
X181220057Y-182757200D01*
X181362914Y-182685771D01*
X181648628Y-182685771D01*
X181791485Y-182757200D01*
X181862914Y-182900057D01*
X181862914Y-183042914D01*
X181148628Y-183185771D01*
X183077200Y-183614342D02*
X182934342Y-183685771D01*
X182648628Y-183685771D01*
X182505771Y-183614342D01*
X182434342Y-183471485D01*
X182434342Y-182900057D01*
X182505771Y-182757200D01*
X182648628Y-182685771D01*
X182934342Y-182685771D01*
X183077200Y-182757200D01*
X183148628Y-182900057D01*
X183148628Y-183042914D01*
X182434342Y-183185771D01*
X183577200Y-182685771D02*
X184148628Y-182685771D01*
X183791485Y-182185771D02*
X183791485Y-183471485D01*
X183862914Y-183614342D01*
X184005771Y-183685771D01*
X184148628Y-183685771D01*
X184648628Y-183542914D02*
X184720057Y-183614342D01*
X184648628Y-183685771D01*
X184577200Y-183614342D01*
X184648628Y-183542914D01*
X184648628Y-183685771D01*
X184648628Y-182757200D02*
X184720057Y-182828628D01*
X184648628Y-182900057D01*
X184577200Y-182828628D01*
X184648628Y-182757200D01*
X184648628Y-182900057D01*
D10*
D11*
X197002200Y-191507200D02*
X197002200Y-194507200D01*
D10*
D11*
X261002200Y-191507200D02*
X261002200Y-198007200D01*
D14*
X225459999Y-119289735D02*
X225450000Y-137750000D01*
X204850000Y-139200000D02*
X224277496Y-139194553D01*
X225357217Y-138309152D02*
X225219001Y-138563961D01*
X224559152Y-139107218D02*
X224277496Y-139194553D01*
X224813960Y-138969002D02*
X224559152Y-139107218D01*
X225035913Y-138785913D02*
X224813960Y-138969002D01*
X225444553Y-138027496D02*
X225357217Y-138309152D01*
X225219001Y-138563961D02*
X225035913Y-138785913D01*
X225450000Y-137750000D02*
X225444553Y-138027496D01*
X117150000Y-135900000D02*
X129900000Y-135900000D01*
X129900000Y-135900000D02*
X137050000Y-134700000D01*
X177900000Y-134700000D02*
X185300000Y-139200000D01*
X137050000Y-134700000D02*
X177900000Y-134700000D01*
X113445528Y-138036218D02*
X117150000Y-135900000D01*
X110094139Y-139976496D02*
X113445528Y-138036218D01*
X185300000Y-139200000D02*
X204850000Y-139200000D01*
X106132452Y-142301617D02*
X107808147Y-141331479D01*
D12*
X189371428Y-136428571D02*
X189371428Y-137500000D01*
X189300000Y-137714285D01*
X189157142Y-137857142D01*
X188942857Y-137928571D01*
X188800000Y-137928571D01*
X190800000Y-137928571D02*
X190085714Y-137928571D01*
X190085714Y-136428571D01*
X192157142Y-137785714D02*
X192085714Y-137857142D01*
X191871428Y-137928571D01*
X191728571Y-137928571D01*
X191514285Y-137857142D01*
X191371428Y-137714285D01*
X191300000Y-137571428D01*
X191228571Y-137285714D01*
X191228571Y-137071428D01*
X191300000Y-136785714D01*
X191371428Y-136642857D01*
X191514285Y-136500000D01*
X191728571Y-136428571D01*
X191871428Y-136428571D01*
X192085714Y-136500000D01*
X192157142Y-136571428D01*
X193228571Y-136428571D02*
X193228571Y-137500000D01*
X193157142Y-137714285D01*
X193014285Y-137857142D01*
X192800000Y-137928571D01*
X192657142Y-137928571D01*
X194657142Y-137928571D02*
X193942857Y-137928571D01*
X193942857Y-136428571D01*
X196014285Y-137785714D02*
X195942857Y-137857142D01*
X195728571Y-137928571D01*
X195585714Y-137928571D01*
X195371428Y-137857142D01*
X195228571Y-137714285D01*
X195157142Y-137571428D01*
X195085714Y-137285714D01*
X195085714Y-137071428D01*
X195157142Y-136785714D01*
X195228571Y-136642857D01*
X195371428Y-136500000D01*
X195585714Y-136428571D01*
X195728571Y-136428571D01*
X195942857Y-136500000D01*
X196014285Y-136571428D01*
X197085714Y-136428571D02*
X197085714Y-137500000D01*
X197014285Y-137714285D01*
X196871428Y-137857142D01*
X196657142Y-137928571D01*
X196514285Y-137928571D01*
X198514285Y-137928571D02*
X197800000Y-137928571D01*
X197800000Y-136428571D01*
X199871428Y-137785714D02*
X199800000Y-137857142D01*
X199585714Y-137928571D01*
X199442857Y-137928571D01*
X199228571Y-137857142D01*
X199085714Y-137714285D01*
X199014285Y-137571428D01*
X198942857Y-137285714D01*
X198942857Y-137071428D01*
X199014285Y-136785714D01*
X199085714Y-136642857D01*
X199228571Y-136500000D01*
X199442857Y-136428571D01*
X199585714Y-136428571D01*
X199800000Y-136500000D01*
X199871428Y-136571428D01*
X200942857Y-136428571D02*
X200942857Y-137500000D01*
X200871428Y-137714285D01*
X200728571Y-137857142D01*
X200514285Y-137928571D01*
X200371428Y-137928571D01*
X202371428Y-137928571D02*
X201657142Y-137928571D01*
X201657142Y-136428571D01*
X203728571Y-137785714D02*
X203657142Y-137857142D01*
X203442857Y-137928571D01*
X203300000Y-137928571D01*
X203085714Y-137857142D01*
X202942857Y-137714285D01*
X202871428Y-137571428D01*
X202800000Y-137285714D01*
X202800000Y-137071428D01*
X202871428Y-136785714D01*
X202942857Y-136642857D01*
X203085714Y-136500000D01*
X203300000Y-136428571D01*
X203442857Y-136428571D01*
X203657142Y-136500000D01*
X203728571Y-136571428D01*
D14*
X82937528Y-50750629D02*
X82937528Y-44443695D01*
X82937528Y-57057562D02*
X82937528Y-50750629D01*
X115211711Y-37086762D02*
X104803877Y-37086762D01*
X199807654Y-38170488D02*
X189919538Y-37585374D01*
X208420758Y-38945561D02*
X199807654Y-38170488D01*
X215525697Y-39885159D02*
X208420758Y-38945561D01*
X220889319Y-40963847D02*
X215525697Y-39885159D01*
X178989563Y-37215654D02*
X167250881Y-37086762D01*
X189919538Y-37585374D02*
X178989563Y-37215654D01*
X225460000Y-52918378D02*
X225460000Y-62400000D01*
X225460000Y-43436755D02*
X225460000Y-52918378D01*
X82937528Y-69671429D02*
X82937528Y-63364495D01*
X82937528Y-75978362D02*
X82937528Y-69671429D01*
X82937528Y-82285296D02*
X82937528Y-75978362D01*
X82937528Y-88592229D02*
X82937528Y-82285296D01*
X104803877Y-37086762D02*
X94396044Y-37086762D01*
X125619545Y-37086762D02*
X115211711Y-37086762D01*
X136027379Y-37086762D02*
X125619545Y-37086762D01*
X146435213Y-37086762D02*
X136027379Y-37086762D01*
X156843047Y-37086762D02*
X146435213Y-37086762D01*
X167250881Y-37086762D02*
X156843047Y-37086762D01*
X83400937Y-37265961D02*
X83579303Y-37169210D01*
X83245570Y-37394123D02*
X83400937Y-37265961D01*
X83117409Y-37549489D02*
X83245570Y-37394123D01*
X83020657Y-37727855D02*
X83117409Y-37549489D01*
X82959523Y-37925015D02*
X83020657Y-37727855D01*
X82938210Y-38136762D02*
X82959523Y-37925015D01*
X83776462Y-37108075D02*
X83988210Y-37086762D01*
X83579303Y-37169210D02*
X83776462Y-37108075D01*
X94396044Y-37086762D02*
X83988210Y-37086762D01*
X82937528Y-63364495D02*
X82937528Y-57057562D01*
X82937528Y-44443695D02*
X82937528Y-38136762D01*
X88291758Y-116318073D02*
X89993333Y-119989540D01*
X86863105Y-112530670D02*
X88291758Y-116318073D01*
X85688004Y-108649127D02*
X86863105Y-112530670D01*
X84747083Y-104695246D02*
X85688004Y-108649127D01*
X84020972Y-100690825D02*
X84747083Y-104695246D01*
X83490297Y-96657663D02*
X84020972Y-100690825D01*
X83135690Y-92617561D02*
X83490297Y-96657663D01*
X82937777Y-88592317D02*
X83135690Y-92617561D01*
X104288864Y-143357278D02*
X104456758Y-143271756D01*
X104130206Y-143404468D02*
X104288864Y-143357278D01*
X103981252Y-143413974D02*
X104130206Y-143404468D01*
X103842470Y-143386445D02*
X103981252Y-143413974D01*
X103714328Y-143322532D02*
X103842470Y-143386445D01*
X103597295Y-143222884D02*
X103714328Y-143322532D01*
X103491837Y-143088150D02*
X103597295Y-143222884D01*
X103398425Y-142918979D02*
X103491837Y-143088150D01*
X107808147Y-141331479D02*
X110094139Y-139976496D01*
X104456758Y-143271756D02*
X106132452Y-142301617D01*
X101722730Y-140052659D02*
X103398425Y-142918979D01*
X100047036Y-137186340D02*
X101722730Y-140052659D01*
X98371341Y-134320020D02*
X100047036Y-137186340D01*
X96695647Y-131453701D02*
X98371341Y-134320020D01*
X95019952Y-128587381D02*
X96695647Y-131453701D01*
X93344258Y-125721062D02*
X95019952Y-128587381D01*
X91668563Y-122854742D02*
X93344258Y-125721062D01*
X89992869Y-119988423D02*
X91668563Y-122854742D01*
X224278471Y-42156190D02*
X220889319Y-40963847D01*
X225460000Y-43436755D02*
X224278471Y-42156190D01*
X225460000Y-109808112D02*
X225460000Y-119289735D01*
X225460000Y-100326490D02*
X225460000Y-109808112D01*
X225460000Y-90844867D02*
X225460000Y-100326490D01*
X225460000Y-81363245D02*
X225460000Y-90844867D01*
X225460000Y-71881623D02*
X225460000Y-81363245D01*
X225460000Y-62400000D02*
X225460000Y-71881623D01*
D15*
X222900000Y-135100000D02*
X220500000Y-135100000D01*
X222900000Y-122900000D02*
X211100000Y-122900000D01*
X222900000Y-131000000D02*
X222900000Y-135100000D01*
X213500000Y-135100000D02*
X211100000Y-135100000D01*
X211100000Y-127000000D02*
X211100000Y-122900000D01*
X218300000Y-135100000D02*
X215700000Y-135100000D01*
X211100000Y-135100000D02*
X211100000Y-131000000D01*
X222900000Y-127000000D02*
X222900000Y-122900000D01*
D11*
X83200000Y-64700000D02*
X83200000Y-70700000D01*
X86700000Y-70700000D02*
X86700000Y-64700000D01*
X83200000Y-64700000D02*
X83900000Y-64700000D01*
X86700000Y-64700000D02*
X86100000Y-64700000D01*
X86700000Y-70700000D02*
X86100000Y-70700000D01*
X83200000Y-70700000D02*
X83900000Y-70700000D01*
X113500000Y-43396000D02*
X113500000Y-43000000D01*
X113500000Y-43000000D02*
X114500000Y-43000000D01*
X114500000Y-57000000D02*
X113500000Y-57000000D01*
X113500000Y-57000000D02*
X113500000Y-56000000D01*
X127500000Y-56000000D02*
X127500000Y-57000000D01*
X127500000Y-57000000D02*
X126500000Y-57000000D01*
X126500000Y-43000000D02*
X127500000Y-43000000D01*
X127500000Y-43000000D02*
X127500000Y-44000000D01*
X124310000Y-43015000D02*
G75*
G02X126850000Y-45555000I0J-2540000D01*
G01*
X120500001Y-47381829D02*
G75*
G02X123039999Y-49365001I-1J-2618171D01*
G01*
X124310000Y-43015000D02*
X115420000Y-43015000D01*
X115420000Y-43015000D02*
X115420000Y-43396000D01*
X115420000Y-46444000D02*
X115420000Y-46825000D01*
X118214000Y-47460000D02*
X120500000Y-47460000D01*
X123040000Y-49365000D02*
X126850000Y-49365000D01*
X126469000Y-49365000D02*
X126850000Y-49365000D01*
X126850000Y-49365000D02*
X126850000Y-48984000D01*
X126850000Y-45555000D02*
X126850000Y-45936000D01*
X132500000Y-40996000D02*
X132500000Y-40600000D01*
X132500000Y-40600000D02*
X133500000Y-40600000D01*
X133500000Y-54600000D02*
X132500000Y-54600000D01*
X132500000Y-54600000D02*
X132500000Y-53600000D01*
X146500000Y-53600000D02*
X146500000Y-54600000D01*
X146500000Y-54600000D02*
X145500000Y-54600000D01*
X145500000Y-40600000D02*
X146500000Y-40600000D01*
X146500000Y-40600000D02*
X146500000Y-41600000D01*
X143310000Y-40615000D02*
G75*
G02X145850000Y-43155000I0J-2540000D01*
G01*
X139500001Y-44981829D02*
G75*
G02X142039999Y-46965001I-1J-2618171D01*
G01*
X143310000Y-40615000D02*
X134420000Y-40615000D01*
X134420000Y-40615000D02*
X134420000Y-40996000D01*
X134420000Y-44044000D02*
X134420000Y-44425000D01*
X137214000Y-45060000D02*
X139500000Y-45060000D01*
X142040000Y-46965000D02*
X145850000Y-46965000D01*
X145469000Y-46965000D02*
X145850000Y-46965000D01*
X145850000Y-46965000D02*
X145850000Y-46584000D01*
X145850000Y-43155000D02*
X145850000Y-43536000D01*
X151600000Y-39606000D02*
X151600000Y-39210000D01*
X151600000Y-39210000D02*
X152600000Y-39210000D01*
X152600000Y-53210000D02*
X151600000Y-53210000D01*
X151600000Y-53210000D02*
X151600000Y-52210000D01*
X165600000Y-52210000D02*
X165600000Y-53210000D01*
X165600000Y-53210000D02*
X164600000Y-53210000D01*
X164600000Y-39210000D02*
X165600000Y-39210000D01*
X165600000Y-39210000D02*
X165600000Y-40210000D01*
X162410000Y-39225000D02*
G75*
G02X164950000Y-41765000I0J-2540000D01*
G01*
X158600001Y-43591829D02*
G75*
G02X161139999Y-45575001I-1J-2618171D01*
G01*
X162410000Y-39225000D02*
X153520000Y-39225000D01*
X153520000Y-39225000D02*
X153520000Y-39606000D01*
X153520000Y-42654000D02*
X153520000Y-43035000D01*
X156314000Y-43670000D02*
X158600000Y-43670000D01*
X161140000Y-45575000D02*
X164950000Y-45575000D01*
X164569000Y-45575000D02*
X164950000Y-45575000D01*
X164950000Y-45575000D02*
X164950000Y-45194000D01*
X164950000Y-41765000D02*
X164950000Y-42146000D01*
X170600000Y-40996000D02*
X170600000Y-40600000D01*
X170600000Y-40600000D02*
X171600000Y-40600000D01*
X171600000Y-54600000D02*
X170600000Y-54600000D01*
X170600000Y-54600000D02*
X170600000Y-53600000D01*
X184600000Y-53600000D02*
X184600000Y-54600000D01*
X184600000Y-54600000D02*
X183600000Y-54600000D01*
X183600000Y-40600000D02*
X184600000Y-40600000D01*
X184600000Y-40600000D02*
X184600000Y-41600000D01*
X181410000Y-40615000D02*
G75*
G02X183950000Y-43155000I0J-2540000D01*
G01*
X177600001Y-44981829D02*
G75*
G02X180139999Y-46965001I-1J-2618171D01*
G01*
X181410000Y-40615000D02*
X172520000Y-40615000D01*
X172520000Y-40615000D02*
X172520000Y-40996000D01*
X172520000Y-44044000D02*
X172520000Y-44425000D01*
X175314000Y-45060000D02*
X177600000Y-45060000D01*
X180140000Y-46965000D02*
X183950000Y-46965000D01*
X183569000Y-46965000D02*
X183950000Y-46965000D01*
X183950000Y-46965000D02*
X183950000Y-46584000D01*
X183950000Y-43155000D02*
X183950000Y-43536000D01*
X189700000Y-45796000D02*
X189700000Y-45400000D01*
X189700000Y-45400000D02*
X190700000Y-45400000D01*
X190700000Y-59400000D02*
X189700000Y-59400000D01*
X189700000Y-59400000D02*
X189700000Y-58400000D01*
X203700000Y-58400000D02*
X203700000Y-59400000D01*
X203700000Y-59400000D02*
X202700000Y-59400000D01*
X202700000Y-45400000D02*
X203700000Y-45400000D01*
X203700000Y-45400000D02*
X203700000Y-46400000D01*
X200510000Y-45415000D02*
G75*
G02X203050000Y-47955000I0J-2540000D01*
G01*
X196700001Y-49781829D02*
G75*
G02X199239999Y-51765001I-1J-2618171D01*
G01*
X200510000Y-45415000D02*
X191620000Y-45415000D01*
X191620000Y-45415000D02*
X191620000Y-45796000D01*
X191620000Y-48844000D02*
X191620000Y-49225000D01*
X194414000Y-49860000D02*
X196700000Y-49860000D01*
X199240000Y-51765000D02*
X203050000Y-51765000D01*
X202669000Y-51765000D02*
X203050000Y-51765000D01*
X203050000Y-51765000D02*
X203050000Y-51384000D01*
X203050000Y-47955000D02*
X203050000Y-48336000D01*
X208700000Y-47296000D02*
X208700000Y-46900000D01*
X208700000Y-46900000D02*
X209700000Y-46900000D01*
X209700000Y-60900000D02*
X208700000Y-60900000D01*
X208700000Y-60900000D02*
X208700000Y-59900000D01*
X222700000Y-59900000D02*
X222700000Y-60900000D01*
X222700000Y-60900000D02*
X221700000Y-60900000D01*
X221700000Y-46900000D02*
X222700000Y-46900000D01*
X222700000Y-46900000D02*
X222700000Y-47900000D01*
X219510000Y-46915000D02*
G75*
G02X222050000Y-49455000I0J-2540000D01*
G01*
X215700001Y-51281829D02*
G75*
G02X218239999Y-53265001I-1J-2618171D01*
G01*
X219510000Y-46915000D02*
X210620000Y-46915000D01*
X210620000Y-46915000D02*
X210620000Y-47296000D01*
X210620000Y-50344000D02*
X210620000Y-50725000D01*
X213414000Y-51360000D02*
X215700000Y-51360000D01*
X218240000Y-53265000D02*
X222050000Y-53265000D01*
X221669000Y-53265000D02*
X222050000Y-53265000D01*
X222050000Y-53265000D02*
X222050000Y-52884000D01*
X222050000Y-49455000D02*
X222050000Y-49836000D01*
X113500000Y-62496000D02*
X113500000Y-62100000D01*
X113500000Y-62100000D02*
X114500000Y-62100000D01*
X114500000Y-76100000D02*
X113500000Y-76100000D01*
X113500000Y-76100000D02*
X113500000Y-75100000D01*
X127500000Y-75100000D02*
X127500000Y-76100000D01*
X127500000Y-76100000D02*
X126500000Y-76100000D01*
X126500000Y-62100000D02*
X127500000Y-62100000D01*
X127500000Y-62100000D02*
X127500000Y-63100000D01*
X124310000Y-62115000D02*
G75*
G02X126850000Y-64655000I0J-2540000D01*
G01*
X120500001Y-66481829D02*
G75*
G02X123039999Y-68465001I-1J-2618171D01*
G01*
X124310000Y-62115000D02*
X115420000Y-62115000D01*
X115420000Y-62115000D02*
X115420000Y-62496000D01*
X115420000Y-65544000D02*
X115420000Y-65925000D01*
X118214000Y-66560000D02*
X120500000Y-66560000D01*
X123040000Y-68465000D02*
X126850000Y-68465000D01*
X126469000Y-68465000D02*
X126850000Y-68465000D01*
X126850000Y-68465000D02*
X126850000Y-68084000D01*
X126850000Y-64655000D02*
X126850000Y-65036000D01*
X132500000Y-60096000D02*
X132500000Y-59700000D01*
X132500000Y-59700000D02*
X133500000Y-59700000D01*
X133500000Y-73700000D02*
X132500000Y-73700000D01*
X132500000Y-73700000D02*
X132500000Y-72700000D01*
X146500000Y-72700000D02*
X146500000Y-73700000D01*
X146500000Y-73700000D02*
X145500000Y-73700000D01*
X145500000Y-59700000D02*
X146500000Y-59700000D01*
X146500000Y-59700000D02*
X146500000Y-60700000D01*
X143310000Y-59715000D02*
G75*
G02X145850000Y-62255000I0J-2540000D01*
G01*
X139500001Y-64081829D02*
G75*
G02X142039999Y-66065001I-1J-2618171D01*
G01*
X143310000Y-59715000D02*
X134420000Y-59715000D01*
X134420000Y-59715000D02*
X134420000Y-60096000D01*
X134420000Y-63144000D02*
X134420000Y-63525000D01*
X137214000Y-64160000D02*
X139500000Y-64160000D01*
X142040000Y-66065000D02*
X145850000Y-66065000D01*
X145469000Y-66065000D02*
X145850000Y-66065000D01*
X145850000Y-66065000D02*
X145850000Y-65684000D01*
X145850000Y-62255000D02*
X145850000Y-62636000D01*
X151600000Y-58696000D02*
X151600000Y-58300000D01*
X151600000Y-58300000D02*
X152600000Y-58300000D01*
X152600000Y-72300000D02*
X151600000Y-72300000D01*
X151600000Y-72300000D02*
X151600000Y-71300000D01*
X165600000Y-71300000D02*
X165600000Y-72300000D01*
X165600000Y-72300000D02*
X164600000Y-72300000D01*
X164600000Y-58300000D02*
X165600000Y-58300000D01*
X165600000Y-58300000D02*
X165600000Y-59300000D01*
X162410000Y-58315000D02*
G75*
G02X164950000Y-60855000I0J-2540000D01*
G01*
X158600001Y-62681829D02*
G75*
G02X161139999Y-64665001I-1J-2618171D01*
G01*
X162410000Y-58315000D02*
X153520000Y-58315000D01*
X153520000Y-58315000D02*
X153520000Y-58696000D01*
X153520000Y-61744000D02*
X153520000Y-62125000D01*
X156314000Y-62760000D02*
X158600000Y-62760000D01*
X161140000Y-64665000D02*
X164950000Y-64665000D01*
X164569000Y-64665000D02*
X164950000Y-64665000D01*
X164950000Y-64665000D02*
X164950000Y-64284000D01*
X164950000Y-60855000D02*
X164950000Y-61236000D01*
X170600000Y-59996000D02*
X170600000Y-59600000D01*
X170600000Y-59600000D02*
X171600000Y-59600000D01*
X171600000Y-73600000D02*
X170600000Y-73600000D01*
X170600000Y-73600000D02*
X170600000Y-72600000D01*
X184600000Y-72600000D02*
X184600000Y-73600000D01*
X184600000Y-73600000D02*
X183600000Y-73600000D01*
X183600000Y-59600000D02*
X184600000Y-59600000D01*
X184600000Y-59600000D02*
X184600000Y-60600000D01*
X181410000Y-59615000D02*
G75*
G02X183950000Y-62155000I0J-2540000D01*
G01*
X177600001Y-63981829D02*
G75*
G02X180139999Y-65965001I-1J-2618171D01*
G01*
X181410000Y-59615000D02*
X172520000Y-59615000D01*
X172520000Y-59615000D02*
X172520000Y-59996000D01*
X172520000Y-63044000D02*
X172520000Y-63425000D01*
X175314000Y-64060000D02*
X177600000Y-64060000D01*
X180140000Y-65965000D02*
X183950000Y-65965000D01*
X183569000Y-65965000D02*
X183950000Y-65965000D01*
X183950000Y-65965000D02*
X183950000Y-65584000D01*
X183950000Y-62155000D02*
X183950000Y-62536000D01*
X189700000Y-64696000D02*
X189700000Y-64300000D01*
X189700000Y-64300000D02*
X190700000Y-64300000D01*
X190700000Y-78300000D02*
X189700000Y-78300000D01*
X189700000Y-78300000D02*
X189700000Y-77300000D01*
X203700000Y-77300000D02*
X203700000Y-78300000D01*
X203700000Y-78300000D02*
X202700000Y-78300000D01*
X202700000Y-64300000D02*
X203700000Y-64300000D01*
X203700000Y-64300000D02*
X203700000Y-65300000D01*
X200510000Y-64315000D02*
G75*
G02X203050000Y-66855000I0J-2540000D01*
G01*
X196700001Y-68681829D02*
G75*
G02X199239999Y-70665001I-1J-2618171D01*
G01*
X200510000Y-64315000D02*
X191620000Y-64315000D01*
X191620000Y-64315000D02*
X191620000Y-64696000D01*
X191620000Y-67744000D02*
X191620000Y-68125000D01*
X194414000Y-68760000D02*
X196700000Y-68760000D01*
X199240000Y-70665000D02*
X203050000Y-70665000D01*
X202669000Y-70665000D02*
X203050000Y-70665000D01*
X203050000Y-70665000D02*
X203050000Y-70284000D01*
X203050000Y-66855000D02*
X203050000Y-67236000D01*
X208700000Y-66196000D02*
X208700000Y-65800000D01*
X208700000Y-65800000D02*
X209700000Y-65800000D01*
X209700000Y-79800000D02*
X208700000Y-79800000D01*
X208700000Y-79800000D02*
X208700000Y-78800000D01*
X222700000Y-78800000D02*
X222700000Y-79800000D01*
X222700000Y-79800000D02*
X221700000Y-79800000D01*
X221700000Y-65800000D02*
X222700000Y-65800000D01*
X222700000Y-65800000D02*
X222700000Y-66800000D01*
X219510000Y-65815000D02*
G75*
G02X222050000Y-68355000I0J-2540000D01*
G01*
X215700001Y-70181829D02*
G75*
G02X218239999Y-72165001I-1J-2618171D01*
G01*
X219510000Y-65815000D02*
X210620000Y-65815000D01*
X210620000Y-65815000D02*
X210620000Y-66196000D01*
X210620000Y-69244000D02*
X210620000Y-69625000D01*
X213414000Y-70260000D02*
X215700000Y-70260000D01*
X218240000Y-72165000D02*
X222050000Y-72165000D01*
X221669000Y-72165000D02*
X222050000Y-72165000D01*
X222050000Y-72165000D02*
X222050000Y-71784000D01*
X222050000Y-68355000D02*
X222050000Y-68736000D01*
X113500000Y-81496000D02*
X113500000Y-81100000D01*
X113500000Y-81100000D02*
X114500000Y-81100000D01*
X114500000Y-95100000D02*
X113500000Y-95100000D01*
X113500000Y-95100000D02*
X113500000Y-94100000D01*
X127500000Y-94100000D02*
X127500000Y-95100000D01*
X127500000Y-95100000D02*
X126500000Y-95100000D01*
X126500000Y-81100000D02*
X127500000Y-81100000D01*
X127500000Y-81100000D02*
X127500000Y-82100000D01*
X124310000Y-81115000D02*
G75*
G02X126850000Y-83655000I0J-2540000D01*
G01*
X120500001Y-85481829D02*
G75*
G02X123039999Y-87465001I-1J-2618171D01*
G01*
X124310000Y-81115000D02*
X115420000Y-81115000D01*
X115420000Y-81115000D02*
X115420000Y-81496000D01*
X115420000Y-84544000D02*
X115420000Y-84925000D01*
X118214000Y-85560000D02*
X120500000Y-85560000D01*
X123040000Y-87465000D02*
X126850000Y-87465000D01*
X126469000Y-87465000D02*
X126850000Y-87465000D01*
X126850000Y-87465000D02*
X126850000Y-87084000D01*
X126850000Y-83655000D02*
X126850000Y-84036000D01*
X132500000Y-79096000D02*
X132500000Y-78700000D01*
X132500000Y-78700000D02*
X133500000Y-78700000D01*
X133500000Y-92700000D02*
X132500000Y-92700000D01*
X132500000Y-92700000D02*
X132500000Y-91700000D01*
X146500000Y-91700000D02*
X146500000Y-92700000D01*
X146500000Y-92700000D02*
X145500000Y-92700000D01*
X145500000Y-78700000D02*
X146500000Y-78700000D01*
X146500000Y-78700000D02*
X146500000Y-79700000D01*
X143310000Y-78715000D02*
G75*
G02X145850000Y-81255000I0J-2540000D01*
G01*
X139500001Y-83081829D02*
G75*
G02X142039999Y-85065001I-1J-2618171D01*
G01*
X143310000Y-78715000D02*
X134420000Y-78715000D01*
X134420000Y-78715000D02*
X134420000Y-79096000D01*
X134420000Y-82144000D02*
X134420000Y-82525000D01*
X137214000Y-83160000D02*
X139500000Y-83160000D01*
X142040000Y-85065000D02*
X145850000Y-85065000D01*
X145469000Y-85065000D02*
X145850000Y-85065000D01*
X145850000Y-85065000D02*
X145850000Y-84684000D01*
X145850000Y-81255000D02*
X145850000Y-81636000D01*
X151600000Y-77796000D02*
X151600000Y-77400000D01*
X151600000Y-77400000D02*
X152600000Y-77400000D01*
X152600000Y-91400000D02*
X151600000Y-91400000D01*
X151600000Y-91400000D02*
X151600000Y-90400000D01*
X165600000Y-90400000D02*
X165600000Y-91400000D01*
X165600000Y-91400000D02*
X164600000Y-91400000D01*
X164600000Y-77400000D02*
X165600000Y-77400000D01*
X165600000Y-77400000D02*
X165600000Y-78400000D01*
X162410000Y-77415000D02*
G75*
G02X164950000Y-79955000I0J-2540000D01*
G01*
X158600001Y-81781829D02*
G75*
G02X161139999Y-83765001I-1J-2618171D01*
G01*
X162410000Y-77415000D02*
X153520000Y-77415000D01*
X153520000Y-77415000D02*
X153520000Y-77796000D01*
X153520000Y-80844000D02*
X153520000Y-81225000D01*
X156314000Y-81860000D02*
X158600000Y-81860000D01*
X161140000Y-83765000D02*
X164950000Y-83765000D01*
X164569000Y-83765000D02*
X164950000Y-83765000D01*
X164950000Y-83765000D02*
X164950000Y-83384000D01*
X164950000Y-79955000D02*
X164950000Y-80336000D01*
X170600000Y-79096000D02*
X170600000Y-78700000D01*
X170600000Y-78700000D02*
X171600000Y-78700000D01*
X171600000Y-92700000D02*
X170600000Y-92700000D01*
X170600000Y-92700000D02*
X170600000Y-91700000D01*
X184600000Y-91700000D02*
X184600000Y-92700000D01*
X184600000Y-92700000D02*
X183600000Y-92700000D01*
X183600000Y-78700000D02*
X184600000Y-78700000D01*
X184600000Y-78700000D02*
X184600000Y-79700000D01*
X181410000Y-78715000D02*
G75*
G02X183950000Y-81255000I0J-2540000D01*
G01*
X177600001Y-83081829D02*
G75*
G02X180139999Y-85065001I-1J-2618171D01*
G01*
X181410000Y-78715000D02*
X172520000Y-78715000D01*
X172520000Y-78715000D02*
X172520000Y-79096000D01*
X172520000Y-82144000D02*
X172520000Y-82525000D01*
X175314000Y-83160000D02*
X177600000Y-83160000D01*
X180140000Y-85065000D02*
X183950000Y-85065000D01*
X183569000Y-85065000D02*
X183950000Y-85065000D01*
X183950000Y-85065000D02*
X183950000Y-84684000D01*
X183950000Y-81255000D02*
X183950000Y-81636000D01*
X189700000Y-83896000D02*
X189700000Y-83500000D01*
X189700000Y-83500000D02*
X190700000Y-83500000D01*
X190700000Y-97500000D02*
X189700000Y-97500000D01*
X189700000Y-97500000D02*
X189700000Y-96500000D01*
X203700000Y-96500000D02*
X203700000Y-97500000D01*
X203700000Y-97500000D02*
X202700000Y-97500000D01*
X202700000Y-83500000D02*
X203700000Y-83500000D01*
X203700000Y-83500000D02*
X203700000Y-84500000D01*
X200510000Y-83515000D02*
G75*
G02X203050000Y-86055000I0J-2540000D01*
G01*
X196700001Y-87881829D02*
G75*
G02X199239999Y-89865001I-1J-2618171D01*
G01*
X200510000Y-83515000D02*
X191620000Y-83515000D01*
X191620000Y-83515000D02*
X191620000Y-83896000D01*
X191620000Y-86944000D02*
X191620000Y-87325000D01*
X194414000Y-87960000D02*
X196700000Y-87960000D01*
X199240000Y-89865000D02*
X203050000Y-89865000D01*
X202669000Y-89865000D02*
X203050000Y-89865000D01*
X203050000Y-89865000D02*
X203050000Y-89484000D01*
X203050000Y-86055000D02*
X203050000Y-86436000D01*
X208700000Y-85396000D02*
X208700000Y-85000000D01*
X208700000Y-85000000D02*
X209700000Y-85000000D01*
X209700000Y-99000000D02*
X208700000Y-99000000D01*
X208700000Y-99000000D02*
X208700000Y-98000000D01*
X222700000Y-98000000D02*
X222700000Y-99000000D01*
X222700000Y-99000000D02*
X221700000Y-99000000D01*
X221700000Y-85000000D02*
X222700000Y-85000000D01*
X222700000Y-85000000D02*
X222700000Y-86000000D01*
X219510000Y-85015000D02*
G75*
G02X222050000Y-87555000I0J-2540000D01*
G01*
X215700001Y-89381829D02*
G75*
G02X218239999Y-91365001I-1J-2618171D01*
G01*
X219510000Y-85015000D02*
X210620000Y-85015000D01*
X210620000Y-85015000D02*
X210620000Y-85396000D01*
X210620000Y-88444000D02*
X210620000Y-88825000D01*
X213414000Y-89460000D02*
X215700000Y-89460000D01*
X218240000Y-91365000D02*
X222050000Y-91365000D01*
X221669000Y-91365000D02*
X222050000Y-91365000D01*
X222050000Y-91365000D02*
X222050000Y-90984000D01*
X222050000Y-87555000D02*
X222050000Y-87936000D01*
X113500000Y-100496000D02*
X113500000Y-100100000D01*
X113500000Y-100100000D02*
X114500000Y-100100000D01*
X114500000Y-114100000D02*
X113500000Y-114100000D01*
X113500000Y-114100000D02*
X113500000Y-113100000D01*
X127500000Y-113100000D02*
X127500000Y-114100000D01*
X127500000Y-114100000D02*
X126500000Y-114100000D01*
X126500000Y-100100000D02*
X127500000Y-100100000D01*
X127500000Y-100100000D02*
X127500000Y-101100000D01*
X124310000Y-100115000D02*
G75*
G02X126850000Y-102655000I0J-2540000D01*
G01*
X120500001Y-104481829D02*
G75*
G02X123039999Y-106465001I-1J-2618171D01*
G01*
X124310000Y-100115000D02*
X115420000Y-100115000D01*
X115420000Y-100115000D02*
X115420000Y-100496000D01*
X115420000Y-103544000D02*
X115420000Y-103925000D01*
X118214000Y-104560000D02*
X120500000Y-104560000D01*
X123040000Y-106465000D02*
X126850000Y-106465000D01*
X126469000Y-106465000D02*
X126850000Y-106465000D01*
X126850000Y-106465000D02*
X126850000Y-106084000D01*
X126850000Y-102655000D02*
X126850000Y-103036000D01*
X132500000Y-98196000D02*
X132500000Y-97800000D01*
X132500000Y-97800000D02*
X133500000Y-97800000D01*
X133500000Y-111800000D02*
X132500000Y-111800000D01*
X132500000Y-111800000D02*
X132500000Y-110800000D01*
X146500000Y-110800000D02*
X146500000Y-111800000D01*
X146500000Y-111800000D02*
X145500000Y-111800000D01*
X145500000Y-97800000D02*
X146500000Y-97800000D01*
X146500000Y-97800000D02*
X146500000Y-98800000D01*
X143310000Y-97815000D02*
G75*
G02X145850000Y-100355000I0J-2540000D01*
G01*
X139500001Y-102181829D02*
G75*
G02X142039999Y-104165001I-1J-2618171D01*
G01*
X143310000Y-97815000D02*
X134420000Y-97815000D01*
X134420000Y-97815000D02*
X134420000Y-98196000D01*
X134420000Y-101244000D02*
X134420000Y-101625000D01*
X137214000Y-102260000D02*
X139500000Y-102260000D01*
X142040000Y-104165000D02*
X145850000Y-104165000D01*
X145469000Y-104165000D02*
X145850000Y-104165000D01*
X145850000Y-104165000D02*
X145850000Y-103784000D01*
X145850000Y-100355000D02*
X145850000Y-100736000D01*
X151600000Y-96796000D02*
X151600000Y-96400000D01*
X151600000Y-96400000D02*
X152600000Y-96400000D01*
X152600000Y-110400000D02*
X151600000Y-110400000D01*
X151600000Y-110400000D02*
X151600000Y-109400000D01*
X165600000Y-109400000D02*
X165600000Y-110400000D01*
X165600000Y-110400000D02*
X164600000Y-110400000D01*
X164600000Y-96400000D02*
X165600000Y-96400000D01*
X165600000Y-96400000D02*
X165600000Y-97400000D01*
X162410000Y-96415000D02*
G75*
G02X164950000Y-98955000I0J-2540000D01*
G01*
X158600001Y-100781829D02*
G75*
G02X161139999Y-102765001I-1J-2618171D01*
G01*
X162410000Y-96415000D02*
X153520000Y-96415000D01*
X153520000Y-96415000D02*
X153520000Y-96796000D01*
X153520000Y-99844000D02*
X153520000Y-100225000D01*
X156314000Y-100860000D02*
X158600000Y-100860000D01*
X161140000Y-102765000D02*
X164950000Y-102765000D01*
X164569000Y-102765000D02*
X164950000Y-102765000D01*
X164950000Y-102765000D02*
X164950000Y-102384000D01*
X164950000Y-98955000D02*
X164950000Y-99336000D01*
X170600000Y-98196000D02*
X170600000Y-97800000D01*
X170600000Y-97800000D02*
X171600000Y-97800000D01*
X171600000Y-111800000D02*
X170600000Y-111800000D01*
X170600000Y-111800000D02*
X170600000Y-110800000D01*
X184600000Y-110800000D02*
X184600000Y-111800000D01*
X184600000Y-111800000D02*
X183600000Y-111800000D01*
X183600000Y-97800000D02*
X184600000Y-97800000D01*
X184600000Y-97800000D02*
X184600000Y-98800000D01*
X181410000Y-97815000D02*
G75*
G02X183950000Y-100355000I0J-2540000D01*
G01*
X177600001Y-102181829D02*
G75*
G02X180139999Y-104165001I-1J-2618171D01*
G01*
X181410000Y-97815000D02*
X172520000Y-97815000D01*
X172520000Y-97815000D02*
X172520000Y-98196000D01*
X172520000Y-101244000D02*
X172520000Y-101625000D01*
X175314000Y-102260000D02*
X177600000Y-102260000D01*
X180140000Y-104165000D02*
X183950000Y-104165000D01*
X183569000Y-104165000D02*
X183950000Y-104165000D01*
X183950000Y-104165000D02*
X183950000Y-103784000D01*
X183950000Y-100355000D02*
X183950000Y-100736000D01*
X189700000Y-102896000D02*
X189700000Y-102500000D01*
X189700000Y-102500000D02*
X190700000Y-102500000D01*
X190700000Y-116500000D02*
X189700000Y-116500000D01*
X189700000Y-116500000D02*
X189700000Y-115500000D01*
X203700000Y-115500000D02*
X203700000Y-116500000D01*
X203700000Y-116500000D02*
X202700000Y-116500000D01*
X202700000Y-102500000D02*
X203700000Y-102500000D01*
X203700000Y-102500000D02*
X203700000Y-103500000D01*
X200510000Y-102515000D02*
G75*
G02X203050000Y-105055000I0J-2540000D01*
G01*
X196700001Y-106881829D02*
G75*
G02X199239999Y-108865001I-1J-2618171D01*
G01*
X200510000Y-102515000D02*
X191620000Y-102515000D01*
X191620000Y-102515000D02*
X191620000Y-102896000D01*
X191620000Y-105944000D02*
X191620000Y-106325000D01*
X194414000Y-106960000D02*
X196700000Y-106960000D01*
X199240000Y-108865000D02*
X203050000Y-108865000D01*
X202669000Y-108865000D02*
X203050000Y-108865000D01*
X203050000Y-108865000D02*
X203050000Y-108484000D01*
X203050000Y-105055000D02*
X203050000Y-105436000D01*
X208750000Y-104396000D02*
X208750000Y-104000000D01*
X208750000Y-104000000D02*
X209750000Y-104000000D01*
X209750000Y-118000000D02*
X208750000Y-118000000D01*
X208750000Y-118000000D02*
X208750000Y-117000000D01*
X222750000Y-117000000D02*
X222750000Y-118000000D01*
X222750000Y-118000000D02*
X221750000Y-118000000D01*
X221750000Y-104000000D02*
X222750000Y-104000000D01*
X222750000Y-104000000D02*
X222750000Y-105000000D01*
X219560000Y-104015000D02*
G75*
G02X222100000Y-106555000I0J-2540000D01*
G01*
X215750001Y-108381829D02*
G75*
G02X218289999Y-110365001I-1J-2618171D01*
G01*
X219560000Y-104015000D02*
X210670000Y-104015000D01*
X210670000Y-104015000D02*
X210670000Y-104396000D01*
X210670000Y-107444000D02*
X210670000Y-107825000D01*
X213464000Y-108460000D02*
X215750000Y-108460000D01*
X218290000Y-110365000D02*
X222100000Y-110365000D01*
X221719000Y-110365000D02*
X222100000Y-110365000D01*
X222100000Y-110365000D02*
X222100000Y-109984000D01*
X222100000Y-106555000D02*
X222100000Y-106936000D01*
X94400000Y-90896000D02*
X94400000Y-90500000D01*
X94400000Y-90500000D02*
X95400000Y-90500000D01*
X95400000Y-104500000D02*
X94400000Y-104500000D01*
X94400000Y-104500000D02*
X94400000Y-103500000D01*
X108400000Y-103500000D02*
X108400000Y-104500000D01*
X108400000Y-104500000D02*
X107400000Y-104500000D01*
X107400000Y-90500000D02*
X108400000Y-90500000D01*
X108400000Y-90500000D02*
X108400000Y-91500000D01*
X105210000Y-90515000D02*
G75*
G02X107750000Y-93055000I0J-2540000D01*
G01*
X101400001Y-94881829D02*
G75*
G02X103939999Y-96865001I-1J-2618171D01*
G01*
X105210000Y-90515000D02*
X96320000Y-90515000D01*
X96320000Y-90515000D02*
X96320000Y-90896000D01*
X96320000Y-93944000D02*
X96320000Y-94325000D01*
X99114000Y-94960000D02*
X101400000Y-94960000D01*
X103940000Y-96865000D02*
X107750000Y-96865000D01*
X107369000Y-96865000D02*
X107750000Y-96865000D01*
X107750000Y-96865000D02*
X107750000Y-96484000D01*
X107750000Y-93055000D02*
X107750000Y-93436000D01*
X107219232Y-117635822D02*
X107562178Y-117437822D01*
X107562178Y-117437822D02*
X108062178Y-118303848D01*
X95937822Y-125303848D02*
X95437822Y-124437822D01*
X95437822Y-124437822D02*
X96303848Y-123937822D01*
X103303848Y-136062178D02*
X102437822Y-136562178D01*
X102437822Y-136562178D02*
X101937822Y-135696152D01*
X114062178Y-128696152D02*
X114562178Y-129562178D01*
X114562178Y-129562178D02*
X113696152Y-130062178D01*
X112954187Y-126807057D02*
G75*
G02X112024483Y-130276761I-2199704J-1270000D01*
G01*
X107267403Y-125690915D02*
G75*
G02X106819925Y-128882204I-2267403J-1309085D01*
G01*
X112954187Y-126807057D02*
X108509187Y-119108091D01*
X108509187Y-119108091D02*
X108179232Y-119298591D01*
X105539586Y-120822591D02*
X105209631Y-121013091D01*
X106056705Y-123750266D02*
X107199705Y-125730000D01*
X106819926Y-128882205D02*
X108724926Y-132181761D01*
X108534426Y-131851806D02*
X108724926Y-132181761D01*
X108724926Y-132181761D02*
X109054882Y-131991261D01*
X112024483Y-130276761D02*
X111694527Y-130467261D01*
X121959573Y-119561867D02*
X121890808Y-119171883D01*
X121890808Y-119171883D02*
X122875616Y-118998235D01*
X125306691Y-132785543D02*
X124321883Y-132959192D01*
X124321883Y-132959192D02*
X124148235Y-131974384D01*
X137935543Y-129543309D02*
X138109192Y-130528117D01*
X138109192Y-130528117D02*
X137124384Y-130701765D01*
X134693309Y-116914457D02*
X135678117Y-116740808D01*
X135678117Y-116740808D02*
X135851765Y-117725616D01*
X132539185Y-117309518D02*
G75*
G02X135481663Y-119369864I441066J-2501412D01*
G01*
X129545360Y-122271605D02*
G75*
G02X132391144Y-123783582I454640J-2578395D01*
G01*
X132539185Y-117309518D02*
X123784244Y-118853251D01*
X123784244Y-118853251D02*
X123850404Y-119228462D01*
X124379684Y-122230156D02*
X124445844Y-122605368D01*
X127307663Y-122745548D02*
X129558934Y-122348588D01*
X132391145Y-123783581D02*
X136143263Y-123121981D01*
X135768051Y-123188141D02*
X136143263Y-123121981D01*
X136143263Y-123121981D02*
X136077103Y-122746769D01*
X135481663Y-119369864D02*
X135547823Y-119745075D01*
X151600000Y-115696000D02*
X151600000Y-115300000D01*
X151600000Y-115300000D02*
X152600000Y-115300000D01*
X152600000Y-129300000D02*
X151600000Y-129300000D01*
X151600000Y-129300000D02*
X151600000Y-128300000D01*
X165600000Y-128300000D02*
X165600000Y-129300000D01*
X165600000Y-129300000D02*
X164600000Y-129300000D01*
X164600000Y-115300000D02*
X165600000Y-115300000D01*
X165600000Y-115300000D02*
X165600000Y-116300000D01*
X162410000Y-115315000D02*
G75*
G02X164950000Y-117855000I0J-2540000D01*
G01*
X158600001Y-119681829D02*
G75*
G02X161139999Y-121665001I-1J-2618171D01*
G01*
X162410000Y-115315000D02*
X153520000Y-115315000D01*
X153520000Y-115315000D02*
X153520000Y-115696000D01*
X153520000Y-118744000D02*
X153520000Y-119125000D01*
X156314000Y-119760000D02*
X158600000Y-119760000D01*
X161140000Y-121665000D02*
X164950000Y-121665000D01*
X164569000Y-121665000D02*
X164950000Y-121665000D01*
X164950000Y-121665000D02*
X164950000Y-121284000D01*
X164950000Y-117855000D02*
X164950000Y-118236000D01*
X170600000Y-117246000D02*
X170600000Y-116850000D01*
X170600000Y-116850000D02*
X171600000Y-116850000D01*
X171600000Y-130850000D02*
X170600000Y-130850000D01*
X170600000Y-130850000D02*
X170600000Y-129850000D01*
X184600000Y-129850000D02*
X184600000Y-130850000D01*
X184600000Y-130850000D02*
X183600000Y-130850000D01*
X183600000Y-116850000D02*
X184600000Y-116850000D01*
X184600000Y-116850000D02*
X184600000Y-117850000D01*
X181410000Y-116865000D02*
G75*
G02X183950000Y-119405000I0J-2540000D01*
G01*
X177600001Y-121231829D02*
G75*
G02X180139999Y-123215001I-1J-2618171D01*
G01*
X181410000Y-116865000D02*
X172520000Y-116865000D01*
X172520000Y-116865000D02*
X172520000Y-117246000D01*
X172520000Y-120294000D02*
X172520000Y-120675000D01*
X175314000Y-121310000D02*
X177600000Y-121310000D01*
X180140000Y-123215000D02*
X183950000Y-123215000D01*
X183569000Y-123215000D02*
X183950000Y-123215000D01*
X183950000Y-123215000D02*
X183950000Y-122834000D01*
X183950000Y-119405000D02*
X183950000Y-119786000D01*
X189700000Y-121796000D02*
X189700000Y-121400000D01*
X189700000Y-121400000D02*
X190700000Y-121400000D01*
X190700000Y-135400000D02*
X189700000Y-135400000D01*
X189700000Y-135400000D02*
X189700000Y-134400000D01*
X203700000Y-134400000D02*
X203700000Y-135400000D01*
X203700000Y-135400000D02*
X202700000Y-135400000D01*
X202700000Y-121400000D02*
X203700000Y-121400000D01*
X203700000Y-121400000D02*
X203700000Y-122400000D01*
X200510000Y-121415000D02*
G75*
G02X203050000Y-123955000I0J-2540000D01*
G01*
X196700001Y-125781829D02*
G75*
G02X199239999Y-127765001I-1J-2618171D01*
G01*
X200510000Y-121415000D02*
X191620000Y-121415000D01*
X191620000Y-121415000D02*
X191620000Y-121796000D01*
X191620000Y-124844000D02*
X191620000Y-125225000D01*
X194414000Y-125860000D02*
X196700000Y-125860000D01*
X199240000Y-127765000D02*
X203050000Y-127765000D01*
X202669000Y-127765000D02*
X203050000Y-127765000D01*
X203050000Y-127765000D02*
X203050000Y-127384000D01*
X203050000Y-123955000D02*
X203050000Y-124336000D01*
X89889000Y-61843000D02*
X88111000Y-61843000D01*
X89889000Y-59557000D02*
X89889000Y-61843000D01*
X88111000Y-59557000D02*
X89889000Y-59557000D01*
X88111000Y-61843000D02*
X88111000Y-59557000D01*
X114800000Y-57300000D02*
X114800000Y-58700000D01*
X114800000Y-58700000D02*
X113900000Y-58000000D01*
X113900000Y-58000000D02*
X114800000Y-57300000D01*
X113900000Y-57300000D02*
X113900000Y-58700000D01*
X134800000Y-55000000D02*
X134800000Y-56400000D01*
X134800000Y-55700000D02*
X135700000Y-55000000D01*
X135700000Y-56400000D02*
X134800000Y-55700000D01*
X135700000Y-55000000D02*
X135700000Y-56400000D01*
X152000000Y-53500000D02*
X152000000Y-54900000D01*
X152000000Y-54200000D02*
X152900000Y-53500000D01*
X152900000Y-54900000D02*
X152000000Y-54200000D01*
X152900000Y-53500000D02*
X152900000Y-54900000D01*
X171900000Y-54900000D02*
X171900000Y-56300000D01*
X171900000Y-56300000D02*
X171000000Y-55600000D01*
X171000000Y-55600000D02*
X171900000Y-54900000D01*
X171000000Y-54900000D02*
X171000000Y-56300000D01*
X190100000Y-59700000D02*
X190100000Y-61100000D01*
X190100000Y-60400000D02*
X191000000Y-59700000D01*
X191000000Y-61100000D02*
X190100000Y-60400000D01*
X191000000Y-59700000D02*
X191000000Y-61100000D01*
X222200000Y-61100000D02*
X222200000Y-62500000D01*
X222200000Y-62500000D02*
X221300000Y-61800000D01*
X221300000Y-61800000D02*
X222200000Y-61100000D01*
X221300000Y-61100000D02*
X221300000Y-62500000D01*
X113900000Y-60400000D02*
X113900000Y-61800000D01*
X113900000Y-61100000D02*
X114800000Y-60400000D01*
X114800000Y-61800000D02*
X113900000Y-61100000D01*
X114800000Y-60400000D02*
X114800000Y-61800000D01*
X134800000Y-58000000D02*
X134800000Y-59400000D01*
X134800000Y-58700000D02*
X135700000Y-58000000D01*
X135700000Y-59400000D02*
X134800000Y-58700000D01*
X135700000Y-58000000D02*
X135700000Y-59400000D01*
X152100000Y-56700000D02*
X152100000Y-58100000D01*
X152100000Y-57400000D02*
X153000000Y-56700000D01*
X153000000Y-58100000D02*
X152100000Y-57400000D01*
X153000000Y-56700000D02*
X153000000Y-58100000D01*
X171900000Y-58000000D02*
X171900000Y-59400000D01*
X171900000Y-59400000D02*
X171000000Y-58700000D01*
X171000000Y-58700000D02*
X171900000Y-58000000D01*
X171000000Y-58000000D02*
X171000000Y-59400000D01*
X190100000Y-62600000D02*
X190100000Y-64000000D01*
X190100000Y-63300000D02*
X191000000Y-62600000D01*
X191000000Y-64000000D02*
X190100000Y-63300000D01*
X191000000Y-62600000D02*
X191000000Y-64000000D01*
X222200000Y-64200000D02*
X222200000Y-65600000D01*
X222200000Y-65600000D02*
X221300000Y-64900000D01*
X221300000Y-64900000D02*
X222200000Y-64200000D01*
X221300000Y-64200000D02*
X221300000Y-65600000D01*
X114800000Y-95300000D02*
X114800000Y-96700000D01*
X114800000Y-96700000D02*
X113900000Y-96000000D01*
X113900000Y-96000000D02*
X114800000Y-95300000D01*
X113900000Y-95300000D02*
X113900000Y-96700000D01*
X134800000Y-93100000D02*
X134800000Y-94500000D01*
X134800000Y-93800000D02*
X135700000Y-93100000D01*
X135700000Y-94500000D02*
X134800000Y-93800000D01*
X135700000Y-93100000D02*
X135700000Y-94500000D01*
X152900000Y-91600000D02*
X152900000Y-93000000D01*
X152900000Y-93000000D02*
X152000000Y-92300000D01*
X152000000Y-92300000D02*
X152900000Y-91600000D01*
X152000000Y-91600000D02*
X152000000Y-93000000D01*
X171000000Y-92900000D02*
X171000000Y-94300000D01*
X171000000Y-93600000D02*
X171900000Y-92900000D01*
X171900000Y-94300000D02*
X171000000Y-93600000D01*
X171900000Y-92900000D02*
X171900000Y-94300000D01*
X191000000Y-97600000D02*
X191000000Y-99000000D01*
X191000000Y-99000000D02*
X190100000Y-98300000D01*
X190100000Y-98300000D02*
X191000000Y-97600000D01*
X190100000Y-97600000D02*
X190100000Y-99000000D01*
X221300000Y-99200000D02*
X221300000Y-100600000D01*
X221300000Y-99900000D02*
X222200000Y-99200000D01*
X222200000Y-100600000D02*
X221300000Y-99900000D01*
X222200000Y-99200000D02*
X222200000Y-100600000D01*
X113900000Y-98400000D02*
X113900000Y-99800000D01*
X113900000Y-99100000D02*
X114800000Y-98400000D01*
X114800000Y-99800000D02*
X113900000Y-99100000D01*
X114800000Y-98400000D02*
X114800000Y-99800000D01*
X135700000Y-96100000D02*
X135700000Y-97500000D01*
X135700000Y-97500000D02*
X134800000Y-96800000D01*
X134800000Y-96800000D02*
X135700000Y-96100000D01*
X134800000Y-96100000D02*
X134800000Y-97500000D01*
X152000000Y-94700000D02*
X152000000Y-96100000D01*
X152000000Y-95400000D02*
X152900000Y-94700000D01*
X152900000Y-96100000D02*
X152000000Y-95400000D01*
X152900000Y-94700000D02*
X152900000Y-96100000D01*
X171900000Y-96100000D02*
X171900000Y-97500000D01*
X171900000Y-97500000D02*
X171000000Y-96800000D01*
X171000000Y-96800000D02*
X171900000Y-96100000D01*
X171000000Y-96100000D02*
X171000000Y-97500000D01*
X190100000Y-100800000D02*
X190100000Y-102200000D01*
X190100000Y-101500000D02*
X191000000Y-100800000D01*
X191000000Y-102200000D02*
X190100000Y-101500000D01*
X191000000Y-100800000D02*
X191000000Y-102200000D01*
X222300000Y-102400000D02*
X222300000Y-103800000D01*
X222300000Y-103800000D02*
X221400000Y-103100000D01*
X221400000Y-103100000D02*
X222300000Y-102400000D01*
X221400000Y-102400000D02*
X221400000Y-103800000D01*
X97300000Y-88850000D02*
X97300000Y-90250000D01*
X97300000Y-90250000D02*
X96400000Y-89550000D01*
X96400000Y-89550000D02*
X97300000Y-88850000D01*
X96400000Y-88850000D02*
X96400000Y-90250000D01*
X110156218Y-118516987D02*
X108943782Y-119216987D01*
X109550000Y-118866987D02*
X110606218Y-119296410D01*
X109393782Y-119996410D02*
X109550000Y-118866987D01*
X110606218Y-119296410D02*
X109393782Y-119996410D01*
X133048196Y-115336377D02*
X133291304Y-116715108D01*
X133291304Y-116715108D02*
X132283423Y-116182026D01*
X132283423Y-116182026D02*
X133048196Y-115336377D01*
X132161869Y-115492661D02*
X132404977Y-116871392D01*
X152900000Y-113600000D02*
X152900000Y-115000000D01*
X152900000Y-115000000D02*
X152000000Y-114300000D01*
X152000000Y-114300000D02*
X152900000Y-113600000D01*
X152000000Y-113600000D02*
X152000000Y-115000000D01*
X171000000Y-115200000D02*
X171000000Y-116600000D01*
X171000000Y-115900000D02*
X171900000Y-115200000D01*
X171900000Y-116600000D02*
X171000000Y-115900000D01*
X171900000Y-115200000D02*
X171900000Y-116600000D01*
X203200000Y-119700000D02*
X203200000Y-121100000D01*
X203200000Y-121100000D02*
X202300000Y-120400000D01*
X202300000Y-120400000D02*
X203200000Y-119700000D01*
X202300000Y-119700000D02*
X202300000Y-121100000D01*
X110000000Y-76900000D02*
X108200000Y-76900000D01*
X110000000Y-82000000D02*
X108200000Y-82000000D01*
X108200000Y-82000000D02*
X108200000Y-80200000D01*
X108200000Y-80200000D02*
X110000000Y-80200000D01*
X110000000Y-80200000D02*
X110000000Y-82000000D01*
X110000000Y-79500000D02*
X108200000Y-79500000D01*
X108200000Y-77700000D02*
X110000000Y-77700000D01*
X108200000Y-79500000D02*
X108200000Y-77700000D01*
X110000000Y-79500000D02*
X110000000Y-77700000D01*
X108200000Y-76900000D02*
X108200000Y-75100000D01*
X108200000Y-75100000D02*
X110000000Y-75100000D01*
X110000000Y-76900000D02*
X110000000Y-75100000D01*
X85400000Y-37400000D02*
X90400000Y-37400000D01*
X90900000Y-39300000D02*
X90400000Y-39300000D01*
X85400000Y-39300000D02*
X85400000Y-37400000D01*
X90400000Y-39300000D02*
X90400000Y-37400000D01*
X84900000Y-39300000D02*
X85400000Y-39300000D01*
X90900000Y-39300000D02*
X90900000Y-51300000D01*
X90900000Y-51300000D02*
X84900000Y-51300000D01*
X84900000Y-51300000D02*
X84900000Y-39300000D01*
X95430000Y-75870000D02*
X105590000Y-75870000D01*
X95430000Y-73330000D02*
X105590000Y-73330000D01*
X105590000Y-73330000D02*
X105590000Y-75870000D01*
X95430000Y-75870000D02*
X95430000Y-73330000D01*
X103411000Y-70443000D02*
X103411000Y-68157000D01*
X103411000Y-68157000D02*
X105189000Y-68157000D01*
X105189000Y-68157000D02*
X105189000Y-70443000D01*
X105189000Y-70443000D02*
X103411000Y-70443000D01*
X102589000Y-70443000D02*
X100811000Y-70443000D01*
X102589000Y-68157000D02*
X102589000Y-70443000D01*
X100811000Y-68157000D02*
X102589000Y-68157000D01*
X100811000Y-70443000D02*
X100811000Y-68157000D01*
X98311000Y-70443000D02*
X98311000Y-68157000D01*
X98311000Y-68157000D02*
X100089000Y-68157000D01*
X100089000Y-68157000D02*
X100089000Y-70443000D01*
X100089000Y-70443000D02*
X98311000Y-70443000D01*
X97589000Y-70443000D02*
X95811000Y-70443000D01*
X97589000Y-68157000D02*
X97589000Y-70443000D01*
X95811000Y-68157000D02*
X97589000Y-68157000D01*
X95811000Y-70443000D02*
X95811000Y-68157000D01*
X85700000Y-61700000D02*
X85700000Y-59700000D01*
X85700000Y-59700000D02*
X83700000Y-59700000D01*
X83700000Y-59700000D02*
X83700000Y-61700000D01*
X83700000Y-61700000D02*
X85700000Y-61700000D01*
X85900000Y-61700000D02*
X87900000Y-61700000D01*
X85900000Y-59700000D02*
X85900000Y-61700000D01*
X87900000Y-59700000D02*
X85900000Y-59700000D01*
X87900000Y-61700000D02*
X87900000Y-59700000D01*
X85688795Y-57540412D02*
X85688795Y-54538132D01*
X83687275Y-57540412D02*
X85688795Y-57540412D01*
X83687275Y-54538132D02*
X83687275Y-57540412D01*
X85688795Y-54538132D02*
X83687275Y-54538132D01*
X87938795Y-54538132D02*
X85937275Y-54538132D01*
X85937275Y-54538132D02*
X85937275Y-57540412D01*
X85937275Y-57540412D02*
X87938795Y-57540412D01*
X87938795Y-57540412D02*
X87938795Y-54538132D01*
X107448815Y-71635745D02*
X109988815Y-71635745D01*
X94748815Y-41155745D02*
X92208815Y-41155745D01*
X92208815Y-41155745D02*
X92208815Y-71635745D01*
X92208815Y-38615745D02*
X92208815Y-71635745D01*
X109988815Y-38615745D02*
X92208815Y-38615745D01*
X92208815Y-71635745D02*
X94748815Y-71635745D01*
X109988815Y-41155745D02*
X107448815Y-41155745D01*
X109988815Y-71635745D02*
X109988815Y-38615745D01*
X107448815Y-41155745D02*
X107448815Y-71635745D01*
X94748815Y-71635745D02*
X94748815Y-41155745D01*
X109988815Y-71635745D02*
X109988815Y-41155745D01*
X87999240Y-72501140D02*
X90000760Y-72501140D01*
X90000760Y-72501140D02*
X90000760Y-69498860D01*
X90000760Y-69498860D02*
X87999240Y-69498860D01*
X87999240Y-69498860D02*
X87999240Y-72501140D01*
X215290476Y-134504761D02*
X215433333Y-134552380D01*
X215671428Y-134552380D01*
X215766666Y-134504761D01*
X215814285Y-134457142D01*
X215861904Y-134361904D01*
X215861904Y-134266666D01*
X215814285Y-134171428D01*
X215766666Y-134123809D01*
X215671428Y-134076190D01*
X215480952Y-134028571D01*
X215385714Y-133980952D01*
X215338095Y-133933333D01*
X215290476Y-133838095D01*
X215290476Y-133742857D01*
X215338095Y-133647619D01*
X215385714Y-133600000D01*
X215480952Y-133552380D01*
X215719047Y-133552380D01*
X215861904Y-133600000D01*
X216195238Y-133552380D02*
X216433333Y-134552380D01*
X216623809Y-133838095D01*
X216814285Y-134552380D01*
X217052380Y-133552380D01*
X217338095Y-133552380D02*
X217957142Y-133552380D01*
X217623809Y-133933333D01*
X217766666Y-133933333D01*
X217861904Y-133980952D01*
X217909523Y-134028571D01*
X217957142Y-134123809D01*
X217957142Y-134361904D01*
X217909523Y-134457142D01*
X217861904Y-134504761D01*
X217766666Y-134552380D01*
X217480952Y-134552380D01*
X217385714Y-134504761D01*
X217338095Y-134457142D01*
X218909523Y-134552380D02*
X218338095Y-134552380D01*
X218623809Y-134552380D02*
X218623809Y-133552380D01*
X218528571Y-133695238D01*
X218433333Y-133790476D01*
X218338095Y-133838095D01*
X84638095Y-66538095D02*
X85019047Y-66271428D01*
X84638095Y-66080952D02*
X85438095Y-66080952D01*
X85438095Y-66385714D01*
X85400000Y-66461904D01*
X85361904Y-66500000D01*
X85285714Y-66538095D01*
X85171428Y-66538095D01*
X85095238Y-66500000D01*
X85057142Y-66461904D01*
X85019047Y-66385714D01*
X85019047Y-66080952D01*
X85057142Y-66880952D02*
X85057142Y-67147619D01*
X84638095Y-67261904D02*
X84638095Y-66880952D01*
X85438095Y-66880952D01*
X85438095Y-67261904D01*
X84676190Y-67566666D02*
X84638095Y-67680952D01*
X84638095Y-67871428D01*
X84676190Y-67947619D01*
X84714285Y-67985714D01*
X84790476Y-68023809D01*
X84866666Y-68023809D01*
X84942857Y-67985714D01*
X84980952Y-67947619D01*
X85019047Y-67871428D01*
X85057142Y-67719047D01*
X85095238Y-67642857D01*
X85133333Y-67604761D01*
X85209523Y-67566666D01*
X85285714Y-67566666D01*
X85361904Y-67604761D01*
X85400000Y-67642857D01*
X85438095Y-67719047D01*
X85438095Y-67909523D01*
X85400000Y-68023809D01*
X85057142Y-68366666D02*
X85057142Y-68633333D01*
X84638095Y-68747619D02*
X84638095Y-68366666D01*
X85438095Y-68366666D01*
X85438095Y-68747619D01*
X85438095Y-68976190D02*
X85438095Y-69433333D01*
X84638095Y-69204761D02*
X85438095Y-69204761D01*
X114366666Y-50404761D02*
X114509523Y-50452380D01*
X114747619Y-50452380D01*
X114842857Y-50404761D01*
X114890476Y-50357142D01*
X114938095Y-50261904D01*
X114938095Y-50166666D01*
X114890476Y-50071428D01*
X114842857Y-50023809D01*
X114747619Y-49976190D01*
X114557142Y-49928571D01*
X114461904Y-49880952D01*
X114414285Y-49833333D01*
X114366666Y-49738095D01*
X114366666Y-49642857D01*
X114414285Y-49547619D01*
X114461904Y-49500000D01*
X114557142Y-49452380D01*
X114795238Y-49452380D01*
X114938095Y-49500000D01*
X115271428Y-49452380D02*
X115509523Y-50452380D01*
X115700000Y-49738095D01*
X115890476Y-50452380D01*
X116128571Y-49452380D01*
X117033333Y-50452380D02*
X116461904Y-50452380D01*
X116747619Y-50452380D02*
X116747619Y-49452380D01*
X116652380Y-49595238D01*
X116557142Y-49690476D01*
X116461904Y-49738095D01*
X133366666Y-48004761D02*
X133509523Y-48052380D01*
X133747619Y-48052380D01*
X133842857Y-48004761D01*
X133890476Y-47957142D01*
X133938095Y-47861904D01*
X133938095Y-47766666D01*
X133890476Y-47671428D01*
X133842857Y-47623809D01*
X133747619Y-47576190D01*
X133557142Y-47528571D01*
X133461904Y-47480952D01*
X133414285Y-47433333D01*
X133366666Y-47338095D01*
X133366666Y-47242857D01*
X133414285Y-47147619D01*
X133461904Y-47100000D01*
X133557142Y-47052380D01*
X133795238Y-47052380D01*
X133938095Y-47100000D01*
X134271428Y-47052380D02*
X134509523Y-48052380D01*
X134700000Y-47338095D01*
X134890476Y-48052380D01*
X135128571Y-47052380D01*
X135461904Y-47147619D02*
X135509523Y-47100000D01*
X135604761Y-47052380D01*
X135842857Y-47052380D01*
X135938095Y-47100000D01*
X135985714Y-47147619D01*
X136033333Y-47242857D01*
X136033333Y-47338095D01*
X135985714Y-47480952D01*
X135414285Y-48052380D01*
X136033333Y-48052380D01*
X152466666Y-46614761D02*
X152609523Y-46662380D01*
X152847619Y-46662380D01*
X152942857Y-46614761D01*
X152990476Y-46567142D01*
X153038095Y-46471904D01*
X153038095Y-46376666D01*
X152990476Y-46281428D01*
X152942857Y-46233809D01*
X152847619Y-46186190D01*
X152657142Y-46138571D01*
X152561904Y-46090952D01*
X152514285Y-46043333D01*
X152466666Y-45948095D01*
X152466666Y-45852857D01*
X152514285Y-45757619D01*
X152561904Y-45710000D01*
X152657142Y-45662380D01*
X152895238Y-45662380D01*
X153038095Y-45710000D01*
X153371428Y-45662380D02*
X153609523Y-46662380D01*
X153800000Y-45948095D01*
X153990476Y-46662380D01*
X154228571Y-45662380D01*
X154514285Y-45662380D02*
X155133333Y-45662380D01*
X154800000Y-46043333D01*
X154942857Y-46043333D01*
X155038095Y-46090952D01*
X155085714Y-46138571D01*
X155133333Y-46233809D01*
X155133333Y-46471904D01*
X155085714Y-46567142D01*
X155038095Y-46614761D01*
X154942857Y-46662380D01*
X154657142Y-46662380D01*
X154561904Y-46614761D01*
X154514285Y-46567142D01*
X171466666Y-48004761D02*
X171609523Y-48052380D01*
X171847619Y-48052380D01*
X171942857Y-48004761D01*
X171990476Y-47957142D01*
X172038095Y-47861904D01*
X172038095Y-47766666D01*
X171990476Y-47671428D01*
X171942857Y-47623809D01*
X171847619Y-47576190D01*
X171657142Y-47528571D01*
X171561904Y-47480952D01*
X171514285Y-47433333D01*
X171466666Y-47338095D01*
X171466666Y-47242857D01*
X171514285Y-47147619D01*
X171561904Y-47100000D01*
X171657142Y-47052380D01*
X171895238Y-47052380D01*
X172038095Y-47100000D01*
X172371428Y-47052380D02*
X172609523Y-48052380D01*
X172800000Y-47338095D01*
X172990476Y-48052380D01*
X173228571Y-47052380D01*
X174038095Y-47385714D02*
X174038095Y-48052380D01*
X173800000Y-47004761D02*
X173561904Y-47719047D01*
X174180952Y-47719047D01*
X190566666Y-52804761D02*
X190709523Y-52852380D01*
X190947619Y-52852380D01*
X191042857Y-52804761D01*
X191090476Y-52757142D01*
X191138095Y-52661904D01*
X191138095Y-52566666D01*
X191090476Y-52471428D01*
X191042857Y-52423809D01*
X190947619Y-52376190D01*
X190757142Y-52328571D01*
X190661904Y-52280952D01*
X190614285Y-52233333D01*
X190566666Y-52138095D01*
X190566666Y-52042857D01*
X190614285Y-51947619D01*
X190661904Y-51900000D01*
X190757142Y-51852380D01*
X190995238Y-51852380D01*
X191138095Y-51900000D01*
X191471428Y-51852380D02*
X191709523Y-52852380D01*
X191900000Y-52138095D01*
X192090476Y-52852380D01*
X192328571Y-51852380D01*
X193185714Y-51852380D02*
X192709523Y-51852380D01*
X192661904Y-52328571D01*
X192709523Y-52280952D01*
X192804761Y-52233333D01*
X193042857Y-52233333D01*
X193138095Y-52280952D01*
X193185714Y-52328571D01*
X193233333Y-52423809D01*
X193233333Y-52661904D01*
X193185714Y-52757142D01*
X193138095Y-52804761D01*
X193042857Y-52852380D01*
X192804761Y-52852380D01*
X192709523Y-52804761D01*
X192661904Y-52757142D01*
X209566666Y-54304761D02*
X209709523Y-54352380D01*
X209947619Y-54352380D01*
X210042857Y-54304761D01*
X210090476Y-54257142D01*
X210138095Y-54161904D01*
X210138095Y-54066666D01*
X210090476Y-53971428D01*
X210042857Y-53923809D01*
X209947619Y-53876190D01*
X209757142Y-53828571D01*
X209661904Y-53780952D01*
X209614285Y-53733333D01*
X209566666Y-53638095D01*
X209566666Y-53542857D01*
X209614285Y-53447619D01*
X209661904Y-53400000D01*
X209757142Y-53352380D01*
X209995238Y-53352380D01*
X210138095Y-53400000D01*
X210471428Y-53352380D02*
X210709523Y-54352380D01*
X210900000Y-53638095D01*
X211090476Y-54352380D01*
X211328571Y-53352380D01*
X212138095Y-53352380D02*
X211947619Y-53352380D01*
X211852380Y-53400000D01*
X211804761Y-53447619D01*
X211709523Y-53590476D01*
X211661904Y-53780952D01*
X211661904Y-54161904D01*
X211709523Y-54257142D01*
X211757142Y-54304761D01*
X211852380Y-54352380D01*
X212042857Y-54352380D01*
X212138095Y-54304761D01*
X212185714Y-54257142D01*
X212233333Y-54161904D01*
X212233333Y-53923809D01*
X212185714Y-53828571D01*
X212138095Y-53780952D01*
X212042857Y-53733333D01*
X211852380Y-53733333D01*
X211757142Y-53780952D01*
X211709523Y-53828571D01*
X211661904Y-53923809D01*
X114366666Y-69504761D02*
X114509523Y-69552380D01*
X114747619Y-69552380D01*
X114842857Y-69504761D01*
X114890476Y-69457142D01*
X114938095Y-69361904D01*
X114938095Y-69266666D01*
X114890476Y-69171428D01*
X114842857Y-69123809D01*
X114747619Y-69076190D01*
X114557142Y-69028571D01*
X114461904Y-68980952D01*
X114414285Y-68933333D01*
X114366666Y-68838095D01*
X114366666Y-68742857D01*
X114414285Y-68647619D01*
X114461904Y-68600000D01*
X114557142Y-68552380D01*
X114795238Y-68552380D01*
X114938095Y-68600000D01*
X115271428Y-68552380D02*
X115509523Y-69552380D01*
X115700000Y-68838095D01*
X115890476Y-69552380D01*
X116128571Y-68552380D01*
X116414285Y-68552380D02*
X117080952Y-68552380D01*
X116652380Y-69552380D01*
X133366666Y-67104761D02*
X133509523Y-67152380D01*
X133747619Y-67152380D01*
X133842857Y-67104761D01*
X133890476Y-67057142D01*
X133938095Y-66961904D01*
X133938095Y-66866666D01*
X133890476Y-66771428D01*
X133842857Y-66723809D01*
X133747619Y-66676190D01*
X133557142Y-66628571D01*
X133461904Y-66580952D01*
X133414285Y-66533333D01*
X133366666Y-66438095D01*
X133366666Y-66342857D01*
X133414285Y-66247619D01*
X133461904Y-66200000D01*
X133557142Y-66152380D01*
X133795238Y-66152380D01*
X133938095Y-66200000D01*
X134271428Y-66152380D02*
X134509523Y-67152380D01*
X134700000Y-66438095D01*
X134890476Y-67152380D01*
X135128571Y-66152380D01*
X135652380Y-66580952D02*
X135557142Y-66533333D01*
X135509523Y-66485714D01*
X135461904Y-66390476D01*
X135461904Y-66342857D01*
X135509523Y-66247619D01*
X135557142Y-66200000D01*
X135652380Y-66152380D01*
X135842857Y-66152380D01*
X135938095Y-66200000D01*
X135985714Y-66247619D01*
X136033333Y-66342857D01*
X136033333Y-66390476D01*
X135985714Y-66485714D01*
X135938095Y-66533333D01*
X135842857Y-66580952D01*
X135652380Y-66580952D01*
X135557142Y-66628571D01*
X135509523Y-66676190D01*
X135461904Y-66771428D01*
X135461904Y-66961904D01*
X135509523Y-67057142D01*
X135557142Y-67104761D01*
X135652380Y-67152380D01*
X135842857Y-67152380D01*
X135938095Y-67104761D01*
X135985714Y-67057142D01*
X136033333Y-66961904D01*
X136033333Y-66771428D01*
X135985714Y-66676190D01*
X135938095Y-66628571D01*
X135842857Y-66580952D01*
X152466666Y-65704761D02*
X152609523Y-65752380D01*
X152847619Y-65752380D01*
X152942857Y-65704761D01*
X152990476Y-65657142D01*
X153038095Y-65561904D01*
X153038095Y-65466666D01*
X152990476Y-65371428D01*
X152942857Y-65323809D01*
X152847619Y-65276190D01*
X152657142Y-65228571D01*
X152561904Y-65180952D01*
X152514285Y-65133333D01*
X152466666Y-65038095D01*
X152466666Y-64942857D01*
X152514285Y-64847619D01*
X152561904Y-64800000D01*
X152657142Y-64752380D01*
X152895238Y-64752380D01*
X153038095Y-64800000D01*
X153371428Y-64752380D02*
X153609523Y-65752380D01*
X153800000Y-65038095D01*
X153990476Y-65752380D01*
X154228571Y-64752380D01*
X154657142Y-65752380D02*
X154847619Y-65752380D01*
X154942857Y-65704761D01*
X154990476Y-65657142D01*
X155085714Y-65514285D01*
X155133333Y-65323809D01*
X155133333Y-64942857D01*
X155085714Y-64847619D01*
X155038095Y-64800000D01*
X154942857Y-64752380D01*
X154752380Y-64752380D01*
X154657142Y-64800000D01*
X154609523Y-64847619D01*
X154561904Y-64942857D01*
X154561904Y-65180952D01*
X154609523Y-65276190D01*
X154657142Y-65323809D01*
X154752380Y-65371428D01*
X154942857Y-65371428D01*
X155038095Y-65323809D01*
X155085714Y-65276190D01*
X155133333Y-65180952D01*
X170990476Y-67004761D02*
X171133333Y-67052380D01*
X171371428Y-67052380D01*
X171466666Y-67004761D01*
X171514285Y-66957142D01*
X171561904Y-66861904D01*
X171561904Y-66766666D01*
X171514285Y-66671428D01*
X171466666Y-66623809D01*
X171371428Y-66576190D01*
X171180952Y-66528571D01*
X171085714Y-66480952D01*
X171038095Y-66433333D01*
X170990476Y-66338095D01*
X170990476Y-66242857D01*
X171038095Y-66147619D01*
X171085714Y-66100000D01*
X171180952Y-66052380D01*
X171419047Y-66052380D01*
X171561904Y-66100000D01*
X171895238Y-66052380D02*
X172133333Y-67052380D01*
X172323809Y-66338095D01*
X172514285Y-67052380D01*
X172752380Y-66052380D01*
X173657142Y-67052380D02*
X173085714Y-67052380D01*
X173371428Y-67052380D02*
X173371428Y-66052380D01*
X173276190Y-66195238D01*
X173180952Y-66290476D01*
X173085714Y-66338095D01*
X174276190Y-66052380D02*
X174371428Y-66052380D01*
X174466666Y-66100000D01*
X174514285Y-66147619D01*
X174561904Y-66242857D01*
X174609523Y-66433333D01*
X174609523Y-66671428D01*
X174561904Y-66861904D01*
X174514285Y-66957142D01*
X174466666Y-67004761D01*
X174371428Y-67052380D01*
X174276190Y-67052380D01*
X174180952Y-67004761D01*
X174133333Y-66957142D01*
X174085714Y-66861904D01*
X174038095Y-66671428D01*
X174038095Y-66433333D01*
X174085714Y-66242857D01*
X174133333Y-66147619D01*
X174180952Y-66100000D01*
X174276190Y-66052380D01*
X190090476Y-71704761D02*
X190233333Y-71752380D01*
X190471428Y-71752380D01*
X190566666Y-71704761D01*
X190614285Y-71657142D01*
X190661904Y-71561904D01*
X190661904Y-71466666D01*
X190614285Y-71371428D01*
X190566666Y-71323809D01*
X190471428Y-71276190D01*
X190280952Y-71228571D01*
X190185714Y-71180952D01*
X190138095Y-71133333D01*
X190090476Y-71038095D01*
X190090476Y-70942857D01*
X190138095Y-70847619D01*
X190185714Y-70800000D01*
X190280952Y-70752380D01*
X190519047Y-70752380D01*
X190661904Y-70800000D01*
X190995238Y-70752380D02*
X191233333Y-71752380D01*
X191423809Y-71038095D01*
X191614285Y-71752380D01*
X191852380Y-70752380D01*
X192757142Y-71752380D02*
X192185714Y-71752380D01*
X192471428Y-71752380D02*
X192471428Y-70752380D01*
X192376190Y-70895238D01*
X192280952Y-70990476D01*
X192185714Y-71038095D01*
X193709523Y-71752380D02*
X193138095Y-71752380D01*
X193423809Y-71752380D02*
X193423809Y-70752380D01*
X193328571Y-70895238D01*
X193233333Y-70990476D01*
X193138095Y-71038095D01*
X209090476Y-73204761D02*
X209233333Y-73252380D01*
X209471428Y-73252380D01*
X209566666Y-73204761D01*
X209614285Y-73157142D01*
X209661904Y-73061904D01*
X209661904Y-72966666D01*
X209614285Y-72871428D01*
X209566666Y-72823809D01*
X209471428Y-72776190D01*
X209280952Y-72728571D01*
X209185714Y-72680952D01*
X209138095Y-72633333D01*
X209090476Y-72538095D01*
X209090476Y-72442857D01*
X209138095Y-72347619D01*
X209185714Y-72300000D01*
X209280952Y-72252380D01*
X209519047Y-72252380D01*
X209661904Y-72300000D01*
X209995238Y-72252380D02*
X210233333Y-73252380D01*
X210423809Y-72538095D01*
X210614285Y-73252380D01*
X210852380Y-72252380D01*
X211757142Y-73252380D02*
X211185714Y-73252380D01*
X211471428Y-73252380D02*
X211471428Y-72252380D01*
X211376190Y-72395238D01*
X211280952Y-72490476D01*
X211185714Y-72538095D01*
X212138095Y-72347619D02*
X212185714Y-72300000D01*
X212280952Y-72252380D01*
X212519047Y-72252380D01*
X212614285Y-72300000D01*
X212661904Y-72347619D01*
X212709523Y-72442857D01*
X212709523Y-72538095D01*
X212661904Y-72680952D01*
X212090476Y-73252380D01*
X212709523Y-73252380D01*
X113890476Y-88504761D02*
X114033333Y-88552380D01*
X114271428Y-88552380D01*
X114366666Y-88504761D01*
X114414285Y-88457142D01*
X114461904Y-88361904D01*
X114461904Y-88266666D01*
X114414285Y-88171428D01*
X114366666Y-88123809D01*
X114271428Y-88076190D01*
X114080952Y-88028571D01*
X113985714Y-87980952D01*
X113938095Y-87933333D01*
X113890476Y-87838095D01*
X113890476Y-87742857D01*
X113938095Y-87647619D01*
X113985714Y-87600000D01*
X114080952Y-87552380D01*
X114319047Y-87552380D01*
X114461904Y-87600000D01*
X114795238Y-87552380D02*
X115033333Y-88552380D01*
X115223809Y-87838095D01*
X115414285Y-88552380D01*
X115652380Y-87552380D01*
X116557142Y-88552380D02*
X115985714Y-88552380D01*
X116271428Y-88552380D02*
X116271428Y-87552380D01*
X116176190Y-87695238D01*
X116080952Y-87790476D01*
X115985714Y-87838095D01*
X116890476Y-87552380D02*
X117509523Y-87552380D01*
X117176190Y-87933333D01*
X117319047Y-87933333D01*
X117414285Y-87980952D01*
X117461904Y-88028571D01*
X117509523Y-88123809D01*
X117509523Y-88361904D01*
X117461904Y-88457142D01*
X117414285Y-88504761D01*
X117319047Y-88552380D01*
X117033333Y-88552380D01*
X116938095Y-88504761D01*
X116890476Y-88457142D01*
X132890476Y-86104761D02*
X133033333Y-86152380D01*
X133271428Y-86152380D01*
X133366666Y-86104761D01*
X133414285Y-86057142D01*
X133461904Y-85961904D01*
X133461904Y-85866666D01*
X133414285Y-85771428D01*
X133366666Y-85723809D01*
X133271428Y-85676190D01*
X133080952Y-85628571D01*
X132985714Y-85580952D01*
X132938095Y-85533333D01*
X132890476Y-85438095D01*
X132890476Y-85342857D01*
X132938095Y-85247619D01*
X132985714Y-85200000D01*
X133080952Y-85152380D01*
X133319047Y-85152380D01*
X133461904Y-85200000D01*
X133795238Y-85152380D02*
X134033333Y-86152380D01*
X134223809Y-85438095D01*
X134414285Y-86152380D01*
X134652380Y-85152380D01*
X135557142Y-86152380D02*
X134985714Y-86152380D01*
X135271428Y-86152380D02*
X135271428Y-85152380D01*
X135176190Y-85295238D01*
X135080952Y-85390476D01*
X134985714Y-85438095D01*
X136414285Y-85485714D02*
X136414285Y-86152380D01*
X136176190Y-85104761D02*
X135938095Y-85819047D01*
X136557142Y-85819047D01*
X151990476Y-84804761D02*
X152133333Y-84852380D01*
X152371428Y-84852380D01*
X152466666Y-84804761D01*
X152514285Y-84757142D01*
X152561904Y-84661904D01*
X152561904Y-84566666D01*
X152514285Y-84471428D01*
X152466666Y-84423809D01*
X152371428Y-84376190D01*
X152180952Y-84328571D01*
X152085714Y-84280952D01*
X152038095Y-84233333D01*
X151990476Y-84138095D01*
X151990476Y-84042857D01*
X152038095Y-83947619D01*
X152085714Y-83900000D01*
X152180952Y-83852380D01*
X152419047Y-83852380D01*
X152561904Y-83900000D01*
X152895238Y-83852380D02*
X153133333Y-84852380D01*
X153323809Y-84138095D01*
X153514285Y-84852380D01*
X153752380Y-83852380D01*
X154657142Y-84852380D02*
X154085714Y-84852380D01*
X154371428Y-84852380D02*
X154371428Y-83852380D01*
X154276190Y-83995238D01*
X154180952Y-84090476D01*
X154085714Y-84138095D01*
X155561904Y-83852380D02*
X155085714Y-83852380D01*
X155038095Y-84328571D01*
X155085714Y-84280952D01*
X155180952Y-84233333D01*
X155419047Y-84233333D01*
X155514285Y-84280952D01*
X155561904Y-84328571D01*
X155609523Y-84423809D01*
X155609523Y-84661904D01*
X155561904Y-84757142D01*
X155514285Y-84804761D01*
X155419047Y-84852380D01*
X155180952Y-84852380D01*
X155085714Y-84804761D01*
X155038095Y-84757142D01*
X170990476Y-86104761D02*
X171133333Y-86152380D01*
X171371428Y-86152380D01*
X171466666Y-86104761D01*
X171514285Y-86057142D01*
X171561904Y-85961904D01*
X171561904Y-85866666D01*
X171514285Y-85771428D01*
X171466666Y-85723809D01*
X171371428Y-85676190D01*
X171180952Y-85628571D01*
X171085714Y-85580952D01*
X171038095Y-85533333D01*
X170990476Y-85438095D01*
X170990476Y-85342857D01*
X171038095Y-85247619D01*
X171085714Y-85200000D01*
X171180952Y-85152380D01*
X171419047Y-85152380D01*
X171561904Y-85200000D01*
X171895238Y-85152380D02*
X172133333Y-86152380D01*
X172323809Y-85438095D01*
X172514285Y-86152380D01*
X172752380Y-85152380D01*
X173657142Y-86152380D02*
X173085714Y-86152380D01*
X173371428Y-86152380D02*
X173371428Y-85152380D01*
X173276190Y-85295238D01*
X173180952Y-85390476D01*
X173085714Y-85438095D01*
X174514285Y-85152380D02*
X174323809Y-85152380D01*
X174228571Y-85200000D01*
X174180952Y-85247619D01*
X174085714Y-85390476D01*
X174038095Y-85580952D01*
X174038095Y-85961904D01*
X174085714Y-86057142D01*
X174133333Y-86104761D01*
X174228571Y-86152380D01*
X174419047Y-86152380D01*
X174514285Y-86104761D01*
X174561904Y-86057142D01*
X174609523Y-85961904D01*
X174609523Y-85723809D01*
X174561904Y-85628571D01*
X174514285Y-85580952D01*
X174419047Y-85533333D01*
X174228571Y-85533333D01*
X174133333Y-85580952D01*
X174085714Y-85628571D01*
X174038095Y-85723809D01*
X190090476Y-90904761D02*
X190233333Y-90952380D01*
X190471428Y-90952380D01*
X190566666Y-90904761D01*
X190614285Y-90857142D01*
X190661904Y-90761904D01*
X190661904Y-90666666D01*
X190614285Y-90571428D01*
X190566666Y-90523809D01*
X190471428Y-90476190D01*
X190280952Y-90428571D01*
X190185714Y-90380952D01*
X190138095Y-90333333D01*
X190090476Y-90238095D01*
X190090476Y-90142857D01*
X190138095Y-90047619D01*
X190185714Y-90000000D01*
X190280952Y-89952380D01*
X190519047Y-89952380D01*
X190661904Y-90000000D01*
X190995238Y-89952380D02*
X191233333Y-90952380D01*
X191423809Y-90238095D01*
X191614285Y-90952380D01*
X191852380Y-89952380D01*
X192757142Y-90952380D02*
X192185714Y-90952380D01*
X192471428Y-90952380D02*
X192471428Y-89952380D01*
X192376190Y-90095238D01*
X192280952Y-90190476D01*
X192185714Y-90238095D01*
X193090476Y-89952380D02*
X193757142Y-89952380D01*
X193328571Y-90952380D01*
X209090476Y-92404761D02*
X209233333Y-92452380D01*
X209471428Y-92452380D01*
X209566666Y-92404761D01*
X209614285Y-92357142D01*
X209661904Y-92261904D01*
X209661904Y-92166666D01*
X209614285Y-92071428D01*
X209566666Y-92023809D01*
X209471428Y-91976190D01*
X209280952Y-91928571D01*
X209185714Y-91880952D01*
X209138095Y-91833333D01*
X209090476Y-91738095D01*
X209090476Y-91642857D01*
X209138095Y-91547619D01*
X209185714Y-91500000D01*
X209280952Y-91452380D01*
X209519047Y-91452380D01*
X209661904Y-91500000D01*
X209995238Y-91452380D02*
X210233333Y-92452380D01*
X210423809Y-91738095D01*
X210614285Y-92452380D01*
X210852380Y-91452380D01*
X211757142Y-92452380D02*
X211185714Y-92452380D01*
X211471428Y-92452380D02*
X211471428Y-91452380D01*
X211376190Y-91595238D01*
X211280952Y-91690476D01*
X211185714Y-91738095D01*
X212328571Y-91880952D02*
X212233333Y-91833333D01*
X212185714Y-91785714D01*
X212138095Y-91690476D01*
X212138095Y-91642857D01*
X212185714Y-91547619D01*
X212233333Y-91500000D01*
X212328571Y-91452380D01*
X212519047Y-91452380D01*
X212614285Y-91500000D01*
X212661904Y-91547619D01*
X212709523Y-91642857D01*
X212709523Y-91690476D01*
X212661904Y-91785714D01*
X212614285Y-91833333D01*
X212519047Y-91880952D01*
X212328571Y-91880952D01*
X212233333Y-91928571D01*
X212185714Y-91976190D01*
X212138095Y-92071428D01*
X212138095Y-92261904D01*
X212185714Y-92357142D01*
X212233333Y-92404761D01*
X212328571Y-92452380D01*
X212519047Y-92452380D01*
X212614285Y-92404761D01*
X212661904Y-92357142D01*
X212709523Y-92261904D01*
X212709523Y-92071428D01*
X212661904Y-91976190D01*
X212614285Y-91928571D01*
X212519047Y-91880952D01*
X113890476Y-107504761D02*
X114033333Y-107552380D01*
X114271428Y-107552380D01*
X114366666Y-107504761D01*
X114414285Y-107457142D01*
X114461904Y-107361904D01*
X114461904Y-107266666D01*
X114414285Y-107171428D01*
X114366666Y-107123809D01*
X114271428Y-107076190D01*
X114080952Y-107028571D01*
X113985714Y-106980952D01*
X113938095Y-106933333D01*
X113890476Y-106838095D01*
X113890476Y-106742857D01*
X113938095Y-106647619D01*
X113985714Y-106600000D01*
X114080952Y-106552380D01*
X114319047Y-106552380D01*
X114461904Y-106600000D01*
X114795238Y-106552380D02*
X115033333Y-107552380D01*
X115223809Y-106838095D01*
X115414285Y-107552380D01*
X115652380Y-106552380D01*
X116557142Y-107552380D02*
X115985714Y-107552380D01*
X116271428Y-107552380D02*
X116271428Y-106552380D01*
X116176190Y-106695238D01*
X116080952Y-106790476D01*
X115985714Y-106838095D01*
X117033333Y-107552380D02*
X117223809Y-107552380D01*
X117319047Y-107504761D01*
X117366666Y-107457142D01*
X117461904Y-107314285D01*
X117509523Y-107123809D01*
X117509523Y-106742857D01*
X117461904Y-106647619D01*
X117414285Y-106600000D01*
X117319047Y-106552380D01*
X117128571Y-106552380D01*
X117033333Y-106600000D01*
X116985714Y-106647619D01*
X116938095Y-106742857D01*
X116938095Y-106980952D01*
X116985714Y-107076190D01*
X117033333Y-107123809D01*
X117128571Y-107171428D01*
X117319047Y-107171428D01*
X117414285Y-107123809D01*
X117461904Y-107076190D01*
X117509523Y-106980952D01*
X132890476Y-105204761D02*
X133033333Y-105252380D01*
X133271428Y-105252380D01*
X133366666Y-105204761D01*
X133414285Y-105157142D01*
X133461904Y-105061904D01*
X133461904Y-104966666D01*
X133414285Y-104871428D01*
X133366666Y-104823809D01*
X133271428Y-104776190D01*
X133080952Y-104728571D01*
X132985714Y-104680952D01*
X132938095Y-104633333D01*
X132890476Y-104538095D01*
X132890476Y-104442857D01*
X132938095Y-104347619D01*
X132985714Y-104300000D01*
X133080952Y-104252380D01*
X133319047Y-104252380D01*
X133461904Y-104300000D01*
X133795238Y-104252380D02*
X134033333Y-105252380D01*
X134223809Y-104538095D01*
X134414285Y-105252380D01*
X134652380Y-104252380D01*
X134985714Y-104347619D02*
X135033333Y-104300000D01*
X135128571Y-104252380D01*
X135366666Y-104252380D01*
X135461904Y-104300000D01*
X135509523Y-104347619D01*
X135557142Y-104442857D01*
X135557142Y-104538095D01*
X135509523Y-104680952D01*
X134938095Y-105252380D01*
X135557142Y-105252380D01*
X136176190Y-104252380D02*
X136271428Y-104252380D01*
X136366666Y-104300000D01*
X136414285Y-104347619D01*
X136461904Y-104442857D01*
X136509523Y-104633333D01*
X136509523Y-104871428D01*
X136461904Y-105061904D01*
X136414285Y-105157142D01*
X136366666Y-105204761D01*
X136271428Y-105252380D01*
X136176190Y-105252380D01*
X136080952Y-105204761D01*
X136033333Y-105157142D01*
X135985714Y-105061904D01*
X135938095Y-104871428D01*
X135938095Y-104633333D01*
X135985714Y-104442857D01*
X136033333Y-104347619D01*
X136080952Y-104300000D01*
X136176190Y-104252380D01*
X151990476Y-103804761D02*
X152133333Y-103852380D01*
X152371428Y-103852380D01*
X152466666Y-103804761D01*
X152514285Y-103757142D01*
X152561904Y-103661904D01*
X152561904Y-103566666D01*
X152514285Y-103471428D01*
X152466666Y-103423809D01*
X152371428Y-103376190D01*
X152180952Y-103328571D01*
X152085714Y-103280952D01*
X152038095Y-103233333D01*
X151990476Y-103138095D01*
X151990476Y-103042857D01*
X152038095Y-102947619D01*
X152085714Y-102900000D01*
X152180952Y-102852380D01*
X152419047Y-102852380D01*
X152561904Y-102900000D01*
X152895238Y-102852380D02*
X153133333Y-103852380D01*
X153323809Y-103138095D01*
X153514285Y-103852380D01*
X153752380Y-102852380D01*
X154085714Y-102947619D02*
X154133333Y-102900000D01*
X154228571Y-102852380D01*
X154466666Y-102852380D01*
X154561904Y-102900000D01*
X154609523Y-102947619D01*
X154657142Y-103042857D01*
X154657142Y-103138095D01*
X154609523Y-103280952D01*
X154038095Y-103852380D01*
X154657142Y-103852380D01*
X155609523Y-103852380D02*
X155038095Y-103852380D01*
X155323809Y-103852380D02*
X155323809Y-102852380D01*
X155228571Y-102995238D01*
X155133333Y-103090476D01*
X155038095Y-103138095D01*
X170990476Y-105204761D02*
X171133333Y-105252380D01*
X171371428Y-105252380D01*
X171466666Y-105204761D01*
X171514285Y-105157142D01*
X171561904Y-105061904D01*
X171561904Y-104966666D01*
X171514285Y-104871428D01*
X171466666Y-104823809D01*
X171371428Y-104776190D01*
X171180952Y-104728571D01*
X171085714Y-104680952D01*
X171038095Y-104633333D01*
X170990476Y-104538095D01*
X170990476Y-104442857D01*
X171038095Y-104347619D01*
X171085714Y-104300000D01*
X171180952Y-104252380D01*
X171419047Y-104252380D01*
X171561904Y-104300000D01*
X171895238Y-104252380D02*
X172133333Y-105252380D01*
X172323809Y-104538095D01*
X172514285Y-105252380D01*
X172752380Y-104252380D01*
X173085714Y-104347619D02*
X173133333Y-104300000D01*
X173228571Y-104252380D01*
X173466666Y-104252380D01*
X173561904Y-104300000D01*
X173609523Y-104347619D01*
X173657142Y-104442857D01*
X173657142Y-104538095D01*
X173609523Y-104680952D01*
X173038095Y-105252380D01*
X173657142Y-105252380D01*
X174038095Y-104347619D02*
X174085714Y-104300000D01*
X174180952Y-104252380D01*
X174419047Y-104252380D01*
X174514285Y-104300000D01*
X174561904Y-104347619D01*
X174609523Y-104442857D01*
X174609523Y-104538095D01*
X174561904Y-104680952D01*
X173990476Y-105252380D01*
X174609523Y-105252380D01*
X190090476Y-109904761D02*
X190233333Y-109952380D01*
X190471428Y-109952380D01*
X190566666Y-109904761D01*
X190614285Y-109857142D01*
X190661904Y-109761904D01*
X190661904Y-109666666D01*
X190614285Y-109571428D01*
X190566666Y-109523809D01*
X190471428Y-109476190D01*
X190280952Y-109428571D01*
X190185714Y-109380952D01*
X190138095Y-109333333D01*
X190090476Y-109238095D01*
X190090476Y-109142857D01*
X190138095Y-109047619D01*
X190185714Y-109000000D01*
X190280952Y-108952380D01*
X190519047Y-108952380D01*
X190661904Y-109000000D01*
X190995238Y-108952380D02*
X191233333Y-109952380D01*
X191423809Y-109238095D01*
X191614285Y-109952380D01*
X191852380Y-108952380D01*
X192185714Y-109047619D02*
X192233333Y-109000000D01*
X192328571Y-108952380D01*
X192566666Y-108952380D01*
X192661904Y-109000000D01*
X192709523Y-109047619D01*
X192757142Y-109142857D01*
X192757142Y-109238095D01*
X192709523Y-109380952D01*
X192138095Y-109952380D01*
X192757142Y-109952380D01*
X193090476Y-108952380D02*
X193709523Y-108952380D01*
X193376190Y-109333333D01*
X193519047Y-109333333D01*
X193614285Y-109380952D01*
X193661904Y-109428571D01*
X193709523Y-109523809D01*
X193709523Y-109761904D01*
X193661904Y-109857142D01*
X193614285Y-109904761D01*
X193519047Y-109952380D01*
X193233333Y-109952380D01*
X193138095Y-109904761D01*
X193090476Y-109857142D01*
X209140476Y-111404761D02*
X209283333Y-111452380D01*
X209521428Y-111452380D01*
X209616666Y-111404761D01*
X209664285Y-111357142D01*
X209711904Y-111261904D01*
X209711904Y-111166666D01*
X209664285Y-111071428D01*
X209616666Y-111023809D01*
X209521428Y-110976190D01*
X209330952Y-110928571D01*
X209235714Y-110880952D01*
X209188095Y-110833333D01*
X209140476Y-110738095D01*
X209140476Y-110642857D01*
X209188095Y-110547619D01*
X209235714Y-110500000D01*
X209330952Y-110452380D01*
X209569047Y-110452380D01*
X209711904Y-110500000D01*
X210045238Y-110452380D02*
X210283333Y-111452380D01*
X210473809Y-110738095D01*
X210664285Y-111452380D01*
X210902380Y-110452380D01*
X211235714Y-110547619D02*
X211283333Y-110500000D01*
X211378571Y-110452380D01*
X211616666Y-110452380D01*
X211711904Y-110500000D01*
X211759523Y-110547619D01*
X211807142Y-110642857D01*
X211807142Y-110738095D01*
X211759523Y-110880952D01*
X211188095Y-111452380D01*
X211807142Y-111452380D01*
X212664285Y-110785714D02*
X212664285Y-111452380D01*
X212426190Y-110404761D02*
X212188095Y-111119047D01*
X212807142Y-111119047D01*
X94790476Y-97904761D02*
X94933333Y-97952380D01*
X95171428Y-97952380D01*
X95266666Y-97904761D01*
X95314285Y-97857142D01*
X95361904Y-97761904D01*
X95361904Y-97666666D01*
X95314285Y-97571428D01*
X95266666Y-97523809D01*
X95171428Y-97476190D01*
X94980952Y-97428571D01*
X94885714Y-97380952D01*
X94838095Y-97333333D01*
X94790476Y-97238095D01*
X94790476Y-97142857D01*
X94838095Y-97047619D01*
X94885714Y-97000000D01*
X94980952Y-96952380D01*
X95219047Y-96952380D01*
X95361904Y-97000000D01*
X95695238Y-96952380D02*
X95933333Y-97952380D01*
X96123809Y-97238095D01*
X96314285Y-97952380D01*
X96552380Y-96952380D01*
X96885714Y-97047619D02*
X96933333Y-97000000D01*
X97028571Y-96952380D01*
X97266666Y-96952380D01*
X97361904Y-97000000D01*
X97409523Y-97047619D01*
X97457142Y-97142857D01*
X97457142Y-97238095D01*
X97409523Y-97380952D01*
X96838095Y-97952380D01*
X97457142Y-97952380D01*
X98361904Y-96952380D02*
X97885714Y-96952380D01*
X97838095Y-97428571D01*
X97885714Y-97380952D01*
X97980952Y-97333333D01*
X98219047Y-97333333D01*
X98314285Y-97380952D01*
X98361904Y-97428571D01*
X98409523Y-97523809D01*
X98409523Y-97761904D01*
X98361904Y-97857142D01*
X98314285Y-97904761D01*
X98219047Y-97952380D01*
X97980952Y-97952380D01*
X97885714Y-97904761D01*
X97838095Y-97857142D01*
X101344704Y-121478365D02*
X101374893Y-121625892D01*
X101493940Y-121832089D01*
X101582799Y-121890758D01*
X101647848Y-121908188D01*
X101754136Y-121901808D01*
X101836614Y-121854189D01*
X101895283Y-121765331D01*
X101912713Y-121700282D01*
X101906333Y-121593994D01*
X101852335Y-121405227D01*
X101845955Y-121298939D01*
X101863385Y-121233890D01*
X101922054Y-121145032D01*
X102004532Y-121097412D01*
X102110821Y-121091033D01*
X102175869Y-121108463D01*
X102264728Y-121167132D01*
X102383775Y-121373328D01*
X102413965Y-121520856D01*
X102621871Y-121785721D02*
X101874893Y-122491918D01*
X102588720Y-122299732D01*
X102065369Y-122821832D01*
X103050442Y-122528029D01*
X103134630Y-122864323D02*
X103199679Y-122881753D01*
X103288537Y-122940422D01*
X103407585Y-123146618D01*
X103413965Y-123252906D01*
X103396535Y-123317955D01*
X103337866Y-123406814D01*
X103255387Y-123454433D01*
X103107860Y-123484622D01*
X102327274Y-123275465D01*
X102636798Y-123811575D01*
X103931394Y-124053883D02*
X103836156Y-123888926D01*
X103747298Y-123830257D01*
X103682249Y-123812827D01*
X103510912Y-123801777D01*
X103322145Y-123855776D01*
X102992231Y-124046252D01*
X102933562Y-124135110D01*
X102916132Y-124200159D01*
X102922512Y-124306447D01*
X103017750Y-124471404D01*
X103106608Y-124530073D01*
X103171657Y-124547503D01*
X103277945Y-124541123D01*
X103484142Y-124422076D01*
X103542811Y-124333217D01*
X103560241Y-124268169D01*
X103553861Y-124161881D01*
X103458623Y-123996923D01*
X103369764Y-123938254D01*
X103304716Y-123920824D01*
X103198427Y-123927204D01*
X123561176Y-126396344D02*
X123710131Y-126418432D01*
X123944609Y-126377088D01*
X124030132Y-126313654D01*
X124068758Y-126258489D01*
X124099116Y-126156429D01*
X124082578Y-126062638D01*
X124019145Y-125977116D01*
X123963980Y-125938489D01*
X123861920Y-125908132D01*
X123666068Y-125894312D01*
X123564008Y-125863954D01*
X123508844Y-125825327D01*
X123445410Y-125739805D01*
X123428872Y-125646014D01*
X123459230Y-125543954D01*
X123497857Y-125488789D01*
X123583379Y-125425356D01*
X123817857Y-125384011D01*
X123966813Y-125406100D01*
X124286813Y-125301321D02*
X124694939Y-126244784D01*
X124758487Y-125508274D01*
X125070104Y-126178633D01*
X125130934Y-125152480D01*
X125475741Y-125188388D02*
X125514368Y-125133224D01*
X125599890Y-125069790D01*
X125834368Y-125028446D01*
X125936428Y-125058803D01*
X125991593Y-125097430D01*
X126055026Y-125182952D01*
X126071564Y-125276743D01*
X126049475Y-125425699D01*
X125585956Y-126087674D01*
X126195599Y-125980177D01*
X126350220Y-124937487D02*
X127006758Y-124821722D01*
X126758346Y-125880950D01*
X151990476Y-122704761D02*
X152133333Y-122752380D01*
X152371428Y-122752380D01*
X152466666Y-122704761D01*
X152514285Y-122657142D01*
X152561904Y-122561904D01*
X152561904Y-122466666D01*
X152514285Y-122371428D01*
X152466666Y-122323809D01*
X152371428Y-122276190D01*
X152180952Y-122228571D01*
X152085714Y-122180952D01*
X152038095Y-122133333D01*
X151990476Y-122038095D01*
X151990476Y-121942857D01*
X152038095Y-121847619D01*
X152085714Y-121800000D01*
X152180952Y-121752380D01*
X152419047Y-121752380D01*
X152561904Y-121800000D01*
X152895238Y-121752380D02*
X153133333Y-122752380D01*
X153323809Y-122038095D01*
X153514285Y-122752380D01*
X153752380Y-121752380D01*
X154085714Y-121847619D02*
X154133333Y-121800000D01*
X154228571Y-121752380D01*
X154466666Y-121752380D01*
X154561904Y-121800000D01*
X154609523Y-121847619D01*
X154657142Y-121942857D01*
X154657142Y-122038095D01*
X154609523Y-122180952D01*
X154038095Y-122752380D01*
X154657142Y-122752380D01*
X155228571Y-122180952D02*
X155133333Y-122133333D01*
X155085714Y-122085714D01*
X155038095Y-121990476D01*
X155038095Y-121942857D01*
X155085714Y-121847619D01*
X155133333Y-121800000D01*
X155228571Y-121752380D01*
X155419047Y-121752380D01*
X155514285Y-121800000D01*
X155561904Y-121847619D01*
X155609523Y-121942857D01*
X155609523Y-121990476D01*
X155561904Y-122085714D01*
X155514285Y-122133333D01*
X155419047Y-122180952D01*
X155228571Y-122180952D01*
X155133333Y-122228571D01*
X155085714Y-122276190D01*
X155038095Y-122371428D01*
X155038095Y-122561904D01*
X155085714Y-122657142D01*
X155133333Y-122704761D01*
X155228571Y-122752380D01*
X155419047Y-122752380D01*
X155514285Y-122704761D01*
X155561904Y-122657142D01*
X155609523Y-122561904D01*
X155609523Y-122371428D01*
X155561904Y-122276190D01*
X155514285Y-122228571D01*
X155419047Y-122180952D01*
X170990476Y-124254761D02*
X171133333Y-124302380D01*
X171371428Y-124302380D01*
X171466666Y-124254761D01*
X171514285Y-124207142D01*
X171561904Y-124111904D01*
X171561904Y-124016666D01*
X171514285Y-123921428D01*
X171466666Y-123873809D01*
X171371428Y-123826190D01*
X171180952Y-123778571D01*
X171085714Y-123730952D01*
X171038095Y-123683333D01*
X170990476Y-123588095D01*
X170990476Y-123492857D01*
X171038095Y-123397619D01*
X171085714Y-123350000D01*
X171180952Y-123302380D01*
X171419047Y-123302380D01*
X171561904Y-123350000D01*
X171895238Y-123302380D02*
X172133333Y-124302380D01*
X172323809Y-123588095D01*
X172514285Y-124302380D01*
X172752380Y-123302380D01*
X173085714Y-123397619D02*
X173133333Y-123350000D01*
X173228571Y-123302380D01*
X173466666Y-123302380D01*
X173561904Y-123350000D01*
X173609523Y-123397619D01*
X173657142Y-123492857D01*
X173657142Y-123588095D01*
X173609523Y-123730952D01*
X173038095Y-124302380D01*
X173657142Y-124302380D01*
X174133333Y-124302380D02*
X174323809Y-124302380D01*
X174419047Y-124254761D01*
X174466666Y-124207142D01*
X174561904Y-124064285D01*
X174609523Y-123873809D01*
X174609523Y-123492857D01*
X174561904Y-123397619D01*
X174514285Y-123350000D01*
X174419047Y-123302380D01*
X174228571Y-123302380D01*
X174133333Y-123350000D01*
X174085714Y-123397619D01*
X174038095Y-123492857D01*
X174038095Y-123730952D01*
X174085714Y-123826190D01*
X174133333Y-123873809D01*
X174228571Y-123921428D01*
X174419047Y-123921428D01*
X174514285Y-123873809D01*
X174561904Y-123826190D01*
X174609523Y-123730952D01*
X190090476Y-128804761D02*
X190233333Y-128852380D01*
X190471428Y-128852380D01*
X190566666Y-128804761D01*
X190614285Y-128757142D01*
X190661904Y-128661904D01*
X190661904Y-128566666D01*
X190614285Y-128471428D01*
X190566666Y-128423809D01*
X190471428Y-128376190D01*
X190280952Y-128328571D01*
X190185714Y-128280952D01*
X190138095Y-128233333D01*
X190090476Y-128138095D01*
X190090476Y-128042857D01*
X190138095Y-127947619D01*
X190185714Y-127900000D01*
X190280952Y-127852380D01*
X190519047Y-127852380D01*
X190661904Y-127900000D01*
X190995238Y-127852380D02*
X191233333Y-128852380D01*
X191423809Y-128138095D01*
X191614285Y-128852380D01*
X191852380Y-127852380D01*
X192138095Y-127852380D02*
X192757142Y-127852380D01*
X192423809Y-128233333D01*
X192566666Y-128233333D01*
X192661904Y-128280952D01*
X192709523Y-128328571D01*
X192757142Y-128423809D01*
X192757142Y-128661904D01*
X192709523Y-128757142D01*
X192661904Y-128804761D01*
X192566666Y-128852380D01*
X192280952Y-128852380D01*
X192185714Y-128804761D01*
X192138095Y-128757142D01*
X193376190Y-127852380D02*
X193471428Y-127852380D01*
X193566666Y-127900000D01*
X193614285Y-127947619D01*
X193661904Y-128042857D01*
X193709523Y-128233333D01*
X193709523Y-128471428D01*
X193661904Y-128661904D01*
X193614285Y-128757142D01*
X193566666Y-128804761D01*
X193471428Y-128852380D01*
X193376190Y-128852380D01*
X193280952Y-128804761D01*
X193233333Y-128757142D01*
X193185714Y-128661904D01*
X193138095Y-128471428D01*
X193138095Y-128233333D01*
X193185714Y-128042857D01*
X193233333Y-127947619D01*
X193280952Y-127900000D01*
X193376190Y-127852380D01*
X110283333Y-80761904D02*
X110550000Y-81561904D01*
X110816666Y-80761904D01*
X111540476Y-81485714D02*
X111502380Y-81523809D01*
X111388095Y-81561904D01*
X111311904Y-81561904D01*
X111197619Y-81523809D01*
X111121428Y-81447619D01*
X111083333Y-81371428D01*
X111045238Y-81219047D01*
X111045238Y-81104761D01*
X111083333Y-80952380D01*
X111121428Y-80876190D01*
X111197619Y-80800000D01*
X111311904Y-80761904D01*
X111388095Y-80761904D01*
X111502380Y-80800000D01*
X111540476Y-80838095D01*
X112340476Y-81485714D02*
X112302380Y-81523809D01*
X112188095Y-81561904D01*
X112111904Y-81561904D01*
X111997619Y-81523809D01*
X111921428Y-81447619D01*
X111883333Y-81371428D01*
X111845238Y-81219047D01*
X111845238Y-81104761D01*
X111883333Y-80952380D01*
X111921428Y-80876190D01*
X111997619Y-80800000D01*
X112111904Y-80761904D01*
X112188095Y-80761904D01*
X112302380Y-80800000D01*
X112340476Y-80838095D01*
X110740476Y-75650000D02*
X110664285Y-75611904D01*
X110550000Y-75611904D01*
X110435714Y-75650000D01*
X110359523Y-75726190D01*
X110321428Y-75802380D01*
X110283333Y-75954761D01*
X110283333Y-76069047D01*
X110321428Y-76221428D01*
X110359523Y-76297619D01*
X110435714Y-76373809D01*
X110550000Y-76411904D01*
X110626190Y-76411904D01*
X110740476Y-76373809D01*
X110778571Y-76335714D01*
X110778571Y-76069047D01*
X110626190Y-76069047D01*
X111121428Y-76411904D02*
X111121428Y-75611904D01*
X111578571Y-76411904D01*
X111578571Y-75611904D01*
X111959523Y-76411904D02*
X111959523Y-75611904D01*
X112150000Y-75611904D01*
X112264285Y-75650000D01*
X112340476Y-75726190D01*
X112378571Y-75802380D01*
X112416666Y-75954761D01*
X112416666Y-76069047D01*
X112378571Y-76221428D01*
X112340476Y-76297619D01*
X112264285Y-76373809D01*
X112150000Y-76411904D01*
X111959523Y-76411904D01*
X110785714Y-78961904D02*
X110404761Y-78961904D01*
X110404761Y-78161904D01*
X111052380Y-78542857D02*
X111319047Y-78542857D01*
X111433333Y-78961904D02*
X111052380Y-78961904D01*
X111052380Y-78161904D01*
X111433333Y-78161904D01*
X111776190Y-78961904D02*
X111776190Y-78161904D01*
X111966666Y-78161904D01*
X112080952Y-78200000D01*
X112157142Y-78276190D01*
X112195238Y-78352380D01*
X112233333Y-78504761D01*
X112233333Y-78619047D01*
X112195238Y-78771428D01*
X112157142Y-78847619D01*
X112080952Y-78923809D01*
X111966666Y-78961904D01*
X111776190Y-78961904D01*
X84100076Y-62739639D02*
X84100076Y-61926839D01*
X84409714Y-61926839D01*
X84487123Y-61965544D01*
X84525828Y-62004248D01*
X84564533Y-62081658D01*
X84564533Y-62197772D01*
X84525828Y-62275182D01*
X84487123Y-62313886D01*
X84409714Y-62352591D01*
X84100076Y-62352591D01*
X85338628Y-62739639D02*
X84874171Y-62739639D01*
X85106400Y-62739639D02*
X85106400Y-61926839D01*
X85028990Y-62042953D01*
X84951580Y-62120363D01*
X84874171Y-62159067D01*
X86300076Y-62739639D02*
X86300076Y-61926839D01*
X86609714Y-61926839D01*
X86687123Y-61965544D01*
X86725828Y-62004248D01*
X86764533Y-62081658D01*
X86764533Y-62197772D01*
X86725828Y-62275182D01*
X86687123Y-62313886D01*
X86609714Y-62352591D01*
X86300076Y-62352591D01*
X87074171Y-62004248D02*
X87112876Y-61965544D01*
X87190285Y-61926839D01*
X87383809Y-61926839D01*
X87461219Y-61965544D01*
X87499923Y-62004248D01*
X87538628Y-62081658D01*
X87538628Y-62159067D01*
X87499923Y-62275182D01*
X87035466Y-62739639D01*
X87538628Y-62739639D01*
X85067695Y-56135466D02*
X84680647Y-56406400D01*
X85067695Y-56599923D02*
X84254895Y-56599923D01*
X84254895Y-56290285D01*
X84293600Y-56212876D01*
X84332304Y-56174171D01*
X84409714Y-56135466D01*
X84525828Y-56135466D01*
X84603238Y-56174171D01*
X84641942Y-56212876D01*
X84680647Y-56290285D01*
X84680647Y-56599923D01*
X85067695Y-55361371D02*
X85067695Y-55825828D01*
X85067695Y-55593600D02*
X84254895Y-55593600D01*
X84371009Y-55671009D01*
X84448419Y-55748419D01*
X84487123Y-55825828D01*
X87267695Y-56135466D02*
X86880647Y-56406400D01*
X87267695Y-56599923D02*
X86454895Y-56599923D01*
X86454895Y-56290285D01*
X86493600Y-56212876D01*
X86532304Y-56174171D01*
X86609714Y-56135466D01*
X86725828Y-56135466D01*
X86803238Y-56174171D01*
X86841942Y-56212876D01*
X86880647Y-56290285D01*
X86880647Y-56599923D01*
X86532304Y-55825828D02*
X86493600Y-55787123D01*
X86454895Y-55709714D01*
X86454895Y-55516190D01*
X86493600Y-55438780D01*
X86532304Y-55400076D01*
X86609714Y-55361371D01*
X86687123Y-55361371D01*
X86803238Y-55400076D01*
X87267695Y-55864533D01*
X87267695Y-55361371D01*
X89361904Y-71133333D02*
X88980952Y-71400000D01*
X89361904Y-71590476D02*
X88561904Y-71590476D01*
X88561904Y-71285714D01*
X88600000Y-71209523D01*
X88638095Y-71171428D01*
X88714285Y-71133333D01*
X88828571Y-71133333D01*
X88904761Y-71171428D01*
X88942857Y-71209523D01*
X88980952Y-71285714D01*
X88980952Y-71590476D01*
X88561904Y-70866666D02*
X88561904Y-70371428D01*
X88866666Y-70638095D01*
X88866666Y-70523809D01*
X88904761Y-70447619D01*
X88942857Y-70409523D01*
X89019047Y-70371428D01*
X89209523Y-70371428D01*
X89285714Y-70409523D01*
X89323809Y-70447619D01*
X89361904Y-70523809D01*
X89361904Y-70752380D01*
X89323809Y-70828571D01*
X89285714Y-70866666D01*
M02*
