G04 #@! TF.GenerationSoftware,KiCad,Pcbnew,(5.1.5)-3*
G04 #@! TF.CreationDate,2020-05-06T00:51:22+04:00*
G04 #@! TF.ProjectId,Lily58_Pro,4c696c79-3538-45f5-9072-6f2e6b696361,rev?*
G04 #@! TF.SameCoordinates,Original*
G04 #@! TF.FileFunction,Soldermask,Bot*
G04 #@! TF.FilePolarity,Negative*
%FSLAX46Y46*%
G04 Gerber Fmt 4.6, Leading zero omitted, Abs format (unit mm)*
G04 Created by KiCad (PCBNEW (5.1.5)-3) date 2020-05-06 00:51:22*
%MOMM*%
%LPD*%
G04 APERTURE LIST*
%ADD10C,0.100000*%
%ADD11C,0.150000*%
%ADD12C,0.300000*%
%ADD13C,0.400000*%
%ADD14C,0.200000*%
%ADD15R,2.800000X2.800000*%
%ADD16C,3.400000*%
%ADD17C,2.100000*%
%ADD18C,4.400000*%
%ADD19R,2.900000X2.900000*%
%ADD20C,0.500000*%
%ADD21R,1.100000X1.900000*%
%ADD22C,1.600000*%
%ADD23R,1.600000X2.500000*%
%ADD24R,1.924000X1.924000*%
%ADD25C,1.924000*%
%ADD26C,5.300000*%
%ADD27C,1.797000*%
%ADD28R,1.543000X1.035000*%
%ADD29C,2.900000*%
%ADD30R,2.200000X1.900000*%
G04 APERTURE END LIST*
D10*
D11*
X177002200Y-166007200D02*
X177002200Y-198007200D01*
X285002200Y-198007200D01*
X285002200Y-166007200D01*
X177002200Y-166007200D01*
D10*
D11*
X10000000Y-10000000D02*
X10000000Y-200007200D01*
X287002200Y-200007200D01*
X287002200Y-10000000D01*
X10000000Y-10000000D01*
D10*
D11*
X12000000Y-12000000D02*
X12000000Y-198007200D01*
X285002200Y-198007200D01*
X285002200Y-12000000D01*
X12000000Y-12000000D01*
D10*
D11*
X60000000Y-12000000D02*
X60000000Y-10000000D01*
D10*
D11*
X110000000Y-12000000D02*
X110000000Y-10000000D01*
D10*
D11*
X160000000Y-12000000D02*
X160000000Y-10000000D01*
D10*
D11*
X210000000Y-12000000D02*
X210000000Y-10000000D01*
D10*
D11*
X260000000Y-12000000D02*
X260000000Y-10000000D01*
D10*
D11*
X36065476Y-11588095D02*
X35322619Y-11588095D01*
X35694047Y-11588095D02*
X35694047Y-10288095D01*
X35570238Y-10473809D01*
X35446428Y-10597619D01*
X35322619Y-10659523D01*
D10*
D11*
X85322619Y-10411904D02*
X85384523Y-10350000D01*
X85508333Y-10288095D01*
X85817857Y-10288095D01*
X85941666Y-10350000D01*
X86003571Y-10411904D01*
X86065476Y-10535714D01*
X86065476Y-10659523D01*
X86003571Y-10845238D01*
X85260714Y-11588095D01*
X86065476Y-11588095D01*
D10*
D11*
X135260714Y-10288095D02*
X136065476Y-10288095D01*
X135632142Y-10783333D01*
X135817857Y-10783333D01*
X135941666Y-10845238D01*
X136003571Y-10907142D01*
X136065476Y-11030952D01*
X136065476Y-11340476D01*
X136003571Y-11464285D01*
X135941666Y-11526190D01*
X135817857Y-11588095D01*
X135446428Y-11588095D01*
X135322619Y-11526190D01*
X135260714Y-11464285D01*
D10*
D11*
X185941666Y-10721428D02*
X185941666Y-11588095D01*
X185632142Y-10226190D02*
X185322619Y-11154761D01*
X186127380Y-11154761D01*
D10*
D11*
X236003571Y-10288095D02*
X235384523Y-10288095D01*
X235322619Y-10907142D01*
X235384523Y-10845238D01*
X235508333Y-10783333D01*
X235817857Y-10783333D01*
X235941666Y-10845238D01*
X236003571Y-10907142D01*
X236065476Y-11030952D01*
X236065476Y-11340476D01*
X236003571Y-11464285D01*
X235941666Y-11526190D01*
X235817857Y-11588095D01*
X235508333Y-11588095D01*
X235384523Y-11526190D01*
X235322619Y-11464285D01*
D10*
D11*
X285941666Y-10288095D02*
X285694047Y-10288095D01*
X285570238Y-10350000D01*
X285508333Y-10411904D01*
X285384523Y-10597619D01*
X285322619Y-10845238D01*
X285322619Y-11340476D01*
X285384523Y-11464285D01*
X285446428Y-11526190D01*
X285570238Y-11588095D01*
X285817857Y-11588095D01*
X285941666Y-11526190D01*
X286003571Y-11464285D01*
X286065476Y-11340476D01*
X286065476Y-11030952D01*
X286003571Y-10907142D01*
X285941666Y-10845238D01*
X285817857Y-10783333D01*
X285570238Y-10783333D01*
X285446428Y-10845238D01*
X285384523Y-10907142D01*
X285322619Y-11030952D01*
D10*
D11*
X60000000Y-198007200D02*
X60000000Y-200007200D01*
D10*
D11*
X110000000Y-198007200D02*
X110000000Y-200007200D01*
D10*
D11*
X160000000Y-198007200D02*
X160000000Y-200007200D01*
D10*
D11*
X210000000Y-198007200D02*
X210000000Y-200007200D01*
D10*
D11*
X260000000Y-198007200D02*
X260000000Y-200007200D01*
D10*
D11*
X36065476Y-199595295D02*
X35322619Y-199595295D01*
X35694047Y-199595295D02*
X35694047Y-198295295D01*
X35570238Y-198481009D01*
X35446428Y-198604819D01*
X35322619Y-198666723D01*
D10*
D11*
X85322619Y-198419104D02*
X85384523Y-198357200D01*
X85508333Y-198295295D01*
X85817857Y-198295295D01*
X85941666Y-198357200D01*
X86003571Y-198419104D01*
X86065476Y-198542914D01*
X86065476Y-198666723D01*
X86003571Y-198852438D01*
X85260714Y-199595295D01*
X86065476Y-199595295D01*
D10*
D11*
X135260714Y-198295295D02*
X136065476Y-198295295D01*
X135632142Y-198790533D01*
X135817857Y-198790533D01*
X135941666Y-198852438D01*
X136003571Y-198914342D01*
X136065476Y-199038152D01*
X136065476Y-199347676D01*
X136003571Y-199471485D01*
X135941666Y-199533390D01*
X135817857Y-199595295D01*
X135446428Y-199595295D01*
X135322619Y-199533390D01*
X135260714Y-199471485D01*
D10*
D11*
X185941666Y-198728628D02*
X185941666Y-199595295D01*
X185632142Y-198233390D02*
X185322619Y-199161961D01*
X186127380Y-199161961D01*
D10*
D11*
X236003571Y-198295295D02*
X235384523Y-198295295D01*
X235322619Y-198914342D01*
X235384523Y-198852438D01*
X235508333Y-198790533D01*
X235817857Y-198790533D01*
X235941666Y-198852438D01*
X236003571Y-198914342D01*
X236065476Y-199038152D01*
X236065476Y-199347676D01*
X236003571Y-199471485D01*
X235941666Y-199533390D01*
X235817857Y-199595295D01*
X235508333Y-199595295D01*
X235384523Y-199533390D01*
X235322619Y-199471485D01*
D10*
D11*
X285941666Y-198295295D02*
X285694047Y-198295295D01*
X285570238Y-198357200D01*
X285508333Y-198419104D01*
X285384523Y-198604819D01*
X285322619Y-198852438D01*
X285322619Y-199347676D01*
X285384523Y-199471485D01*
X285446428Y-199533390D01*
X285570238Y-199595295D01*
X285817857Y-199595295D01*
X285941666Y-199533390D01*
X286003571Y-199471485D01*
X286065476Y-199347676D01*
X286065476Y-199038152D01*
X286003571Y-198914342D01*
X285941666Y-198852438D01*
X285817857Y-198790533D01*
X285570238Y-198790533D01*
X285446428Y-198852438D01*
X285384523Y-198914342D01*
X285322619Y-199038152D01*
D10*
D11*
X10000000Y-60000000D02*
X12000000Y-60000000D01*
D10*
D11*
X10000000Y-110000000D02*
X12000000Y-110000000D01*
D10*
D11*
X10000000Y-160000000D02*
X12000000Y-160000000D01*
D10*
D11*
X10690476Y-35216666D02*
X11309523Y-35216666D01*
X10566666Y-35588095D02*
X11000000Y-34288095D01*
X11433333Y-35588095D01*
D10*
D11*
X11092857Y-84907142D02*
X11278571Y-84969047D01*
X11340476Y-85030952D01*
X11402380Y-85154761D01*
X11402380Y-85340476D01*
X11340476Y-85464285D01*
X11278571Y-85526190D01*
X11154761Y-85588095D01*
X10659523Y-85588095D01*
X10659523Y-84288095D01*
X11092857Y-84288095D01*
X11216666Y-84350000D01*
X11278571Y-84411904D01*
X11340476Y-84535714D01*
X11340476Y-84659523D01*
X11278571Y-84783333D01*
X11216666Y-84845238D01*
X11092857Y-84907142D01*
X10659523Y-84907142D01*
D10*
D11*
X11402380Y-135464285D02*
X11340476Y-135526190D01*
X11154761Y-135588095D01*
X11030952Y-135588095D01*
X10845238Y-135526190D01*
X10721428Y-135402380D01*
X10659523Y-135278571D01*
X10597619Y-135030952D01*
X10597619Y-134845238D01*
X10659523Y-134597619D01*
X10721428Y-134473809D01*
X10845238Y-134350000D01*
X11030952Y-134288095D01*
X11154761Y-134288095D01*
X11340476Y-134350000D01*
X11402380Y-134411904D01*
D10*
D11*
X10659523Y-185588095D02*
X10659523Y-184288095D01*
X10969047Y-184288095D01*
X11154761Y-184350000D01*
X11278571Y-184473809D01*
X11340476Y-184597619D01*
X11402380Y-184845238D01*
X11402380Y-185030952D01*
X11340476Y-185278571D01*
X11278571Y-185402380D01*
X11154761Y-185526190D01*
X10969047Y-185588095D01*
X10659523Y-185588095D01*
D10*
D11*
X287002200Y-60000000D02*
X285002200Y-60000000D01*
D10*
D11*
X287002200Y-110000000D02*
X285002200Y-110000000D01*
D10*
D11*
X287002200Y-160000000D02*
X285002200Y-160000000D01*
D10*
D11*
X285692676Y-35216666D02*
X286311723Y-35216666D01*
X285568866Y-35588095D02*
X286002200Y-34288095D01*
X286435533Y-35588095D01*
D10*
D11*
X286095057Y-84907142D02*
X286280771Y-84969047D01*
X286342676Y-85030952D01*
X286404580Y-85154761D01*
X286404580Y-85340476D01*
X286342676Y-85464285D01*
X286280771Y-85526190D01*
X286156961Y-85588095D01*
X285661723Y-85588095D01*
X285661723Y-84288095D01*
X286095057Y-84288095D01*
X286218866Y-84350000D01*
X286280771Y-84411904D01*
X286342676Y-84535714D01*
X286342676Y-84659523D01*
X286280771Y-84783333D01*
X286218866Y-84845238D01*
X286095057Y-84907142D01*
X285661723Y-84907142D01*
D10*
D11*
X286404580Y-135464285D02*
X286342676Y-135526190D01*
X286156961Y-135588095D01*
X286033152Y-135588095D01*
X285847438Y-135526190D01*
X285723628Y-135402380D01*
X285661723Y-135278571D01*
X285599819Y-135030952D01*
X285599819Y-134845238D01*
X285661723Y-134597619D01*
X285723628Y-134473809D01*
X285847438Y-134350000D01*
X286033152Y-134288095D01*
X286156961Y-134288095D01*
X286342676Y-134350000D01*
X286404580Y-134411904D01*
D10*
D11*
X285661723Y-185588095D02*
X285661723Y-184288095D01*
X285971247Y-184288095D01*
X286156961Y-184350000D01*
X286280771Y-184473809D01*
X286342676Y-184597619D01*
X286404580Y-184845238D01*
X286404580Y-185030952D01*
X286342676Y-185278571D01*
X286280771Y-185402380D01*
X286156961Y-185526190D01*
X285971247Y-185588095D01*
X285661723Y-185588095D01*
D10*
D11*
X200434342Y-193785771D02*
X200434342Y-192285771D01*
X200791485Y-192285771D01*
X201005771Y-192357200D01*
X201148628Y-192500057D01*
X201220057Y-192642914D01*
X201291485Y-192928628D01*
X201291485Y-193142914D01*
X201220057Y-193428628D01*
X201148628Y-193571485D01*
X201005771Y-193714342D01*
X200791485Y-193785771D01*
X200434342Y-193785771D01*
X202577200Y-193785771D02*
X202577200Y-193000057D01*
X202505771Y-192857200D01*
X202362914Y-192785771D01*
X202077200Y-192785771D01*
X201934342Y-192857200D01*
X202577200Y-193714342D02*
X202434342Y-193785771D01*
X202077200Y-193785771D01*
X201934342Y-193714342D01*
X201862914Y-193571485D01*
X201862914Y-193428628D01*
X201934342Y-193285771D01*
X202077200Y-193214342D01*
X202434342Y-193214342D01*
X202577200Y-193142914D01*
X203077200Y-192785771D02*
X203648628Y-192785771D01*
X203291485Y-192285771D02*
X203291485Y-193571485D01*
X203362914Y-193714342D01*
X203505771Y-193785771D01*
X203648628Y-193785771D01*
X204720057Y-193714342D02*
X204577200Y-193785771D01*
X204291485Y-193785771D01*
X204148628Y-193714342D01*
X204077200Y-193571485D01*
X204077200Y-193000057D01*
X204148628Y-192857200D01*
X204291485Y-192785771D01*
X204577200Y-192785771D01*
X204720057Y-192857200D01*
X204791485Y-193000057D01*
X204791485Y-193142914D01*
X204077200Y-193285771D01*
X205434342Y-193642914D02*
X205505771Y-193714342D01*
X205434342Y-193785771D01*
X205362914Y-193714342D01*
X205434342Y-193642914D01*
X205434342Y-193785771D01*
X205434342Y-192857200D02*
X205505771Y-192928628D01*
X205434342Y-193000057D01*
X205362914Y-192928628D01*
X205434342Y-192857200D01*
X205434342Y-193000057D01*
D10*
D11*
X177002200Y-194507200D02*
X285002200Y-194507200D01*
D10*
D11*
X178434342Y-196585771D02*
X178434342Y-195085771D01*
X179291485Y-196585771D02*
X178648628Y-195728628D01*
X179291485Y-195085771D02*
X178434342Y-195942914D01*
X179934342Y-196585771D02*
X179934342Y-195585771D01*
X179934342Y-195085771D02*
X179862914Y-195157200D01*
X179934342Y-195228628D01*
X180005771Y-195157200D01*
X179934342Y-195085771D01*
X179934342Y-195228628D01*
X181505771Y-196442914D02*
X181434342Y-196514342D01*
X181220057Y-196585771D01*
X181077200Y-196585771D01*
X180862914Y-196514342D01*
X180720057Y-196371485D01*
X180648628Y-196228628D01*
X180577200Y-195942914D01*
X180577200Y-195728628D01*
X180648628Y-195442914D01*
X180720057Y-195300057D01*
X180862914Y-195157200D01*
X181077200Y-195085771D01*
X181220057Y-195085771D01*
X181434342Y-195157200D01*
X181505771Y-195228628D01*
X182791485Y-196585771D02*
X182791485Y-195800057D01*
X182720057Y-195657200D01*
X182577200Y-195585771D01*
X182291485Y-195585771D01*
X182148628Y-195657200D01*
X182791485Y-196514342D02*
X182648628Y-196585771D01*
X182291485Y-196585771D01*
X182148628Y-196514342D01*
X182077200Y-196371485D01*
X182077200Y-196228628D01*
X182148628Y-196085771D01*
X182291485Y-196014342D01*
X182648628Y-196014342D01*
X182791485Y-195942914D01*
X184148628Y-196585771D02*
X184148628Y-195085771D01*
X184148628Y-196514342D02*
X184005771Y-196585771D01*
X183720057Y-196585771D01*
X183577200Y-196514342D01*
X183505771Y-196442914D01*
X183434342Y-196300057D01*
X183434342Y-195871485D01*
X183505771Y-195728628D01*
X183577200Y-195657200D01*
X183720057Y-195585771D01*
X184005771Y-195585771D01*
X184148628Y-195657200D01*
X186005771Y-195800057D02*
X186505771Y-195800057D01*
X186720057Y-196585771D02*
X186005771Y-196585771D01*
X186005771Y-195085771D01*
X186720057Y-195085771D01*
X187362914Y-196442914D02*
X187434342Y-196514342D01*
X187362914Y-196585771D01*
X187291485Y-196514342D01*
X187362914Y-196442914D01*
X187362914Y-196585771D01*
X188077200Y-196585771D02*
X188077200Y-195085771D01*
X188434342Y-195085771D01*
X188648628Y-195157200D01*
X188791485Y-195300057D01*
X188862914Y-195442914D01*
X188934342Y-195728628D01*
X188934342Y-195942914D01*
X188862914Y-196228628D01*
X188791485Y-196371485D01*
X188648628Y-196514342D01*
X188434342Y-196585771D01*
X188077200Y-196585771D01*
X189577200Y-196442914D02*
X189648628Y-196514342D01*
X189577200Y-196585771D01*
X189505771Y-196514342D01*
X189577200Y-196442914D01*
X189577200Y-196585771D01*
X190220057Y-196157200D02*
X190934342Y-196157200D01*
X190077200Y-196585771D02*
X190577200Y-195085771D01*
X191077200Y-196585771D01*
X191577200Y-196442914D02*
X191648628Y-196514342D01*
X191577200Y-196585771D01*
X191505771Y-196514342D01*
X191577200Y-196442914D01*
X191577200Y-196585771D01*
X194577200Y-196585771D02*
X194577200Y-195085771D01*
X194720057Y-196014342D02*
X195148628Y-196585771D01*
X195148628Y-195585771D02*
X194577200Y-196157200D01*
X195791485Y-196585771D02*
X195791485Y-195585771D01*
X195791485Y-195085771D02*
X195720057Y-195157200D01*
X195791485Y-195228628D01*
X195862914Y-195157200D01*
X195791485Y-195085771D01*
X195791485Y-195228628D01*
X197148628Y-196514342D02*
X197005771Y-196585771D01*
X196720057Y-196585771D01*
X196577200Y-196514342D01*
X196505771Y-196442914D01*
X196434342Y-196300057D01*
X196434342Y-195871485D01*
X196505771Y-195728628D01*
X196577200Y-195657200D01*
X196720057Y-195585771D01*
X197005771Y-195585771D01*
X197148628Y-195657200D01*
X198434342Y-196585771D02*
X198434342Y-195800057D01*
X198362914Y-195657200D01*
X198220057Y-195585771D01*
X197934342Y-195585771D01*
X197791485Y-195657200D01*
X198434342Y-196514342D02*
X198291485Y-196585771D01*
X197934342Y-196585771D01*
X197791485Y-196514342D01*
X197720057Y-196371485D01*
X197720057Y-196228628D01*
X197791485Y-196085771D01*
X197934342Y-196014342D01*
X198291485Y-196014342D01*
X198434342Y-195942914D01*
X199791485Y-196585771D02*
X199791485Y-195085771D01*
X199791485Y-196514342D02*
X199648628Y-196585771D01*
X199362914Y-196585771D01*
X199220057Y-196514342D01*
X199148628Y-196442914D01*
X199077200Y-196300057D01*
X199077200Y-195871485D01*
X199148628Y-195728628D01*
X199220057Y-195657200D01*
X199362914Y-195585771D01*
X199648628Y-195585771D01*
X199791485Y-195657200D01*
X202077200Y-197157200D02*
X202005771Y-197085771D01*
X201862914Y-196871485D01*
X201791485Y-196728628D01*
X201720057Y-196514342D01*
X201648628Y-196157200D01*
X201648628Y-195871485D01*
X201720057Y-195514342D01*
X201791485Y-195300057D01*
X201862914Y-195157200D01*
X202005771Y-194942914D01*
X202077200Y-194871485D01*
X203362914Y-195085771D02*
X202648628Y-195085771D01*
X202577200Y-195800057D01*
X202648628Y-195728628D01*
X202791485Y-195657200D01*
X203148628Y-195657200D01*
X203291485Y-195728628D01*
X203362914Y-195800057D01*
X203434342Y-195942914D01*
X203434342Y-196300057D01*
X203362914Y-196442914D01*
X203291485Y-196514342D01*
X203148628Y-196585771D01*
X202791485Y-196585771D01*
X202648628Y-196514342D01*
X202577200Y-196442914D01*
X204077200Y-196442914D02*
X204148628Y-196514342D01*
X204077200Y-196585771D01*
X204005771Y-196514342D01*
X204077200Y-196442914D01*
X204077200Y-196585771D01*
X205577200Y-196585771D02*
X204720057Y-196585771D01*
X205148628Y-196585771D02*
X205148628Y-195085771D01*
X205005771Y-195300057D01*
X204862914Y-195442914D01*
X204720057Y-195514342D01*
X206220057Y-196442914D02*
X206291485Y-196514342D01*
X206220057Y-196585771D01*
X206148628Y-196514342D01*
X206220057Y-196442914D01*
X206220057Y-196585771D01*
X207648628Y-195085771D02*
X206934342Y-195085771D01*
X206862914Y-195800057D01*
X206934342Y-195728628D01*
X207077200Y-195657200D01*
X207434342Y-195657200D01*
X207577200Y-195728628D01*
X207648628Y-195800057D01*
X207720057Y-195942914D01*
X207720057Y-196300057D01*
X207648628Y-196442914D01*
X207577200Y-196514342D01*
X207434342Y-196585771D01*
X207077200Y-196585771D01*
X206934342Y-196514342D01*
X206862914Y-196442914D01*
X208220057Y-197157200D02*
X208291485Y-197085771D01*
X208434342Y-196871485D01*
X208505771Y-196728628D01*
X208577200Y-196514342D01*
X208648628Y-196157200D01*
X208648628Y-195871485D01*
X208577200Y-195514342D01*
X208505771Y-195300057D01*
X208434342Y-195157200D01*
X208291485Y-194942914D01*
X208220057Y-194871485D01*
X209362914Y-196014342D02*
X210505771Y-196014342D01*
X211077200Y-195085771D02*
X212005771Y-195085771D01*
X211505771Y-195657200D01*
X211720057Y-195657200D01*
X211862914Y-195728628D01*
X211934342Y-195800057D01*
X212005771Y-195942914D01*
X212005771Y-196300057D01*
X211934342Y-196442914D01*
X211862914Y-196514342D01*
X211720057Y-196585771D01*
X211291485Y-196585771D01*
X211148628Y-196514342D01*
X211077200Y-196442914D01*
D10*
D11*
X177002200Y-191507200D02*
X285002200Y-191507200D01*
D10*
D12*
X264411485Y-193785771D02*
X263911485Y-193071485D01*
X263554342Y-193785771D02*
X263554342Y-192285771D01*
X264125771Y-192285771D01*
X264268628Y-192357200D01*
X264340057Y-192428628D01*
X264411485Y-192571485D01*
X264411485Y-192785771D01*
X264340057Y-192928628D01*
X264268628Y-193000057D01*
X264125771Y-193071485D01*
X263554342Y-193071485D01*
X265625771Y-193714342D02*
X265482914Y-193785771D01*
X265197200Y-193785771D01*
X265054342Y-193714342D01*
X264982914Y-193571485D01*
X264982914Y-193000057D01*
X265054342Y-192857200D01*
X265197200Y-192785771D01*
X265482914Y-192785771D01*
X265625771Y-192857200D01*
X265697200Y-193000057D01*
X265697200Y-193142914D01*
X264982914Y-193285771D01*
X266197200Y-192785771D02*
X266554342Y-193785771D01*
X266911485Y-192785771D01*
X267482914Y-193642914D02*
X267554342Y-193714342D01*
X267482914Y-193785771D01*
X267411485Y-193714342D01*
X267482914Y-193642914D01*
X267482914Y-193785771D01*
X267482914Y-192857200D02*
X267554342Y-192928628D01*
X267482914Y-193000057D01*
X267411485Y-192928628D01*
X267482914Y-192857200D01*
X267482914Y-193000057D01*
D10*
D11*
X178362914Y-193714342D02*
X178577200Y-193785771D01*
X178934342Y-193785771D01*
X179077200Y-193714342D01*
X179148628Y-193642914D01*
X179220057Y-193500057D01*
X179220057Y-193357200D01*
X179148628Y-193214342D01*
X179077200Y-193142914D01*
X178934342Y-193071485D01*
X178648628Y-193000057D01*
X178505771Y-192928628D01*
X178434342Y-192857200D01*
X178362914Y-192714342D01*
X178362914Y-192571485D01*
X178434342Y-192428628D01*
X178505771Y-192357200D01*
X178648628Y-192285771D01*
X179005771Y-192285771D01*
X179220057Y-192357200D01*
X179862914Y-193785771D02*
X179862914Y-192785771D01*
X179862914Y-192285771D02*
X179791485Y-192357200D01*
X179862914Y-192428628D01*
X179934342Y-192357200D01*
X179862914Y-192285771D01*
X179862914Y-192428628D01*
X180434342Y-192785771D02*
X181220057Y-192785771D01*
X180434342Y-193785771D01*
X181220057Y-193785771D01*
X182362914Y-193714342D02*
X182220057Y-193785771D01*
X181934342Y-193785771D01*
X181791485Y-193714342D01*
X181720057Y-193571485D01*
X181720057Y-193000057D01*
X181791485Y-192857200D01*
X181934342Y-192785771D01*
X182220057Y-192785771D01*
X182362914Y-192857200D01*
X182434342Y-193000057D01*
X182434342Y-193142914D01*
X181720057Y-193285771D01*
X183077200Y-193642914D02*
X183148628Y-193714342D01*
X183077200Y-193785771D01*
X183005771Y-193714342D01*
X183077200Y-193642914D01*
X183077200Y-193785771D01*
X183077200Y-192857200D02*
X183148628Y-192928628D01*
X183077200Y-193000057D01*
X183005771Y-192928628D01*
X183077200Y-192857200D01*
X183077200Y-193000057D01*
X184862914Y-193357200D02*
X185577200Y-193357200D01*
X184720057Y-193785771D02*
X185220057Y-192285771D01*
X185720057Y-193785771D01*
X186862914Y-192785771D02*
X186862914Y-193785771D01*
X186505771Y-192214342D02*
X186148628Y-193285771D01*
X187077200Y-193285771D01*
D10*
D11*
X263434342Y-196585771D02*
X263434342Y-195085771D01*
X264791485Y-196585771D02*
X264791485Y-195085771D01*
X264791485Y-196514342D02*
X264648628Y-196585771D01*
X264362914Y-196585771D01*
X264220057Y-196514342D01*
X264148628Y-196442914D01*
X264077200Y-196300057D01*
X264077200Y-195871485D01*
X264148628Y-195728628D01*
X264220057Y-195657200D01*
X264362914Y-195585771D01*
X264648628Y-195585771D01*
X264791485Y-195657200D01*
X265505771Y-196442914D02*
X265577200Y-196514342D01*
X265505771Y-196585771D01*
X265434342Y-196514342D01*
X265505771Y-196442914D01*
X265505771Y-196585771D01*
X265505771Y-195657200D02*
X265577200Y-195728628D01*
X265505771Y-195800057D01*
X265434342Y-195728628D01*
X265505771Y-195657200D01*
X265505771Y-195800057D01*
X268148628Y-196585771D02*
X267291485Y-196585771D01*
X267720057Y-196585771D02*
X267720057Y-195085771D01*
X267577200Y-195300057D01*
X267434342Y-195442914D01*
X267291485Y-195514342D01*
X269862914Y-195014342D02*
X268577200Y-196942914D01*
X271148628Y-196585771D02*
X270291485Y-196585771D01*
X270720057Y-196585771D02*
X270720057Y-195085771D01*
X270577200Y-195300057D01*
X270434342Y-195442914D01*
X270291485Y-195514342D01*
D10*
D11*
X177002200Y-187507200D02*
X285002200Y-187507200D01*
D10*
D13*
X178714580Y-188211961D02*
X179857438Y-188211961D01*
X179036009Y-190211961D02*
X179286009Y-188211961D01*
X180274104Y-190211961D02*
X180440771Y-188878628D01*
X180524104Y-188211961D02*
X180416961Y-188307200D01*
X180500295Y-188402438D01*
X180607438Y-188307200D01*
X180524104Y-188211961D01*
X180500295Y-188402438D01*
X181107438Y-188878628D02*
X181869342Y-188878628D01*
X181476485Y-188211961D02*
X181262200Y-189926247D01*
X181333628Y-190116723D01*
X181512200Y-190211961D01*
X181702676Y-190211961D01*
X182655057Y-190211961D02*
X182476485Y-190116723D01*
X182405057Y-189926247D01*
X182619342Y-188211961D01*
X184190771Y-190116723D02*
X183988390Y-190211961D01*
X183607438Y-190211961D01*
X183428866Y-190116723D01*
X183357438Y-189926247D01*
X183452676Y-189164342D01*
X183571723Y-188973866D01*
X183774104Y-188878628D01*
X184155057Y-188878628D01*
X184333628Y-188973866D01*
X184405057Y-189164342D01*
X184381247Y-189354819D01*
X183405057Y-189545295D01*
X185155057Y-190021485D02*
X185238390Y-190116723D01*
X185131247Y-190211961D01*
X185047914Y-190116723D01*
X185155057Y-190021485D01*
X185131247Y-190211961D01*
X185286009Y-188973866D02*
X185369342Y-189069104D01*
X185262200Y-189164342D01*
X185178866Y-189069104D01*
X185286009Y-188973866D01*
X185262200Y-189164342D01*
D10*
D11*
X178934342Y-185600057D02*
X178434342Y-185600057D01*
X178434342Y-186385771D02*
X178434342Y-184885771D01*
X179148628Y-184885771D01*
X179720057Y-186385771D02*
X179720057Y-185385771D01*
X179720057Y-184885771D02*
X179648628Y-184957200D01*
X179720057Y-185028628D01*
X179791485Y-184957200D01*
X179720057Y-184885771D01*
X179720057Y-185028628D01*
X180648628Y-186385771D02*
X180505771Y-186314342D01*
X180434342Y-186171485D01*
X180434342Y-184885771D01*
X181791485Y-186314342D02*
X181648628Y-186385771D01*
X181362914Y-186385771D01*
X181220057Y-186314342D01*
X181148628Y-186171485D01*
X181148628Y-185600057D01*
X181220057Y-185457200D01*
X181362914Y-185385771D01*
X181648628Y-185385771D01*
X181791485Y-185457200D01*
X181862914Y-185600057D01*
X181862914Y-185742914D01*
X181148628Y-185885771D01*
X182505771Y-186242914D02*
X182577200Y-186314342D01*
X182505771Y-186385771D01*
X182434342Y-186314342D01*
X182505771Y-186242914D01*
X182505771Y-186385771D01*
X182505771Y-185457200D02*
X182577200Y-185528628D01*
X182505771Y-185600057D01*
X182434342Y-185528628D01*
X182505771Y-185457200D01*
X182505771Y-185600057D01*
X185077200Y-186385771D02*
X184362914Y-186385771D01*
X184362914Y-184885771D01*
X185577200Y-186385771D02*
X185577200Y-185385771D01*
X185577200Y-184885771D02*
X185505771Y-184957200D01*
X185577200Y-185028628D01*
X185648628Y-184957200D01*
X185577200Y-184885771D01*
X185577200Y-185028628D01*
X186505771Y-186385771D02*
X186362914Y-186314342D01*
X186291485Y-186171485D01*
X186291485Y-184885771D01*
X186934342Y-185385771D02*
X187291485Y-186385771D01*
X187648628Y-185385771D02*
X187291485Y-186385771D01*
X187148628Y-186742914D01*
X187077200Y-186814342D01*
X186934342Y-186885771D01*
X188934342Y-184885771D02*
X188220057Y-184885771D01*
X188148628Y-185600057D01*
X188220057Y-185528628D01*
X188362914Y-185457200D01*
X188720057Y-185457200D01*
X188862914Y-185528628D01*
X188934342Y-185600057D01*
X189005771Y-185742914D01*
X189005771Y-186100057D01*
X188934342Y-186242914D01*
X188862914Y-186314342D01*
X188720057Y-186385771D01*
X188362914Y-186385771D01*
X188220057Y-186314342D01*
X188148628Y-186242914D01*
X189862914Y-185528628D02*
X189720057Y-185457200D01*
X189648628Y-185385771D01*
X189577200Y-185242914D01*
X189577200Y-185171485D01*
X189648628Y-185028628D01*
X189720057Y-184957200D01*
X189862914Y-184885771D01*
X190148628Y-184885771D01*
X190291485Y-184957200D01*
X190362914Y-185028628D01*
X190434342Y-185171485D01*
X190434342Y-185242914D01*
X190362914Y-185385771D01*
X190291485Y-185457200D01*
X190148628Y-185528628D01*
X189862914Y-185528628D01*
X189720057Y-185600057D01*
X189648628Y-185671485D01*
X189577200Y-185814342D01*
X189577200Y-186100057D01*
X189648628Y-186242914D01*
X189720057Y-186314342D01*
X189862914Y-186385771D01*
X190148628Y-186385771D01*
X190291485Y-186314342D01*
X190362914Y-186242914D01*
X190434342Y-186100057D01*
X190434342Y-185814342D01*
X190362914Y-185671485D01*
X190291485Y-185600057D01*
X190148628Y-185528628D01*
X190720057Y-186528628D02*
X191862914Y-186528628D01*
X192220057Y-186385771D02*
X192220057Y-184885771D01*
X192791485Y-184885771D01*
X192934342Y-184957200D01*
X193005771Y-185028628D01*
X193077200Y-185171485D01*
X193077200Y-185385771D01*
X193005771Y-185528628D01*
X192934342Y-185600057D01*
X192791485Y-185671485D01*
X192220057Y-185671485D01*
X193720057Y-186385771D02*
X193720057Y-185385771D01*
X193720057Y-185671485D02*
X193791485Y-185528628D01*
X193862914Y-185457200D01*
X194005771Y-185385771D01*
X194148628Y-185385771D01*
X194862914Y-186385771D02*
X194720057Y-186314342D01*
X194648628Y-186242914D01*
X194577200Y-186100057D01*
X194577200Y-185671485D01*
X194648628Y-185528628D01*
X194720057Y-185457200D01*
X194862914Y-185385771D01*
X195077200Y-185385771D01*
X195220057Y-185457200D01*
X195291485Y-185528628D01*
X195362914Y-185671485D01*
X195362914Y-186100057D01*
X195291485Y-186242914D01*
X195220057Y-186314342D01*
X195077200Y-186385771D01*
X194862914Y-186385771D01*
X196005771Y-186242914D02*
X196077200Y-186314342D01*
X196005771Y-186385771D01*
X195934342Y-186314342D01*
X196005771Y-186242914D01*
X196005771Y-186385771D01*
X196720057Y-186385771D02*
X196720057Y-184885771D01*
X196862914Y-185814342D02*
X197291485Y-186385771D01*
X197291485Y-185385771D02*
X196720057Y-185957200D01*
X197934342Y-186385771D02*
X197934342Y-185385771D01*
X197934342Y-184885771D02*
X197862914Y-184957200D01*
X197934342Y-185028628D01*
X198005771Y-184957200D01*
X197934342Y-184885771D01*
X197934342Y-185028628D01*
X199291485Y-186314342D02*
X199148628Y-186385771D01*
X198862914Y-186385771D01*
X198720057Y-186314342D01*
X198648628Y-186242914D01*
X198577200Y-186100057D01*
X198577200Y-185671485D01*
X198648628Y-185528628D01*
X198720057Y-185457200D01*
X198862914Y-185385771D01*
X199148628Y-185385771D01*
X199291485Y-185457200D01*
X200577200Y-186385771D02*
X200577200Y-185600057D01*
X200505771Y-185457200D01*
X200362914Y-185385771D01*
X200077200Y-185385771D01*
X199934342Y-185457200D01*
X200577200Y-186314342D02*
X200434342Y-186385771D01*
X200077200Y-186385771D01*
X199934342Y-186314342D01*
X199862914Y-186171485D01*
X199862914Y-186028628D01*
X199934342Y-185885771D01*
X200077200Y-185814342D01*
X200434342Y-185814342D01*
X200577200Y-185742914D01*
X201934342Y-186385771D02*
X201934342Y-184885771D01*
X201934342Y-186314342D02*
X201791485Y-186385771D01*
X201505771Y-186385771D01*
X201362914Y-186314342D01*
X201291485Y-186242914D01*
X201220057Y-186100057D01*
X201220057Y-185671485D01*
X201291485Y-185528628D01*
X201362914Y-185457200D01*
X201505771Y-185385771D01*
X201791485Y-185385771D01*
X201934342Y-185457200D01*
X202291485Y-186528628D02*
X203434342Y-186528628D01*
X203791485Y-185385771D02*
X203791485Y-186885771D01*
X203791485Y-185457200D02*
X203934342Y-185385771D01*
X204220057Y-185385771D01*
X204362914Y-185457200D01*
X204434342Y-185528628D01*
X204505771Y-185671485D01*
X204505771Y-186100057D01*
X204434342Y-186242914D01*
X204362914Y-186314342D01*
X204220057Y-186385771D01*
X203934342Y-186385771D01*
X203791485Y-186314342D01*
X205791485Y-186314342D02*
X205648628Y-186385771D01*
X205362914Y-186385771D01*
X205220057Y-186314342D01*
X205148628Y-186242914D01*
X205077200Y-186100057D01*
X205077200Y-185671485D01*
X205148628Y-185528628D01*
X205220057Y-185457200D01*
X205362914Y-185385771D01*
X205648628Y-185385771D01*
X205791485Y-185457200D01*
X206434342Y-186385771D02*
X206434342Y-184885771D01*
X206434342Y-185457200D02*
X206577200Y-185385771D01*
X206862914Y-185385771D01*
X207005771Y-185457200D01*
X207077200Y-185528628D01*
X207148628Y-185671485D01*
X207148628Y-186100057D01*
X207077200Y-186242914D01*
X207005771Y-186314342D01*
X206862914Y-186385771D01*
X206577200Y-186385771D01*
X206434342Y-186314342D01*
D10*
D11*
X177002200Y-181507200D02*
X285002200Y-181507200D01*
D10*
D11*
X178362914Y-183614342D02*
X178577200Y-183685771D01*
X178934342Y-183685771D01*
X179077200Y-183614342D01*
X179148628Y-183542914D01*
X179220057Y-183400057D01*
X179220057Y-183257200D01*
X179148628Y-183114342D01*
X179077200Y-183042914D01*
X178934342Y-182971485D01*
X178648628Y-182900057D01*
X178505771Y-182828628D01*
X178434342Y-182757200D01*
X178362914Y-182614342D01*
X178362914Y-182471485D01*
X178434342Y-182328628D01*
X178505771Y-182257200D01*
X178648628Y-182185771D01*
X179005771Y-182185771D01*
X179220057Y-182257200D01*
X179862914Y-183685771D02*
X179862914Y-182185771D01*
X180505771Y-183685771D02*
X180505771Y-182900057D01*
X180434342Y-182757200D01*
X180291485Y-182685771D01*
X180077200Y-182685771D01*
X179934342Y-182757200D01*
X179862914Y-182828628D01*
X181791485Y-183614342D02*
X181648628Y-183685771D01*
X181362914Y-183685771D01*
X181220057Y-183614342D01*
X181148628Y-183471485D01*
X181148628Y-182900057D01*
X181220057Y-182757200D01*
X181362914Y-182685771D01*
X181648628Y-182685771D01*
X181791485Y-182757200D01*
X181862914Y-182900057D01*
X181862914Y-183042914D01*
X181148628Y-183185771D01*
X183077200Y-183614342D02*
X182934342Y-183685771D01*
X182648628Y-183685771D01*
X182505771Y-183614342D01*
X182434342Y-183471485D01*
X182434342Y-182900057D01*
X182505771Y-182757200D01*
X182648628Y-182685771D01*
X182934342Y-182685771D01*
X183077200Y-182757200D01*
X183148628Y-182900057D01*
X183148628Y-183042914D01*
X182434342Y-183185771D01*
X183577200Y-182685771D02*
X184148628Y-182685771D01*
X183791485Y-182185771D02*
X183791485Y-183471485D01*
X183862914Y-183614342D01*
X184005771Y-183685771D01*
X184148628Y-183685771D01*
X184648628Y-183542914D02*
X184720057Y-183614342D01*
X184648628Y-183685771D01*
X184577200Y-183614342D01*
X184648628Y-183542914D01*
X184648628Y-183685771D01*
X184648628Y-182757200D02*
X184720057Y-182828628D01*
X184648628Y-182900057D01*
X184577200Y-182828628D01*
X184648628Y-182757200D01*
X184648628Y-182900057D01*
D10*
D11*
X197002200Y-191507200D02*
X197002200Y-194507200D01*
D10*
D11*
X261002200Y-191507200D02*
X261002200Y-198007200D01*
D14*
X116186619Y-136480784D02*
X117862313Y-135510645D01*
X114510925Y-137450923D02*
X116186619Y-136480784D01*
X82937528Y-50750629D02*
X82937528Y-44443695D01*
X82937528Y-57057562D02*
X82937528Y-50750629D01*
X115211711Y-37086762D02*
X104803877Y-37086762D01*
X218692418Y-120789735D02*
X223959999Y-120789735D01*
X213424836Y-120789735D02*
X218692418Y-120789735D01*
X208157255Y-120789735D02*
X213424836Y-120789735D01*
X202889673Y-120789735D02*
X208157255Y-120789735D01*
X197622092Y-120789735D02*
X202889673Y-120789735D01*
X192354511Y-120789735D02*
X197622092Y-120789735D01*
X187086929Y-120789735D02*
X192354511Y-120789735D01*
X181819348Y-120789735D02*
X187086929Y-120789735D01*
X181113524Y-120860778D02*
X181819348Y-120789735D01*
X180456326Y-121064561D02*
X181113524Y-120860778D01*
X179861773Y-121387065D02*
X180456326Y-121064561D01*
X179343884Y-121814271D02*
X179861773Y-121387065D01*
X178916678Y-122332160D02*
X179343884Y-121814271D01*
X178594174Y-122926713D02*
X178916678Y-122332160D01*
X178390391Y-123583911D02*
X178594174Y-122926713D01*
X178319348Y-124289735D02*
X178390391Y-123583911D01*
X199807654Y-38170488D02*
X189919538Y-37585374D01*
X208420758Y-38945561D02*
X199807654Y-38170488D01*
X215525697Y-39885159D02*
X208420758Y-38945561D01*
X220889319Y-40963847D02*
X215525697Y-39885159D01*
X178989563Y-37215654D02*
X167250881Y-37086762D01*
X189919538Y-37585374D02*
X178989563Y-37215654D01*
X177658308Y-135255660D02*
X177403500Y-135393876D01*
X177880261Y-135072571D02*
X177658308Y-135255660D01*
X178063349Y-134850619D02*
X177880261Y-135072571D01*
X178201565Y-134595810D02*
X178063349Y-134850619D01*
X178288901Y-134314154D02*
X178201565Y-134595810D01*
X178319348Y-134011658D02*
X178288901Y-134314154D01*
X225460000Y-52918378D02*
X225460000Y-62400000D01*
X225460000Y-43436755D02*
X225460000Y-52918378D01*
X82937528Y-69671429D02*
X82937528Y-63364495D01*
X82937528Y-75978362D02*
X82937528Y-69671429D01*
X82937528Y-82285296D02*
X82937528Y-75978362D01*
X82937528Y-88592229D02*
X82937528Y-82285296D01*
X104803877Y-37086762D02*
X94396044Y-37086762D01*
X125619545Y-37086762D02*
X115211711Y-37086762D01*
X136027379Y-37086762D02*
X125619545Y-37086762D01*
X146435213Y-37086762D02*
X136027379Y-37086762D01*
X156843047Y-37086762D02*
X146435213Y-37086762D01*
X167250881Y-37086762D02*
X156843047Y-37086762D01*
X83400937Y-37265961D02*
X83579303Y-37169210D01*
X83245570Y-37394123D02*
X83400937Y-37265961D01*
X83117409Y-37549489D02*
X83245570Y-37394123D01*
X83020657Y-37727855D02*
X83117409Y-37549489D01*
X82959523Y-37925015D02*
X83020657Y-37727855D01*
X82938210Y-38136762D02*
X82959523Y-37925015D01*
X83776462Y-37108075D02*
X83988210Y-37086762D01*
X83579303Y-37169210D02*
X83776462Y-37108075D01*
X94396044Y-37086762D02*
X83988210Y-37086762D01*
X82937528Y-63364495D02*
X82937528Y-57057562D01*
X82937528Y-44443695D02*
X82937528Y-38136762D01*
X88291758Y-116318073D02*
X89993333Y-119989540D01*
X86863105Y-112530670D02*
X88291758Y-116318073D01*
X85688004Y-108649127D02*
X86863105Y-112530670D01*
X84747083Y-104695246D02*
X85688004Y-108649127D01*
X84020972Y-100690825D02*
X84747083Y-104695246D01*
X83490297Y-96657663D02*
X84020972Y-100690825D01*
X83135690Y-92617561D02*
X83490297Y-96657663D01*
X82937777Y-88592317D02*
X83135690Y-92617561D01*
X104288864Y-143357278D02*
X104456758Y-143271756D01*
X104130206Y-143404468D02*
X104288864Y-143357278D01*
X103981252Y-143413974D02*
X104130206Y-143404468D01*
X103842470Y-143386445D02*
X103981252Y-143413974D01*
X103714328Y-143322532D02*
X103842470Y-143386445D01*
X103597295Y-143222884D02*
X103714328Y-143322532D01*
X103491837Y-143088150D02*
X103597295Y-143222884D01*
X103398425Y-142918979D02*
X103491837Y-143088150D01*
X112835230Y-138421062D02*
X114510925Y-137450923D01*
X111159536Y-139391201D02*
X112835230Y-138421062D01*
X109483841Y-140361340D02*
X111159536Y-139391201D01*
X107808147Y-141331479D02*
X109483841Y-140361340D01*
X106132452Y-142301617D02*
X107808147Y-141331479D01*
X104456758Y-143271756D02*
X106132452Y-142301617D01*
X101722730Y-140052659D02*
X103398425Y-142918979D01*
X100047036Y-137186340D02*
X101722730Y-140052659D01*
X98371341Y-134320020D02*
X100047036Y-137186340D01*
X96695647Y-131453701D02*
X98371341Y-134320020D01*
X95019952Y-128587381D02*
X96695647Y-131453701D01*
X93344258Y-125721062D02*
X95019952Y-128587381D01*
X91668563Y-122854742D02*
X93344258Y-125721062D01*
X89992869Y-119988423D02*
X91668563Y-122854742D01*
X169449826Y-135511658D02*
X176819348Y-135511658D01*
X162080304Y-135511658D02*
X169449826Y-135511658D01*
X154710782Y-135511658D02*
X162080304Y-135511658D01*
X147341260Y-135511658D02*
X154710782Y-135511658D01*
X139971738Y-135511658D02*
X147341260Y-135511658D01*
X132602217Y-135511658D02*
X139971738Y-135511658D01*
X125232695Y-135511658D02*
X132602217Y-135511658D01*
X117863173Y-135511658D02*
X125232695Y-135511658D01*
X178319348Y-131597973D02*
X178319348Y-134011658D01*
X178319348Y-130379933D02*
X178319348Y-131597973D01*
X178319348Y-129161894D02*
X178319348Y-130379933D01*
X178319348Y-127943854D02*
X178319348Y-129161894D01*
X178319348Y-126725814D02*
X178319348Y-127943854D01*
X178319348Y-125507775D02*
X178319348Y-126725814D01*
X178319348Y-124289735D02*
X178319348Y-125507775D01*
X177121844Y-135481211D02*
X176819348Y-135511658D01*
X177403500Y-135393876D02*
X177121844Y-135481211D01*
X224278471Y-42156190D02*
X220889319Y-40963847D01*
X225460000Y-43436755D02*
X224278471Y-42156190D01*
X224262495Y-120759288D02*
X223959999Y-120789735D01*
X224544152Y-120671952D02*
X224262495Y-120759288D01*
X224798960Y-120533736D02*
X224544152Y-120671952D01*
X225020912Y-120350648D02*
X224798960Y-120533736D01*
X225204001Y-120128696D02*
X225020912Y-120350648D01*
X225342217Y-119873887D02*
X225204001Y-120128696D01*
X225429552Y-119592231D02*
X225342217Y-119873887D01*
X225459999Y-119289735D02*
X225429552Y-119592231D01*
X225460000Y-109808112D02*
X225460000Y-119289735D01*
X225460000Y-100326490D02*
X225460000Y-109808112D01*
X225460000Y-90844867D02*
X225460000Y-100326490D01*
X225460000Y-81363245D02*
X225460000Y-90844867D01*
X225460000Y-71881623D02*
X225460000Y-81363245D01*
X225460000Y-62400000D02*
X225460000Y-71881623D01*
D15*
X145200000Y-80620000D03*
D16*
X135690000Y-83159999D03*
D17*
X134420000Y-85700000D03*
X144580000Y-85700000D03*
D18*
X139500000Y-85700000D03*
D16*
X142040000Y-80620000D03*
D19*
X132600000Y-83160000D03*
D20*
X135675000Y-83120000D03*
X143325000Y-83120000D03*
D16*
X136960000Y-80620000D03*
X143310000Y-83160000D03*
X143310000Y-83160000D03*
D21*
X146700000Y-80600000D03*
X131000000Y-83200000D03*
D10*
G36*
X114161845Y-129908781D02*
G01*
X111736973Y-131308781D01*
X110336973Y-128883909D01*
X112761845Y-127483909D01*
X114161845Y-129908781D01*
G37*
D16*
X105294705Y-122430443D03*
D17*
X102460000Y-122600591D03*
X107540000Y-131399409D03*
D18*
X105000000Y-127000000D03*
D16*
X110669409Y-126659705D03*
D10*
G36*
X105730442Y-120285162D02*
G01*
X103218968Y-121735162D01*
X101768968Y-119223688D01*
X104280442Y-117773688D01*
X105730442Y-120285162D01*
G37*
D20*
X105321846Y-122397453D03*
X109146846Y-129022547D03*
D16*
X108129409Y-122260295D03*
X109104705Y-129029557D03*
X109104705Y-129029557D03*
D10*
G36*
X111919006Y-130684069D02*
G01*
X113564454Y-129734069D01*
X114114454Y-130686697D01*
X112469006Y-131636697D01*
X111919006Y-130684069D01*
G37*
G36*
X101817340Y-118387470D02*
G01*
X103462788Y-117437470D01*
X104012788Y-118390098D01*
X102367340Y-119340098D01*
X101817340Y-118387470D01*
G37*
D15*
X173800000Y-118670000D03*
D16*
X164290000Y-121209999D03*
D17*
X163020000Y-123750000D03*
X173180000Y-123750000D03*
D18*
X168100000Y-123750000D03*
D16*
X170640000Y-118670000D03*
D19*
X161200000Y-121210000D03*
D20*
X164275000Y-121170000D03*
X171925000Y-121170000D03*
D16*
X165560000Y-118670000D03*
X171910000Y-121210000D03*
X171910000Y-121210000D03*
D21*
X175300000Y-118650000D03*
X159600000Y-121250000D03*
D15*
X154700000Y-118670000D03*
D16*
X145190000Y-121209999D03*
D17*
X143920000Y-123750000D03*
X154080000Y-123750000D03*
D18*
X149000000Y-123750000D03*
D16*
X151540000Y-118670000D03*
D19*
X142100000Y-121210000D03*
D20*
X145175000Y-121170000D03*
X152825000Y-121170000D03*
D16*
X146460000Y-118670000D03*
X152810000Y-121210000D03*
X152810000Y-121210000D03*
D21*
X156200000Y-118650000D03*
X140500000Y-121250000D03*
D15*
X135700000Y-120920000D03*
D16*
X126190000Y-123459999D03*
D17*
X124920000Y-126000000D03*
X135080000Y-126000000D03*
D18*
X130000000Y-126000000D03*
D16*
X132540000Y-120920000D03*
D19*
X123100000Y-123460000D03*
D20*
X126175000Y-123420000D03*
X133825000Y-123420000D03*
D16*
X127460000Y-120920000D03*
X133810000Y-123460000D03*
X133810000Y-123460000D03*
D21*
X137200000Y-120900000D03*
X121500000Y-123500000D03*
D15*
X107100000Y-92420000D03*
D16*
X97590000Y-94959999D03*
D17*
X96320000Y-97500000D03*
X106480000Y-97500000D03*
D18*
X101400000Y-97500000D03*
D16*
X103940000Y-92420000D03*
D19*
X94500000Y-94960000D03*
D20*
X97575000Y-94920000D03*
X105225000Y-94920000D03*
D16*
X98860000Y-92420000D03*
X105210000Y-94960000D03*
X105210000Y-94960000D03*
D21*
X108600000Y-92400000D03*
X92900000Y-95000000D03*
D15*
X221450000Y-105920000D03*
D16*
X211940000Y-108459999D03*
D17*
X210670000Y-111000000D03*
X220830000Y-111000000D03*
D18*
X215750000Y-111000000D03*
D16*
X218290000Y-105920000D03*
D19*
X208850000Y-108460000D03*
D20*
X211925000Y-108420000D03*
X219575000Y-108420000D03*
D16*
X213210000Y-105920000D03*
X219560000Y-108460000D03*
X219560000Y-108460000D03*
D21*
X222950000Y-105900000D03*
X207250000Y-108500000D03*
D15*
X202400000Y-104420000D03*
D16*
X192890000Y-106959999D03*
D17*
X191620000Y-109500000D03*
X201780000Y-109500000D03*
D18*
X196700000Y-109500000D03*
D16*
X199240000Y-104420000D03*
D19*
X189800000Y-106960000D03*
D20*
X192875000Y-106920000D03*
X200525000Y-106920000D03*
D16*
X194160000Y-104420000D03*
X200510000Y-106960000D03*
X200510000Y-106960000D03*
D21*
X203900000Y-104400000D03*
X188200000Y-107000000D03*
D15*
X183300000Y-99720000D03*
D16*
X173790000Y-102259999D03*
D17*
X172520000Y-104800000D03*
X182680000Y-104800000D03*
D18*
X177600000Y-104800000D03*
D16*
X180140000Y-99720000D03*
D19*
X170700000Y-102260000D03*
D20*
X173775000Y-102220000D03*
X181425000Y-102220000D03*
D16*
X175060000Y-99720000D03*
X181410000Y-102260000D03*
X181410000Y-102260000D03*
D21*
X184800000Y-99700000D03*
X169100000Y-102300000D03*
D15*
X164300000Y-98320000D03*
D16*
X154790000Y-100859999D03*
D17*
X153520000Y-103400000D03*
X163680000Y-103400000D03*
D18*
X158600000Y-103400000D03*
D16*
X161140000Y-98320000D03*
D19*
X151700000Y-100860000D03*
D20*
X154775000Y-100820000D03*
X162425000Y-100820000D03*
D16*
X156060000Y-98320000D03*
X162410000Y-100860000D03*
X162410000Y-100860000D03*
D21*
X165800000Y-98300000D03*
X150100000Y-100900000D03*
D15*
X145200000Y-99720000D03*
D16*
X135690000Y-102259999D03*
D17*
X134420000Y-104800000D03*
X144580000Y-104800000D03*
D18*
X139500000Y-104800000D03*
D16*
X142040000Y-99720000D03*
D19*
X132600000Y-102260000D03*
D20*
X135675000Y-102220000D03*
X143325000Y-102220000D03*
D16*
X136960000Y-99720000D03*
X143310000Y-102260000D03*
X143310000Y-102260000D03*
D21*
X146700000Y-99700000D03*
X131000000Y-102300000D03*
D15*
X126200000Y-102020000D03*
D16*
X116690000Y-104559999D03*
D17*
X115420000Y-107100000D03*
X125580000Y-107100000D03*
D18*
X120500000Y-107100000D03*
D16*
X123040000Y-102020000D03*
D19*
X113600000Y-104560000D03*
D20*
X116675000Y-104520000D03*
X124325000Y-104520000D03*
D16*
X117960000Y-102020000D03*
X124310000Y-104560000D03*
X124310000Y-104560000D03*
D21*
X127700000Y-102000000D03*
X112000000Y-104600000D03*
D15*
X221400000Y-86920000D03*
D16*
X211890000Y-89459999D03*
D17*
X210620000Y-92000000D03*
X220780000Y-92000000D03*
D18*
X215700000Y-92000000D03*
D16*
X218240000Y-86920000D03*
D19*
X208800000Y-89460000D03*
D20*
X211875000Y-89420000D03*
X219525000Y-89420000D03*
D16*
X213160000Y-86920000D03*
X219510000Y-89460000D03*
X219510000Y-89460000D03*
D21*
X222900000Y-86900000D03*
X207200000Y-89500000D03*
D15*
X202400000Y-85420000D03*
D16*
X192890000Y-87959999D03*
D17*
X191620000Y-90500000D03*
X201780000Y-90500000D03*
D18*
X196700000Y-90500000D03*
D16*
X199240000Y-85420000D03*
D19*
X189800000Y-87960000D03*
D20*
X192875000Y-87920000D03*
X200525000Y-87920000D03*
D16*
X194160000Y-85420000D03*
X200510000Y-87960000D03*
X200510000Y-87960000D03*
D21*
X203900000Y-85400000D03*
X188200000Y-88000000D03*
D15*
X183300000Y-80620000D03*
D16*
X173790000Y-83159999D03*
D17*
X172520000Y-85700000D03*
X182680000Y-85700000D03*
D18*
X177600000Y-85700000D03*
D16*
X180140000Y-80620000D03*
D19*
X170700000Y-83160000D03*
D20*
X173775000Y-83120000D03*
X181425000Y-83120000D03*
D16*
X175060000Y-80620000D03*
X181410000Y-83160000D03*
X181410000Y-83160000D03*
D21*
X184800000Y-80600000D03*
X169100000Y-83200000D03*
D15*
X164300000Y-79320000D03*
D16*
X154790000Y-81859999D03*
D17*
X153520000Y-84400000D03*
X163680000Y-84400000D03*
D18*
X158600000Y-84400000D03*
D16*
X161140000Y-79320000D03*
D19*
X151700000Y-81860000D03*
D20*
X154775000Y-81820000D03*
X162425000Y-81820000D03*
D16*
X156060000Y-79320000D03*
X162410000Y-81860000D03*
X162410000Y-81860000D03*
D21*
X165800000Y-79300000D03*
X150100000Y-81900000D03*
D15*
X126200000Y-83020000D03*
D16*
X116690000Y-85559999D03*
D17*
X115420000Y-88100000D03*
X125580000Y-88100000D03*
D18*
X120500000Y-88100000D03*
D16*
X123040000Y-83020000D03*
D19*
X113600000Y-85560000D03*
D20*
X116675000Y-85520000D03*
X124325000Y-85520000D03*
D16*
X117960000Y-83020000D03*
X124310000Y-85560000D03*
X124310000Y-85560000D03*
D21*
X127700000Y-83000000D03*
X112000000Y-85600000D03*
D15*
X221400000Y-67720000D03*
D16*
X211890000Y-70259999D03*
D17*
X210620000Y-72800000D03*
X220780000Y-72800000D03*
D18*
X215700000Y-72800000D03*
D16*
X218240000Y-67720000D03*
D19*
X208800000Y-70260000D03*
D20*
X211875000Y-70220000D03*
X219525000Y-70220000D03*
D16*
X213160000Y-67720000D03*
X219510000Y-70260000D03*
X219510000Y-70260000D03*
D21*
X222900000Y-67700000D03*
X207200000Y-70300000D03*
D15*
X202400000Y-66220000D03*
D16*
X192890000Y-68759999D03*
D17*
X191620000Y-71300000D03*
X201780000Y-71300000D03*
D18*
X196700000Y-71300000D03*
D16*
X199240000Y-66220000D03*
D19*
X189800000Y-68760000D03*
D20*
X192875000Y-68720000D03*
X200525000Y-68720000D03*
D16*
X194160000Y-66220000D03*
X200510000Y-68760000D03*
X200510000Y-68760000D03*
D21*
X203900000Y-66200000D03*
X188200000Y-68800000D03*
D15*
X183300000Y-61520000D03*
D16*
X173790000Y-64059999D03*
D17*
X172520000Y-66600000D03*
X182680000Y-66600000D03*
D18*
X177600000Y-66600000D03*
D16*
X180140000Y-61520000D03*
D19*
X170700000Y-64060000D03*
D20*
X173775000Y-64020000D03*
X181425000Y-64020000D03*
D16*
X175060000Y-61520000D03*
X181410000Y-64060000D03*
X181410000Y-64060000D03*
D21*
X184800000Y-61500000D03*
X169100000Y-64100000D03*
D15*
X164300000Y-60220000D03*
D16*
X154790000Y-62759999D03*
D17*
X153520000Y-65300000D03*
X163680000Y-65300000D03*
D18*
X158600000Y-65300000D03*
D16*
X161140000Y-60220000D03*
D19*
X151700000Y-62760000D03*
D20*
X154775000Y-62720000D03*
X162425000Y-62720000D03*
D16*
X156060000Y-60220000D03*
X162410000Y-62760000D03*
X162410000Y-62760000D03*
D21*
X165800000Y-60200000D03*
X150100000Y-62800000D03*
D15*
X145200000Y-61620000D03*
D16*
X135690000Y-64159999D03*
D17*
X134420000Y-66700000D03*
X144580000Y-66700000D03*
D18*
X139500000Y-66700000D03*
D16*
X142040000Y-61620000D03*
D19*
X132600000Y-64160000D03*
D20*
X135675000Y-64120000D03*
X143325000Y-64120000D03*
D16*
X136960000Y-61620000D03*
X143310000Y-64160000D03*
X143310000Y-64160000D03*
D21*
X146700000Y-61600000D03*
X131000000Y-64200000D03*
D15*
X126200000Y-64020000D03*
D16*
X116690000Y-66559999D03*
D17*
X115420000Y-69100000D03*
X125580000Y-69100000D03*
D18*
X120500000Y-69100000D03*
D16*
X123040000Y-64020000D03*
D19*
X113600000Y-66560000D03*
D20*
X116675000Y-66520000D03*
X124325000Y-66520000D03*
D16*
X117960000Y-64020000D03*
X124310000Y-66560000D03*
X124310000Y-66560000D03*
D21*
X127700000Y-64000000D03*
X112000000Y-66600000D03*
D15*
X221400000Y-48820000D03*
D16*
X211890000Y-51359999D03*
D17*
X210620000Y-53900000D03*
X220780000Y-53900000D03*
D18*
X215700000Y-53900000D03*
D16*
X218240000Y-48820000D03*
D19*
X208800000Y-51360000D03*
D20*
X211875000Y-51320000D03*
X219525000Y-51320000D03*
D16*
X213160000Y-48820000D03*
X219510000Y-51360000D03*
X219510000Y-51360000D03*
D21*
X222900000Y-48800000D03*
X207200000Y-51400000D03*
D15*
X202400000Y-47320000D03*
D16*
X192890000Y-49859999D03*
D17*
X191620000Y-52400000D03*
X201780000Y-52400000D03*
D18*
X196700000Y-52400000D03*
D16*
X199240000Y-47320000D03*
D19*
X189800000Y-49860000D03*
D20*
X192875000Y-49820000D03*
X200525000Y-49820000D03*
D16*
X194160000Y-47320000D03*
X200510000Y-49860000D03*
X200510000Y-49860000D03*
D21*
X203900000Y-47300000D03*
X188200000Y-49900000D03*
D15*
X183300000Y-42520000D03*
D16*
X173790000Y-45059999D03*
D17*
X172520000Y-47600000D03*
X182680000Y-47600000D03*
D18*
X177600000Y-47600000D03*
D16*
X180140000Y-42520000D03*
D19*
X170700000Y-45060000D03*
D20*
X173775000Y-45020000D03*
X181425000Y-45020000D03*
D16*
X175060000Y-42520000D03*
X181410000Y-45060000D03*
X181410000Y-45060000D03*
D21*
X184800000Y-42500000D03*
X169100000Y-45100000D03*
D15*
X164300000Y-41130000D03*
D16*
X154790000Y-43669999D03*
D17*
X153520000Y-46210000D03*
X163680000Y-46210000D03*
D18*
X158600000Y-46210000D03*
D16*
X161140000Y-41130000D03*
D19*
X151700000Y-43670000D03*
D20*
X154775000Y-43630000D03*
X162425000Y-43630000D03*
D16*
X156060000Y-41130000D03*
X162410000Y-43670000D03*
X162410000Y-43670000D03*
D21*
X165800000Y-41110000D03*
X150100000Y-43710000D03*
D15*
X145200000Y-42520000D03*
D16*
X135690000Y-45059999D03*
D17*
X134420000Y-47600000D03*
X144580000Y-47600000D03*
D18*
X139500000Y-47600000D03*
D16*
X142040000Y-42520000D03*
D19*
X132600000Y-45060000D03*
D20*
X135675000Y-45020000D03*
X143325000Y-45020000D03*
D16*
X136960000Y-42520000D03*
X143310000Y-45060000D03*
X143310000Y-45060000D03*
D21*
X146700000Y-42500000D03*
X131000000Y-45100000D03*
D15*
X126200000Y-44920000D03*
D16*
X116690000Y-47459999D03*
D17*
X115420000Y-50000000D03*
X125580000Y-50000000D03*
D18*
X120500000Y-50000000D03*
D16*
X123040000Y-44920000D03*
D19*
X113600000Y-47460000D03*
D20*
X116675000Y-47420000D03*
X124325000Y-47420000D03*
D16*
X117960000Y-44920000D03*
X124310000Y-47460000D03*
X124310000Y-47460000D03*
D21*
X127700000Y-44900000D03*
X112000000Y-47500000D03*
D22*
X86150000Y-47800000D03*
X86150000Y-40800000D03*
D23*
X84050000Y-49600000D03*
X88250000Y-51100000D03*
X84050000Y-42600000D03*
X84050000Y-45600000D03*
D22*
X87900000Y-40800000D03*
X87900000Y-47800000D03*
D23*
X90000000Y-42600000D03*
X90000000Y-45600000D03*
X90000000Y-49600000D03*
X85800000Y-51100000D03*
D24*
X112700000Y-76500000D03*
X112700000Y-78600000D03*
X112700000Y-80600000D03*
D25*
X107420000Y-41230000D03*
X107420000Y-43770000D03*
X107420000Y-46310000D03*
X107420000Y-48850000D03*
X107420000Y-51390000D03*
X107420000Y-53930000D03*
X107420000Y-56470000D03*
X107420000Y-59010000D03*
X107420000Y-61550000D03*
X107420000Y-64090000D03*
X107420000Y-66630000D03*
X107420000Y-69170000D03*
X92180000Y-69170000D03*
X92180000Y-66630000D03*
X92180000Y-64090000D03*
X92180000Y-61550000D03*
X92180000Y-59010000D03*
X92180000Y-56470000D03*
X92180000Y-53930000D03*
X92180000Y-51390000D03*
X92180000Y-48850000D03*
X92180000Y-46310000D03*
X92180000Y-43770000D03*
X92180000Y-41230000D03*
X108718815Y-52585745D03*
X108718815Y-57665745D03*
X93478815Y-42425745D03*
X108718815Y-44965745D03*
X108718815Y-67825745D03*
X93478815Y-70365745D03*
X108718815Y-60205745D03*
X108718815Y-62745745D03*
X93478815Y-60205745D03*
X93478815Y-65285745D03*
X93478815Y-52585745D03*
X93478815Y-50045745D03*
X93478815Y-44965745D03*
X93478815Y-55125745D03*
X108718815Y-70365745D03*
X93478815Y-62745745D03*
X108718815Y-42425745D03*
X108718815Y-47505745D03*
X93478815Y-67825745D03*
X108718815Y-50045745D03*
X108718815Y-55125745D03*
X93478815Y-57665745D03*
X108718815Y-65285745D03*
X93478815Y-47505745D03*
D26*
X129600000Y-59600000D03*
X205800000Y-61800000D03*
X129600000Y-97600000D03*
X205800000Y-100000000D03*
X105000000Y-114800000D03*
D27*
X84700000Y-60700000D03*
X86900000Y-60700000D03*
X86938035Y-58579272D03*
X86938035Y-53499272D03*
X84688035Y-53499272D03*
X84688035Y-58579272D03*
D28*
X104300000Y-68799620D03*
X104300000Y-69800380D03*
X101700000Y-69800380D03*
X101700000Y-68799620D03*
X99200000Y-68799620D03*
X99200000Y-69800380D03*
X96700000Y-69800380D03*
X96700000Y-68799620D03*
D29*
X85000000Y-70950000D03*
X85000000Y-64450000D03*
D30*
X112700000Y-58000000D03*
X116100000Y-58000000D03*
X132600000Y-55700000D03*
X136000000Y-55700000D03*
X150800000Y-54200000D03*
X154200000Y-54200000D03*
X169800000Y-55600000D03*
X173200000Y-55600000D03*
X192300000Y-60400000D03*
X188900000Y-60400000D03*
X220100000Y-61800000D03*
X223500000Y-61800000D03*
X116100000Y-61100000D03*
X112700000Y-61100000D03*
X137000000Y-58700000D03*
X133600000Y-58700000D03*
X154300000Y-57400000D03*
X150900000Y-57400000D03*
X169800000Y-58700000D03*
X173200000Y-58700000D03*
X192300000Y-63300000D03*
X188900000Y-63300000D03*
X223500000Y-64900000D03*
X220100000Y-64900000D03*
X112700000Y-96000000D03*
X116100000Y-96000000D03*
X136000000Y-93800000D03*
X132600000Y-93800000D03*
X154200000Y-92300000D03*
X150800000Y-92300000D03*
X169800000Y-93600000D03*
X173200000Y-93600000D03*
X188900000Y-98300000D03*
X192300000Y-98300000D03*
X223500000Y-99900000D03*
X220100000Y-99900000D03*
X116100000Y-99100000D03*
X112700000Y-99100000D03*
X133600000Y-96800000D03*
X137000000Y-96800000D03*
X154200000Y-95400000D03*
X150800000Y-95400000D03*
X169800000Y-96800000D03*
X173200000Y-96800000D03*
X192300000Y-101500000D03*
X188900000Y-101500000D03*
X220200000Y-103100000D03*
X223600000Y-103100000D03*
X103900000Y-89500000D03*
X107300000Y-89500000D03*
D10*
G36*
X109277276Y-120294615D02*
G01*
X110922724Y-119344615D01*
X112022724Y-121249871D01*
X110377276Y-122199871D01*
X109277276Y-120294615D01*
G37*
G36*
X107577276Y-117350129D02*
G01*
X109222724Y-116400129D01*
X110322724Y-118305385D01*
X108677276Y-119255385D01*
X107577276Y-117350129D01*
G37*
D30*
X122200000Y-118000000D03*
X125600000Y-118000000D03*
X144600000Y-115800000D03*
X141200000Y-115800000D03*
X160300000Y-115800000D03*
X163700000Y-115800000D03*
D18*
X86000000Y-85000000D03*
X108000000Y-85000000D03*
D27*
X96700000Y-74600000D03*
X99240000Y-74600000D03*
X101780000Y-74600000D03*
X104320000Y-74600000D03*
M02*
