M48
; DRILL file {KiCad (5.1.5)-3} date 05/16/20 22:18:48
; FORMAT={3:3/ absolute / metric / suppress leading zeros}
; #@! TF.CreationDate,2020-05-16T22:18:48+04:00
; #@! TF.GenerationSoftware,Kicad,Pcbnew,(5.1.5)-3
FMAT,2
METRIC,TZ
T1C0.300
T2C0.400
T3C0.813
T4C1.000
T5C1.300
T6C1.499
T7C2.400
T8C1.200
T9C1.500
T10C3.000
T11C3.988
T12C4.700
%
G90
G05
T1
X89000Y-57900
X90000Y-47700
X90275Y-58285
X90300Y-59100
X90500Y-62400
X95100Y-44200
X96050Y-67806
X96100Y-51390
X96700Y-67800
X96900Y-44966
X96900Y-48800
X100200Y-39400
X100250Y-43001
X100400Y-50046
X100400Y-68800
X101700Y-53930
X102450Y-81050
X102675Y-57666
X103000Y-68800
X103100Y-67900
X103175Y-60206
X103700Y-62746
X104300Y-64575
X105000Y-66000
X105328Y-67072
X105600Y-51400
X105600Y-65200
X105700Y-56700
X105700Y-44000
X105700Y-59000
X105700Y-61900
X105700Y-64000
X105700Y-41600
X105700Y-54200
X107400Y-76000
X108800Y-133700
X108900Y-97600
X109775Y-64100
X113000Y-76800
X113150Y-80000
X113450Y-77400
X113850Y-77950
X128060Y-50040
X128100Y-68600
X128100Y-87900
X128100Y-106900
X137550Y-123050
X147050Y-85550
X147100Y-47400
X147100Y-66300
X147100Y-104800
X166150Y-84350
X166200Y-46200
X166200Y-65300
X166200Y-103100
X166200Y-122400
X185200Y-47600
X185200Y-66500
X185200Y-85500
X185200Y-104800
X185200Y-123450
X203300Y-81150
X203650Y-80550
X204050Y-80000
X204250Y-109200
X204260Y-128340
X204300Y-52400
X204300Y-71200
X204300Y-90350
X207700Y-109650
X208500Y-109250
X209300Y-108800
X223260Y-92240
X223300Y-53600
X223300Y-72800
X223300Y-111000
T2
X112700Y-96000
X116100Y-96000
X188900Y-98300
X192300Y-98300
X188900Y-101500
X192300Y-101500
X220100Y-61800
X223500Y-61800
X133600Y-55700
X137000Y-55700
X220200Y-103100
X223600Y-103100
X220100Y-99900
X223500Y-99900
X131102Y-116390
X134450Y-115800
X188900Y-60400
X192300Y-60400
X150800Y-95400
X154200Y-95400
X150800Y-92300
X154200Y-92300
X95200Y-89550
X98600Y-89550
X133600Y-58700
X137000Y-58700
X112700Y-99100
X116100Y-99100
X201100Y-120400
X204500Y-120400
X150900Y-57400
X154300Y-57400
X112700Y-58000
X116100Y-58000
X133600Y-93800
X137000Y-93800
X169800Y-93600
X173200Y-93600
X150800Y-54200
X154200Y-54200
X169800Y-96800
X173200Y-96800
X169800Y-115900
X173200Y-115900
X169800Y-55600
X173200Y-55600
X112700Y-61100
X116100Y-61100
X220100Y-64900
X223500Y-64900
X108950Y-117828
X110650Y-120772
X133600Y-96800
X137000Y-96800
X150800Y-114300
X154200Y-114300
X188900Y-63300
X192300Y-63300
X169800Y-58700
X173200Y-58700
T3
X96700Y-74600
X99240Y-74600
X101780Y-74600
X104320Y-74600
X86938Y-53499
X86938Y-58579
X89000Y-68460
X89000Y-73540
X84688Y-53499
X84688Y-58579
X86900Y-60700
X92180Y-41230
X92180Y-43770
X92180Y-46310
X92180Y-48850
X92180Y-51390
X92180Y-53930
X92180Y-56470
X92180Y-59010
X92180Y-61550
X92180Y-64090
X92180Y-66630
X92180Y-69170
X93479Y-42426
X93479Y-44966
X93479Y-47506
X93479Y-50046
X93479Y-52586
X93479Y-55126
X93479Y-57666
X93479Y-60206
X93479Y-62746
X93479Y-65286
X93479Y-67826
X93479Y-70366
X107420Y-41230
X107420Y-43770
X107420Y-46310
X107420Y-48850
X107420Y-51390
X107420Y-53930
X107420Y-56470
X107420Y-59010
X107420Y-61550
X107420Y-64090
X107420Y-66630
X107420Y-69170
X108719Y-42426
X108719Y-44966
X108719Y-47506
X108719Y-50046
X108719Y-52586
X108719Y-55126
X108719Y-57666
X108719Y-60206
X108719Y-62746
X108719Y-65286
X108719Y-67826
X108719Y-70366
X84700Y-60700
T4
X214500Y-121500
X214500Y-136000
X217000Y-121500
X219500Y-121500
X219500Y-136000
X109100Y-76000
X109100Y-78600
X109100Y-81100
T5
X85000Y-64450
X85000Y-70950
T6
X154790Y-100860
X154790Y-105940
X161140Y-98320
X161140Y-108480
X173790Y-121310
X173790Y-126390
X180140Y-118770
X180140Y-128930
X173790Y-64060
X173790Y-69140
X180140Y-61520
X180140Y-71680
X154790Y-43670
X154790Y-48750
X161140Y-41130
X161140Y-51290
X116690Y-104560
X116690Y-109640
X123040Y-102020
X123040Y-112180
X116690Y-47460
X116690Y-52540
X123040Y-44920
X123040Y-55080
X116690Y-85560
X116690Y-90640
X123040Y-83020
X123040Y-93180
X154790Y-62760
X154790Y-67840
X161140Y-60220
X161140Y-70380
X173790Y-102260
X173790Y-107340
X180140Y-99720
X180140Y-109880
X211890Y-89460
X211890Y-94540
X218240Y-86920
X218240Y-97080
X116690Y-66560
X116690Y-71640
X123040Y-64020
X123040Y-74180
X192890Y-87960
X192890Y-93040
X199240Y-85420
X199240Y-95580
X173790Y-45060
X173790Y-50140
X180140Y-42520
X180140Y-52680
X100895Y-124970
X101871Y-131740
X105295Y-122430
X110669Y-126660
X154790Y-81860
X154790Y-86940
X161140Y-79320
X161140Y-89480
X135690Y-45060
X135690Y-50140
X142040Y-42520
X142040Y-52680
X211940Y-108460
X211940Y-113540
X218290Y-105920
X218290Y-116080
X135690Y-64160
X135690Y-69240
X142040Y-61620
X142040Y-71780
X135690Y-83160
X135690Y-88240
X142040Y-80620
X142040Y-90780
X192890Y-125860
X192890Y-130940
X199240Y-123320
X199240Y-133480
X192890Y-68760
X192890Y-73840
X199240Y-66220
X199240Y-76380
X135690Y-102260
X135690Y-107340
X142040Y-99720
X142040Y-109880
X192890Y-49860
X192890Y-54940
X199240Y-47320
X199240Y-57480
X211890Y-51360
X211890Y-56440
X218240Y-48820
X218240Y-58980
X154790Y-119760
X154790Y-124840
X161140Y-117220
X161140Y-127380
X97590Y-94960
X97590Y-100040
X103940Y-92420
X103940Y-102580
X125807Y-123010
X126689Y-128013
X131619Y-119406
X133384Y-129412
X173790Y-83160
X173790Y-88240
X180140Y-80620
X180140Y-90780
X192890Y-106960
X192890Y-112040
X199240Y-104420
X199240Y-114580
X211890Y-70260
X211890Y-75340
X218240Y-67720
X218240Y-77880
T7
X86000Y-85000
X108000Y-85000
T8
X86150Y-40800
X86150Y-47800
X87900Y-40800
X87900Y-47800
T10
X156060Y-98320
X156060Y-108480
X162410Y-100860
X162410Y-105940
X175060Y-118770
X175060Y-128930
X181410Y-121310
X181410Y-126390
X175060Y-61520
X175060Y-71680
X181410Y-64060
X181410Y-69140
X156060Y-41130
X156060Y-51290
X162410Y-43670
X162410Y-48750
X117960Y-102020
X117960Y-112180
X124310Y-104560
X124310Y-109640
X117960Y-44920
X117960Y-55080
X124310Y-47460
X124310Y-52540
X117960Y-83020
X117960Y-93180
X124310Y-85560
X124310Y-90640
X156060Y-60220
X156060Y-70380
X162410Y-62760
X162410Y-67840
X175060Y-99720
X175060Y-109880
X181410Y-102260
X181410Y-107340
X213160Y-86920
X213160Y-97080
X219510Y-89460
X219510Y-94540
X117960Y-64020
X117960Y-74180
X124310Y-66560
X124310Y-71640
X194160Y-85420
X194160Y-95580
X200510Y-87960
X200510Y-93040
X175060Y-42520
X175060Y-52680
X181410Y-45060
X181410Y-50140
X99331Y-127340
X104705Y-131570
X108129Y-122260
X109105Y-129030
X156060Y-79320
X156060Y-89480
X162410Y-81860
X162410Y-86940
X136960Y-42520
X136960Y-52680
X143310Y-45060
X143310Y-50140
X213210Y-105920
X213210Y-116080
X219560Y-108460
X219560Y-113540
X136960Y-61620
X136960Y-71780
X143310Y-64160
X143310Y-69240
X136960Y-80620
X136960Y-90780
X143310Y-83160
X143310Y-88240
X194160Y-123320
X194160Y-133480
X200510Y-125860
X200510Y-130940
X194160Y-66220
X194160Y-76380
X200510Y-68760
X200510Y-73840
X136960Y-99720
X136960Y-109880
X143310Y-102260
X143310Y-107340
X194160Y-47320
X194160Y-57480
X200510Y-49860
X200510Y-54940
X213160Y-48820
X213160Y-58980
X219510Y-51360
X219510Y-56440
X156060Y-117220
X156060Y-127380
X162410Y-119760
X162410Y-124840
X98860Y-92420
X98860Y-102580
X105210Y-94960
X105210Y-100040
X126616Y-120288
X128381Y-130294
X133311Y-121687
X134193Y-126690
X175060Y-80620
X175060Y-90780
X181410Y-83160
X181410Y-88240
X194160Y-104420
X194160Y-114580
X200510Y-106960
X200510Y-112040
X213160Y-67720
X213160Y-77880
X219510Y-70260
X219510Y-75340
T11
X196700Y-109500
X215700Y-72800
X158600Y-103400
X177600Y-123850
X177600Y-66600
X158600Y-46210
X120500Y-107100
X120500Y-50000
X120500Y-88100
X158600Y-65300
X177600Y-104800
X215700Y-92000
X120500Y-69100
X196700Y-90500
X177600Y-47600
X105000Y-127000
X158600Y-84400
X139500Y-47600
X215750Y-111000
X139500Y-66700
X139500Y-85700
X196700Y-128400
X196700Y-71300
X139500Y-104800
X196700Y-52400
X215700Y-53900
X158600Y-122300
X101400Y-97500
X130000Y-125000
X177600Y-85700
T12
X105000Y-114800
X205800Y-61800
X129600Y-97600
X205800Y-100000
X129600Y-59600
T1
G00X84050Y-41950
M15
G01X84050Y-43250
M16
G05
G00X84050Y-44950
M15
G01X84050Y-46250
M16
G05
G00X84050Y-48950
M15
G01X84050Y-50250
M16
G05
G00X85800Y-50450
M15
G01X85800Y-51750
M16
G05
G00X88250Y-50450
M15
G01X88250Y-51750
M16
G05
G00X90000Y-41950
M15
G01X90000Y-43250
M16
G05
G00X90000Y-44950
M15
G01X90000Y-46250
M16
G05
G00X90000Y-48950
M15
G01X90000Y-50250
M16
G05
T9
G00X211400Y-128350
M15
G01X211400Y-129650
M16
G05
G00X222600Y-128350
M15
G01X222600Y-129650
M16
G05
T0
M30
